<?xml version="1.0" encoding="UTF-8" standalone="no"?>
<svg
   xmlns:svg="http://www.w3.org/2000/svg"
   xmlns="http://www.w3.org/2000/svg"
   width="960.0"
   height="720.0"

>
    <g transform="scale(6.2824053540071505, -6.2824053540071505)   translate(34.22578443876448,-42.633229822119475)" stroke-width="0.7"  fill="none">
       <!-- hidden lines -->
       <g  stroke="rgb(160,160,160)" fill="none" stroke-dasharray="0.7,0.7" >

       </g>

       <!-- solid lines -->
       <g  stroke="rgb(37,42,48)" fill="none">
			<path d="M32.951176003293114,-44.66236297674662 L32.951176003293114,2.6944387170614945 " />
			<path d="M30.405591591021544,-46.13205682241653 L30.405591591021544,1.2247448713915858 " />
			<path d="M32.951176003293114,-44.662362976746614 L32.949472521122,-44.74150664750138 L32.9443661784464,-44.81849264244103 L32.9358692768931,-44.893135495560564 L32.92400228624217,-44.965255385688884 L32.90879379511352,-45.03467856969371 L32.89028044209437,-45.10123780104402 L32.868506827473745,-45.164772732721595 L32.8435254057964,-45.22513030351102 L32.81539635949526,-45.28216510673757 L32.784187453906696,-45.335739740564605 L32.74997387401783,-45.38572513900665 L32.71283804333938,-45.43200088286067 L32.67286942534017,-45.474455489806424 L32.63016430792178,-45.51298668297721 L32.58482557145261,-45.54750163735374 L32.53696244092003,-45.57791720338776 " />
			<path d="M32.951176003293114,2.6944387170614963 L32.949472521122,2.775549399596375 L32.9443661784464,2.8584316911726795 L32.9358692768931,2.9428859210903706 L32.92400228624217,3.0287086317122593 L32.90879379511352,3.1156930686112774 L32.89028044209437,3.203629678659997 L32.868506827473745,3.2923066148624742 L32.8435254057964,3.3815102467122147 L32.81539635949526,3.471025674846777 L32.784187453906696,3.5606372487591598 L32.74997387401783,3.650129086318761 L32.71283804333938,3.739285593850342 L32.67286942534017,3.82789198551807 L32.63016430792178,3.9157348007634125 L32.58482557145261,4.002602418550323 L32.53696244092002,4.088285567178848 L32.486690222797776,4.1725778284389845 L32.43413002726266,4.255276134890226 L32.37940847642944,4.336181259068816 L32.322657399307126,4.415098293444157 L32.2640135142113,4.491837119968123 L32.203618099397765,4.566212868086088 L32.14161665271082,4.638046360106291 L32.078158541066216,4.707164542854583 L32.01339664061318,4.7734009045746895 L31.94748696844238,4.8365958760696035 L31.880588306727073,4.896597215117769 L31.812861820202965,4.953260373237922 L31.744470667908235,5.006448843919045 L31.675579610119115,5.056034491476507 L31.606354611427964,5.101897859742153 L31.536962440920036,5.143928459844667 " />
			<path d="M31.536962440920018,5.143928459844675 L-26.44579361637689,38.62028827788145 " />
			<path d="M-27.445793616376882,38.719345923594865 L-27.395521398254637,38.745588827523726 L-27.34296120271952,38.76759584789325 L-27.2882396518863,38.78531396786378 L-27.231488574763983,38.79870050293238 L-27.17284468966816,38.807723203763544 L-27.11244927485463,38.81236033388068 L-27.050447828167684,38.81260072203118 L-26.98698971652308,38.80844378909892 L-26.92222781607004,38.799899549499436 L-26.85631814389924,38.786988587054324 L-26.78941948218393,38.769742005402975 L-26.721692995659826,38.7482013530712 L-26.653301843365092,38.72241852337722 L-26.584410785575972,38.692455629416074 L-26.51518578688482,38.658384854423744 L-26.44579361637689,38.62028827788144 " />
			<path d="M30.405591591021548,-46.13205682241652 L30.403888108850428,-46.21120049317129 L30.398781766174835,-46.28818648811094 L30.39028486462153,-46.36282934123047 L30.378417873970598,-46.43494923135879 L30.363209382841944,-46.50437241536362 L30.344696029822803,-46.57093164671393 L30.32292241520218,-46.6344665783915 L30.29794099352483,-46.69482414918093 L30.269811947223694,-46.75185895240748 L30.238603041635123,-46.805433586234514 L30.20438946174626,-46.85541898467656 L30.167253631067812,-46.90169472853058 L30.127285013068594,-46.94414933547633 L30.084579895650208,-46.982680528647116 L30.039241159181042,-47.01719548302365 L29.991378028648462,-47.04761104905767 " />
			<path d="M29.99137802864845,-47.04761104905767 L29.941105810526206,-47.07385395298653 L29.888545614991088,-47.095860973356054 L29.83382406415787,-47.113579093326585 L29.777072987035552,-47.12696562839518 L29.71842910193973,-47.13598832922635 L29.6580336871262,-47.14062545934349 L29.596032240439254,-47.140865847493984 L29.53257412879465,-47.13670891456172 L29.467812228341614,-47.12816467496224 L29.40190255617081,-47.11525371251713 L29.3350038944555,-47.09800713086578 L29.267277407931395,-47.07646647853401 L29.198886255636662,-47.05068364884003 L29.129995197847542,-47.02072075487888 L29.06077019915639,-46.98664997988655 L28.99137802864845,-46.94855340334425 " />
			<path d="M30.405591591021548,1.2247448713915892 L30.40388810885043,1.305855553926468 L30.398781766174835,1.3887378455027726 L30.39028486462153,1.4731920754204635 L30.378417873970598,1.5590147860423524 L30.363209382841944,1.6459992229413705 L30.344696029822806,1.7339358329900902 L30.32292241520218,1.8226127691925673 L30.29794099352483,1.9118164010423078 L30.269811947223694,2.0013318291768702 L30.238603041635123,2.090943403089253 L30.20438946174626,2.1804352406488543 L30.167253631067812,2.269591748180435 L30.127285013068594,2.358198139848163 L30.084579895650208,2.4460409550935056 L30.039241159181042,2.532908572880416 L29.99137802864845,2.618591721508941 L29.941105810526206,2.7028839827690776 L29.888545614991088,2.7855822892203195 L29.833824064157874,2.866487413398909 L29.777072987035552,2.9454044477742505 L29.71842910193973,3.022143274298216 L29.6580336871262,3.0965190224161807 L29.596032240439254,3.1683525144363833 L29.53257412879465,3.2374706971846767 L29.467812228341614,3.303707058904782 L29.40190255617081,3.366902030399696 L29.335003894455504,3.426903369447862 L29.267277407931395,3.4835665275680148 L29.198886255636666,3.5367549982491377 L29.129995197847546,3.5863406458066 L29.060770199156394,3.6322040140722462 L28.991378028648466,3.67423461417476 " />
			<path d="M28.99137802864845,3.674234614174768 L31.536962440920025,5.143928459844675 " />
			<path d="M28.991378028648448,3.674234614174768 L23.33452377915607,6.940220937885673 " />
			<path d="M23.33452377915607,-2.857738033247042 L23.33452377915607,6.940220937885671 " />
			<path d="M-23.334523779156083,33.88460810850064 L-28.99137802864846,37.15059443221155 " />
			<path d="M-30.405591591021548,36.33409785128381 L-30.403888108850428,36.413241522038575 L-30.398781766174835,36.49022751697822 L-30.39028486462153,36.56487037009776 L-30.378417873970598,36.63699026022608 L-30.363209382841944,36.706413444230904 L-30.344696029822806,36.772972675581215 L-30.32292241520218,36.83650760725879 L-30.29794099352483,36.896865178048216 L-30.269811947223694,36.953899981274766 L-30.238603041635123,37.0074746151018 L-30.20438946174626,37.057460013543846 L-30.167253631067812,37.103735757397864 L-30.127285013068594,37.14619036434362 L-30.084579895650208,37.1847215575144 L-30.039241159181042,37.219236511890934 L-29.991378028648455,37.24965207792496 " />
			<path d="M-29.99137802864845,37.24965207792496 L-29.941105810526206,37.27589498185382 L-29.888545614991088,37.29790200222334 L-29.83382406415787,37.31562012219387 L-29.777072987035552,37.32900665726247 L-29.718429101939734,37.338029358093635 L-29.6580336871262,37.342666488210774 L-29.596032240439254,37.34290687636127 L-29.53257412879465,37.33874994342901 L-29.46781222834161,37.33020570382953 L-29.40190255617081,37.317294741384416 L-29.335003894455504,37.300048159733066 L-29.267277407931395,37.278507507401294 L-29.198886255636666,37.25272467770731 L-29.129995197847542,37.222761783746165 L-29.06077019915639,37.188691008753835 L-28.99137802864846,37.150594432211534 " />
			<path d="M-30.405591591021544,-11.022703842524304 L-30.405591591021544,36.334097851283815 " />
			<path d="M-30.405591591021548,-11.022703842524304 L-30.403888108850428,-11.103814525059184 L-30.398781766174835,-11.186696816635488 L-30.39028486462153,-11.271151046553179 L-30.378417873970598,-11.356973757175068 L-30.363209382841944,-11.443958194074085 L-30.344696029822806,-11.531894804122805 L-30.32292241520218,-11.620571740325282 L-30.29794099352483,-11.709775372175024 L-30.269811947223694,-11.799290800309587 L-30.238603041635123,-11.888902374221969 L-30.20438946174626,-11.978394211781572 L-30.167253631067812,-12.06755071931315 L-30.127285013068594,-12.156157110980876 L-30.084579895650208,-12.24399992622622 L-30.039241159181042,-12.330867544013131 L-29.99137802864845,-12.416550692641655 L-29.941105810526206,-12.500842953901792 L-29.888545614991088,-12.583541260353034 L-29.83382406415787,-12.664446384531624 L-29.777072987035556,-12.743363418906965 L-29.718429101939734,-12.82010224543093 L-29.6580336871262,-12.894477993548893 L-29.596032240439254,-12.966311485569097 L-29.53257412879465,-13.03542966831739 L-29.467812228341614,-13.101666030037496 L-29.40190255617081,-13.16486100153241 L-29.335003894455504,-13.224862340580575 L-29.267277407931395,-13.281525498700729 L-29.198886255636666,-13.334713969381854 L-29.129995197847546,-13.384299616939316 L-29.060770199156394,-13.430162985204962 L-28.99137802864846,-13.472193585307478 " />
			<path d="M28.991378028648448,-46.948553403344256 L-28.99137802864846,-13.47219358530748 " />
			<path d="M-28.99137802864845,37.150594432211534 L-26.44579361637688,38.62028827788144 " />
			<path d="M-23.33452377915607,33.884608108500636 L-28.991378028648448,30.61862178478973 " />
			<path d="M-28.991378028648448,30.61862178478973 L17.677669529663696,3.674234614174761 " />
			<path d="M23.33452377915607,6.940220937885671 L17.67766952966369,3.674234614174766 " />
			<path d="M21.637467504308354,-3.8375339303603133 L23.33452377915607,-2.857738033247042 " />
			<path d="M17.67766952966369,3.674234614174767 L17.67766952966369,-31.026870075253594 " />
			<path d="M17.67766952966369,-31.026870075253594 L19.79898987322333,-29.802125203862005 " />
			<path d="M19.79898987322333,-29.802125203862005 L19.79898987322333,2.9393876913398174 " />
			<path d="M19.79898987322333,2.939387691339816 L21.637467504308354,4.00083324654586 " />
			<path d="M21.637467504308354,4.00083324654586 L21.637467504308354,-3.837533930360312 " />
			<path d="M21.637467504308354,-3.8375339303603133 L19.79898987322333,-2.776088375154269 " />
			<path d="M-28.991378028648448,-4.082482904638631 L-28.991378028648448,30.61862178478973 " />
			<path d="M17.677669529663692,-31.026870075253594 L17.676391918035353,-31.086227828319675 L17.672562161028658,-31.143967324524407 L17.66618948486368,-31.19994946436406 L17.657289241875482,-31.254039381960297 L17.64588287352899,-31.306106769963915 L17.631997858764635,-31.35602619347665 L17.615667647799164,-31.403677392234833 L17.596931581541153,-31.448945570326902 L17.5758347968153,-31.491721672746813 L17.552428117623872,-31.53190264811709 L17.526767932707227,-31.569391696948625 L17.498916059698388,-31.604098504839136 L17.468939596198975,-31.635939460048455 L17.436910758135188,-31.664837854926542 L17.402906705783312,-31.69072407070894 L17.367009357883877,-31.713535745234456 " />
			<path d="M17.36700935788387,-31.71353574523446 L17.329305194292186,-31.733217923181105 L17.289885047640848,-31.749723188458248 L17.248843884515935,-31.76301177843614 L17.206280576674196,-31.77305167973759 L17.16229766285233,-31.779818705360967 L17.11700110174218,-31.78329655294882 L17.07050001672697,-31.783476844061692 L17.022906432993516,-31.780359144362496 L16.97433500765374,-31.773950964662887 L16.924902753525636,-31.764267742829052 L16.874728757239158,-31.75133280659054 L16.823933892346076,-31.735177317341712 L16.772640528125027,-31.715840195071227 L16.720972234783186,-31.693368024600364 L16.669053485764824,-31.667814943356117 L16.61700935788387,-31.63924251094939 " />
			<path d="M16.617009357883866,-31.639242510949387 L-27.930717856868633,-5.91960021172601 " />
			<path d="M-28.99137802864845,-4.082482904638631 L-28.990100417020113,-4.14331591653979 L-28.986270660013417,-4.205477635222018 L-28.97989798384844,-4.268818307660286 L-28.97099774086024,-4.333185340626703 L-28.95959137251375,-4.398423668300967 L-28.945706357749394,-4.464376125837507 L-28.929376146783923,-4.530883827989365 L-28.910640080525912,-4.597786551876671 L-28.88954329580006,-4.6649231229775925 L-28.86613661660863,-4.73213180341188 L-28.840476431691986,-4.799250681581581 L-28.812624558683147,-4.8661180622302656 L-28.78264809518374,-4.932572855981061 L-28.750619257119947,-4.998454967415068 L-28.716615204768072,-5.063605680755251 L-28.68071785686863,-5.127868042226645 L-28.643013693276945,-5.191087238171747 L-28.603593546625607,-5.253110968010178 L-28.562552383500694,-5.3137898111441215 L-28.519989075658955,-5.372977586925627 L-28.47600616183709,-5.430531706818599 L-28.43070960072694,-5.486313517907074 L-28.38420851571173,-5.540188636922226 L-28.33661493197828,-5.592027273983446 L-28.288043506638502,-5.641704545273525 L-28.2386112525104,-5.689100773894711 L-28.188437256223917,-5.734101778180834 L-28.137642391330836,-5.77659914677095 L-28.086349027109787,-5.816490499781793 L-28.03468073376795,-5.853679735449889 L-27.982761984749587,-5.888077261649124 L-27.930717856868636,-5.919600211726012 " />
			<path d="M5.656854249492381,1.6329931618554534 L5.656854249492381,-24.494897427831784 " />
			<path d="M-16.970562748477143,14.69693845669907 L5.6568542494923815,1.6329931618554503 " />
			<path d="M19.798989873223334,-29.802125203862005 L19.797712261594995,-29.861482956928086 L19.793882504588296,-29.919222453132818 L19.78750982842332,-29.97520459297247 L19.77860958543512,-30.029294510568707 L19.767203217088632,-30.081361898572325 L19.753318202324277,-30.131281322085062 L19.736987991358806,-30.178932520843244 L19.718251925100795,-30.224200698935313 L19.697155140374942,-30.266976801355224 L19.673748461183514,-30.3071577767255 L19.64808827626687,-30.344646825557035 L19.62023640325803,-30.379353633447547 L19.590259939758617,-30.411194588656866 L19.55823110169483,-30.440092983534953 L19.524227049342954,-30.46597919931735 L19.48832970144352,-30.488790873842866 " />
			<path d="M5.515432893255071,1.5513435037626797 L5.515432893255071,-24.576547085924556 " />
			<path d="M5.515432893255071,-24.576547085924556 L5.656854249492381,-24.494897427831784 " />
			<path d="M5.515432893255071,1.5513435037626797 L5.656854249492381,1.632993161855452 " />
			<path d="M-17.111984104714452,14.615288798606297 L5.515432893255074,1.5513435037626753 " />
			<path d="M-17.111984104714452,14.615288798606297 L-16.970562748477143,14.696938456699069 " />
			<path d="M-17.111984104714452,-11.51260179108094 L-17.111984104714452,14.615288798606297 " />
			<path d="M5.515432893255071,-24.576547085924556 L-17.111984104714455,-11.512601791080934 " />
			<path d="M4.8083261120685235,-23.351802214532967 L-16.404877323527906,-11.104353500617071 " />
			<path d="M-16.404877323527902,-11.104353500617076 L-16.404877323527902,13.390543927214708 " />
			<path d="M-16.404877323527902,13.390543927214708 L4.808326112068528,1.1430952132988121 " />
			<path d="M4.8083261120685235,1.1430952132988166 L4.8083261120685235,-23.351802214532967 " />
			<path d="M-16.404877323527902,-11.104353500617076 L-16.263455967290593,-11.022703842524304 " />
			<path d="M4.808326112068523,-23.18850289834742 L-16.263455967290597,-11.0227038425243 " />
			<path d="M-16.263455967290593,-11.022703842524303 L-16.263455967290593,-7.756717518813399 " />
			<path d="M-16.263455967290593,-7.756717518813398 L-15.839191898578665,-7.51176854453508 " />
			<path d="M-15.839191898578665,8.328265125462805 L-15.839191898578665,-7.51176854453508 " />
			<path d="M-16.263455967290593,8.573214099741124 L-16.263455967290593,13.308894269121934 " />
			<path d="M-16.263455967290593,-7.756717518813398 L4.808326112068524,-19.922516574636518 " />
			<path d="M4.808326112068523,-3.5925849560819936 L-16.263455967290597,8.573214099741127 " />
			<path d="M-15.839191898578665,-7.51176854453508 L4.808326112068528,-19.432618626079886 " />
			<path d="M30.405591591021544,-46.13205682241653 L32.951176003293114,-44.66236297674662 " />
			<path d="M30.405591591021544,1.2247448713915894 L32.951176003293114,2.6944387170614967 " />
			<path d="M29.991378028648448,-47.04761104905768 L32.53696244092002,-45.57791720338777 " />
			<path d="M-29.991378028648448,37.249652077924964 L-27.445793616376875,38.71934592359487 " />
			<path d="M17.36700935788387,-31.71353574523446 L19.48832970144351,-30.48879087384287 " />

       </g>
    </g>
    
</svg>
