<?xml version="1.0" encoding="UTF-8" standalone="no"?>
<svg
   xmlns:svg="http://www.w3.org/2000/svg"
   xmlns="http://www.w3.org/2000/svg"
   width="960.0"
   height="720.0"

>
    <g transform="scale(8.372093023255815, -8.372093023255815)   translate(45.86666666666667,-27.866666666666667)" stroke-width="0.7"  fill="none">
       <!-- hidden lines -->
       <g  stroke="rgb(160,160,160)" fill="none" stroke-dasharray="0.7,0.7" >

       </g>

       <!-- solid lines -->
       <g  stroke="rgb(37,42,48)" fill="none">
			<path d="M-43.0,-35.0 L-43.0,23.0 " />
			<path d="M-43.0,-35.0 L-42.996053456856544,-35.12558103905862 L-42.984229402628955,-35.2506664671286 L-42.96457450145738,-35.37476262917145 L-42.93716632225726,-35.49737977432971 L-42.90211303259031,-35.61803398874989 L-42.8595529717765,-35.73624910536935 L-42.809654104932044,-35.85155858313014 L-42.75261336008773,-35.96350734820343 L-42.688655851004036,-36.07165358995799 L-42.6180339887499,-36.17557050458494 L-42.54102648555158,-36.27484797949737 L-42.45793725484283,-36.36909421185737 L-42.36909421185739,-36.45793725484282 L-42.27484797949739,-36.54102648555157 L-42.175570504584954,-36.618033988749886 L-42.071653589958004,-36.68865585100402 L-41.96350734820344,-36.75261336008772 L-41.851558583130156,-36.80965410493204 L-41.73624910536937,-36.859552971776495 L-41.61803398874991,-36.9021130325903 L-41.49737977432972,-36.937166322257255 L-41.374762629171464,-36.96457450145738 L-41.250666467128625,-36.984229402628955 L-41.125581039058645,-36.996053456856544 L-41.00000000000002,-37.0 " />
			<path d="M-43.0,23.0 L-42.996053456856544,23.125581039058627 L-42.984229402628955,23.25066646712861 L-42.96457450145738,23.37476262917145 L-42.93716632225726,23.49737977432971 L-42.90211303259031,23.618033988749897 L-42.8595529717765,23.736249105369357 L-42.80965410493204,23.851558583130146 L-42.75261336008773,23.963507348203432 L-42.68865585100403,24.071653589957993 L-42.61803398874989,24.175570504584947 L-42.541026485551576,24.27484797949738 L-42.45793725484282,24.36909421185738 L-42.36909421185737,24.457937254842825 L-42.27484797949738,24.54102648555158 L-42.17557050458495,24.618033988749897 L-42.07165358995799,24.688655851004032 L-41.96350734820343,24.75261336008773 L-41.85155858313014,24.80965410493204 L-41.73624910536935,24.859552971776505 L-41.61803398874989,24.902113032590307 L-41.49737977432971,24.937166322257262 L-41.37476262917144,24.964574501457378 L-41.2506664671286,24.984229402628955 L-41.12558103905862,24.996053456856544 L-40.99999999999999,25.0 " />
			<path d="M-41.0,-37.0 L41.0,-37.0 " />
			<path d="M-41.0,25.0 L41.0,25.0 " />
			<path d="M43.0,-35.0 L42.996053456856544,-35.12558103905862 L42.984229402628955,-35.2506664671286 L42.96457450145738,-35.37476262917145 L42.93716632225726,-35.49737977432971 L42.90211303259031,-35.61803398874989 L42.8595529717765,-35.73624910536935 L42.809654104932044,-35.85155858313014 L42.75261336008773,-35.96350734820343 L42.688655851004036,-36.07165358995799 L42.6180339887499,-36.17557050458494 L42.54102648555158,-36.27484797949737 L42.45793725484283,-36.36909421185737 L42.36909421185739,-36.45793725484282 L42.27484797949739,-36.54102648555157 L42.175570504584954,-36.618033988749886 L42.071653589958004,-36.68865585100402 L41.96350734820344,-36.75261336008772 L41.851558583130156,-36.80965410493204 L41.73624910536937,-36.859552971776495 L41.61803398874991,-36.9021130325903 L41.49737977432972,-36.937166322257255 L41.374762629171464,-36.96457450145738 L41.250666467128625,-36.984229402628955 L41.125581039058645,-36.996053456856544 L41.00000000000002,-37.0 " />
			<path d="M43.0,23.0 L42.996053456856544,23.125581039058627 L42.984229402628955,23.25066646712861 L42.96457450145738,23.37476262917145 L42.93716632225726,23.49737977432971 L42.90211303259031,23.618033988749897 L42.8595529717765,23.736249105369357 L42.80965410493204,23.851558583130146 L42.75261336008773,23.963507348203432 L42.68865585100403,24.071653589957993 L42.61803398874989,24.175570504584947 L42.541026485551576,24.27484797949738 L42.45793725484282,24.36909421185738 L42.36909421185737,24.457937254842825 L42.27484797949738,24.54102648555158 L42.17557050458495,24.618033988749897 L42.07165358995799,24.688655851004032 L41.96350734820343,24.75261336008773 L41.85155858313014,24.80965410493204 L41.73624910536935,24.859552971776505 L41.61803398874989,24.902113032590307 L41.49737977432971,24.937166322257262 L41.37476262917144,24.964574501457378 L41.2506664671286,24.984229402628955 L41.12558103905862,24.996053456856544 L40.99999999999999,25.0 " />
			<path d="M43.0,-35.0 L43.0,23.0 " />
			<path d="M-15.49296875,10.635156250000001 L-15.60117762083743,10.652357017275294 " />
			<path d="M-15.936250622602381,10.684468059944978 L-15.993009169329254,10.687773591657942 " />
			<path d="M-16.393732660944746,10.700010381748395 L-16.538281249999997,10.700781249999999 " />
			<path d="M-16.458593750000002,6.622656249999999 L-16.266585094489802,6.625401634851565 L-16.07569637119197,6.634071416727735 " />
			<path d="M-16.073235550949445,6.634225492516006 L-15.95794935160383,6.64274752175439 L-15.843323555058781,6.6539138602697525 L-15.72948235710819,6.667928018170468 L-15.616575326323046,6.685012148012838 L-15.504781231016135,6.705408132031788 L-15.394306453312634,6.7293791892167745 L-15.285402571689689,6.757206976911482 L-15.178365996607797,6.789190184220627 L-15.073536219600609,6.825643533809737 L-14.971297698121965,6.866894814377234 L-14.872131363366838,6.913254924133559 L-14.776587006891843,6.965006926149308 L-14.685263221282195,7.022392222674998 L-14.598791187971322,7.08559053170639 L-14.557575969675163,7.119402998868741 L-14.517815032897849,7.154695721065883 L-14.479587129971446,7.19146237333874 L-14.442968750000002,7.2296874999999945 " />
			<path d="M-14.816638724928424,10.418076073759869 L-14.875878792687237,10.447834681722247 " />
			<path d="M-15.027513469206625,10.512611695480668 L-15.034208782174913,10.51513312128194 " />
			<path d="M-15.233112664351669,10.578910835169005 L-15.258732416206731,10.585703366580685 " />
			<path d="M-15.447367323180737,10.627186098985916 L-15.492968749999998,10.635156250000001 " />
			<path d="M-14.281462120470918,7.427081265593975 L-14.225191842852341,7.508812670219652 L-14.173005015360141,7.593004788772301 " />
			<path d="M-14.132772264326121,7.6648865400383475 L-14.089158332337906,7.751657927718131 " />
			<path d="M-13.988372123766633,8.009031763334605 L-13.95431423816123,8.129406928963801 L-13.927259520833765,8.251980721099448 " />
			<path d="M-13.911028818783757,8.34822048212707 L-13.902764871858405,8.410308708959214 " />
			<path d="M-14.09375,9.650781250000001 L-14.130911990325927,9.723297089138311 " />
			<path d="M-14.198819669677532,9.840228869314751 L-14.207851362524142,9.854472865789498 " />
			<path d="M-14.373042534548249,10.073244178443293 L-14.422967734741384,10.12674556834891 L-14.475062767591396,10.177612194818224 " />
			<path d="M-14.511839402424762,10.210769647487075 L-14.576787856028938,10.264320933885909 L-14.644531249999998,10.314062499999997 " />
			<path d="M-13.885156250000001,8.713281250000001 L-13.886614995555936,8.798145841976277 " />
			<path d="M-13.916659901267513,9.097663569770264 L-13.921090030880775,9.122875891342659 " />
			<path d="M-14.019991237061076,9.480318541612414 L-14.0548769591925,9.566383150030727 L-14.09375,9.65078125 " />
			<path d="M-5.276562499999997,4.299999999999997 L-5.212886766230621,4.352104571027862 L-5.150922891364875,4.4062275548019665 L-5.090719824884843,4.462324087384196 L-5.032321319977302,4.520342454486872 L-4.975764063203404,4.580226040790347 L-4.921077901525204,4.641913660324652 L-4.868286129681981,4.705339836279457 L-4.817405777566544,4.770435080814028 " />
			<path d="M-4.812218267465549,4.777306102690196 L-4.7627521763585685,4.845162352012458 L-4.7152679765440695,4.914579389776727 L-4.66976201021204,4.985479331195249 L-4.626224386235154,5.05778425470245 L-4.584639583658735,5.131416636033423 L-4.544987059139019,5.206299776792525 L-4.507241854381414,5.282358233021978 L-4.471375155865977,5.359518296112621 L-4.437354186009671,5.437709421589544 L-4.405143149959221,5.516864122004834 L-4.345997380337123,5.677807338056542 L-4.293615114629598,5.841862563350593 L-4.2476562499999995,6.008593749999998 " />
			<path d="M-5.157031250000003,6.23828125 L-5.172724930310108,6.168971223135351 " />
			<path d="M-5.221556616320617,5.985787295234896 L-5.245818710022207,5.908163502654199 L-5.272075375435089,5.831605673314181 L-5.300388005990416,5.756206839159586 L-5.330815488838986,5.682065242058199 L-5.363413333404263,5.609283787687897 L-5.398232706799844,5.537969440207944 L-5.4353193761113765,5.468232557714536 L-5.474712557542925,5.4001861684805785 L-5.516443672427783,5.333945187979721 L-5.560533749543925,5.26962719346244 L-5.606990143382653,5.207352818607915 L-5.655809195064391,5.147238302144744 L-5.706975805473654,5.089393732560025 L-5.760462499660437,5.033922115629195 L-5.816228491774561,4.980918441203917 L-5.8742187500000025,4.9304687499999975 " />
			<path d="M-7.0111402237292815,3.7125835625827492 L-6.922310697489358,3.7155298794948166 L-6.833780746003315,3.720627410118306 " />
			<path d="M-6.653719786184373,3.738029865706463 L-6.504447909984584,3.76010385096731 L-6.356938054863125,3.789294361968541 L-6.211557975982021,3.825823355213163 L-6.139787418805361,3.8468952175040196 L-6.06869800327652,3.8698600869423783 " />
			<path d="M-5.874218750000004,4.930468749999996 L-5.93819969954444,4.8795040554510924 " />
			<path d="M-5.938362148550466,4.879380255585992 L-5.966073606585643,4.858661939533567 " />
			<path d="M-6.053531360146053,4.798267481841493 L-6.115162923799363,4.759972234686238 " />
			<path d="M-6.209311621384533,4.7077159869372975 L-6.304681382157159,4.661856757074515 " />
			<path d="M-6.463526196568649,4.5996508319163825 L-6.527771433578726,4.579070925855387 L-6.592851698328239,4.560703727407962 L-6.658704816604308,4.5445309134449605 L-6.725268832178155,4.530527800664572 " />
			<path d="M-7.013200151098936,4.494509658252954 L-7.090376511772509,4.490997827922962 L-7.1679687499999964,4.489843749999999 " />
			<path d="M-8.28920663435405,3.878514947301509 L-8.187353576107279,3.847945915088745 L-8.084096577390156,3.82081876653367 " />
			<path d="M-7.16796875,4.489843749999999 L-7.278690990400798,4.492388157510374 " />
			<path d="M-7.4333004573655925,4.504721075773015 L-7.5066510838280704,4.514296188526488 " />
			<path d="M-7.734154985572053,4.560109485795181 L-7.798590371901288,4.577722145370659 " />
			<path d="M-7.863687783417375,4.597691952691155 L-7.888184201303784,4.6057847412276445 " />
			<path d="M-8.014936797436855,4.652858901478077 L-8.11221050775496,4.695101648547669 L-8.207704430605569,4.741976585396258 " />
			<path d="M-8.264335532527628,4.772397626394699 L-8.335156249999995,4.813281250000001 " />
			<path d="M-9.959375000000001,5.474218749999999 L-9.926637234634006,5.3992391312870085 " />
			<path d="M-9.871727481740171,5.282907792352521 L-9.822189257411369,5.186691374450718 L-9.769687063032244,5.0924614083884485 " />
			<path d="M-9.769649834687351,5.0923971638096495 L-9.76694696985235,5.087742133699359 " />
			<path d="M-9.766909636397365,5.0876779636981215 L-9.716632793114071,5.0042862479111445 L-9.663864404229725,4.9227573022040625 L-9.608588583504472,4.843200686140304 L-9.550798692133476,4.765725738378972 " />
			<path d="M-9.550787558717113,4.76571133342283 L-9.549202053767068,4.763661902671217 " />
			<path d="M-9.27122676982165,4.456237361642882 L-9.216543359663023,4.405960454499703 L-9.160465574727136,4.357279951183648 " />
			<path d="M-9.034983922934408,4.257911991555671 L-8.968250675236648,4.209944291185313 L-8.900000000000002,4.164062500000002 " />
			<path d="M-8.335156250000004,4.813281249999996 L-8.404564561943959,4.85707448556266 " />
			<path d="M-8.669879999711952,5.072351696100561 L-8.670700960532269,5.0731616974444735 " />
			<path d="M-8.815475675217158,5.234448879442048 L-8.840003507120777,5.265957362813024 " />
			<path d="M-9.0582336354552,5.625694458768369 L-9.095380196191229,5.707248561752817 L-9.129687500000001,5.790624999999996 " />
			<path d="M-10.322656250000001,7.31640625 L-10.321812120584895,7.221799691637073 " />
			<path d="M-10.072142693169418,5.768806404027377 L-10.053401319395897,5.715284530272806 " />
			<path d="M-10.024548927026997,5.636835731017694 L-9.959375000000003,5.474218750000002 " />
			<path d="M-9.129687500000003,5.790624999999999 L-9.161366654063183,5.875308472155276 L-9.190738375516265,5.96117228168617 L-9.21783898370341,6.048142946273789 L-9.24270861037732,6.136148903780103 " />
			<path d="M-9.29407550774769,6.3536917055232385 L-9.300871656440991,6.387579318034568 " />
			<path d="M-9.339760385147361,6.621645987784884 L-9.35683916676154,6.762102636839816 L-9.369737881857331,6.9038431439426 " />
			<path d="M-9.382061892083259,7.130848103412246 L-9.385156250000001,7.321093749999999 " />
			<path d="M-9.912500000000001,9.189062499999999 L-9.949097847625623,9.115511311611844 L-9.983895392512885,9.041016631427375 " />
			<path d="M-10.089628073690482,8.778825676215208 L-10.107561112946431,8.727302689781496 " />
			<path d="M-10.216970238556959,8.335532645559566 L-10.240351652341424,8.223089757649706 L-10.26063813149606,8.1097598961675 " />
			<path d="M-10.272512298981152,8.033538144143948 L-10.285783559119263,7.935455713483655 " />
			<path d="M-10.308213672302116,7.709610616123844 L-10.308350969833452,7.707782952513884 " />
			<path d="M-10.319614831180715,7.499244489121562 L-10.322054255804126,7.398252403700636 " />
			<path d="M-9.375725835823317,7.603636930709523 L-9.372882977878984,7.643142997583937 " />
			<path d="M-9.365132422377641,7.731644406963334 L-9.348169034409619,7.877268425966771 L-9.32601348575783,8.02210050588435 " />
			<path d="M-9.321147563199276,8.049909499437359 L-9.301794955123045,8.150914178473332 L-9.279897106803139,8.251416126399622 " />
			<path d="M-8.816539669422605,10.362793887206053 L-8.91393346422061,10.303209066045866 L-9.008693103533089,10.239870977002376 " />
			<path d="M-9.165079456978049,10.12224588733692 L-9.225673322057803,10.071737016755414 L-9.284770239302738,10.019507906592368 " />
			<path d="M-9.576478836100401,9.709427305917014 L-9.595266427790074,9.685852670762648 " />
			<path d="M-9.738528420223046,9.487385375296974 L-9.764916760674794,9.44672088892301 " />
			<path d="M-9.872157692207294,9.265209370214919 L-9.9125,9.189062500000002 " />
			<path d="M-9.169531249999999,8.640625 L-9.137633243133024,8.729346793563849 L-9.102279151105234,8.816248760165937 L-9.063425054804746,8.901178379085659 L-9.021042586986683,8.983987044957782 " />
			<path d="M-8.907429829303217,9.16957287224736 L-8.865793061271443,9.227618780092088 L-8.822091194591403,9.284064747144342 L-8.776357219231143,9.338859939357318 L-8.728628268282097,9.391962047607212 L-8.67894999942856,9.44333184740358 L-8.627373463998405,9.492936839949301 L-8.573954558617265,9.54075124812984 L-8.518753714548522,9.586755713636594 " />
			<path d="M-8.487512286615415,9.611393530616587 L-8.421875000000004,9.660156249999998 " />
			<path d="M-7.078906250000003,10.817968749999999 L-7.167640776715141,10.816973101398986 " />
			<path d="M-7.660388767085857,10.773128631705884 L-7.696734502024093,10.767162670936298 " />
			<path d="M-8.609923988178373,10.47340177261753 L-8.745312499999994,10.403125000000005 " />
			<path d="M-8.421875,9.66015625 L-8.353944453894522,9.70640039475834 L-8.284005583360603,9.749614059627278 L-8.212154288644687,9.789754782712215 L-8.138491962619314,9.826797379582969 " />
			<path d="M-8.092463656414933,9.84797877152091 L-8.091287678351652,9.84850099331916 " />
			<path d="M-7.954447072119523,9.903219960660376 L-7.848172850965251,9.938079164746622 " />
			<path d="M-7.734461144753704,9.968766076692162 L-7.701009353730799,9.976586426319733 " />
			<path d="M-7.411764689311543,10.023861599373507 L-7.3234741791462,10.031747046591287 " />
			<path d="M-7.149693992762292,10.039429684960725 L-7.0976562500000036,10.039843750000003 " />
			<path d="M-5.4788802751225205,10.386551537681228 L-5.541309920464578,10.425730480071637 L-5.6048879325137415,10.463035059880978 L-5.669568314824905,10.498442962491142 L-5.735302951117662,10.53193753745886 L-5.802042420163094,10.56350795381339 L-5.869736130684176,10.593148914938215 L-5.938332456256184,10.620860373452768 L-6.0077788702071,10.64664724609414 " />
			<path d="M-7.09765625,10.039843750000003 L-7.056768882822002,10.039539465068147 " />
			<path d="M-6.437649160498294,9.945181633813592 L-6.360161518794492,9.918521081269146 " />
			<path d="M-6.237069008932172,9.867222923319405 L-6.162844926567213,9.830353145163498 L-6.0908246295472495,9.78977471494432 L-6.021138800107303,9.745522537572818 L-5.9539062499999975,9.697656250000003 " />
			<path d="M-4.364843749999999,8.81640625 L-4.390760841235656,8.901695659978817 " />
			<path d="M-4.407132134779427,8.95197495871819 L-4.4071502334674015,8.952029154730248 " />
			<path d="M-4.477781373185446,9.14404469779683 L-4.529571182779735,9.265055463796083 L-4.586317415485838,9.383291043176873 " />
			<path d="M-4.647163083095997,9.496790328185774 L-4.657660936010989,9.515183097088473 " />
			<path d="M-4.961095632940171,9.939633478855052 L-5.022441243869181,10.006781816439016 " />
			<path d="M-5.2637221059623425,10.230081297599963 L-5.34453125,10.292968749999996 " />
			<path d="M-5.953906250000003,9.697656250000001 L-5.909828644964164,9.663113403261779 L-5.866974550405011,9.626773270216166 L-5.825363060833246,9.588692563035767 L-5.785007389880245,9.548931188808952 L-5.708089912100507,9.464618416850993 L-5.6362285086520165,9.374355678411913 " />
			<path d="M-5.603735653495158,9.329386914598663 L-5.550896353249428,9.249999284925138 L-5.501261176242494,9.167482566894192 " />
			<path d="M-5.428491841284233,9.030044448321469 L-5.428007424084979,9.029055122227458 " />
			<path d="M-5.37348616286408,8.910429591785935 L-5.331632917952026,8.80828057968891 L-5.293020987024294,8.703745825307747 " />
			<path d="M-5.275630112894855,8.652910517012133 L-5.260156250000002,8.605468750000002 " />
			<path d="M7.78515625,6.735156250000003 L7.78340103439011,6.572630354124076 L7.777864114115835,6.411188477415075 " />
			<path d="M7.766817117403693,6.234719368027161 L7.756147294969533,6.117448978759269 L7.742564201087682,6.001312699202078 " />
			<path d="M7.685102073551303,5.6788058259325025 L7.670078664182986,5.617563695996291 " />
			<path d="M7.636486660642908,5.500027832878772 L7.612073721614149,5.427393485695823 L7.585050652957922,5.356546355862849 L7.555237518479681,5.2877526372094765 L7.5224570199567244,5.221322202980332 L7.486540783850117,5.157606109821589 L7.4473366418125275,5.096989890049522 L7.404717778973195,5.0398850465058675 L7.35859375,4.986718750000004 " />
			<path d="M7.358593750000004,4.986718750000001 L7.2998966832628085,4.928790959329912 " />
			<path d="M6.849637114160302,4.6665740561567075 L6.739331652549505,4.63097634441911 L6.62567131076854,4.601651101130523 " />
			<path d="M5.982947412702227,4.532366355795309 L5.928906250000001,4.532031250000003 " />
			<path d="M8.460156249999997,5.085156249999997 L8.47479940665639,5.124272261192084 " />
			<path d="M8.536633334838585,5.3172667119816905 L8.54383992318968,5.34341176435241 " />
			<path d="M8.617542263635432,5.683119883279603 L8.619270402261666,5.693377609782311 " />
			<path d="M8.651632037882543,5.922139517108012 L8.652076835462934,5.925937278046069 " />
			<path d="M8.673354642032635,6.146228151569759 L8.682927271161763,6.290576868571648 L8.689503761424415,6.436171288002771 L8.693305170001326,6.582846863259385 L8.694531249999997,6.7304687499999964 " />
			<path d="M5.928906249999997,4.532031250000003 L5.816722898907954,4.534200625454887 " />
			<path d="M5.484838824426934,4.5695353857554 L5.468213564615131,4.572612451769951 " />
			<path d="M5.324854985354326,4.605233190616095 L5.2626550844940745,4.6230710872290635 " />
			<path d="M5.0216207423718595,4.717482188911477 L4.937500000000002,4.761718749999999 " />
			<path d="M7.614062500000003,4.09375 L7.674201609072425,4.13246216597636 " />
			<path d="M7.834136692007688,4.24810858488888 L7.886275838635366,4.290490918541358 L7.936923543405508,4.334268289241491 L7.986018371023891,4.37943987135829 L8.03350077379697,4.4260009871295 L8.079313441396678,4.473942814985133 L8.123401660508357,4.523252089111828 L8.165713684361771,4.573910790258073 L8.20620111214527,4.625895827780245 L8.244819278303037,4.679178712929509 L8.28152765171547,4.733725223379547 L8.316290253985779,4.789495075479901 L8.349079087429857,4.846447186482622 L8.379873192528114,4.904538676579818 L8.408656334980314,4.963721436002732 L8.435418571537102,5.023944940232472 L8.460156250000004,5.085156250000001 " />
			<path d="M4.9375,4.76171875 L4.889281517796902,4.790242605459064 L4.842534480631833,4.820381460251519 L4.797320601090461,4.85214050341223 L4.753698461128012,4.88552010808435 " />
			<path d="M4.674610204083098,4.9541243912237976 L4.617490429801814,5.011570528564705 L4.564396702440843,5.0724889953967125 " />
			<path d="M4.520068179543584,5.130308203682067 L4.519515668078178,5.131075648669513 " />
			<path d="M4.458898187416049,5.223832683326233 L4.452782420212421,5.234277505048104 " />
			<path d="M6.008593750000003,3.711718750000003 L6.116263592548187,3.712863877813562 L6.223402505572822,3.7163769837558696 L6.3299341229967325,3.7223788761591257 L6.4357692241031295,3.730995558131588 " />
			<path d="M6.695680544295732,3.7646865574236617 L6.735540954252688,3.771592479197261 " />
			<path d="M7.369178016660756,3.962984956907333 L7.453901518879303,4.003572240027785 " />
			<path d="M7.543047279605545,4.051418046247938 L7.614062499999993,4.093749999999998 " />
			<path d="M4.365625000000001,5.415624999999999 L4.350200140822459,5.456965286963326 " />
			<path d="M4.286969797902265,5.683271118275021 L4.282577456718816,5.703797383708396 " />
			<path d="M4.220428073074499,6.155931457701953 L4.220260938535965,6.157982079532763 " />
			<path d="M4.201999977002521,6.511536701117225 L4.201575872121204,6.528715774752758 " />
			<path d="M4.199434412913104,6.671304633270724 L4.199306632810361,6.694255402424999 " />
			<path d="M4.428906249999997,4.044531249999999 L4.502137313380146,4.006641003956913 " />
			<path d="M4.66164496529018,3.9353868271864627 L4.728211233238882,3.9096935808887014 " />
			<path d="M4.980694356581406,3.830400063250962 L5.065451684187605,3.8094128484133485 " />
			<path d="M5.390569564930948,3.7504652292983534 L5.472781003425275,3.7403059465281974 " />
			<path d="M5.861999364994997,3.7136912433046576 L5.926767881558301,3.712325598816699 " />
			<path d="M3.5523437499999986,5.0078125 L3.5997079172744018,4.9023713494145715 " />
			<path d="M3.6370845905951485,4.82894477127929 L3.6633338246438867,4.781513644076649 " />
			<path d="M3.667966950590533,4.773455522757798 L3.670294421930242,4.769441098955597 " />
			<path d="M3.69087835710107,4.734874906817364 L3.7416961017437496,4.6560089942564575 " />
			<path d="M3.8540157894679528,4.507508849940597 L3.8666840125256674,4.492571407705065 " />
			<path d="M4.122244434409943,4.2465040859838945 L4.1393494228258865,4.233032799579243 " />
			<path d="M4.350945635254773,4.088826916837524 L4.4289062499999945,4.04453125 " />
			<path d="M3.289843750000003,6.73046875 L3.2900023055521737,6.677063098674232 " />
			<path d="M3.2968217279767456,6.386596992906955 L3.307337866062899,6.19733130650158 L3.3232301833431013,6.0101749994829055 L3.3450831942531836,5.825586018415533 L3.3735621157705893,5.644127450473766 " />
			<path d="M3.458401286402955,5.276552114847609 L3.4627112082647242,5.261895870754105 " />
			<path d="M3.5366305945666343,5.046560941753458 L3.5523437499999972,5.0078125000000036 " />
			<path d="M13.846093750000001,10.635156250000001 L13.737884879162557,10.652357017275294 " />
			<path d="M13.402811877397621,10.684468059944976 L13.346053330670747,10.687773591657942 " />
			<path d="M12.945329839055267,10.700010381748397 L12.800781250000002,10.700781249999999 " />
			<path d="M12.880468749999999,6.622656249999999 L13.07247740551021,6.625401634851568 L13.263366128808052,6.634071416727737 " />
			<path d="M13.265827247222573,6.6342255112534305 L13.38111342647166,6.64274754548496 L13.495739202853951,6.653913888609971 L13.609580380595427,6.667928050682416 L13.72248739111841,6.685012184190388 L13.834281466161604,6.705408171296269 L13.944756223621976,6.729379230898454 L14.053660085067625,6.757207020234444 L14.160696640113196,6.7891902282895575 L14.265526397336396,6.825643577600154 L14.367764899384555,6.866894856707988 L14.466931215197716,6.913254963646404 L14.562475553435231,6.965006961320417 L14.65379932177079,7.022392251827581 L14.740271339062328,7.085590553036465 L14.781486549915916,7.119403015582507 L14.821247479681105,7.15469573268519 L14.859475376064616,7.1914623793850705 L14.896093749999995,7.229687499999994 " />
			<path d="M14.522423775071585,10.418076073759865 L14.463183707312773,10.447834681722242 " />
			<path d="M14.311548814047999,10.512611777537133 L14.304853812575656,10.515133085787172 " />
			<path d="M14.105949835648328,10.578910835169003 L14.080330083793267,10.585703366580683 " />
			<path d="M13.891695176819267,10.627186098985915 L13.846093750000005,10.63515625 " />
			<path d="M15.057600379529084,7.4270812655939755 L15.113870657147661,7.508812670219653 L15.166057484639861,7.593004788772304 " />
			<path d="M15.206290111370754,7.664886306922765 L15.249904217756463,7.751658033682714 " />
			<path d="M15.35069037623337,8.009031763334615 L15.384748261838773,8.129406928963805 L15.411802979166236,8.251980721099446 " />
			<path d="M15.42803367172584,8.348220417465397 L15.436297630981946,8.410308732708414 " />
			<path d="M15.245312499999997,9.650781250000001 L15.208150509674073,9.72329708913831 " />
			<path d="M15.140242830322466,9.840228869314753 L15.131211137475864,9.854472865789493 " />
			<path d="M14.96601996545175,10.073244178443291 L14.916094765258617,10.12674556834891 L14.863999732408605,10.177612194818224 " />
			<path d="M14.82722309757524,10.210769647487073 L14.762274643971061,10.26432093388591 L14.694531249999999,10.314062499999999 " />
			<path d="M15.453906250000003,8.713281250000001 L15.452447504444066,8.798145841976279 " />
			<path d="M15.42240259873249,9.097663569770262 L15.417972469119228,9.122875891342659 " />
			<path d="M15.319071331626986,9.480318360131022 L15.284185579337448,9.566383060987812 L15.245312499999999,9.65078125 " />
			<path d="M36.2,-30.2 L36.2,2.1999999999999993 " />
			<path d="M36.2,2.1999999999999993 L3.8000000000000043,2.1999999999999993 " />
			<path d="M3.8000000000000007,2.1999999999999993 L3.8000000000000007,-30.2 " />
			<path d="M3.8000000000000007,-30.2 L36.2,-30.2 " />
			<path d="M-36.09375,18.358532185916214 L-36.09375000000001,7.641467814083786 " />
			<path d="M-36.09375,7.641467814083787 L-26.812499999999996,13.0 " />
			<path d="M-26.8125,13.0 L-36.09375,18.358532185916214 " />
			<path d="M-18.22109375,3.8289062499999997 L-19.130468750000002,3.8289062499999997 " />
			<path d="M-19.13046875,3.8289062499999997 L-19.13046875,10.70078125 " />
			<path d="M-18.22109375,6.62265625 L-18.22109375,3.82890625 " />
			<path d="M-19.13046875,10.70078125 L-16.538281249999997,10.70078125 " />
			<path d="M-16.45859375,6.62265625 L-18.221093749999998,6.62265625 " />
			<path d="M-16.53828125,10.70078125 L-16.3722412109375,10.699755859375001 L-16.21630859375,10.6966796875 L-16.0704833984375,10.691552734375 L-15.934765625,10.684375 L-15.809155273437499,10.675146484375 L-15.69365234375,10.6638671875 L-15.5882568359375,10.650537109375 L-15.492968750000001,10.63515625 " />
			<path d="M-14.44296875,7.2296875 L-14.4787109375,7.192340850830078 L-14.5162109375,7.156179809570312 L-14.55546875,7.121204376220703 L-14.596484375,7.08741455078125 L-14.6837890625,7.0233917236328125 L-14.778125,6.964111328125 L-14.8794921875,6.909573364257812 L-14.987890625,6.85977783203125 L-15.1033203125,6.814724731445312 L-15.225781249999999,6.7744140625 L-15.3552734375,6.7388458251953125 L-15.491796874999999,6.708020019531251 L-15.635351562499999,6.681936645507813 L-15.7859375,6.660595703125001 L-15.943554687499999,6.6439971923828125 L-16.108203125,6.63214111328125 L-16.2798828125,6.625027465820313 L-16.45859374999999,6.62265625 " />
			<path d="M-15.49296875,10.63515625 L-15.368969726562499,10.61168212890625 L-15.250097656249999,10.583447265625 L-15.1363525390625,10.55045166015625 L-15.027734375,10.5126953125 L-14.9242431640625,10.47017822265625 L-14.82587890625,10.422900390625 L-14.7326416015625,10.37086181640625 L-14.644531250000002,10.314062500000002 " />
			<path d="M-13.88515625,8.71328125 L-13.887335205078125,8.604763793945311 L-13.893872070312499,8.49835205078125 L-13.904766845703124,8.394046020507812 L-13.92001953125,8.291845703125 L-13.939630126953125,8.191751098632812 L-13.9635986328125,8.093762207031249 L-13.991925048828124,7.9978790283203125 L-14.024609375,7.904101562499999 L-14.061651611328125,7.812429809570312 L-14.1030517578125,7.72286376953125 L-14.148809814453125,7.635403442382812 L-14.19892578125,7.550048828125 L-14.253399658203126,7.466799926757812 L-14.3122314453125,7.38565673828125 L-14.375421142578125,7.306619262695312 L-14.442968749999999,7.2296875000000025 " />
			<path d="M-14.64453125,10.3140625 L-14.56107177734375,10.25191650390625 L-14.481787109374999,10.183837890625 L-14.40667724609375,10.10982666015625 L-14.3357421875,10.0298828125 L-14.26898193359375,9.94400634765625 L-14.206396484374999,9.852197265625 L-14.14798583984375,9.75445556640625 L-14.09375,9.650781250000001 " />
			<path d="M-14.09375,9.65078125 L-14.04486083984375,9.542822265625 L-14.002490234375,9.4322265625 L-13.96663818359375,9.318994140625 L-13.9373046875,9.203125 L-13.91448974609375,9.084619140625 L-13.898193359375,8.9634765625 L-13.88841552734375,8.839697265625 L-13.88515625,8.713281250000001 " />
			<path d="M-11.66328125,3.8289062499999997 L-12.572656250000001,3.8289062499999997 " />
			<path d="M-12.572656250000001,3.8289062499999997 L-12.572656250000001,10.70078125 " />
			<path d="M-11.66328125,10.70078125 L-11.66328125,3.82890625 " />
			<path d="M-12.572656250000001,10.70078125 L-11.66328125,10.70078125 " />
			<path d="M-5.15703125,6.23828125 L-4.2476562499999995,6.008593749999999 " />
			<path d="M-4.2476562499999995,6.008593749999999 L-4.285183715820312,5.870632934570311 L-4.326281738281249,5.736828613281249 L-4.370950317382812,5.607180786132812 L-4.419189453125,5.481689453124999 L-4.470999145507812,5.360354614257812 L-4.52637939453125,5.24317626953125 L-4.585330200195312,5.130154418945311 L-4.6478515625,5.021289062499999 L-4.7139434814453125,4.9165802001953125 L-4.7836059570312495,4.816027832031249 L-4.856838989257812,4.719631958007812 L-4.933642578124999,4.627392578125 L-5.014016723632812,4.539309692382812 L-5.09796142578125,4.45538330078125 L-5.185476684570312,4.375613403320312 L-5.276562499999997,4.3000000000000025 " />
			<path d="M-5.87421875,4.930468749999999 L-5.809344482421875,4.987213134765624 L-5.7471435546875,5.047290039062499 L-5.687615966796875,5.110699462890625 L-5.63076171875,5.17744140625 L-5.576580810546875,5.247515869140624 L-5.5250732421875,5.3209228515625 L-5.476239013671875,5.397662353515625 L-5.430078125,5.477734375 L-5.386590576171875,5.561138916015625 L-5.3457763671875,5.6478759765625 L-5.307635498046875,5.737945556640625 L-5.27216796875,5.83134765625 L-5.2393737792968755,5.928082275390625 L-5.2092529296875005,6.0281494140625 L-5.181805419921875,6.131549072265625 L-5.157031250000001,6.2382812499999964 " />
			<path d="M-5.2765625,4.3 L-5.370724487304687,4.228762817382813 L-5.46746826171875,4.16212158203125 L-5.566793823242187,4.100076293945312 L-5.668701171875,4.042626953125 L-5.773190307617187,3.9897735595703123 L-5.88026123046875,3.9415161132812497 L-5.9899139404296875,3.8978546142578123 L-6.1021484375,3.8587890624999996 L-6.2169647216796875,3.824319458007812 L-6.33436279296875,3.79444580078125 L-6.454342651367187,3.7691680908203122 L-6.576904296875,3.748486328125 L-6.702047729492188,3.732400512695312 L-6.82977294921875,3.7209106445312496 L-6.960079956054687,3.7140167236328123 L-7.092968749999995,3.7117187499999997 " />
			<path d="M-7.16796875,4.4898437499999995 L-7.07337646484375,4.491564941406249 L-6.980615234375,4.496728515625 L-6.8896850585937495,4.50533447265625 L-6.8005859375,4.517382812499999 L-6.71331787109375,4.5328735351562495 L-6.627880859375,4.551806640624999 L-6.54427490234375,4.57418212890625 L-6.4624999999999995,4.6 L-6.382556152343749,4.629260253906249 L-6.304443359375,4.6619628906249995 L-6.22816162109375,4.698107910156249 L-6.1537109375,4.7376953125 L-6.0810913085937495,4.78072509765625 L-6.010302734374999,4.827197265624999 L-5.94134521484375,4.8771118164062495 L-5.8742187500000025,4.9304687499999975 " />
			<path d="M-7.09296875,3.7117187499999997 L-7.230215454101562,3.713485717773437 L-7.36422119140625,3.71878662109375 L-7.494985961914062,3.7276214599609374 L-7.622509765625,3.7399902343749996 L-7.746792602539062,3.7558929443359372 L-7.8678344726562495,3.77532958984375 L-7.985635375976562,3.7983001708984374 L-8.1001953125,3.8248046875 L-8.211514282226561,3.8548431396484375 L-8.31959228515625,3.8884155273437497 L-8.424429321289063,3.9255218505859375 L-8.526025390625,3.966162109375 L-8.624380493164063,4.010336303710938 L-8.71949462890625,4.05804443359375 L-8.811367797851563,4.109286499023438 L-8.899999999999997,4.164062499999998 " />
			<path d="M-8.33515625,4.813281249999999 L-8.267425537109375,4.7741149902343745 L-8.1989990234375,4.737475585937499 L-8.129876708984375,4.703363037109375 L-8.06005859375,4.67177734375 L-7.989544677734376,4.642718505859374 L-7.9183349609375,4.6161865234374995 L-7.846429443359375,4.592181396484374 L-7.773828125,4.570703125 L-7.700531005859375,4.551751708984375 L-7.6265380859375,4.535327148437499 L-7.551849365234375,4.5214294433593745 L-7.47646484375,4.510058593749999 L-7.400384521484375,4.501214599609375 L-7.3236083984375,4.4948974609375 L-7.246136474609375,4.491107177734374 L-7.167968750000003,4.4898437499999995 " />
			<path d="M-8.9,4.1640625 L-8.985711669921875,4.222189331054688 L-9.0688232421875,4.28348388671875 L-9.149334716796876,4.3479461669921875 L-9.22724609375,4.415576171875 L-9.302557373046875,4.4863739013671875 L-9.3752685546875,4.56033935546875 L-9.445379638671875,4.637472534179688 L-9.512890625,4.7177734375 L-9.577801513671876,4.801242065429688 L-9.6401123046875,4.88787841796875 L-9.699822998046875,4.977682495117188 L-9.75693359375,5.070654296875 L-9.811444091796874,5.1667938232421875 L-9.863354492187499,5.26610107421875 L-9.912664794921875,5.3685760498046875 L-9.959374999999998,5.474218749999997 " />
			<path d="M-9.1296875,5.790625 L-9.096646118164061,5.710177612304688 L-9.06138916015625,5.63231201171875 L-9.023916625976563,5.557028198242188 L-8.984228515625,5.484326171875 L-8.942324829101562,5.414205932617188 L-8.89820556640625,5.34666748046875 L-8.851870727539064,5.281710815429688 L-8.8033203125,5.2193359375 L-8.752554321289063,5.159542846679687 L-8.699572753906251,5.1023315429687495 L-8.644375610351563,5.047702026367187 L-8.586962890625001,4.995654296874999 L-8.527334594726563,4.946188354492187 L-8.46549072265625,4.89930419921875 L-8.401431274414064,4.855001831054687 L-8.335156250000002,4.813281250000001 " />
			<path d="M-9.959375,5.47421875 L-10.003366088867187,5.581939697265625 L-10.04451904296875,5.6906494140625 L-10.082833862304687,5.8003479003906255 L-10.118310546875,5.9110351562500005 L-10.150949096679687,6.022711181640625 L-10.18074951171875,6.1353759765625 L-10.207711791992187,6.249029541015625 L-10.2318359375,6.363671875 L-10.253121948242187,6.479302978515625 L-10.27156982421875,6.5959228515625 L-10.287179565429687,6.713531494140625 L-10.299951171875,6.83212890625 L-10.309884643554687,6.951715087890625 L-10.31697998046875,7.0722900390625 L-10.321237182617187,7.193853759765625 L-10.32265625,7.316406249999996 " />
			<path d="M-9.38515625,7.321093749999999 L-9.384158325195312,7.212393188476562 L-9.38116455078125,7.10543212890625 L-9.376174926757812,7.000210571289062 L-9.369189453125,6.896728515625 L-9.360208129882812,6.794985961914062 L-9.34923095703125,6.6949829101562495 L-9.336257934570312,6.596719360351562 L-9.3212890625,6.5001953125 L-9.304324340820312,6.4054107666015625 L-9.28536376953125,6.31236572265625 L-9.264407348632812,6.221060180664063 L-9.241455078125,6.131494140625 L-9.216506958007812,6.043667602539063 L-9.18956298828125,5.95758056640625 L-9.160623168945312,5.873233032226563 L-9.129687500000001,5.790625000000003 " />
			<path d="M-10.32265625,7.31640625 L-10.321054077148437,7.449514770507813 L-10.31624755859375,7.58048095703125 L-10.308236694335937,7.7093048095703125 L-10.297021484375,7.835986328125 L-10.282601928710937,7.9605255126953125 L-10.26497802734375,8.08292236328125 L-10.244149780273437,8.203176879882813 L-10.2201171875,8.3212890625 L-10.192880249023437,8.437258911132814 L-10.16243896484375,8.55108642578125 L-10.128793334960937,8.662771606445313 L-10.091943359375,8.772314453125 L-10.051889038085937,8.879714965820312 L-10.00863037109375,8.984973144531251 L-9.962167358398437,9.088088989257812 L-9.912500000000001,9.189062499999997 " />
			<path d="M-9.16953125,8.640625 L-9.220068359375,8.48004150390625 L-9.2638671875,8.318212890625 L-9.300927734375,8.15513916015625 L-9.33125,7.9908203124999995 L-9.354833984375,7.825256347656249 L-9.3716796875,7.658447265624999 L-9.381787109374999,7.4903930664062495 L-9.38515625,7.321093750000002 " />
			<path d="M-9.9125,9.1890625 L-9.859875488281249,9.287463378906251 L-9.804541015625,9.382861328125001 L-9.74649658203125,9.47525634765625 L-9.685742187499999,9.5646484375 L-9.62227783203125,9.65103759765625 L-9.556103515625,9.734423828125 L-9.48721923828125,9.81480712890625 L-9.415625,9.8921875 L-9.34132080078125,9.96656494140625 L-9.264306640625,10.037939453125 L-9.18458251953125,10.10631103515625 L-9.1021484375,10.1716796875 L-9.01700439453125,10.23404541015625 L-8.929150390625,10.293408203124999 L-8.838586425781251,10.349768066406249 L-8.745312500000004,10.403124999999998 " />
			<path d="M-8.421875,9.66015625 L-8.487142944335938,9.611679077148438 L-8.54993896484375,9.56116943359375 L-8.610263061523437,9.508627319335938 L-8.668115234375,9.454052734375 L-8.723495483398438,9.397445678710938 L-8.77640380859375,9.33880615234375 L-8.826840209960936,9.278134155273438 L-8.8748046875,9.2154296875 L-8.920297241210937,9.150692749023438 L-8.96331787109375,9.08392333984375 L-9.003866577148438,9.015121459960938 L-9.041943359375,8.944287109375 L-9.077548217773437,8.871420288085938 L-9.11068115234375,8.79652099609375 L-9.141342163085938,8.719589233398438 L-9.169531249999999,8.640625000000004 " />
			<path d="M-8.7453125,10.403125 L-8.650088500976564,10.453359985351561 L-8.553674316406251,10.50035400390625 L-8.456069946289062,10.544107055664062 L-8.357275390625,10.584619140625 L-8.257290649414063,10.621890258789062 L-8.15611572265625,10.65592041015625 L-8.053750610351562,10.686709594726562 L-7.9501953125,10.7142578125 L-7.845449829101563,10.738565063476562 L-7.73951416015625,10.75963134765625 L-7.632388305664062,10.777456665039063 L-7.524072265625,10.792041015625001 L-7.4145660400390625,10.803384399414062 L-7.3038696289062495,10.81148681640625 L-7.191983032226561,10.816348266601564 L-7.078906250000004,10.81796875 " />
			<path d="M-7.09765625,10.03984375 L-7.1956634521484375,10.038360595703125 L-7.29163818359375,10.033911132812499 L-7.385580444335938,10.026495361328124 L-7.477490234375,10.01611328125 L-7.5673675537109375,10.002764892578124 L-7.65521240234375,9.9864501953125 L-7.741024780273437,9.967169189453124 L-7.8248046875,9.944921874999999 L-7.906552124023437,9.919708251953125 L-7.98626708984375,9.8915283203125 L-8.063949584960938,9.860382080078125 L-8.139599609375,9.82626953125 L-8.213217163085938,9.789190673828125 L-8.28480224609375,9.7491455078125 L-8.354354858398438,9.706134033203124 L-8.421874999999998,9.660156250000002 " />
			<path d="M-7.078906249999999,10.81796875 L-6.951281738281249,10.81591796875 L-6.826220703124999,10.809765625 L-6.703723144531249,10.79951171875 L-6.583789062499999,10.78515625 L-6.466418457031249,10.76669921875 L-6.351611328124999,10.744140625 L-6.23936767578125,10.71748046875 L-6.1296875,10.68671875 L-6.02257080078125,10.65185546875 L-5.918017578125,10.612890625 L-5.81602783203125,10.56982421875 L-5.7166015625,10.52265625 L-5.61973876953125,10.47138671875 L-5.525439453125,10.416015625 L-5.43370361328125,10.35654296875 L-5.344531250000003,10.292968750000002 " />
			<path d="M-5.953906249999999,9.69765625 L-6.011657714843749,9.739093017578124 L-6.071240234374999,9.7778564453125 L-6.13265380859375,9.813946533203124 L-6.1958984374999995,9.847363281249999 L-6.260974121093749,9.878106689453125 L-6.327880859375,9.9061767578125 L-6.39661865234375,9.931573486328125 L-6.4671875,9.954296874999999 L-6.5395874023437495,9.974346923828124 L-6.613818359374999,9.9917236328125 L-6.68988037109375,10.006427001953124 L-6.7677734375,10.01845703125 L-6.84749755859375,10.027813720703124 L-6.929052734375,10.034497070312499 L-7.01243896484375,10.038507080078125 L-7.097656249999997,10.03984375 " />
			<path d="M-5.34453125,10.29296875 L-5.258306884765625,10.225677490234375 L-5.1754150390625,10.1550537109375 L-5.095855712890625,10.081097412109376 L-5.01962890625,10.00380859375 L-4.946734619140625,9.923187255859375 L-4.8771728515625,9.8392333984375 L-4.810943603515625,9.751947021484375 L-4.748046875,9.661328125 L-4.688482666015625,9.567376708984375 L-4.6322509765625,9.4700927734375 L-4.5793518066406245,9.369476318359375 L-4.52978515625,9.26552734375 L-4.483551025390625,9.158245849609376 L-4.4406494140624995,9.0476318359375 L-4.401080322265624,8.933685302734375 L-4.36484375,8.816406250000004 " />
			<path d="M-5.26015625,8.60546875 L-5.290881347656249,8.697625732421875 L-5.323291015624999,8.7865966796875 L-5.35738525390625,8.872381591796875 L-5.3931640624999995,8.95498046875 L-5.43062744140625,9.034393310546875 L-5.469775390624999,9.1106201171875 L-5.510607910156249,9.183660888671875 L-5.553125,9.253515625 L-5.5973266601562495,9.320184326171875 L-5.643212890625,9.3836669921875 L-5.690783691406249,9.443963623046875 L-5.740039062499999,9.50107421875 L-5.79097900390625,9.554998779296875 L-5.8436035156249995,9.6057373046875 L-5.89791259765625,9.653289794921875 L-5.9539062499999975,9.697656249999998 " />
			<path d="M-4.3648437499999995,8.81640625 L-5.26015625,8.60546875 " />
			<path d="M-2.2554687500000004,3.8289062499999997 L-3.16484375,3.8289062499999997 " />
			<path d="M-3.16484375,3.8289062499999997 L-3.16484375,10.70078125 " />
			<path d="M-2.2554687500000004,6.21015625 L-2.2554687500000004,3.8289062499999997 " />
			<path d="M-3.16484375,10.70078125 L-2.2554687500000004,10.70078125 " />
			<path d="M-1.13046875,7.30703125 L-2.2554687500000004,6.21015625 " />
			<path d="M-2.2554687500000004,10.70078125 L-2.2554687500000004,7.29296875 " />
			<path d="M1.31640625,3.8289062499999997 L-1.13046875,7.30703125 " />
			<path d="M-2.2554687500000004,7.29296875 L1.1570312500000002,10.70078125 " />
			<path d="M2.51640625,3.8289062499999997 L1.31640625,3.8289062499999997 " />
			<path d="M1.1570312500000002,10.70078125 L2.38984375,10.70078125 " />
			<path d="M-0.4929687500000002,7.91640625 L2.51640625,3.8289062499999993 " />
			<path d="M2.38984375,10.70078125 L-0.4929687500000002,7.9164062500000005 " />
			<path d="M7.78515625,6.735156249999999 L7.78515625,10.700781249999999 " />
			<path d="M7.78515625,10.70078125 L8.69453125,10.70078125 " />
			<path d="M7.358593750000001,4.98671875 L7.410247802734376,5.046832275390624 L7.458569335937501,5.1135009765624995 L7.503558349609375,5.186724853515625 L7.54521484375,5.26650390625 L7.583538818359376,5.352838134765625 L7.6185302734375,5.445727539062499 L7.650189208984375,5.5451721191406245 L7.678515625,5.651171874999999 L7.703509521484375,5.763726806640625 L7.7251708984375,5.8828369140625 L7.743499755859375,6.008502197265624 L7.75849609375,6.1407226562499995 L7.770159912109375,6.279498291015624 L7.7784912109375,6.4248291015625 L7.783489990234375,6.576715087890625 L7.78515625,6.735156249999994 " />
			<path d="M8.69453125,10.70078125 L8.69453125,6.73046875 " />
			<path d="M5.928906250000001,4.532031249999999 L6.052044677734376,4.533807373046875 L6.1706787109375005,4.539135742187499 L6.284808349609376,4.548016357421874 L6.3944335937500005,4.56044921875 L6.499554443359376,4.576434326171874 L6.600170898437501,4.5959716796875 L6.6962829589843755,4.619061279296874 L6.787890625000001,4.645703124999999 L6.8749938964843755,4.675897216796875 L6.957592773437501,4.709643554687499 L7.035687255859376,4.746942138671875 L7.1092773437500005,4.78779296875 L7.178363037109376,4.832196044921875 L7.2429443359375005,4.8801513671875 L7.303021240234376,4.931658935546874 L7.358593749999999,4.986718749999998 " />
			<path d="M8.69453125,6.73046875 L8.690869140625,6.4781494140625 L8.6798828125,6.23916015625 L8.67164306640625,6.124664306640625 L8.661572265625,6.0135009765625 L8.64967041015625,5.905670166015625 L8.6359375,5.801171875 L8.62037353515625,5.700006103515625 L8.602978515625,5.6021728515625 L8.58375244140625,5.507672119140625 L8.5626953125,5.41650390625 L8.53980712890625,5.328668212890625 L8.515087890625,5.2441650390625 L8.48853759765625,5.162994384765625 L8.460156250000002,5.0851562500000025 " />
			<path d="M4.9375,4.76171875 L4.988888549804687,4.733905029296875 L5.04168701171875,4.7078857421875 L5.095895385742188,4.6836608886718745 L5.1515136718750005,4.6612304687499995 L5.2085418701171875,4.640594482421875 L5.266979980468751,4.621752929687499 L5.326828002929688,4.604705810546874 L5.3880859375000005,4.5894531249999995 L5.450753784179688,4.5759948730468745 L5.514831542968751,4.564331054687499 L5.647216796875001,4.546386718749999 L5.7852416992187505,4.5356201171874995 L5.928906249999998,4.532031249999999 " />
			<path d="M8.46015625,5.08515625 L8.429385375976564,5.0098724365234375 L8.39566650390625,4.93636474609375 L8.358999633789063,4.864633178710937 L8.319384765625001,4.794677734375 L8.276821899414063,4.726498413085937 L8.231311035156251,4.66009521484375 L8.182852172851563,4.595468139648437 L8.1314453125,4.5326171875 L8.077090454101564,4.4715423583984375 L8.01978759765625,4.41224365234375 L7.959536743164063,4.3547210693359375 L7.896337890625,4.298974609375 L7.830191040039063,4.245004272460937 L7.76109619140625,4.19281005859375 L7.689053344726563,4.142391967773437 L7.614062500000003,4.093750000000002 " />
			<path d="M4.365625,5.4156249999999995 L4.387359619140625,5.363357543945312 L4.4109619140625,5.312609863281249 L4.436431884765625,5.2633819580078125 L4.46376953125,5.2156738281249995 L4.492974853515625,5.169485473632812 L4.5240478515625,5.12481689453125 L4.556988525390625,5.081668090820312 L4.591796875,5.0400390625 L4.628472900390625,4.999929809570312 L4.6670166015625,4.9613403320312495 L4.707427978515625,4.9242706298828125 L4.74970703125,4.888720703125 L4.793853759765625,4.8546905517578125 L4.8398681640625,4.82218017578125 L4.887750244140625,4.791189575195313 L4.937499999999998,4.761718750000001 " />
			<path d="M7.6140625,4.09375 L7.536105346679688,4.047488403320313 L7.4551635742187505,4.00421142578125 L7.371237182617188,3.9639190673828124 L7.2843261718750005,3.926611328125 L7.194430541992188,3.8922882080078125 L7.10155029296875,3.8609497070312497 L7.005685424804688,3.8325958251953125 L6.9068359375,3.8072265625 L6.805001831054688,3.7848419189453124 L6.70018310546875,3.76544189453125 L6.592379760742188,3.7490264892578122 L6.4815917968750005,3.735595703125 L6.367819213867188,3.7251495361328124 L6.2510620117187505,3.71768798828125 L6.131320190429688,3.713211059570312 L6.008593750000005,3.7117187499999997 " />
			<path d="M4.19921875,6.735156249999999 L4.20181884765625,6.51868896484375 L4.209619140625,6.316943359374999 L4.22261962890625,6.1299194335937495 L4.2408203125,5.9576171874999995 L4.26422119140625,5.800036621093749 L4.277871704101562,5.726766967773437 L4.2928222656249995,5.657177734375 L4.309072875976562,5.591268920898437 L4.32662353515625,5.529040527343749 L4.3454742431640625,5.470492553710937 L4.365624999999999,5.415625000000001 " />
			<path d="M6.00859375,3.7117187499999997 L5.889263916015625,3.713018798828125 L5.7726806640625,3.7169189453124996 L5.658843994140625,3.7234191894531246 L5.54775390625,3.73251953125 L5.439410400390625,3.7442199707031247 L5.3338134765625,3.7585205078125 L5.230963134765625,3.7754211425781246 L5.130859375,3.7949218749999996 L5.033502197265625,3.8170227050781245 L4.9388916015625,3.8417236328124997 L4.847027587890625,3.8690246582031245 L4.75791015625,3.8989257812499996 L4.671539306640625,3.9314270019531246 L4.5879150390625,3.9665283203124995 L4.507037353515624,4.004229736328124 L4.4289062500000025,4.044531249999998 " />
			<path d="M4.19921875,10.70078125 L4.19921875,6.73515625 " />
			<path d="M4.42890625,4.0445312499999995 L4.3535217285156245,4.087295532226562 L4.2808837890625,4.132385253906249 L4.210992431640625,4.179800415039062 L4.14384765625,4.229541015624999 L4.079449462890625,4.281607055664062 L4.0177978515625,4.33599853515625 L3.958892822265625,4.3927154541015625 L3.902734375,4.4517578124999995 L3.849322509765625,4.513125610351562 L3.7986572265625003,4.5768188476562495 L3.7507385253906254,4.6428375244140625 L3.70556640625,4.711181640625 L3.6631408691406255,4.781851196289062 L3.6234619140625,4.85484619140625 L3.5865295410156253,4.930166625976563 L3.5523437500000017,5.007812499999997 " />
			<path d="M3.28984375,10.70078125 L4.19921875,10.70078125 " />
			<path d="M3.5523437500000004,5.0078125 L3.520556640625,5.0884246826171875 L3.4908203125000004,5.1726440429687495 L3.4631347656250004,5.260470581054688 L3.4375000000000004,5.3519042968749995 L3.4139160156250004,5.4469451904296875 L3.3923828125,5.54559326171875 L3.3729003906250004,5.647848510742187 L3.35546875,5.753710937499999 L3.340087890625,5.863180541992187 L3.3267578125000004,5.97625732421875 L3.315478515625,6.0929412841796875 L3.3062500000000004,6.213232421875 L3.299072265625,6.337130737304688 L3.2939453125,6.46463623046875 L3.2908691406250004,6.5957489013671875 L3.28984375,6.730468749999996 " />
			<path d="M3.28984375,6.73046875 L3.28984375,10.70078125 " />
			<path d="M11.117968750000001,3.8289062499999997 L10.20859375,3.8289062499999997 " />
			<path d="M10.20859375,3.8289062499999997 L10.20859375,10.70078125 " />
			<path d="M11.117968750000001,6.62265625 L11.117968750000001,3.82890625 " />
			<path d="M10.20859375,10.70078125 L12.80078125,10.70078125 " />
			<path d="M12.88046875,6.62265625 L11.117968750000001,6.62265625 " />
			<path d="M12.80078125,10.70078125 L12.9668212890625,10.699755859375001 L13.12275390625,10.6966796875 L13.268579101562501,10.691552734375 L13.404296875,10.684375 L13.529907226562502,10.675146484375 L13.645410156250001,10.6638671875 L13.7508056640625,10.650537109375 L13.84609375,10.63515625 " />
			<path d="M14.89609375,7.2296875 L14.8603515625,7.192340850830078 L14.8228515625,7.156179809570312 L14.783593750000001,7.121204376220703 L14.742578125000001,7.08741455078125 L14.6552734375,7.0233917236328125 L14.560937500000001,6.964111328125 L14.4595703125,6.909573364257812 L14.351171875,6.85977783203125 L14.235742187500001,6.814724731445312 L14.11328125,6.7744140625 L13.983789062500001,6.7388458251953125 L13.847265625,6.708020019531251 L13.7037109375,6.681936645507813 L13.553125000000001,6.660595703125001 L13.3955078125,6.6439971923828125 L13.230859375000001,6.63214111328125 L13.0591796875,6.625027465820313 L12.880468750000006,6.62265625 " />
			<path d="M13.846093750000001,10.63515625 L13.970092773437502,10.61168212890625 L14.088964843750002,10.583447265625 L14.2027099609375,10.55045166015625 L14.311328125000001,10.5126953125 L14.414819335937501,10.47017822265625 L14.51318359375,10.422900390625 L14.6064208984375,10.37086181640625 L14.694531249999999,10.314062500000002 " />
			<path d="M15.453906250000001,8.71328125 L15.451727294921875,8.604763793945311 L15.445190429687502,8.49835205078125 L15.434295654296877,8.394046020507812 L15.41904296875,8.291845703125 L15.399432373046876,8.191751098632812 L15.3754638671875,8.093762207031249 L15.347137451171877,7.9978790283203125 L15.314453125,7.904101562499999 L15.277410888671875,7.812429809570312 L15.236010742187501,7.72286376953125 L15.190252685546875,7.635403442382812 L15.14013671875,7.550048828125 L15.085662841796875,7.466799926757812 L15.0268310546875,7.38565673828125 L14.963641357421876,7.306619262695312 L14.896093750000002,7.2296875000000025 " />
			<path d="M14.69453125,10.3140625 L14.77799072265625,10.25191650390625 L14.857275390625002,10.183837890625 L14.93238525390625,10.10982666015625 L15.003320312500001,10.0298828125 L15.07008056640625,9.94400634765625 L15.132666015625002,9.852197265625 L15.19107666015625,9.75445556640625 L15.2453125,9.650781250000001 " />
			<path d="M15.2453125,9.65078125 L15.29420166015625,9.542822265625 L15.336572265625001,9.4322265625 L15.372424316406251,9.318994140625 L15.401757812500001,9.203125 L15.42457275390625,9.084619140625 L15.440869140625,8.9634765625 L15.450646972656251,8.839697265625 L15.453906250000001,8.713281250000001 " />
			<path d="M5.0,-29.0 L35.0,-29.0 " />
			<path d="M35.0,-29.0 L35.0,1.0 " />
			<path d="M35.0,1.0 L5.0,1.0 " />
			<path d="M5.0,1.0 L5.0,-29.0 " />
			<path d="M-18.22109375,9.88984375 L-18.22109375,7.43359375 " />
			<path d="M-18.22109375,7.43359375 L-16.44453125,7.43359375 " />
			<path d="M-16.44453125,7.43359375 L-16.336370849609377,7.43487548828125 L-16.2322021484375,7.438720703125 L-16.132025146484374,7.44512939453125 L-16.03583984375,7.4541015625 L-15.943646240234376,7.46563720703125 L-15.8554443359375,7.479736328125 L-15.771234130859375,7.49639892578125 L-15.691015625,7.515625 L-15.614788818359376,7.53741455078125 L-15.5425537109375,7.561767578125 L-15.474310302734375,7.58868408203125 L-15.41005859375,7.6181640625 L-15.349798583984375,7.65020751953125 L-15.2935302734375,7.684814453125 L-15.241253662109376,7.72198486328125 L-15.192968750000002,7.761718749999998 " />
			<path d="M-15.19296875,7.76171875 L-15.148126220703125,7.803778076171875 L-15.1061767578125,7.8479248046875 L-15.067120361328126,7.894158935546875 L-15.03095703125,7.94248046875 L-14.997686767578125,7.992889404296875 L-14.9673095703125,8.0453857421875 L-14.939825439453125,8.099969482421875 L-14.915234375,8.156640625 L-14.893536376953124,8.215399169921875 L-14.8747314453125,8.2762451171875 L-14.858819580078125,8.339178466796875 L-14.84580078125,8.40419921875 L-14.835675048828124,8.471307373046875 L-14.828442382812499,8.5405029296875 L-14.824102783203125,8.611785888671875 L-14.82265625,8.685156249999999 " />
			<path d="M-14.82265625,8.68515625 L-14.826062011718749,8.79102783203125 L-14.836279296875,8.893017578125 L-14.85330810546875,8.99112548828125 L-14.8771484375,9.085351562500001 L-14.90780029296875,9.17569580078125 L-14.945263671875,9.262158203125 L-14.98953857421875,9.34473876953125 L-15.040624999999999,9.423437499999999 " />
			<path d="M-15.040625,9.4234375 L-15.09727783203125,9.496936035156251 L-15.158251953125,9.563916015625 L-15.22354736328125,9.62437744140625 L-15.2931640625,9.6783203125 L-15.36710205078125,9.72574462890625 L-15.445361328125,9.766650390625 L-15.52794189453125,9.801037597656249 L-15.614843749999999,9.82890625 " />
			<path d="M-15.61484375,9.82890625 L-15.6783447265625,9.8431884765625 L-15.75400390625,9.85556640625 L-15.8418212890625,9.8660400390625 L-15.941796875,9.874609375 L-16.0539306640625,9.881274414062501 L-16.17822265625,9.886035156250001 L-16.314672851562502,9.8888916015625 L-16.463281249999998,9.88984375 " />
			<path d="M-16.46328125,9.88984375 L-18.22109375,9.88984375 " />
			<path d="M11.117968750000001,9.88984375 L11.117968750000001,7.43359375 " />
			<path d="M11.117968750000001,7.43359375 L12.894531250000002,7.43359375 " />
			<path d="M12.89453125,7.43359375 L13.002691650390625,7.43487548828125 L13.106860351562501,7.438720703125 L13.207037353515625,7.44512939453125 L13.30322265625,7.4541015625 L13.395416259765625,7.46563720703125 L13.4836181640625,7.479736328125 L13.567828369140626,7.49639892578125 L13.648046875,7.515625 L13.724273681640625,7.53741455078125 L13.7965087890625,7.561767578125 L13.864752197265625,7.58868408203125 L13.929003906250001,7.6181640625 L13.989263916015625,7.65020751953125 L14.0455322265625,7.684814453125 L14.097808837890625,7.72198486328125 L14.146093749999999,7.761718749999998 " />
			<path d="M14.14609375,7.76171875 L14.190936279296876,7.803778076171875 L14.2328857421875,7.8479248046875 L14.271942138671875,7.894158935546875 L14.30810546875,7.94248046875 L14.341375732421875,7.992889404296875 L14.371752929687501,8.0453857421875 L14.399237060546875,8.099969482421875 L14.423828125,8.156640625 L14.445526123046877,8.215399169921875 L14.4643310546875,8.2762451171875 L14.480242919921876,8.339178466796875 L14.49326171875,8.40419921875 L14.503387451171877,8.471307373046875 L14.510620117187502,8.5405029296875 L14.514959716796875,8.611785888671875 L14.516406250000001,8.685156249999999 " />
			<path d="M14.516406250000001,8.68515625 L14.513000488281252,8.79102783203125 L14.502783203125,8.893017578125 L14.48575439453125,8.99112548828125 L14.4619140625,9.085351562500001 L14.431262207031251,9.17569580078125 L14.393798828125,9.262158203125 L14.34952392578125,9.34473876953125 L14.298437500000002,9.423437499999999 " />
			<path d="M14.2984375,9.4234375 L14.241784667968751,9.496936035156251 L14.180810546875001,9.563916015625 L14.11551513671875,9.62437744140625 L14.0458984375,9.6783203125 L13.97196044921875,9.72574462890625 L13.893701171875001,9.766650390625 L13.811120605468751,9.801037597656249 L13.724218750000002,9.82890625 " />
			<path d="M13.72421875,9.82890625 L13.6607177734375,9.8431884765625 L13.58505859375,9.85556640625 L13.497241210937501,9.8660400390625 L13.397265625000001,9.874609375 L13.2851318359375,9.881274414062501 L13.16083984375,9.886035156250001 L13.0243896484375,9.8888916015625 L12.875781250000005,9.88984375 " />
			<path d="M12.875781250000001,9.88984375 L11.117968750000001,9.88984375 " />
			<path d="M-15.192968749999999,7.76171875 L-15.232936324007968,7.728423415987775 L-15.275219880418371,7.697226250083613 " />
			<path d="M-15.4192683496187,7.6136625342038675 L-15.451185949205193,7.59879225235771 " />
			<path d="M-15.62989022556589,7.532798839674661 L-15.701546135791856,7.5128966870664184 L-15.77490969553016,7.495600118076333 L-15.8497915962567,7.48075195038999 L-15.92601891843182,7.468202406920644 " />
			<path d="M-16.113660091061497,7.446618618539549 L-16.149367192126608,7.443815562134649 " />
			<path d="M-16.375818321310096,7.434104068498757 L-16.444531249999997,7.43359375 " />
			<path d="M-14.822656250000001,8.685156249999999 L-14.825054575233715,8.591069218750285 L-14.83244341392968,8.498656244806646 L-14.845103156976554,8.408216193275006 L-14.863292045510782,8.320068365183797 L-14.887231362781597,8.234557294279846 L-14.917087759331627,8.152048344349657 L-14.952965152977482,8.072895071819728 L-14.994893354025441,7.997432131869604 " />
			<path d="M-15.077892142950715,7.880847907387868 L-15.132920313005426,7.819193207404766 L-15.192968749999997,7.761718750000002 " />
			<path d="M-15.040625000000002,9.423437499999999 L-14.994760320419793,9.353479073455745 L-14.954280797804737,9.280384558240465 " />
			<path d="M-14.895741965764238,9.142939397605309 L-14.880083483179131,9.095140522687355 " />
			<path d="M-14.826717045063917,8.800566660578966 L-14.82366342808617,8.743211538823536 L-14.822656250000001,8.68515625 " />
			<path d="M-15.475982808811372,9.780378195330885 L-15.451429234517002,9.769466705704472 " />
			<path d="M-15.443630755078031,9.765838287206739 L-15.40305795650766,9.745630794601926 L-15.363559373254079,9.723678774357944 " />
			<path d="M-15.334028925737655,9.70567592753484 L-15.297723342052448,9.681520490175062 " />
			<path d="M-15.198334711449167,9.60226849424921 L-15.146582366096064,9.551949882723019 " />
			<path d="M-16.46328125,9.889843749999997 L-16.30601631321644,9.888772103390199 L-16.155176418428095,9.88532600709141 " />
			<path d="M-15.972600974509279,9.876708399480869 L-15.919049089210137,9.872910036598565 " />
			<path d="M-15.672499370019327,9.842053449218314 L-15.61484375,9.828906250000003 " />
			<path d="M14.146093749999999,7.76171875 L14.10612617599203,7.7284234159877725 L14.063842619581637,7.697226250083617 " />
			<path d="M13.919794150381302,7.613662534203871 L13.887876550794804,7.598792252357709 " />
			<path d="M13.709172274434033,7.532798839674641 L13.637516364208075,7.512896687066402 L13.564152804469781,7.495600118076322 L13.489270903743254,7.480751950389982 L13.41304358156815,7.46820240692064 " />
			<path d="M13.225402408938416,7.446618618539543 L13.189695307873315,7.443815562134645 " />
			<path d="M12.963244178689886,7.434104068498759 L12.894531250000004,7.43359375 " />
			<path d="M14.516406250000003,8.685156249999999 L14.514007924766288,8.59106921875028 L14.50661908607032,8.498656244806638 L14.493959343023446,8.408216193274988 L14.475770454489217,8.320068365183777 L14.451831137218397,8.234557294279822 L14.421974740668366,8.152048344349634 L14.38609734702251,8.072895071819708 L14.344169145974549,7.9974321318695845 " />
			<path d="M14.261170062034918,7.880847548987441 L14.206142025013929,7.819193039792677 L14.14609375,7.761718750000002 " />
			<path d="M14.298437499999999,9.423437499999999 L14.344302179580225,9.353479073455729 L14.384781702195285,9.280384558240433 " />
			<path d="M14.44332053423577,9.14293939760528 L14.458979016820875,9.09514052268734 " />
			<path d="M14.512345454936089,8.800566660578962 L14.515399071913833,8.74321153882353 L14.516406250000003,8.68515625 " />
			<path d="M13.863079691188624,9.780378195330885 L13.887633265482991,9.769466705704474 " />
			<path d="M13.895431744921959,9.765838287206742 L13.93600454349233,9.745630794601931 L13.975503126745913,9.72367877435795 " />
			<path d="M14.005033499109869,9.70567597517456 L14.041340077172467,9.681519848829483 " />
			<path d="M14.140727788550832,9.602268494249213 L14.192480133903933,9.551949882723019 " />
			<path d="M12.875781250000003,9.889843749999997 L13.033046186783572,9.888772103390197 L13.183886081571913,9.88532600709141 " />
			<path d="M13.366461525490722,9.876708399480872 L13.420013410789867,9.872910036598565 " />
			<path d="M13.666563129980673,9.842053449218312 L13.724218749999997,9.828906250000003 " />

       </g>
    </g>
    
</svg>
