<?xml version="1.0" encoding="UTF-8" standalone="no"?>
<svg
   xmlns:svg="http://www.w3.org/2000/svg"
   xmlns="http://www.w3.org/2000/svg"
   width="960.0"
   height="720.0"

>
    <g transform="scale(6.2824053540071505, -6.2824053540071505)   translate(36.771368851036044,-42.633229822119475)" stroke-width="0.7"  fill="none">
       <!-- hidden lines -->
       <g  stroke="rgb(160,160,160)" fill="none" stroke-dasharray="0.7,0.7" >

       </g>

       <!-- solid lines -->
       <g  stroke="rgb(37,42,48)" fill="none">
			<path d="M-32.951176003293114,-44.66236297674662 L-32.951176003293114,2.6944387170614945 " />
			<path d="M-32.951176003293114,-44.662362976746614 L-32.949472521122,-44.74150664750138 L-32.9443661784464,-44.81849264244103 L-32.9358692768931,-44.893135495560564 L-32.92400228624217,-44.965255385688884 L-32.90879379511352,-45.03467856969371 L-32.89028044209437,-45.10123780104402 L-32.868506827473745,-45.164772732721595 L-32.8435254057964,-45.22513030351102 L-32.81539635949526,-45.28216510673757 L-32.78418745390669,-45.335739740564605 L-32.749973874017826,-45.38572513900665 L-32.71283804333938,-45.43200088286067 L-32.67286942534017,-45.474455489806424 L-32.63016430792178,-45.51298668297721 L-32.58482557145261,-45.54750163735374 L-32.53696244092003,-45.57791720338776 " />
			<path d="M-32.53696244092002,-45.57791720338776 L-32.486690222797776,-45.60416010731662 L-32.434130027262654,-45.626167127686145 L-32.37940847642944,-45.64388524765668 L-32.322657399307126,-45.657271782725275 L-32.2640135142113,-45.66629448355644 L-32.203618099397765,-45.67093161367358 L-32.14161665271082,-45.671172001824075 L-32.078158541066216,-45.667015068891814 L-32.01339664061318,-45.658470829292334 L-31.94748696844238,-45.64555986684722 L-31.88058830672707,-45.62831328519587 L-31.812861820202965,-45.6067726328641 L-31.74447066790823,-45.58098980317012 L-31.67557961011911,-45.55102690920897 L-31.60635461142796,-45.51695613421664 L-31.53696244092003,-45.47885955767434 " />
			<path d="M-32.951176003293114,2.6944387170614963 L-32.949472521122,2.775549399596375 L-32.9443661784464,2.858431691172679 L-32.9358692768931,2.9428859210903697 L-32.92400228624217,3.0287086317122593 L-32.90879379511352,3.115693068611278 L-32.89028044209437,3.2036296786599974 L-32.868506827473745,3.292306614862475 L-32.8435254057964,3.3815102467122156 L-32.81539635949526,3.4710256748467785 L-32.784187453906696,3.560637248759162 L-32.749973874017826,3.650129086318763 L-32.71283804333938,3.739285593850343 L-32.67286942534017,3.8278919855180695 L-32.63016430792178,3.9157348007634116 L-32.58482557145261,4.002602418550323 L-32.53696244092002,4.088285567178848 L-32.486690222797776,4.172577828438985 L-32.43413002726266,4.255276134890227 L-32.37940847642944,4.336181259068817 L-32.322657399307126,4.415098293444157 L-32.2640135142113,4.491837119968122 L-32.203618099397765,4.566212868086087 L-32.14161665271082,4.638046360106289 L-32.078158541066216,4.707164542854583 L-32.01339664061318,4.7734009045746895 L-31.94748696844238,4.8365958760696035 L-31.880588306727073,4.896597215117769 L-31.812861820202965,4.953260373237922 L-31.744470667908235,5.006448843919045 L-31.675579610119115,5.056034491476508 L-31.60635461142796,5.101897859742154 L-31.53696244092003,5.1439284598446715 " />
			<path d="M-31.536962440920018,-45.47885955767435 L26.44579361637689,-12.002499739637571 " />
			<path d="M-31.536962440920018,5.143928459844675 L26.44579361637689,38.62028827788145 " />
			<path d="M27.860007178749978,-9.553009996854398 L27.858303696578858,-9.634120679389277 L27.853197353903266,-9.71700297096558 L27.84470045234996,-9.801457200883272 L27.83283346169903,-9.88727991150516 L27.817624970570375,-9.974264348404178 L27.799111617551233,-10.062200958452898 L27.77733800293061,-10.150877894655375 L27.75235658125326,-10.240081526505117 L27.724227534952124,-10.329596954639678 L27.693018629363554,-10.419208528552062 L27.65880504947469,-10.508700366111663 L27.621669218796242,-10.597856873643243 L27.581700600797024,-10.686463265310971 L27.53899548337864,-10.774306080556313 L27.493656746909473,-10.861173698343224 L27.445793616376882,-10.94685684697175 L27.395521398254637,-11.031149108231885 L27.34296120271952,-11.113847414683127 L27.288239651886304,-11.194752538861717 L27.231488574763986,-11.27366957323706 L27.17284468966816,-11.350408399761024 L27.11244927485463,-11.424784147878988 L27.050447828167684,-11.496617639899192 L26.98698971652308,-11.565735822647484 L26.922227816070045,-11.63197218436759 L26.85631814389924,-11.695167155862505 L26.789419482183934,-11.75516849491067 L26.721692995659826,-11.811831653030822 L26.653301843365096,-11.865020123711947 L26.584410785575976,-11.91460577126941 L26.515185786884825,-11.960469139535054 L26.445793616376896,-12.00249973963757 " />
			<path d="M27.860007178749978,37.803791696953716 L27.858303696578858,37.882935367708484 L27.853197353903266,37.95992136264813 L27.84470045234996,38.034564215767666 L27.83283346169903,38.10668410589599 L27.817624970570375,38.17610728990081 L27.799111617551233,38.242666521251124 L27.77733800293061,38.3062014529287 L27.75235658125326,38.366559023718125 L27.724227534952124,38.423593826944675 L27.693018629363554,38.47716846077171 L27.65880504947469,38.527153859213755 L27.621669218796242,38.57342960306777 L27.581700600797024,38.615884210013526 L27.53899548337864,38.65441540318431 L27.493656746909473,38.68893035756084 L27.445793616376893,38.719345923594865 " />
			<path d="M27.445793616376882,38.719345923594865 L27.395521398254637,38.745588827523726 L27.34296120271952,38.76759584789325 L27.2882396518863,38.78531396786378 L27.231488574763983,38.79870050293238 L27.17284468966816,38.807723203763544 L27.11244927485463,38.81236033388068 L27.050447828167684,38.81260072203118 L26.98698971652308,38.80844378909892 L26.922227816070045,38.799899549499436 L26.85631814389924,38.786988587054324 L26.78941948218393,38.769742005402975 L26.721692995659826,38.7482013530712 L26.653301843365092,38.72241852337722 L26.584410785575972,38.692455629416074 L26.51518578688482,38.658384854423744 L26.445793616376882,38.62028827788144 " />
			<path d="M27.860007178749974,-9.553009996854398 L27.860007178749974,37.803791696953716 " />
			<path d="M23.051681066681454,18.04457443850275 L23.051681066681454,-8.409914783555577 " />
			<path d="M23.05168106668146,-8.409914783555568 L0.14142135623731278,-21.637159394584735 " />
			<path d="M-21.504884982835883,1.1379921096680192 L-28.067719795723526,-7.026285544791472 " />
			<path d="M-16.07286859267391,-3.2139984554721472 L-15.429843363532392,-2.8427476663315714 " />
			<path d="M-15.429843363532392,-2.842747666331567 L-15.429843363532392,-0.561660343364732 " />
			<path d="M-15.429843363532386,-0.5616603433647365 L-14.183567661691097,0.15787726857782225 " />
			<path d="M-14.183567661691102,0.1578772685778198 L-14.083911231715506,0.21660788680204196 L-13.98464836205033,0.2776346591340549 L-13.885871462199903,0.34112523353080937 L-13.787697374734714,0.40725944389048957 L-13.690268070920915,0.476232122445961 L-13.593756085767476,0.5482525046716017 L-13.498377996775037,0.6235378148909111 L-13.404393534506355,0.7023166843576225 L-13.3121289501442,0.7848111088277864 L-13.221977395776383,0.8712331809295598 L-13.134395628975648,0.9617844350532913 L-13.04996243735058,1.0565815246446735 L-12.96936524981901,1.1556293720116861 L-12.893360532430462,1.258814837973104 L-12.822742705526935,1.36588039423322 L-12.758305555861966,1.476391669185324 " />
			<path d="M-12.758305555861964,1.4763916691853283 L-12.710827260642787,1.5662252049256464 L-12.666028071621096,1.656762220595184 L-12.62404452806702,1.7478698208107186 L-12.584999456966965,1.839405972892914 L-12.549000152504956,1.9312192463461364 L-12.516136555544014,2.0231485523382733 L-12.48647717006119,2.1150303080235404 L-12.460067504140264,2.206702048329842 L-12.436930428453916,2.2980016443876323 L-12.417064146003526,2.3887780047785196 L-12.400444287465742,2.4788907643283284 L-12.387026026180006,2.5682099150098012 L-12.376746114886293,2.656616203144036 L-12.369524234901789,2.7440129977116796 L-12.365267347672825,2.830319068441646 L-12.363872554481345,2.9154668930704446 " />
			<path d="M-12.511370609619476,3.5957743958512456 L-12.536230168623419,3.637573478128504 L-12.562594656110267,3.6768709923921206 L-12.590482439068298,3.7135747276569853 L-12.619907466297523,3.747595905410536 L-12.650878686459782,3.778850199895621 L-12.683399471684796,3.807258763263307 L-12.717467655160847,3.832749764348769 L-12.753074467386693,3.8552589855874144 " />
			<path d="M-12.363872554481345,2.9154668930704473 L-12.366080317489871,3.0152395979708118 L-12.372784232827797,3.1112466094106477 L-12.38408841239183,3.2032439657575895 L-12.400072243145976,3.2910030146238936 L-12.42078752690872,3.374313049421001 L-12.446255620140173,3.4529839459140943 L-12.476464625190948,3.5268489128735894 L-12.511370609619476,3.5957743958512447 " />
			<path d="M-11.435794904174001,-0.5367827131645928 L-10.792769675032485,-0.16553192402401695 " />
			<path d="M-10.792769675032485,-0.16553192402401784 L-10.792769675032485,5.445330518038702 " />
			<path d="M-6.276677537376212,2.8264815235084004 L-6.208657039458745,2.931130682167261 L-6.143479871752094,3.0379085456281283 L-6.081257458818558,3.1466068149999575 L-6.022076016376658,3.2570090144262074 L-5.965996468123378,3.3688939704609 L-5.913055339030702,3.4820384300344074 L-5.8632627072509615,3.5962274264720593 L-5.816605925609121,3.7112543547220778 L-5.773051363847424,3.8269251880888744 L-5.73254747069826,3.9430596647841516 L-5.695027799002167,4.059492525670337 L-5.660412582820187,4.1760778826221445 L-5.628612768562244,4.292686875912384 L-5.599532939054168,4.4092056298213915 L-5.573073181085728,4.525535228438556 L-5.549130950795992,4.641591696187966 " />
			<path d="M-7.561070714140839,1.6046071479091404 L-7.473531287265007,1.6567742735248228 L-7.386363539338969,1.712072046843323 L-7.299671980967974,1.7705765384067438 L-7.213570867752369,1.832352426800388 L-7.128183711290999,1.8974504886946566 L-7.043642735312222,1.965904811620957 L-6.960087482257942,2.037730430758686 L-6.8776634682162685,2.1129207935780094 L-6.796524741380848,2.1914412109712176 L-6.716823733462093,2.2732342077166985 L-6.638709491840465,2.3582185205402415 L-6.562326845399761,2.4462873160425813 L-6.487814821926814,2.537307350337329 L-6.415297932330583,2.6311279952863362 L-6.344887168924043,2.727580389308179 L-6.276677537376219,2.8264815235084004 " />
			<path d="M-8.838834764831844,1.236226854560886 L-8.769783624705939,1.2270651754497703 L-8.698537135500818,1.2230059308929204 L-8.625274472301355,1.2239246288398467 L-8.550174399172386,1.229669607266478 L-8.473413137856344,1.240067660047969 L-8.395162400898938,1.2549292267463894 L-8.31558797043475,1.2740530544703625 L-8.234843965220977,1.2972316960407617 L-8.153066536043447,1.3242579464398068 L-8.07038212564901,1.3549263006442698 L-7.98690773860762,1.3890349814777836 L-7.9027505091170225,1.4263878815857303 L-7.818007322729919,1.4667962723849461 L-7.732764492003612,1.5100802799882467 L-7.647097486072131,1.5560701281037703 L-7.5610707141408415,1.6046071479091386 " />
			<path d="M-9.138198815701122,1.3433562366506444 L-9.068212480382979,1.307051249726993 L-8.994891910554088,1.2770534343898856 L-8.918377690091994,1.2534375827525797 L-8.838834764831848,1.2362268545608863 " />
			<path d="M-8.9231004207855,2.317536143237355 L-8.964419704067481,2.3910243930399826 L-9.001248353635631,2.4705400452602166 " />
			<path d="M-9.001248353635631,2.4705400452602184 L-9.024638245669761,2.5293786030126086 L-9.04624448272392,2.5902982088068396 L-9.066096670792195,2.653213239136186 L-9.084227600944175,2.718038129405051 L-9.115469970695388,2.8530786179499374 L-9.140279845114806,2.994755883871434 L-9.158987265747253,3.1424382130957693 L-9.171932675994286,3.29553831384442 L-9.179456387475398,3.4535132896694813 L-9.181892039141882,3.6158678663975112 " />
			<path d="M-9.181892039141882,3.6158678663975143 L-9.17953637813267,3.75468682794869 L-9.172434240324431,3.8957476159688333 L-9.160547311965956,4.038922579578595 L-9.14385722283976,4.184072315693014 L-9.122366354233787,4.331045736044103 L-9.096097855490056,4.4796840183950355 L-9.065095381305596,4.629821652922471 L-9.029422139448533,4.781289158081069 " />
			<path d="M-9.029422139448531,4.781289158081072 L-8.988831605025085,4.929195163614907 L-8.940851662076168,5.0766423723375045 L-8.885385578883135,5.223060125414625 L-8.82245054742421,5.367852031143284 L-8.752194724168485,5.5104007739345295 L-8.67488967138843,5.650114370116169 L-8.590917600442443,5.7864547981758045 L-8.500749335077028,5.918962323772163 " />
			<path d="M-8.500749335077026,5.918962323772165 L-8.45077183736746,5.987028204424091 L-8.399261709677262,6.053301819087185 L-8.346295464345138,6.117700978480105 L-8.291954115262449,6.1801573040742666 L-8.236322666672354,6.240615439115232 L-8.179489601968957,6.299032259644089 L-8.121546372496454,6.355376085518828 L-8.062586879032873,6.409625897991667 L-8.002701811000506,6.461774936291558 L-7.941976425578581,6.511830191367484 L-7.880494532694124,6.559806908113717 L-7.818336160407784,6.605729010301661 L-7.692288884701251,6.691541001140051 L-7.564385277177656,6.769585910230855 " />
			<path d="M-7.564385277177653,6.769585910230857 L-7.4849665059402,6.813529320988929 L-7.406466465875407,6.852988382293786 L-7.329053428305263,6.88766674506978 L-7.252910744273851,6.9172698997405915 L-7.178235026411738,6.941512496900702 L-7.105233294133241,6.960126827840452 L-7.034120424787427,6.972871962936583 L-6.96511796605027,6.979543809098732 " />
			<path d="M-5.6319950267162895,6.886319405785366 L-5.671222539201261,7.0059857024024925 L-5.693161368749038,7.063247274082282 L-5.716696171978809,7.118677495806083 L-5.7418579178360085,7.172187318994896 L-5.768674092416838,7.223687483465024 L-5.797168113036158,7.273089224041747 L-5.827358742295406,7.320304977173002 L-5.859259902252831,7.3652497932587515 L-5.892879494887773,7.407841753776641 L-5.928218111511603,7.448002088446021 L-5.965270274192132,7.4856585270050475 L-6.004024091449614,7.520745959444464 L-6.044460869810652,7.553207024036872 L-6.086554725362102,7.5829926953659985 L-6.130272195328094,7.610062872367033 " />
			<path d="M-6.26507656674737,6.348579860689995 L-5.631995026716286,6.8863194057853665 " />
			<path d="M-4.783466889292434,3.3039406569649694 L-4.140441660150916,3.6751914461055453 " />
			<path d="M-4.140441660150917,3.6751914461055417 L-4.140441660150917,5.619473929439689 " />
			<path d="M-4.140441660150916,5.619473929439689 L-3.4444315574872277,6.8049067088278505 " />
			<path d="M-4.140441660150917,7.809083913969825 L-4.140441660150917,9.286053888168265 " />
			<path d="M-1.6147446261002152,5.133403308606155 L-0.7662164886763598,5.62330125716279 " />
			<path d="M-0.7662164886763585,5.62330125716279 L-2.8941659583096255,7.7321588325901836 " />
			<path d="M-2.894165958309623,7.732158832590191 L-0.855709690670281,11.18249477496368 " />
			<path d="M3.602377593841778,10.51462608728295 L3.602377593841778,13.756372668747565 " />
			<path d="M3.4366494420011797,9.075550863397828 L3.4600516914195474,9.163864269495939 L3.4812060122246553,9.252810627743985 L3.500238472610791,9.342252699629148 L3.5172709830085824,9.432070220066224 L3.5457993486191786,9.612436098133774 L3.567661699745988,9.793285306711999 L3.5836265527587714,9.974180067922285 L3.594362947559282,10.154825727564345 L3.600447742629536,10.335017699864048 L3.6023775938417764,10.514626087282943 " />
			<path d="M2.8383708138566277,7.920654722952794 L2.9380466555137015,8.055492858057054 L3.0318504752019093,8.193962969642111 L3.119082530736608,8.33572410965012 L3.1990860063509077,8.480346621948012 L3.2361893270868296,8.553570130243386 L3.2712707932322873,8.627302982230862 L3.304271242503324,8.70146231915287 L3.3351389661072948,8.775957907709186 L3.363834050284547,8.850701347326646 L3.390328366344664,8.925606901699851 L3.4146029059329868,9.000585836472313 L3.4366494420011833,9.075550863397833 " />
			<path d="M1.703132973748538,6.953297640939596 L1.8563489908469426,7.04562843725502 L2.0078034537833527,7.1452251372980715 L2.0827019837115626,7.197917525319077 L2.1569400841135606,7.252625975486543 L2.23042576450538,7.309412083632187 L2.3030585790390976,7.36833369830415 L2.3747299801533712,7.429443945402557 L2.4453237182648038,7.492790132403285 L2.5147131884600538,7.558409498242209 L2.582753453194757,7.6263178225909005 L2.649295346746051,7.696518842415899 L2.7141845192426066,7.76900001829865 L2.7772629406136633,7.843729711133026 L2.8383708138566215,7.920654722952789 " />
			<path d="M0.5290964733770857,7.704957975800987 L0.5137708864194702,7.7505692304450715 L0.5000307968369988,7.799329199811045 L0.4768609277658539,7.905069223594792 L0.45877667853729953,8.019998775900602 L0.4450844821608923,8.14234872097464 L0.43519181223036596,8.270732482209201 L0.4285971827187265,8.404128354690195 L0.4248833705621734,8.541859856964432 L0.4237116415391262,8.683249771780206 " />
			<path d="M0.5861252303429096,6.580133187937466 L0.6475045717403143,6.579209998774115 L0.7105545605536173,6.582220307725828 L0.7751378975779496,6.589025567795935 L0.8411213872403295,6.599477243047236 L0.9083771806579802,6.613420122809703 L0.9767838952656318,6.630695309326648 L1.0462276110118052,6.651142878839355 L1.1166024151336975,6.674604105947384 L1.1878103083936866,6.7009231730327565 L1.259764511576794,6.729949949816989 L1.4055983826693959,6.795553267213024 L1.5535407771689123,6.870328267255266 L1.7031329737485352,6.953297640939594 " />
			<path d="M0.4237116415391262,8.683249771780213 L0.4237116415391262,11.92116902552173 " />
			<path d="M0.25657052999868035,6.670918825618826 L0.2932646467808225,6.651339148468738 L0.3313492773060822,6.634149008036687 L0.3707756476349706,6.619339687288407 L0.41149182318360517,6.606893849179439 L0.45344306527725814,6.596786184977394 L0.4965721877039061,6.588984062584214 L0.5408199132677791,6.5834481748584395 L0.5861252303429079,6.580133187937466 " />
			<path d="M4.6729814547320405,8.76362365396529 L5.316006683873555,9.134874443105865 " />
			<path d="M5.316006683873554,9.134874443105865 L5.316006683873554,11.415961766072698 " />
			<path d="M5.316006683873557,11.4159617660727 L6.562282385714845,12.135499378015258 " />
			<path d="M6.562282385714841,12.135499378015252 L6.66193881569048,12.194229996239502 L6.761201685355696,12.255256768571542 L6.859978585206163,12.318747342968324 L6.958152672671392,12.384881553328034 L7.055581976485226,12.453854231883536 L7.152093961638691,12.525874614109204 L7.247472050631146,12.601159924328535 L7.341456512899842,12.679938793795273 L7.433721097262007,12.762433218265462 L7.52387265162983,12.84885529036726 L7.611454418430504,12.939406544490948 L7.695887610055525,13.034203634082298 L7.776484797587062,13.13325148144928 L7.8524895149755505,13.236436947410636 L7.923107341879031,13.343502503670704 L7.987544491543974,13.454013778622755 " />
			<path d="M7.987544491543977,13.454013778622759 L8.035022786763156,13.543847314363079 L8.07982197578485,13.634384330032619 L8.121805519338924,13.725491930248156 L8.160850590438983,13.817028082330353 L8.196849894900993,13.90884135578358 L8.229713491861936,14.000770661775716 L8.25937287734476,14.092652417460986 L8.285782543265684,14.184324157767287 L8.30891961895203,14.275623753825078 L8.328785901402423,14.366400114215965 L8.345405759940206,14.456512873765774 L8.35882402122594,14.545832024447245 L8.36910393251965,14.634238312581477 L8.376325812504156,14.721635107149117 L8.38058269973312,14.807941177879082 L8.3819774929246,14.893089002507878 " />
			<path d="M8.234479437786465,15.573396505288676 L8.209619878782524,15.615195587565937 L8.183255391295678,15.654493101829555 L8.155367608337647,15.691196837094418 L8.12594258110842,15.725218014847966 L8.09497136094616,15.75647230933305 L8.062450575721146,15.784880872700736 L8.028382392245096,15.810371873786199 L7.992775580019252,15.832881095024847 " />
			<path d="M8.3819774929246,14.893089002507882 L8.379769729916072,14.992861707408245 L8.373065814578144,15.088868718848087 L8.361761635014114,15.18086607519503 L8.345777804259965,15.268625124061334 L8.325062520497221,15.351935158858442 L8.299594427265763,15.430606055351536 L8.269385422214988,15.504471022311028 L8.234479437786467,15.573396505288674 " />
			<path d="M-29.99137802864845,-47.04761104905767 L-29.941105810526206,-47.07385395298653 L-29.888545614991088,-47.095860973356054 L-29.83382406415787,-47.113579093326585 L-29.777072987035552,-47.12696562839518 L-29.718429101939734,-47.13598832922635 L-29.6580336871262,-47.14062545934349 L-29.596032240439254,-47.140865847493984 L-29.53257412879465,-47.13670891456172 L-29.46781222834161,-47.12816467496224 L-29.40190255617081,-47.11525371251713 L-29.335003894455504,-47.09800713086578 L-29.267277407931395,-47.07646647853401 L-29.198886255636666,-47.05068364884003 L-29.129995197847542,-47.02072075487888 L-29.06077019915639,-46.98664997988655 L-28.99137802864846,-46.94855340334425 " />
			<path d="M30.405591591021548,36.33409785128381 L30.403888108850428,36.413241522038575 L30.398781766174835,36.49022751697822 L30.39028486462153,36.56487037009776 L30.378417873970598,36.63699026022608 L30.363209382841944,36.706413444230904 L30.344696029822803,36.772972675581215 L30.32292241520218,36.83650760725879 L30.29794099352483,36.896865178048216 L30.269811947223694,36.953899981274766 L30.238603041635123,37.0074746151018 L30.20438946174626,37.057460013543846 L30.167253631067812,37.103735757397864 L30.127285013068594,37.14619036434362 L30.084579895650208,37.1847215575144 L30.039241159181042,37.219236511890934 L29.991378028648462,37.24965207792496 " />
			<path d="M30.405591591021544,-11.022703842524304 L30.405591591021544,36.334097851283815 " />
			<path d="M30.405591591021548,-11.022703842524304 L30.40388810885043,-11.103814525059184 L30.398781766174835,-11.186696816635488 L30.39028486462153,-11.271151046553179 L30.378417873970598,-11.356973757175068 L30.363209382841944,-11.443958194074085 L30.344696029822806,-11.531894804122805 L30.32292241520218,-11.620571740325282 L30.29794099352483,-11.709775372175024 L30.269811947223694,-11.799290800309585 L30.238603041635123,-11.888902374221969 L30.20438946174626,-11.97839421178157 L30.167253631067812,-12.06755071931315 L30.127285013068594,-12.156157110980878 L30.084579895650208,-12.24399992622622 L30.039241159181042,-12.330867544013131 L29.99137802864845,-12.416550692641657 L29.941105810526206,-12.500842953901792 L29.888545614991088,-12.583541260353034 L29.833824064157874,-12.664446384531624 L29.777072987035552,-12.743363418906966 L29.71842910193973,-12.820102245430931 L29.6580336871262,-12.894477993548897 L29.596032240439254,-12.966311485569099 L29.53257412879465,-13.035429668317391 L29.467812228341614,-13.101666030037498 L29.40190255617081,-13.164861001532412 L29.335003894455504,-13.224862340580577 L29.267277407931395,-13.28152549870073 L29.198886255636666,-13.334713969381852 L29.129995197847546,-13.384299616939316 L29.060770199156394,-13.43016298520496 L28.991378028648466,-13.472193585307476 " />
			<path d="M-28.991378028648448,-46.948553403344256 L28.99137802864846,-13.47219358530748 " />
			<path d="M23.051681066681454,18.044574438502746 L22.55670631985087,18.33034824182745 " />
			<path d="M22.556706319850868,-8.124140980230873 L22.556706319850868,18.33034824182745 " />
			<path d="M23.051681066681454,-8.409914783555577 L22.55670631985087,-8.124140980230871 " />
			<path d="M22.556706319850868,18.33034824182745 L-0.35355339059327306,5.1031036307982856 " />
			<path d="M0.14142135623730967,-21.637159394584742 L-0.3535533905932735,-21.351385591260037 " />
			<path d="M-0.3535533905932735,5.103103630798288 L-0.3535533905932735,-21.351385591260037 " />
			<path d="M-0.3535533905932735,-21.351385591260037 L22.556706319850868,-8.124140980230871 " />
			<path d="M-28.067719795723523,-7.026285544791474 L-28.77482657691007,-6.618037254327611 " />
			<path d="M-28.77482657691007,2.1324091628559163 L-28.774826576910073,-6.6180372543276125 " />
			<path d="M-21.50488498283588,1.1379921096680177 L-22.211991764022425,1.5462404001318808 " />
			<path d="M-28.77482657691007,-6.618037254327611 L-22.21199176402242,1.5462404001318824 " />
			<path d="M-22.211991764022425,1.5462404001318806 L-28.77482657691007,2.1324091628559163 " />
			<path d="M-16.072868592673906,-3.2139984554721472 L-16.638554017623143,-2.887399823101057 " />
			<path d="M-15.995528788481629,-2.516149033960482 L-16.638554017623147,-2.8873998231010574 " />
			<path d="M-15.429843363532392,-2.8427476663315723 L-15.99552878848163,-2.516149033960482 " />
			<path d="M-16.638554017623143,-2.887399823101057 L-16.638554017623143,2.723462618961661 " />
			<path d="M-15.995528788481629,-0.23506171099364703 L-15.995528788481629,-2.516149033960482 " />
			<path d="M-15.429843363532392,-0.5616603433647371 L-15.99552878848163,-0.2350617109936466 " />
			<path d="M-16.638554017623143,2.723462618961662 L-14.805600658266139,3.7817187343984573 " />
			<path d="M-14.749253086640337,0.48447590094891346 L-15.995528788481627,-0.23506171099364526 " />
			<path d="M-14.805600658266142,3.7817187343984564 L-14.57793160967512,3.9098146091309167 L-14.378850667276602,4.014707309542091 L-14.290030735899533,4.058452469377196 L-14.208357831070588,4.096396835631978 L-14.13383195278977,4.12854040830644 L-14.066453101057078,4.15488318740058 " />
			<path d="M-13.323990980811203,1.8029903015564201 L-13.37578102826139,1.713070525811978 L-13.432542920266794,1.6241524334950654 L-13.494276656827417,1.5362360246056828 L-13.560982237943257,1.4493212991438298 L-13.632659663614314,1.3634082571095065 L-13.70930893384059,1.278496898502713 L-13.790930048622084,1.1945872233234494 L-13.877523007958796,1.1116792315717152 L-13.969087811850727,1.0297729232475108 L-14.065624460297874,0.9488682983508363 L-14.16713295330024,0.8689653568816915 L-14.273613290857824,0.7900640988400764 L-14.385065472970625,0.7121645242259911 L-14.501489499638645,0.6352666330394354 L-14.622885370861882,0.5593704252804097 L-14.749253086640334,0.4844759009489161 " />
			<path d="M-14.066453101057077,4.15488318740058 L-13.97877255072391,4.186339037124798 L-13.894717303712259,4.211814687281674 L-13.814287360022119,4.231310137871208 L-13.737482719653492,4.244825388893401 L-13.664303382606379,4.252360440348252 L-13.594749348880779,4.25391529223576 L-13.52882061847669,4.249489944555927 L-13.466517191394118,4.239084397308753 " />
			<path d="M-12.929557979430582,3.2420655254415376 L-12.931098733342225,3.1525718389162685 L-12.935720995077155,3.0630183503953257 L-12.943424764635369,2.9734050598787096 L-12.954210042016872,2.8837319673664203 L-12.968076827221658,2.7939990728584574 L-12.985025120249732,2.704206376354821 L-13.005054921101092,2.6143538778555113 L-13.028166229775737,2.524441577360528 L-13.05435904627367,2.434469474869872 L-13.083633370594887,2.344437570383542 L-13.11598920273939,2.254345863901538 L-13.151426542707181,2.1641943554238616 L-13.189945390498258,2.0739830449505114 L-13.23154574611262,1.9837119324814876 L-13.276227609550268,1.8933810180167905 L-13.323990980811201,1.8029903015564233 " />
			<path d="M-13.466517191394116,4.239084397308753 L-13.427694480919158,4.2289555049461 L-13.390127360914045,4.216041410941851 L-13.35381583137878,4.200342115296007 L-13.31875989231336,4.181857618008569 " />
			<path d="M-13.31875989231336,4.181857618008569 L-13.283854489489359,4.159830961753628 L-13.25028977826705,4.134830329079163 L-13.218065758646432,4.106855719985171 L-13.187182430627505,4.075907134471655 L-13.15763979421027,4.041984572538613 L-13.129437849394726,4.005088034186046 L-13.102576596180874,3.9652175194139527 L-13.077056034568713,3.9223730282223355 " />
			<path d="M-13.077056034568713,3.922373028222334 L-13.042486177895714,3.85418380265572 L-13.012525635445781,3.7811805164373955 L-12.987174407218914,3.7033631695673614 L-12.966432493215114,3.620731762045617 L-12.950299893434382,3.533286293872162 L-12.938776607876715,3.4410267650469972 L-12.931862636542116,3.3439531755701224 L-12.929557979430582,3.2420655254415394 " />
			<path d="M-11.435794904174003,-0.5367827131645957 L-12.001480329123241,-0.21018408079350515 " />
			<path d="M-11.358455099981722,0.16106670834707026 L-12.001480329123238,-0.21018408079350526 " />
			<path d="M-10.792769675032485,-0.16553192402401984 L-11.358455099981724,0.1610667083470707 " />
			<path d="M-12.00148032912324,-0.2101840807935056 L-12.00148032912324,5.400678361269213 " />
			<path d="M-11.358455099981722,5.771929150409789 L-11.358455099981722,0.1610667083470707 " />
			<path d="M-10.792769675032485,5.445330518038698 L-11.358455099981724,5.771929150409789 " />
			<path d="M-12.00148032912324,5.400678361269213 L-11.358455099981724,5.771929150409789 " />
			<path d="M-5.549130950795991,4.641591696187968 L-6.11481637574523,4.968190328559058 " />
			<path d="M-6.757841604886747,4.78447859785032 L-6.11481637574523,4.968190328559059 " />
			<path d="M-6.11481637574523,4.968190328559058 L-6.141352301307519,4.840225270692134 L-6.170412991683005,4.714196302435136 L-6.201998446871688,4.590103423788065 L-6.236108666873567,4.467946634750922 L-6.272743651688642,4.347725935323704 L-6.311903401316915,4.229441325506414 L-6.353587915758384,4.1130928052990505 L-6.397797195013049,3.9986803747016144 L-6.444531239080911,3.886204033714105 L-6.49379004796197,3.7756637823365224 L-6.545573621656225,3.6670596205688666 L-6.599881960163677,3.5603915484111384 L-6.6567150634843255,3.4556595658633364 L-6.716072931618171,3.3528636729254613 L-6.777955564565213,3.2520038695975133 L-6.842362962325448,3.1530801558794956 " />
			<path d="M-7.264969749518974,3.423863592288726 L-7.219096714989971,3.496679997270571 L-7.1751140171929,3.5711260066345165 L-7.133021656127761,3.647201620380563 L-7.092819631794554,3.7249068385087094 L-7.054507944193278,3.804241661018957 L-7.018086593323934,3.885206087911305 L-6.983555579186523,3.9678001191857537 L-6.950914901781043,4.0520237548423035 L-6.9201645611074944,4.137876994880953 L-6.891304557165878,4.225359839301704 L-6.864334889956194,4.314472288104555 L-6.83925555947844,4.405214341289507 L-6.816066565732619,4.497585998856559 L-6.79476790871873,4.591587260805713 L-6.775359588436772,4.6872181271369655 L-6.757841604886748,4.784478597850317 " />
			<path d="M-6.842362962325451,3.153080155879492 L-6.908945542078597,3.0564737694938158 L-6.977353721004363,2.9625659481629025 L-7.047587499102747,2.871356691886752 L-7.11964687637375,2.782846000665365 L-7.193531852817372,2.6970338744987403 L-7.269242428433614,2.6139203133868785 L-7.346778603222475,2.53350531732978 L-7.4261403771839545,2.4557888863274444 L-7.507327750318053,2.380771020379872 L-7.590340722624771,2.3084517194870626 L-7.675179294104108,2.2388309836490157 L-7.761843464756064,2.1719088128657322 L-7.8503332345806385,2.1076852071372114 L-7.9406486035778325,2.0461601664634537 L-8.032789571747646,1.9873336908444588 L-8.126756139090075,1.9312057802802287 " />
			<path d="M-8.17978914767907,2.535923560529824 L-8.112902301397154,2.5759460461342587 L-8.047310206301493,2.6180317005894262 L-7.983012862392086,2.6621805238953264 L-7.920010269668934,2.7083925160519597 L-7.858302428132037,2.756667677059326 L-7.797889337781394,2.807006006917425 L-7.738770998617006,2.8594075056262573 L-7.680947410638872,2.913872173185822 L-7.624418573846993,2.97040000959612 L-7.56918448824137,3.0289910148571506 L-7.515245153822001,3.0896451889689143 L-7.462600570588886,3.152362531931411 L-7.411250738542026,3.2171430437446404 L-7.361195657681421,3.283986724408603 L-7.312435328007069,3.352893573923298 L-7.264969749518976,3.4238635922887233 " />
			<path d="M-8.126756139090078,1.931205780280227 L-8.223804214255797,1.8766177711045857 L-8.318560579821844,1.8262383273744611 L-8.411025235788221,1.7800674490898531 L-8.501198182154926,1.7381051362507622 L-8.589079418921962,1.7003513888571877 L-8.674668946089326,1.6668062069091303 L-8.757966763657022,1.6374695904065895 L-8.838972871625044,1.6123415393495653 L-8.917687269993397,1.5914220537380581 L-8.994109958762078,1.5747111335720674 L-9.068240937931089,1.5622087788515937 L-9.140080207500429,1.5539149895766364 L-9.2096277674701,1.5498297657471962 L-9.276883617840097,1.5499531073632726 L-9.341847758610426,1.5542850144248659 L-9.404520189781081,1.5628254869319753 " />
			<path d="M-9.005115343845244,2.3235068718978447 L-8.957222497465684,2.319178702460981 L-8.908837645635346,2.3171977613542993 L-8.859960788354233,2.317564048577799 L-8.810591925622344,2.32027756413148 L-8.760731057439676,2.3253383080153434 L-8.710378183806231,2.332746280229388 L-8.65953330472201,2.342501480773614 L-8.608196420187014,2.354603909648022 L-8.55636753020124,2.3690535668526116 L-8.504046634764688,2.3858504523873827 L-8.45123373387736,2.4049945662523355 L-8.397928827539257,2.4264859084474697 L-8.289842998510716,2.4765102778282837 L-8.179789147679072,2.5359235605298225 " />
			<path d="M-9.404520189781083,1.5628254869319758 L-9.484171051964179,1.5800644498677412 L-9.560615347908627,1.6036656677186871 L-9.63385307761443,1.6336291404848138 L-9.703884241081587,1.6699548681661207 " />
			<path d="M-9.703884241081587,1.669954868166121 L-9.771649196817311,1.7133050862198218 L-9.836114422164936,1.763202409281815 L-9.89727991712446,1.8196468373521006 L-9.955145681695884,1.8826383704306784 L-10.009711715879208,1.9521770085175485 L-10.060978019674433,2.028262751612711 L-10.108944593081556,2.1108955997161654 L-10.15361143610058,2.2000755528279097 " />
			<path d="M-9.566933778584866,2.7971386776313123 L-9.536311732279634,2.7299854333881495 L-9.503051369196118,2.6679054359182635 L-9.467152689334316,2.610898685221654 L-9.428615692694231,2.558965181298321 L-9.38744037927586,2.5121049241482645 L-9.343626749079206,2.4703179137714844 L-9.297174802104267,2.433604150167981 L-9.248084538351044,2.4019636333377545 " />
			<path d="M-9.248084538351044,2.401963633337754 L-9.191978373955333,2.373434572246494 L-9.132781453405798,2.3508487583094224 L-9.070493776702435,2.334206191526539 L-9.005115343845246,2.3235068718978447 " />
			<path d="M-10.153611436100581,2.2000755528279123 L-10.18471783335035,2.2700700511389176 L-10.213817366261424,2.342030540057687 L-10.240910034833801,2.4159570195842197 L-10.265995839067486,2.4918494897185157 L-10.289074778962474,2.5697079504605758 L-10.31014685451877,2.649532401810399 L-10.32921206573637,2.7313228437679866 L-10.346270412615274,2.815079276333337 L-10.361321895155484,2.9008016995064514 L-10.374366513357,2.9884901132873294 L-10.38540426721982,3.0781445176759705 L-10.394435156743947,3.1697649126723757 L-10.40145918192938,3.2633512982765445 L-10.406476342776116,3.358903674488477 L-10.409486639284157,3.4564220413081728 L-10.410490071453506,3.5559063987356287 " />
			<path d="M-9.747577464091117,3.9424664987686024 L-9.744754906505083,3.7680091268903255 L-9.736287233746976,3.6024921533652243 L-9.722174445816801,3.445915578193299 L-9.702416542714555,3.29827940137455 L-9.677013524440238,3.1595836229089764 L-9.645965390993851,3.029828242796579 L-9.62832440608113,2.9683032021228213 L-9.609272142375394,2.909013261037358 L-9.58880859987664,2.851958419540188 L-9.566933778584866,2.797138677631314 " />
			<path d="M-10.410490071453506,3.5559063987356323 L-10.409357164165533,3.665243134950287 L-10.405958442301614,3.774138831446851 L-10.40029390586175,3.8825934882253232 L-10.39236355484594,3.990607105285704 L-10.382167389254185,4.098179682627993 L-10.369705409086484,4.205311220252191 L-10.354977614342838,4.312001718158298 L-10.337984005023245,4.418251176346312 L-10.318724581127707,4.524059594816236 L-10.297199342656222,4.6294269735680675 L-10.273408289608794,4.734353312601808 L-10.247351421985417,4.838838611917457 L-10.219028739786097,4.942882871515015 L-10.188440243010831,5.046486091394481 L-10.155585931659619,5.149648271555855 L-10.120465805732463,5.252369411999135 " />
			<path d="M-9.59510756439777,5.107887790452161 L-9.630842697138398,4.956140226430865 L-9.661813145513609,4.806126920284097 L-9.688018909523404,4.657847872011859 L-9.70945998916778,4.511303081614149 L-9.72613638444674,4.366492549090969 L-9.738048095360282,4.223416274442318 L-9.74519512190841,4.082074257668196 L-9.747577464091117,3.9424664987686047 " />
			<path d="M-10.120465805732461,5.252369411999139 L-10.083254656639502,5.35419726013205 L-10.044127275790887,5.45467956336231 L-10.003083663186613,5.553816321689918 L-9.960123818826684,5.651607535114874 L-9.915247742711097,5.748053203637177 L-9.868455434839854,5.84315332725683 L-9.819746895212953,5.93690790597383 L-9.769122123830396,6.029316939788178 L-9.716581120692181,6.120380428699875 L-9.66212388579831,6.210098372708918 L-9.605750419148782,6.298470771815311 L-9.547460720743597,6.385497626019052 L-9.487254790582755,6.4711789353201405 L-9.425132628666256,6.555514699718578 L-9.3610942349941,6.638504919214363 L-9.29513960956629,6.720149593807493 " />
			<path d="M-9.066434760026263,6.2455609561432555 L-9.156989657992915,6.112456664273147 L-9.24055289955379,5.976750985591244 L-9.317124484708891,5.838443920097548 L-9.386704413458219,5.697535467792058 L-9.449292685801769,5.554025628674775 L-9.504889301739544,5.407914402745697 L-9.553494261271545,5.259201790004826 L-9.59510756439777,5.107887790452164 " />
			<path d="M-9.295139609566288,6.720149593807496 L-9.227806074125114,6.800041322402452 L-9.159630950412875,6.877772703903706 L-9.09061423842957,6.953343738311258 L-9.0207559381752,7.026754425625107 L-8.950056049649763,7.098004765845254 L-8.878514572853263,7.167094758971699 L-8.806131507785695,7.234024405004442 L-8.732906854447062,7.298793703943483 L-8.658840612837365,7.3614026557888215 L-8.583932782956602,7.421851260540458 L-8.508183364804772,7.480139518198392 L-8.431592358381877,7.536267428762624 L-8.354159763687917,7.590234992233154 L-8.27588558072289,7.642042208609982 L-8.1967698094868,7.691689077893107 L-8.116812449979646,7.739175600082528 " />
			<path d="M-8.13007070212689,7.096184542601944 L-8.19937225937117,7.054962279459311 L-8.267236642798709,7.012147788181874 L-8.333663852409504,6.967741068769632 L-8.398653888203558,6.921742121222585 L-8.462206750180867,6.874150945540734 L-8.524322438341436,6.824967541724077 L-8.58500095268526,6.774191909772616 L-8.644242293212342,6.721824049686351 L-8.702046459922682,6.66786396146528 L-8.758413452816278,6.612311645109405 L-8.813343271893133,6.555167100618726 L-8.866835917153244,6.496430327993241 L-8.918891388596613,6.436101327232952 L-8.969509686223239,6.374180098337858 L-9.018690810033123,6.310666641307959 L-9.066434760026262,6.245560956143258 " />
			<path d="M-8.116812449979642,7.73917560008253 L-8.026568292297693,7.789603632934139 L-7.938136786276499,7.835636219103752 L-7.851517931916062,7.87727335859137 L-7.766711729216381,7.91451505139699 L-7.6837181781774575,7.947361297520614 L-7.60253727879929,7.975812096962243 L-7.5231690310818795,7.999867449721875 L-7.4456134350252245,8.01952735579951 L-7.369870490629327,8.03479181519515 L-7.295940197894186,8.045660827908794 L-7.223822556819801,8.052134393940442 L-7.153517567406173,8.054212513290093 L-7.085025229653301,8.051895185957747 L-7.0183455435611855,8.045182411943406 L-6.953478509129827,8.034074191247068 L-6.8904241263592265,8.018570523868735 " />
			<path d="M-7.321317321144777,7.283723601033782 L-7.362153773559249,7.293979643291773 L-7.404284977159976,7.301305387761767 L-7.447710931946957,7.305700834443763 L-7.492431637920193,7.307165983337761 L-7.538447095079683,7.305700834443762 L-7.585757303425429,7.301305387761766 L-7.6343622629574295,7.293979643291772 L-7.684261973675683,7.283723601033781 L-7.735456435580193,7.270537260987792 L-7.7879456486709575,7.254420623153806 L-7.841729612947976,7.235373687531823 L-7.896808328411249,7.213396454121842 L-7.953181795060778,7.188488922923864 L-8.01085001289656,7.160651093937888 L-8.130070702126888,7.096184542601945 " />
			<path d="M-5.63199502671629,6.886319405785366 L-6.197680451665529,7.212918038156456 " />
			<path d="M-6.890424126359225,8.018570523868735 L-6.839342065931325,8.002363525876452 L-6.789903628108217,7.983309690024198 L-6.742108812889901,7.961409016311975 L-6.6959576202763795,7.936661504739782 " />
			<path d="M-6.695957620276379,7.936661504739782 L-6.65375157721148,7.910590463285323 L-6.61302069681681,7.8819643651365965 L-6.57376497909237,7.850783210293605 L-6.535984424038158,7.817046998756346 L-6.4996790316541775,7.78075573052482 L-6.464848801940425,7.741909405599028 L-6.431493734896903,7.70050802397897 L-6.399613830523609,7.656551585664645 L-6.369209088820546,7.610040090656054 L-6.340279509787712,7.5609735389531965 L-6.312825093425108,7.509351930556073 L-6.286845839732733,7.455175265464682 L-6.262341748710588,7.398443543679026 L-6.239312820358672,7.339156765199102 L-6.217759054676986,7.277314930024913 L-6.197680451665529,7.212918038156459 " />
			<path d="M-6.830761991696609,6.675178493061085 L-6.866996808072165,6.776231100056602 L-6.906431874034782,6.868447048545076 L-6.9490671895844605,6.951826338526507 L-6.994902754721199,7.026368970000894 L-7.043938569444999,7.092074942968237 L-7.0696565704020475,7.121614182511768 L-7.096174633755861,7.148944257428537 L-7.123492759506439,7.174065167718546 L-7.151610947653782,7.196976913381794 L-7.180529198197891,7.217679494418281 L-7.210247511138765,7.236172910828007 " />
			<path d="M-7.210247511138765,7.236172910828007 L-7.264541211689521,7.263375519831278 L-7.321317321144775,7.283723601033781 " />
			<path d="M-6.265076566747371,6.348579860689995 L-6.83076199169661,6.675178493061085 " />
			<path d="M-6.197680451665528,7.212918038156456 L-6.830761991696609,6.675178493061086 " />
			<path d="M-4.783466889292434,3.3039406569649667 L-5.349152314241673,3.630539289336057 " />
			<path d="M-4.706127085100155,4.001790078476632 L-5.349152314241672,3.6305392893360566 " />
			<path d="M-4.140441660150917,3.6751914461055426 L-4.706127085100156,4.001790078476633 " />
			<path d="M-5.349152314241671,3.630539289336057 L-5.349152314241671,9.241401731398774 " />
			<path d="M-4.706127085100155,5.94607256181078 L-4.706127085100155,4.001790078476632 " />
			<path d="M-4.140441660150917,5.61947392943969 L-4.706127085100156,5.94607256181078 " />
			<path d="M-4.140441660150917,9.286053888168261 L-4.706127085100156,9.612652520539351 " />
			<path d="M-5.349152314241671,9.241401731398774 L-4.706127085100154,9.61265252053935 " />
			<path d="M-3.9106319562652887,7.300946575787726 L-4.706127085100155,5.94607256181078 " />
			<path d="M-4.706127085100155,9.612652520539351 L-4.706127085100155,6.830185265846584 " />
			<path d="M-2.180430051049455,5.460001940977243 L-3.9106319562652887,7.300946575787725 " />
			<path d="M-1.6147446261002179,5.1334033086061535 L-2.1804300510494556,5.460001940977244 " />
			<path d="M-4.706127085100155,6.830185265846584 L-2.293125194301061,11.005799811747284 " />
			<path d="M-1.3319019136255978,5.949899889533879 L-2.180430051049455,5.460001940977243 " />
			<path d="M-0.7662164886763605,5.6233012571627885 L-1.3319019136255985,5.949899889533879 " />
			<path d="M-0.8557096906702832,11.182494774963676 L-1.4213951156195213,11.509093407334765 " />
			<path d="M-2.293125194301061,11.005799811747284 L-1.4213951156195201,11.509093407334765 " />
			<path d="M-3.4598513832588647,8.058757464961271 L-1.3319019136255976,5.949899889533878 " />
			<path d="M-2.8941659583096273,7.732158832590182 L-3.459851383258865,8.058757464961273 " />
			<path d="M-1.4213951156195206,11.509093407334763 L-3.4598513832588655,8.058757464961271 " />
			<path d="M2.3936669397510246,10.473801258236563 L2.3936669397510246,13.711720511978077 " />
			<path d="M3.602377593841779,13.756372668747563 L3.0366921688925412,14.082971301118652 " />
			<path d="M2.3936669397510246,13.711720511978076 L3.0366921688925412,14.08297130111865 " />
			<path d="M2.0920417034011387,8.87206460611975 L2.1285666343653826,8.942234772793046 L2.162735118170643,9.016396722677543 L2.19454715481692,9.09455045577324 L2.224002744304214,9.176695972080138 L2.251101886632524,9.262833271598236 L2.2758445818018505,9.352962354327536 L2.2982308298121934,9.447083220268036 L2.318260630663553,9.545195869419736 L2.3359339843559295,9.647300301782638 L2.3512508908893217,9.75339651735674 L2.364211350263731,9.86348451614204 L2.374815362479157,9.977564298138544 L2.383062927535599,10.095635863346248 L2.388954045433058,10.217699211765153 L2.392488716171533,10.343754343395258 L2.3936669397510246,10.473801258236557 " />
			<path d="M3.0366921688925417,14.08297130111865 L3.0366921688925417,10.841224719654038 " />
			<path d="M1.0810999771734964,7.917146339206619 L1.1681719944491227,7.968867590214666 L1.2520589238065623,8.021650326645917 L1.3327607652458155,8.07549454850037 L1.4102775187668823,8.130400255778026 L1.4846091843697626,8.186367448478885 L1.5557557620544564,8.243396126602947 L1.6237172518209637,8.301486290150214 L1.6884936536692847,8.360637939120682 L1.750084967599419,8.420851073514354 L1.808491193611367,8.48212569333123 L1.8637123317051285,8.544461798571309 L1.9157483818807035,8.60785938923459 L1.964599344138092,8.672318465321077 L2.010265218477294,8.737839026830764 L2.0527460048983097,8.804421073763656 L2.0920417034011374,8.872064606119748 " />
			<path d="M3.0366921688925417,10.84122471965404 L3.0341026665200324,10.633711794667281 L3.0263341594025044,10.434092733109413 L3.0133866475399578,10.242367534980437 L2.9952601309323925,10.05853620028035 L2.9719546095798086,9.882598729009157 L2.943470083482206,9.714555121166853 L2.909806552639585,9.554405376753442 L2.870964017051946,9.402149495768924 " />
			<path d="M0.3800698948877699,7.699945490920768 L0.4164070869300071,7.698214970670968 L0.4537412373856604,7.6985251935235235 L0.5314004135372153,7.705267868535701 L0.6130474233424347,7.720173515957301 L0.6986822668013183,7.743242135788321 L0.7883049439138663,7.774473728028763 L0.8819154546800786,7.813868292678627 L0.9795137990999554,7.861425829737913 L1.0810999771734946,7.917146339206618 " />
			<path d="M2.870964017051945,9.40214949576892 L2.8492057233669352,9.32811836274996 L2.825362880272056,9.254333912963151 L2.799435487767306,9.180796146408495 L2.771423545852686,9.107505063085993 L2.7413270545281962,9.034460662995643 L2.709146013793837,8.961662946137446 L2.6385302840955074,8.81680756211751 L2.5595763567576975,8.672938911026188 L2.472284231780408,8.530056992863475 L2.3766539091636383,8.388161807629373 L2.272685388907391,8.247253355323888 " />
			<path d="M-0.024306795603287412,8.000390717184015 L-0.005881947137290934,7.960417822679353 L0.014410520804615544,7.923278031338603 L0.03657060822243203,7.888971343161764 L0.06059831511615851,7.8574977581488366 L0.08649364148579501,7.828857276299821 L0.11425658733134147,7.803049897614718 L0.14388715265279797,7.780075622093526 L0.17538533745016396,7.759934449736247 " />
			<path d="M0.17538533745016446,7.759934449736247 L0.22134720761023,7.737034959471879 L0.27078192390318606,7.7194036362478435 L0.32368948632903277,7.70704048006414 L0.3800698948877686,7.699945490920768 " />
			<path d="M2.2726853889073886,8.247253355323885 L2.2175613571525963,8.177655045234216 L2.1603268809642087,8.109275200806392 L2.100981960342226,8.042113822040415 L2.039526595286649,7.9761709089362824 L1.975960785797476,7.9114464614939966 L1.9102845318747081,7.847940479713557 L1.8424978335183453,7.785652963594963 L1.772600690728387,7.724583913138215 L1.700593103504834,7.664733328343313 L1.6264750718476857,7.606101209210257 L1.5502465957569422,7.548687555739046 L1.471907675232604,7.492492367929682 L1.3914583102746703,7.437515645782163 L1.3088985008831415,7.38375738929649 L1.2242282470580177,7.331217598472663 L1.1374475487993019,7.279896273310684 " />
			<path d="M-0.14197378341011113,9.009848404151303 L-0.1401352367256295,8.83416509136172 L-0.13461959667218465,8.6726249505489 L-0.12542686324977653,8.525227981712845 L-0.1125570364584052,8.391974184853552 L-0.09601011629807062,8.272863559971023 L-0.07578610276877279,8.167896107065257 L-0.05188499587051172,8.077071826136255 L-0.03855553240801997,8.036963375163038 L-0.02430679560328794,8.000390717184017 " />
			<path d="M1.1374475487992988,7.2798962733106825 L0.9706318059622477,7.187831100971456 L0.8901371247127952,7.146664902199768 L0.8115845702427247,7.108742961693362 L0.7349741425520362,7.074065279452239 L0.6603058416407297,7.042631855476399 L0.5875796675088051,7.014442689765842 L0.5167956201562626,6.9894977823205675 L0.44795369958310205,6.967797133140577 L0.3810539057893234,6.949340742225868 L0.3160962387749269,6.934128609576442 L0.25308069853991244,6.9221607351923 L0.1920072850842799,6.91343711907344 L0.13287599840802922,6.907957761219863 L0.07568683851116065,6.905722661631569 L0.02043980539367607,6.906731820308558 " />
			<path d="M-0.14197378341011113,12.247767657892815 L-0.14197378341011113,9.0098484041513 " />
			<path d="M0.42371164153912627,11.921169025521728 L-0.1419737834101118,12.247767657892817 " />
			<path d="M0.02043980539367407,6.906731820308558 L-0.025857334100619404,6.910145184696099 L-0.07069653067251844,6.915825645553226 L-0.11407778432202303,6.923773202879938 L-0.15600109504913318,6.933987856676236 L-0.1964664628538489,6.94646960694212 L-0.23547388773617017,6.961218453677589 L-0.273023369696097,6.978234396882645 L-0.309114908733629,6.997517436557285 " />
			<path d="M-0.3091149087336294,6.997517436557285 L-0.35413312787190054,7.026169474519309 L-0.39665573346197025,7.0587021833756936 L-0.4366827255038386,7.095115563126442 L-0.4742141039975054,7.135409613771552 L-0.5092498689429709,7.1795843353110245 L-0.5417900203402348,7.227639727744859 L-0.5718345581892974,7.279575791073055 L-0.5993834824901577,7.335392525295613 " />
			<path d="M-0.7849990125516273,11.87651686875224 L-0.14197378341011058,12.247767657892815 " />
			<path d="M-0.5993834824901585,7.335392525295615 L-0.6218603630835395,7.388235063722538 L-0.6428871223483152,7.444860078375805 L-0.6624637602844858,7.505267569255416 L-0.6805902768920511,7.56945753636137 L-0.6972666721710112,7.637429979693668 L-0.712492946121366,7.7091848992523095 L-0.7262690987431157,7.784722295037295 L-0.7385951300362601,7.864042167048624 L-0.7588968286367332,8.034029339750314 L-0.7733980419227855,8.219146417357377 L-0.7820987698944168,8.419393399869817 L-0.7849990125516273,8.634770287287626 " />
			<path d="M-0.7849990125516273,8.63477028728763 L-0.7849990125516273,11.876516868752242 " />
			<path d="M4.672981454732037,8.763623653965288 L4.107296029782798,9.090222286336378 " />
			<path d="M4.750321258924316,9.461473075476952 L4.107296029782799,9.090222286336378 " />
			<path d="M5.316006683873553,9.134874443105863 L4.7503212589243144,9.461473075476952 " />
			<path d="M4.107296029782798,9.090222286336378 L4.107296029782798,14.701084728399096 " />
			<path d="M4.750321258924316,11.742560398443786 L4.750321258924316,9.46147307547695 " />
			<path d="M5.316006683873553,11.415961766072698 L4.7503212589243144,11.742560398443787 " />
			<path d="M4.107296029782798,14.701084728399096 L5.940249389139803,15.75934084383589 " />
			<path d="M5.996596960765606,12.462098010386345 L4.750321258924316,11.742560398443786 " />
			<path d="M5.940249389139803,15.75934084383589 L6.167918437730823,15.88743671856835 L6.366999380129341,15.992329418979523 L6.455819311506411,16.036074578814628 L6.537492216335355,16.07401894506941 L6.6120180946161735,16.106162517743872 L6.679396946348866,16.132505296838012 " />
			<path d="M7.421859066594742,13.780612410993854 L7.370069019144555,13.69069263524941 L7.313307127139151,13.6017745429325 L7.251573390578528,13.513858134043115 L7.184867809462688,13.426943408581263 L7.113190383791629,13.34103036654694 L7.036541113565353,13.256119007940146 L6.9549199987838595,13.172209332760882 L6.868327039447147,13.089301341009147 L6.776762235555217,13.007395032684943 L6.680225587108069,12.926490407788268 L6.578717094105704,12.846587466319123 L6.47223675654812,12.767686208277508 L6.360784574435318,12.689786633663424 L6.2443605477672985,12.612888742476867 L6.122964676544061,12.536992534717841 L5.99659696076561,12.462098010386349 " />
			<path d="M6.6793969463488665,16.132505296838012 L6.767077496682033,16.16396114656223 L6.851132743693685,16.189436796719107 L6.931562687383825,16.208932247308642 L7.008367327752452,16.222447498330833 L7.081546664799565,16.229982549785685 L7.151100698525165,16.231537401673194 L7.217029428929253,16.22711205399336 L7.279332856011826,16.216706506746185 " />
			<path d="M7.816292067975363,15.21968763487897 L7.81475131406372,15.1301939483537 L7.810129052328791,15.040640459832758 L7.802425282770575,14.951027169316141 L7.791640005389074,14.861354076803853 L7.777773220184287,14.77162118229589 L7.760824927156213,14.681828485792254 L7.740795126304853,14.591975987292944 L7.717683817630208,14.50206368679796 L7.691491001132276,14.412091584307305 L7.662216676811058,14.322059679820974 L7.6298608446665535,14.231967973338971 L7.594423504698764,14.141816464861295 L7.555904656907687,14.051605154387945 L7.514304301293325,13.96133404191892 L7.469622437855676,13.871003127454225 L7.4218590665947435,13.780612410993857 " />
			<path d="M7.279332856011827,16.216706506746185 L7.3181555664867854,16.20657761438353 L7.355722686491898,16.193663520379282 L7.392034216027164,16.17796422473344 L7.427090155092584,16.159479727446 " />
			<path d="M7.427090155092584,16.159479727446 L7.461995557916585,16.13745307119106 L7.495560269138894,16.112452438516595 L7.527784288759512,16.084477829422603 L7.558667616778438,16.053529243909086 L7.588210253195673,16.019606681976043 L7.616412198011217,15.982710143623477 L7.6432734512250695,15.942839628851385 L7.668794012837229,15.899995137659767 " />
			<path d="M7.66879401283723,15.899995137659765 L7.7033638695102296,15.83180591209315 L7.733324411960163,15.758802625874827 L7.75867564018703,15.680985279004792 L7.77941755419083,15.598353871483049 L7.795550153971563,15.510908403309593 L7.80707343952923,15.418648874484429 L7.813987410863829,15.321575285007555 L7.816292067975363,15.219687634878971 " />
			<path d="M0.4949747468305832,-19.881691745590132 L21.708178182427012,-7.634243031674236 " />
			<path d="M21.70817818242701,-7.634243031674239 L21.70817818242701,16.860654396157546 " />
			<path d="M21.70817818242701,16.860654396157546 L0.49497474683057874,4.6132056822416505 " />
			<path d="M0.4949747468305832,4.613205682241652 L0.4949747468305832,-19.881691745590132 " />
			<path d="M-15.995528788481629,2.4325857120061594 L-15.995528788481629,0.4270659851024319 " />
			<path d="M-15.995528788481629,0.42706598510243055 L-14.739309397529903,1.1523445886296373 " />
			<path d="M-14.739309397529903,1.1523445886296377 L-14.58917004997181,1.2432137210553957 L-14.450320932757862,1.3359367153470294 L-14.385130210529939,1.3829934106925499 L-14.322762045888052,1.4305135715045392 L-14.263216438832199,1.4784971977829977 L-14.206493389362382,1.526944289527925 L-14.152592897478602,1.5758548467393214 L-14.101514963180854,1.6252288694171866 L-14.053259586469144,1.675066357561521 L-14.007826767343467,1.7253673111723242 L-13.965216505803827,1.7761317302495967 L-13.92542880185022,1.827359614793338 L-13.88846365548265,1.879050964803548 L-13.854321066701116,1.9312057802802256 " />
			<path d="M-13.854321066701115,1.9312057802802274 L-13.822612610149738,1.9838539622212121 L-13.792949860472643,2.0370254116243394 L-13.765332817669831,2.0907201284896093 L-13.7397614817413,2.1449381128170213 L-13.716235852687054,2.1996793646065758 L-13.694755930507089,2.2549438838582723 L-13.675321715201406,2.3107316705721117 L-13.657933206770007,2.367042724748093 L-13.64259040521289,2.4238770463862176 L-13.629293310530054,2.481234635486484 L-13.6180419227215,2.539115492048893 L-13.608836241787229,2.597519616073444 L-13.60167626772724,2.656447007560138 L-13.596562000541535,2.7158976665089742 L-13.59349344023011,2.7758715929199527 L-13.59247058679297,2.8363687867930714 " />
			<path d="M-13.59247058679297,2.8363687867930736 L-13.594878823999403,2.9214221751395915 L-13.602103535618705,3.0005252649166048 L-13.614144721650874,3.0736780561241126 L-13.63100238209591,3.140880548762116 L-13.652676516953813,3.2021327428306137 L-13.679167126224582,3.2574346383296064 L-13.71047420990822,3.306786235259094 L-13.746597768004726,3.350187533619076 " />
			<path d="M-13.746597768004726,3.350187533619077 L-13.787782469711969,3.3879688968447477 L-13.832190184481712,3.418275491123989 " />
			<path d="M-13.832190184481714,3.418275491123989 L-13.866337544643624,3.4355458700986636 L-13.902172857456865,3.448901571777121 L-13.939696122921431,3.4583425961593623 L-13.978907341037326,3.4638689432453864 L-14.01980651180455,3.4654806130351945 L-14.062393635223101,3.4631776055287853 L-14.106668711292981,3.4569599207261597 L-14.152631740014186,3.446827558627318 " />
			<path d="M-14.152631740014188,3.4468275586273176 L-14.1975337111535,3.4325647826592083 L-14.251032830169542,3.411783589162696 L-14.313129097062317,3.3844839781377813 L-14.383822511831822,3.350665949584464 L-14.551000785001024,3.263474639892622 L-14.752567649677149,3.15020966008717 " />
			<path d="M-14.75256764967715,3.150209660087169 L-15.995528788481629,2.43258571200616 " />
			<path d="M4.750321258924316,14.410207821443592 L4.750321258924316,12.404688094539864 " />
			<path d="M4.750321258924316,12.404688094539864 L6.006540649876042,13.12996669806707 " />
			<path d="M6.006540649876042,13.129966698067072 L6.156679997434133,13.22083583049283 L6.295529114648083,13.313558824784463 L6.360719836876006,13.360615520129983 L6.423088001517893,13.408135680941973 L6.482633608573745,13.456119307220431 L6.5393566580435625,13.504566398965359 L6.593257149927344,13.553476956176754 L6.64433508422509,13.602850978854619 L6.692590460936802,13.652688466998955 L6.738023280062477,13.702989420609757 L6.780633541602119,13.753753839687029 L6.820421245555725,13.804981724230771 L6.857386391923295,13.85667307424098 L6.891528980704829,13.908827889717658 " />
			<path d="M6.89152898070483,13.90882788971766 L6.9232374372562075,13.961476071658645 L6.952900186933301,14.014647521061772 L6.9805172297361135,14.068342237927043 L7.006088565664643,14.122560222254455 L7.02961419471889,14.17730147404401 L7.051094116898856,14.232565993295706 L7.070528332204538,14.288353780009546 L7.0879168406359385,14.344664834185526 L7.1032596421930565,14.40149915582365 L7.116556736875892,14.458856744923917 L7.127808124684445,14.516737601486327 L7.137013805618715,14.575141725510878 L7.144173779678704,14.634069116997571 L7.1492880468644096,14.693519775946408 L7.152356607175833,14.753493702357385 L7.153379460612975,14.813990896230505 " />
			<path d="M7.153379460612975,14.813990896230507 L7.150971223406541,14.899044284577025 L7.14374651178724,14.978147374354037 L7.131705325755071,15.051300165561546 L7.114847665310036,15.11850265819955 L7.093173530452132,15.179754852268045 L7.066682921181362,15.235056747767038 L7.035375837497724,15.284408344696526 L6.99925227940122,15.327809643056508 " />
			<path d="M6.999252279401219,15.327809643056508 L6.958067577693975,15.365591006282179 L6.913659862924229,15.39589760056142 " />
			<path d="M6.913659862924229,15.39589760056142 L6.879512502762318,15.413167979536096 L6.843677189949078,15.426523681214553 L6.806153924484511,15.435964705596794 L6.766942706368615,15.441491052682819 L6.726043535601392,15.443102722472627 L6.683456412182841,15.440799714966218 L6.639181336112962,15.434582030163591 L6.593218307391756,15.42444966806475 " />
			<path d="M6.593218307391755,15.42444966806475 L6.5483163362524435,15.41018689209664 L6.494817217236401,15.389405698600129 L6.432720950343628,15.362106087575214 L6.362027535574123,15.328288059021897 L6.1948492624049205,15.241096749330055 L5.993282397728796,15.127831769524603 " />
			<path d="M5.993282397728795,15.127831769524601 L4.750321258924316,14.410207821443592 " />
			<path d="M0.4949747468305832,4.613205682241652 L1.4142135623730954,4.08248290463863 " />
			<path d="M21.70817818242701,15.799208840951499 L1.4142135623730923,4.082482904638626 " />
			<path d="M1.4142135623730954,4.08248290463863 L1.4142135623730954,-19.35096896798711 " />
			<path d="M-15.429843363532392,0.7536646174735182 L-15.429843363532392,2.105987079635071 " />
			<path d="M-15.429843363532392,2.105987079635069 L-15.99552878848163,2.4325857120061594 " />
			<path d="M-13.632770937775096,3.1466857845134424 L-14.15263174001419,3.4468275586273176 " />
			<path d="M-14.186882224727913,2.8236110277160753 L-14.024582487404263,2.9153686870137596 L-13.873137723457695,2.996310633468917 L-13.73685104774389,3.0627274128319852 L-13.676360502347112,3.0888865577887645 L-13.62229332070925,3.10930148826317 " />
			<path d="M-15.429843363532395,2.1059870796350673 L-14.186882224727915,2.823611027716077 " />
			<path d="M5.316006683873554,12.731286726910952 L5.316006683873554,14.0836091890725 " />
			<path d="M5.316006683873553,14.083609189072504 L4.7503212589243144,14.410207821443594 " />
			<path d="M7.113079109630849,15.124307893950874 L6.593218307391753,15.424449668064751 " />
			<path d="M6.558967822678033,14.80123313715351 L6.7212675600016905,14.8929907964512 L6.87271232394825,14.973932742906351 L7.008998999662064,15.040349522269423 L7.069489545058838,15.066508667226199 L7.123556726696698,15.086923597700602 " />
			<path d="M5.316006683873557,14.083609189072504 L6.558967822678035,14.801233137153513 " />
			<path d="M-28.99137802864845,-46.94855340334425 L-31.536962440920025,-45.47885955767434 " />
			<path d="M28.99137802864845,-13.472193585307483 L26.44579361637688,-12.002499739637576 " />
			<path d="M30.405591591021544,-11.022703842524304 L27.86000717874997,-9.553009996854398 " />
			<path d="M30.405591591021544,36.334097851283815 L27.86000717874997,37.80379169695372 " />
			<path d="M-14.1835676616911,0.15787726857782336 L-14.749253086640339,0.4844759009489139 " />
			<path d="M-12.758305555861966,1.47639166918533 L-13.323990980811205,1.8029903015564206 " />
			<path d="M-12.363872554481345,2.9154668930704473 L-12.929557979430584,3.2420655254415376 " />
			<path d="M-12.511370609619476,3.595774395851244 L-13.077056034568715,3.922373028222334 " />
			<path d="M-6.276677537376213,2.826481523508402 L-6.842362962325452,3.1530801558794925 " />
			<path d="M-7.5610707141408415,1.6046071479091368 L-8.12675613909008,1.9312057802802274 " />
			<path d="M-8.838834764831844,1.2362268545608857 L-9.404520189781083,1.5628254869319762 " />
			<path d="M-9.00124835363563,2.470540045260222 L-9.566933778584868,2.7971386776313123 " />
			<path d="M-9.18189203914188,3.6158678663975126 L-9.747577464091119,3.942466498768603 " />
			<path d="M-9.029422139448531,4.781289158081071 L-9.59510756439777,5.107887790452161 " />
			<path d="M-8.500749335077026,5.918962323772165 L-9.066434760026265,6.2455609561432555 " />
			<path d="M-7.564385277177653,6.7695859102308535 L-8.130070702126892,7.096184542601944 " />
			<path d="M-7.10910733675075,7.161204109419164 L-7.321317321144777,7.283723601033782 " />
			<path d="M3.602377593841779,10.51462608728295 L3.0366921688925412,10.84122471965404 " />
			<path d="M3.4366494420011824,9.075550863397833 L2.8709640170519446,9.402149495768922 " />
			<path d="M2.838370813856625,7.920654722952793 L2.2726853889073872,8.247253355323883 " />
			<path d="M0.49415030525167614,7.701059370442129 L-0.02430679560328808,8.000390717184017 " />
			<path d="M1.7031329737485352,6.953297640939592 L1.1374475487992972,7.2798962733106825 " />
			<path d="M0.42371164153912627,8.683249771780213 L-0.1419737834101118,9.009848404151303 " />
			<path d="M0.5861252303429114,6.580133187937468 L0.020439805393673405,6.906731820308559 " />
			<path d="M6.562282385714843,12.135499378015258 L5.996596960765604,12.462098010386347 " />
			<path d="M7.987544491543977,13.454013778622762 L7.421859066594738,13.780612410993852 " />
			<path d="M8.3819774929246,14.893089002507882 L7.816292067975361,15.219687634878971 " />
			<path d="M8.234479437786467,15.573396505288677 L7.668794012837228,15.899995137659767 " />
			<path d="M-14.186882224727913,2.823611027716079 L-14.752567649677152,3.150209660087169 " />
			<path d="M6.5589678226780315,14.801233137153513 L5.993282397728793,15.127831769524603 " />
			<path d="M-29.991378028648448,-47.04761104905768 L-32.53696244092002,-45.57791720338777 " />
			<path d="M29.991378028648448,37.249652077924964 L27.445793616376875,38.71934592359487 " />
			<path d="M-12.753074467364122,3.8552589856374775 L-13.318759892313361,4.181857618008567 " />
			<path d="M-9.13819881613235,1.34335623579503 L-9.703884241081585,1.6699548681661207 " />
			<path d="M-6.130272195327143,7.610062872368692 L-6.695957620276379,7.936661504739782 " />
			<path d="M0.256570516215608,6.670918804186194 L-0.3091149087336289,6.997517436557284 " />
			<path d="M7.992775580041821,15.83288109507491 L7.427090155092585,16.159479727446 " />

       </g>
    </g>
    
</svg>
