<?xml version="1.0" encoding="UTF-8" standalone="no"?>
<svg
   xmlns:svg="http://www.w3.org/2000/svg"
   xmlns="http://www.w3.org/2000/svg"
   width="960.0"
   height="720.0"

>
    <g transform="scale(5.294313754684557, -5.294313754684557)   translate(41.302718035020405,-56.59272186837516)" stroke-width="0.7"  fill="none">
       <!-- hidden lines -->
       <g  stroke="rgb(160,160,160)" fill="none" stroke-dasharray="0.7,0.7" >

       </g>

       <!-- solid lines -->
       <g  stroke="rgb(37,42,48)" fill="none">
			<path d="M40.446507883870524,-46.70360442906593 L40.446507883870524,8.49156444164835 " />
			<path d="M36.76955262170048,-48.82649553947802 L36.76955262170048,6.368673331236259 " />
			<path d="M40.44650788387052,-46.70360442906593 L40.44463405348229,-46.79066246689618 L40.43901707653914,-46.87534706132979 L40.4296704848305,-46.95745419976128 L40.41661679511448,-47.03678607890243 L40.39988745487296,-47.11315158130774 L40.3795227665519,-47.18636673579308 L40.35557179046921,-47.25625516063842 L40.32809222662413,-47.322648488506786 L40.29715027569288,-47.38538677205599 L40.262820479545454,-47.44431886926572 L40.225185541667706,-47.49930280755198 L40.18433612792141,-47.55020612579139 L40.14037064812227,-47.59690619343173 L40.09339501896205,-47.63929050591959 L40.043522408845966,-47.67725695573377 L39.990872965260124,-47.7107140783712 " />
			<path d="M40.44650788387052,8.49156444164835 L40.44463405348229,8.580786192436715 L40.43901707653914,8.671956713170651 L40.4296704848305,8.76485636608011 L40.41661679511448,8.859261347764189 L40.39988745487296,8.954944228353108 L40.3795227665519,9.051674499406701 L40.35557179046921,9.149219129229426 L40.32809222662413,9.24734312426414 L40.29715027569288,9.345810095212158 L40.262820479545454,9.44438282651578 L40.225185541667706,9.542823847831341 L40.18433612792141,9.64089600611608 L40.14037064812227,9.738363036950581 L40.09339501896205,9.834990133720456 L40.043522408845966,9.930544513286058 L39.99087296526012,10.024795976777437 L39.935573525325644,10.117517464163587 L39.877757310237016,10.208485601259952 L39.817563604320476,10.2974812378564 L39.755137419485926,10.384289975669278 L39.69062914588052,10.468702684845638 L39.62419418958564,10.5505160077754 L39.55599259823,10.629532848997624 L39.486188675420934,10.705562850020746 L39.41495058492259,10.77842284791286 L39.34244994553471,10.847937316557267 L39.26886141764787,10.913938789510249 L39.19436228247135,10.976268263442417 L39.11913201494715,11.034775581191653 L39.043351851379114,11.089319793504862 L38.967204352818854,11.139769498597072 L38.89087296526013,11.186003158709838 " />
			<path d="M38.890872965260115,11.18600315870985 L-31.53696244092002,51.84753288891062 " />
			<path d="M-32.63696244092002,51.95649629919538 L-32.58166300098555,51.98536349351713 L-32.52384678589692,52.00957121592361 L-32.46365307998038,52.029061147891184 L-32.40122689514583,52.04378633646664 L-32.33671862154043,52.05371130738092 L-32.27028366524554,52.05881215050978 L-32.202082073889905,52.059076577475324 L-32.13227815108084,52.054503951249835 L-32.0610400605825,52.04510528769041 L-31.988539421194613,52.030903229000785 L-31.914950893307775,52.0119319891843 L-31.84045175813126,51.988237271619354 L-31.765221490607054,51.95987615895598 L-31.689441327039024,51.92691697559871 L-31.613293828478756,51.889439123107145 L-31.53696244092003,51.84753288891062 " />
			<path d="M36.76955262170047,-48.826495539478024 L36.76767879131224,-48.91355357730827 L36.76206181436909,-48.99823817174188 L36.752715222660456,-49.08034531017337 L36.73966153294443,-49.15967718931452 L36.72293219270291,-49.23604269171983 L36.702567504381854,-49.30925784620517 L36.678616528299166,-49.37914627105051 L36.65113696445408,-49.44553959891888 L36.62019501352283,-49.50827788246808 L36.58586521737541,-49.56720997967781 L36.54823027949766,-49.62219391796407 L36.507380865751365,-49.67309723620348 L36.463415385952224,-49.71979730384382 L36.416439756792,-49.76218161633168 L36.36656714667592,-49.80014806614586 L36.31391770309008,-49.83360518878329 " />
			<path d="M36.31391770309007,-49.833605188783295 L36.2586182631556,-49.862472383105036 L36.20080204806697,-49.886680105511516 L36.14060834215043,-49.90617003747909 L36.07818215731588,-49.92089522605455 L36.013673883710474,-49.93082019696884 L35.94723892741559,-49.93592104009769 L35.87903733605995,-49.93618546706323 L35.80923341325089,-49.931612840837744 L35.737995322752546,-49.92221417727832 L35.66549468336466,-49.908012118588694 L35.59190615547782,-49.88904087877221 L35.517407020301306,-49.86534616120726 L35.4421767527771,-49.83698504854389 L35.36639658920907,-49.80402586518662 L35.2902490906488,-49.766548012695054 L35.21391770309007,-49.72464177849852 " />
			<path d="M36.76955262170047,6.368673331236262 L36.76767879131224,6.457895082024629 L36.76206181436909,6.549065602758564 L36.752715222660456,6.6419652556680235 L36.73966153294443,6.7363702373521015 L36.72293219270291,6.832053117941021 L36.702567504381854,6.928783388994613 L36.678616528299166,7.026328018817337 L36.65113696445408,7.124452013852053 L36.62019501352283,7.222918984800071 L36.58586521737541,7.321491716103692 L36.54823027949766,7.419932737419253 L36.507380865751365,7.518004895703992 L36.463415385952224,7.615471926538493 L36.416439756792,7.71209902330837 L36.36656714667592,7.807653402873971 L36.31391770309007,7.901904866365349 L36.2586182631556,7.9946263537514985 L36.20080204806697,8.085594490847864 L36.14060834215043,8.174590127444313 L36.07818215731588,8.26139886525719 L36.013673883710474,8.34581157443355 L35.94723892741559,8.427624897363312 L35.87903733605995,8.506641738585536 L35.80923341325089,8.582671739608658 L35.737995322752546,8.655531737500773 L35.66549468336466,8.72504620614518 L35.59190615547782,8.791047679098162 L35.517407020301306,8.85337715303033 L35.4421767527771,8.911884470779565 L35.36639658920907,8.966428683092774 L35.29024909064881,9.016878388184985 L35.21391770309008,9.06311204829775 " />
			<path d="M35.21391770309007,9.06311204829776 L38.890872965260115,11.186003158709848 " />
			<path d="M35.21391770309007,-49.72464177849852 L-35.21391770309007,-9.063112048297754 " />
			<path d="M35.21391770309007,9.063112048297763 L26.87005768508881,13.880441875771346 " />
			<path d="M-36.76955262170047,-6.368673331236262 L-36.76767879131224,-6.457895082024628 L-36.76206181436909,-6.549065602758563 L-36.752715222660456,-6.641965255668023 L-36.73966153294443,-6.736370237352101 L-36.72293219270291,-6.832053117941021 L-36.702567504381854,-6.928783388994613 L-36.678616528299166,-7.026328018817338 L-36.65113696445408,-7.124452013852053 L-36.62019501352283,-7.222918984800072 L-36.58586521737541,-7.321491716103693 L-36.54823027949766,-7.419932737419255 L-36.507380865751365,-7.518004895703993 L-36.463415385952224,-7.615471926538492 L-36.416439756792,-7.712099023308369 L-36.36656714667592,-7.807653402873971 L-36.31391770309007,-7.901904866365348 L-36.2586182631556,-7.9946263537514985 L-36.20080204806697,-8.085594490847864 L-36.14060834215043,-8.174590127444315 L-36.07818215731588,-8.261398865257188 L-36.013673883710474,-8.345811574433549 L-35.94723892741559,-8.42762489736331 L-35.87903733605995,-8.506641738585532 L-35.80923341325089,-8.582671739608656 L-35.737995322752546,-8.655531737500773 L-35.66549468336466,-8.725046206145178 L-35.59190615547782,-8.79104767909816 L-35.517407020301306,-8.85337715303033 L-35.4421767527771,-8.911884470779565 L-35.36639658920907,-8.966428683092774 L-35.29024909064881,-9.016878388184985 L-35.213917703090075,-9.063112048297754 " />
			<path d="M26.870057685088806,8.981462390204987 L26.870057685088806,13.880441875771343 " />
			<path d="M-36.76955262170048,-6.368673331236263 L-36.76955262170048,48.82649553947802 " />
			<path d="M30.405591591021544,6.940220937885673 L26.870057685088806,8.981462390204989 " />
			<path d="M-36.76955262170047,48.826495539478024 L-36.76767879131224,48.91355357730827 L-36.76206181436909,48.99823817174188 L-36.752715222660456,49.08034531017337 L-36.73966153294443,49.15967718931452 L-36.72293219270291,49.23604269171983 L-36.702567504381854,49.30925784620517 L-36.678616528299166,49.37914627105051 L-36.65113696445408,49.44553959891888 L-36.62019501352283,49.50827788246808 L-36.58586521737541,49.56720997967781 L-36.54823027949766,49.62219391796407 L-36.507380865751365,49.67309723620348 L-36.463415385952224,49.71979730384382 L-36.416439756792,49.76218161633168 L-36.36656714667592,49.80014806614586 L-36.31391770309007,49.83360518878329 " />
			<path d="M-36.31391770309007,49.833605188783295 L-36.2586182631556,49.862472383105036 L-36.20080204806697,49.886680105511516 L-36.14060834215043,49.90617003747909 L-36.07818215731588,49.92089522605455 L-36.013673883710474,49.93082019696884 L-35.94723892741559,49.93592104009769 L-35.87903733605995,49.93618546706323 L-35.80923341325089,49.931612840837744 L-35.737995322752546,49.92221417727832 L-35.66549468336466,49.908012118588694 L-35.59190615547782,49.88904087877221 L-35.517407020301306,49.86534616120726 L-35.4421767527771,49.83698504854389 L-35.36639658920907,49.80402586518662 L-35.2902490906488,49.766548012695054 L-35.213917703090075,49.72464177849853 " />
			<path d="M30.405591591021544,-12.655697004379753 L30.405591591021544,6.940220937885673 " />
			<path d="M-4.242640687119291,31.843366656181324 L-35.21391770309007,49.72464177849853 " />
			<path d="M21.213203435596427,-38.37533930360313 L21.213203435596427,-25.311394008759507 " />
			<path d="M21.213203435596427,-25.31139400875951 L1.4142135623730923,-13.880441875771343 " />
			<path d="M-12.727922061357857,-15.513435037626795 L-12.727922061357857,-5.715476066494082 " />
			<path d="M-12.727922061357857,-5.715476066494083 L-29.698484809835,4.082482904638632 " />
			<path d="M-35.21391770309007,49.72464177849852 L-31.53696244092002,51.847532888910614 " />
			<path d="M-4.242640687119286,31.84336665618132 L-9.758073580374358,28.659029990563187 " />
			<path d="M21.354624791833736,10.696105210153213 L-9.758073580374361,28.65902999056319 " />
			<path d="M26.870057685088806,13.880441875771345 L21.354624791833736,10.696105210153211 " />
			<path d="M26.870057685088806,8.981462390204987 L25.3144227664784,8.083316151184489 " />
			<path d="M25.3144227664784,-4.9806291436591295 L25.3144227664784,8.08331615118449 " />
			<path d="M24.890158697766473,-5.225578117937448 L25.3144227664784,-4.98062914365913 " />
			<path d="M24.890158697766473,10.451156235874898 L24.890158697766473,-5.225578117937447 " />
			<path d="M23.475945135393378,9.634659654947171 L24.890158697766473,10.451156235874898 " />
			<path d="M23.475945135393378,-10.94105418443153 L23.475945135393378,9.63465965494717 " />
			<path d="M21.354624791833736,-12.16579905582312 L23.475945135393378,-10.94105418443153 " />
			<path d="M21.354624791833736,10.696105210153213 L21.354624791833736,-12.165799055823118 " />
			<path d="M28.84995667241114,6.042074698865174 L25.3144227664784,8.08331615118449 " />
			<path d="M28.84995667241114,6.042074698865174 L30.405591591021544,6.940220937885673 " />
			<path d="M28.84995667241114,-13.553843243400252 L30.405591591021544,-12.655697004379753 " />
			<path d="M28.84995667241114,-13.553843243400252 L28.84995667241114,6.042074698865175 " />
			<path d="M28.84995667241114,-13.553843243400252 L23.475945135393378,-10.451156235874892 " />
			<path d="M-9.758073580374358,28.659029990563187 L-9.758073580374358,5.797125724586856 " />
			<path d="M24.890158697766473,-5.225578117937448 L23.475945135393378,-4.409081537009721 " />
			<path d="M19.79898987322333,-39.19183588453085 L21.213203435596427,-38.37533930360313 " />
			<path d="M19.79898987322333,-26.127890589687237 L21.213203435596427,-25.31139400875951 " />
			<path d="M19.79898987322333,-39.19183588453085 L19.79898987322333,-26.127890589687233 " />
			<path d="M19.79898987322333,-39.19183588453085 L-3.552713678800501e-15,-27.760883751542686 " />
			<path d="M0.0,-14.69693845669907 L1.4142135623730954,-13.880441875771345 " />
			<path d="M0.0,-27.76088375154269 L0.0,-14.69693845669907 " />
			<path d="M19.79898987322333,-26.127890589687237 L-3.552713678800501e-15,-14.696938456699069 " />
			<path d="M-13.859292911256333,-16.166632302368978 L-12.727922061357855,-15.513435037626797 " />
			<path d="M-13.859292911256333,-6.368673331236264 L-12.727922061357855,-5.715476066494082 " />
			<path d="M-13.859292911256333,-16.166632302368978 L-13.859292911256333,-6.3686733312362644 " />
			<path d="M-13.859292911256333,-6.368673331236264 L-30.829855659733475,3.4292856398964515 " />
			<path d="M-30.829855659733475,3.4292856398964484 L-29.698484809834998,4.0824829046386295 " />
			<path d="M-13.859292911256333,-16.166632302368978 L-30.829855659733475,-6.368673331236263 " />
			<path d="M-30.829855659733475,-6.3686733312362644 L-30.829855659733475,3.429285639896449 " />
			<path d="M21.354624791833736,-12.16579905582312 L-9.758073580374361,5.7971257245868575 " />
			<path d="M36.76955262170048,-48.82649553947802 L40.446507883870524,-46.703604429065926 " />
			<path d="M36.76955262170048,6.368673331236263 L40.446507883870524,8.49156444164835 " />
			<path d="M36.31391770309006,-49.83360518878328 L39.99087296526011,-47.71071407837119 " />
			<path d="M-36.31391770309006,49.83360518878328 L-32.636962440920016,51.95649629919537 " />

       </g>
    </g>
    
</svg>
