<?xml version="1.0" encoding="UTF-8" standalone="no"?>
<svg
   xmlns:svg="http://www.w3.org/2000/svg"
   xmlns="http://www.w3.org/2000/svg"
   width="960.0"
   height="720.0"

>
    <g transform="scale(6.9230769230769225, -6.9230769230769225)   translate(55.46666666666667,-39.46666666666667)" stroke-width="0.7"  fill="none">
       <!-- hidden lines -->
       <g  stroke="rgb(160,160,160)" fill="none" stroke-dasharray="0.7,0.7" >

       </g>

       <!-- solid lines -->
       <g  stroke="rgb(37,42,48)" fill="none">
			<path d="M-52.0,-33.8 L-52.0,33.8 " />
			<path d="M-52.0,-33.8 L-51.996277948196784,-33.92791862360304 L-51.98512438703227,-34.05540441107551 L-51.96657705662685,-34.182025990867245 L-51.94069871527561,-34.30735491563337 L-51.90757692709407,-34.4309671119644 L-51.867323765729,-34.55244431531647 L-51.8200754351366,-34.67137548528615 L-51.765991808711505,-34.78735819644102 L-51.70525588832576,-34.9 L-51.63807318510845,-35.008919751755776 L-51.56467102406109,-35.11374890174613 L-51.48529777486174,-35.21413274131039 L-51.4002220114607,-35.309731603311214 L-51.30973160331121,-35.400222011460706 L-51.21413274131038,-35.485297774861756 L-51.11374890174612,-35.5646710240611 L-51.00891975175576,-35.63807318510846 L-50.89999999999999,-35.705255888325766 L-50.787358196441005,-35.76599180871151 L-50.671375485286134,-35.8200754351366 L-50.55244431531646,-35.867323765729 L-50.430967111964385,-35.90757692709408 L-50.307354915633354,-35.940698715275616 L-50.18202599086723,-35.96657705662686 L-50.05540441107549,-35.98512438703227 L-49.927918623603034,-35.99627794819679 L-49.79999999999998,-36.0 " />
			<path d="M-52.0,33.8 L-51.996277948196784,33.92791862360304 L-51.98512438703227,34.0554044110755 L-51.96657705662685,34.182025990867245 L-51.94069871527561,34.30735491563337 L-51.90757692709407,34.43096711196439 L-51.867323765729,34.55244431531647 L-51.8200754351366,34.67137548528614 L-51.765991808711505,34.78735819644101 L-51.705255888325766,34.9 L-51.63807318510846,35.00891975175577 L-51.56467102406109,35.11374890174613 L-51.48529777486175,35.21413274131038 L-51.400222011460706,35.30973160331121 L-51.309731603311214,35.400222011460706 L-51.21413274131039,35.48529777486175 L-51.11374890174613,35.56467102406109 L-51.008919751755776,35.63807318510845 L-50.9,35.70525588832576 L-50.78735819644102,35.765991808711505 L-50.67137548528615,35.8200754351366 L-50.55244431531647,35.867323765729 L-50.4309671119644,35.90757692709407 L-50.307354915633375,35.94069871527561 L-50.18202599086725,35.96657705662685 L-50.055404411075514,35.98512438703227 L-49.927918623603055,35.996277948196784 L-49.800000000000004,36.0 " />
			<path d="M-49.8,-36.0 L49.8,-36.0 " />
			<path d="M-49.8,36.0 L49.8,36.0 " />
			<path d="M52.0,-33.8 L51.996277948196784,-33.92791862360304 L51.98512438703227,-34.05540441107551 L51.96657705662685,-34.182025990867245 L51.94069871527561,-34.30735491563337 L51.90757692709407,-34.4309671119644 L51.867323765729,-34.55244431531647 L51.8200754351366,-34.67137548528615 L51.765991808711505,-34.78735819644102 L51.70525588832576,-34.9 L51.63807318510845,-35.008919751755776 L51.56467102406109,-35.11374890174613 L51.48529777486174,-35.21413274131039 L51.4002220114607,-35.309731603311214 L51.30973160331121,-35.400222011460706 L51.21413274131038,-35.485297774861756 L51.11374890174612,-35.5646710240611 L51.00891975175576,-35.63807318510846 L50.89999999999999,-35.705255888325766 L50.787358196441005,-35.76599180871151 L50.671375485286134,-35.8200754351366 L50.55244431531646,-35.867323765729 L50.430967111964385,-35.90757692709408 L50.307354915633354,-35.940698715275616 L50.18202599086723,-35.96657705662686 L50.05540441107549,-35.98512438703227 L49.927918623603034,-35.99627794819679 L49.79999999999998,-36.0 " />
			<path d="M52.0,33.8 L51.996277948196784,33.92791862360304 L51.98512438703227,34.0554044110755 L51.96657705662685,34.182025990867245 L51.94069871527561,34.30735491563337 L51.90757692709407,34.43096711196439 L51.867323765729,34.55244431531647 L51.8200754351366,34.67137548528614 L51.765991808711505,34.78735819644101 L51.705255888325766,34.9 L51.63807318510846,35.00891975175577 L51.56467102406109,35.11374890174613 L51.48529777486175,35.21413274131038 L51.400222011460706,35.30973160331121 L51.309731603311214,35.400222011460706 L51.21413274131039,35.48529777486175 L51.11374890174613,35.56467102406109 L51.008919751755776,35.63807318510845 L50.9,35.70525588832576 L50.78735819644102,35.765991808711505 L50.67137548528615,35.8200754351366 L50.55244431531647,35.867323765729 L50.4309671119644,35.90757692709407 L50.307354915633375,35.94069871527561 L50.18202599086725,35.96657705662685 L50.055404411075514,35.98512438703227 L49.927918623603055,35.996277948196784 L49.800000000000004,36.0 " />
			<path d="M52.0,-33.8 L52.0,33.8 " />
			<path d="M50.8,-31.0 L50.796031547894934,-30.850977910441898 L50.78413744058838,-30.702378240187375 L50.76435139321976,-30.554622211146597 L50.736729491490024,-30.408128653837053 L50.701350032680644,-30.26331282016294 L50.658313303711466,-30.120585206338543 L50.60774129686655,-29.9803503892921 L50.549777363993755,-29.84300587984854 L50.4845858101584,-29.708940995941887 L50.41235142790266,-29.57853575905125 L50.33327897343104,-29.452159816988658 L50.2475925862067,-29.330171396092197 L50.155535153603736,-29.212916285794506 L50.05736762241659,-29.100726858445075 L49.95336825917796,-28.993921127164718 L49.84383186138211,-28.89280184440281 L49.72906892184934,-28.797655643752602 L49.60940474860034,-28.708752227457126 L49.48517854273528,-28.62634360190892 L49.35674243693142,-28.55066336331051 L49.224460497284795,-28.481926035520587 L49.0887076913253,-28.420326461962844 L48.94986882513049,-28.36603925332111 L48.80833745255094,-28.319218292586385 L48.664514759639125,-28.279996298858812 L48.51880842744392,-28.248484451140943 L48.37163147639442,-28.22477207318878 L48.22340109554863,-28.2089263803139 L48.07453746002577,-28.200992288854334 L47.925462539974234,-28.200992288854334 L47.77659890445137,-28.208926380313898 L47.62836852360558,-28.22477207318878 L47.481191572556085,-28.24848445114094 L47.33548524036088,-28.279996298858812 L47.19166254744906,-28.319218292586385 L47.05013117486952,-28.366039253321105 L46.9112923086747,-28.420326461962844 L46.775539502715205,-28.481926035520587 L46.64325756306858,-28.55066336331051 L46.51482145726472,-28.62634360190892 L46.39059525139966,-28.708752227457126 L46.27093107815067,-28.7976556437526 L46.15616813861789,-28.89280184440281 L46.04663174082204,-28.993921127164718 L45.942632377583415,-29.100726858445075 L45.844464846396264,-29.212916285794503 L45.7524074137933,-29.330171396092194 L45.66672102656896,-29.452159816988658 L45.58764857209734,-29.578535759051245 L45.5154141898416,-29.708940995941887 L45.450222636006245,-29.84300587984854 L45.39225870313345,-29.980350389292095 L45.341686696288534,-30.12058520633854 L45.298649967319356,-30.263312820162938 L45.263270508509976,-30.40812865383705 L45.23564860678024,-30.554622211146597 L45.21586255941162,-30.702378240187375 L45.203968452105066,-30.850977910441898 L45.2,-30.999999999999996 L45.203968452105066,-31.1490220895581 L45.21586255941162,-31.29762175981262 L45.23564860678024,-31.4453777888534 L45.263270508509976,-31.591871346162947 L45.298649967319356,-31.736687179837055 L45.341686696288534,-31.879414793661454 L45.39225870313345,-32.0196496107079 L45.450222636006245,-32.15699412015145 L45.5154141898416,-32.29105900405811 L45.58764857209734,-32.42146424094875 L45.66672102656896,-32.54784018301134 L45.7524074137933,-32.6698286039078 L45.844464846396264,-32.787083714205494 L45.94263237758341,-32.89927314155492 L46.04663174082204,-33.00607887283528 L46.156168138617886,-33.10719815559719 L46.27093107815066,-33.202344356247394 L46.39059525139966,-33.291247772542874 L46.51482145726472,-33.37365639809108 L46.64325756306858,-33.449336636689495 L46.775539502715205,-33.51807396447941 L46.9112923086747,-33.579673538037156 L47.05013117486952,-33.633960746678895 L47.19166254744907,-33.680781707413615 L47.33548524036088,-33.72000370114119 L47.481191572556085,-33.75151554885906 L47.62836852360559,-33.77522792681122 L47.776598904451376,-33.7910736196861 L47.92546253997424,-33.79900771114567 L48.07453746002578,-33.79900771114566 L48.223401095548645,-33.7910736196861 L48.371631476394434,-33.77522792681122 L48.518808427443936,-33.751515548859054 L48.66451475963914,-33.72000370114118 L48.80833745255096,-33.68078170741361 L48.9498688251305,-33.63396074667889 L49.08870769132532,-33.57967353803715 L49.22446049728482,-33.518073964479406 L49.35674243693144,-33.44933663668948 L49.4851785427353,-33.373656398091065 L49.60940474860036,-33.29124777254286 L49.72906892184936,-33.20234435624738 L49.84383186138213,-33.10719815559717 L49.95336825917798,-33.00607887283526 L50.057367622416606,-32.8992731415549 L50.15553515360376,-32.78708371420547 L50.247592586206714,-32.669828603907774 L50.333278973431064,-32.54784018301131 L50.41235142790268,-32.42146424094872 L50.484585810158414,-32.29105900405808 L50.54977736399377,-32.156994120151424 L50.607741296866564,-32.019649610707866 L50.65831330371148,-31.879414793661418 L50.70135003268066,-31.73668717983702 L50.73672949149004,-31.591871346162907 L50.76435139321977,-31.44537778885336 L50.78413744058839,-31.29762175981258 L50.796031547894934,-31.149022089558056 L50.8,-30.999999999999954 " />
			<path d="M-24.013916015625,7.419677734375 L-24.08706192148447,7.340271562359171 L-24.157786485776228,7.2587203182495825 L-24.22602498609433,7.175084695152261 L-24.291721381911106,7.089431374311075 L-24.354825934858155,7.001836270258856 L-24.415298585053037,6.912380213527286 L-24.4731092736811,6.821147696843521 L-24.5282374625945,6.728226568038114 L-24.58067165391124,6.63370772295293 L-24.630408909614165,6.537684798349069 L-24.67745444006567,6.4402537068490595 L-24.72182321302663,6.341507383033502 L-24.763538017260874,6.241537534382895 L-24.802628147871307,6.140434943666103 L-24.839129185752842,6.038287922644323 L-24.87308224940117,5.935182018383174 L-24.90453324672149,5.831199719564782 L-24.93353212683726,5.7264201627998625 L-24.96013213189896,5.620918838939809 L-24.98438889438304,5.514768335988529 L-25.00636040032461,5.408037018688339 L-25.02610688311319,5.300785308454098 L-25.043689202733965,5.1930702572860055 L-25.059168483310753,5.084945700494004 L-25.072605817862097,4.9764622087304184 L-25.08406199513889,4.8676670438170815 L-25.10127102713084,4.649313959200201 L-25.111266814909158,4.43019692509177 L-25.114501953125,4.210571289062508 " />
			<path d="M-21.172607421875,8.5792236328125 L-21.25449757953632,8.578576460379425 " />
			<path d="M-23.956933111482687,7.478502375416348 L-24.013916015624993,7.419677734375005 " />
			<path d="M-25.112335602956087,4.064195769976125 L-25.102920360087904,3.8736911994236656 L-25.085932928757728,3.6839411549204133 " />
			<path d="M-25.038731931876153,3.35989077547549 L-25.014981686994165,3.2386608892633832 L-24.98798194865993,3.1181308555789014 " />
			<path d="M-24.96579616200339,3.0289635009057005 L-24.943973910444047,2.9479178653456444 " />
			<path d="M-24.755610190200933,2.4053620743802098 L-24.703431450751378,2.2850078617938605 " />
			<path d="M-19.117431640625,8.0345458984375 L-19.23262752275935,8.100452543886488 L-19.349947992749048,8.162298730669649 L-19.46929394065893,8.21999065312845 L-19.59055627175328,8.273449675725686 L-19.713617298850643,8.322613159584842 L-19.838351600407066,8.367435739666803 L-19.96462680519029,8.407889367571979 L-20.092308024941396,8.443964422184909 " />
			<path d="M-21.064266940333006,8.57798188739699 L-21.172607421874996,8.5792236328125 " />
			<path d="M-24.592990582208767,2.056286236546661 L-24.59155378916014,2.053528090843509 " />
			<path d="M-24.538582234843975,1.955382157577288 L-24.464830475255333,1.8290632047083362 " />
			<path d="M-24.416712475169046,1.7522995578185807 L-24.364196491121856,1.673010488618878 L-24.30967621901891,1.595169596514034 " />
			<path d="M-24.06469473909397,1.2913690675365659 L-24.000190007303765,1.22170749232561 " />
			<path d="M-23.790604105993925,1.0187706564091719 L-23.702422121072605,0.942642543834727 L-23.61176988385824,0.869329340913726 " />
			<path d="M-23.561722326999636,0.8308424951512151 L-23.45786610127324,0.7551492256330631 L-23.35135750839026,0.6829290833190356 " />
			<path d="M-17.86144498509224,6.77396751267834 L-17.951633549700855,6.919339126616107 L-17.999152045249264,6.990332327024409 L-18.048283100355746,7.060138001904617 " />
			<path d="M-18.192385018898314,7.246531042721931 L-18.251357435322728,7.315922910449486 L-18.312099184974137,7.383734073902031 " />
			<path d="M-18.51748875383413,7.589157279053853 L-18.630370082696608,7.688599798634835 L-18.747486029209604,7.783195381107425 " />
			<path d="M-18.822366959472486,7.839547768243884 L-18.913631005985934,7.904247412434448 L-19.006926926732124,7.966201612795823 " />
			<path d="M-23.255859375,0.6224365234375 L-23.107017285686624,0.5357360444619729 " />
			<path d="M-22.78685177982328,0.3785297809970262 L-22.70059786656904,0.34251748572584034 L-22.613448014720824,0.3086928121132667 " />
			<path d="M-22.27046039649743,0.19904780924030938 L-22.18096740542068,0.17622837130974928 L-22.09088736235866,0.15553691956248014 " />
			<path d="M-21.61665317207251,0.08172877210401104 L-21.600679070346192,0.08020958644721946 " />
			<path d="M-21.282102283006083,0.06204510248326334 L-21.178222656250004,0.060913085937499986 " />
			<path d="M-17.242474347452884,4.387908291179602 L-17.24654196323952,4.545335041506366 L-17.254731118158702,4.7023036119739725 L-17.26717360561489,4.858696892909714 L-17.283996704067263,5.014388880274076 " />
			<path d="M-17.293980190839537,5.091138570992944 L-17.308198438189123,5.187828721262645 " />
			<path d="M-17.32018627739009,5.260892538355067 L-17.339937661648868,5.368965852919963 " />
			<path d="M-17.390962875816133,5.601481155516664 L-17.396289661999248,5.62296994350422 " />
			<path d="M-17.49475226915622,5.961411637035091 L-17.52412154806473,6.046718941885445 " />
			<path d="M-21.06273802898735,0.06239698041878934 L-20.924142558905817,0.068160517767042 L-20.785985505352215,0.07834196306247812 " />
			<path d="M-20.741012275535198,0.08263227383825857 L-20.577335330455135,0.10238898345365949 L-20.41474460391735,0.12861445116340253 " />
			<path d="M-19.91668433741275,0.25234724006472337 L-19.774668005603957,0.30033840940037215 L-19.634464161651145,0.35358267272654786 " />
			<path d="M-19.384755528700907,0.46346219428972013 L-19.28961569931124,0.5105993148929626 " />
			<path d="M-17.606188066636875,2.370095551544185 L-17.555087263871698,2.4981846115093513 L-17.50798583342213,2.627887797370312 " />
			<path d="M-17.332296934899333,3.294277685161299 L-17.314103291515075,3.397377256014968 L-17.2980398616773,3.5009421283898137 " />
			<path d="M-17.2856961515349,3.5919927422706084 L-17.285375093250305,3.594533694649614 " />
			<path d="M-17.275266858114293,3.680340934627148 L-17.264989253305654,3.783261757302258 " />
			<path d="M-17.249552544694424,4.002701060206637 L-17.248538731550997,4.023374935368532 " />
			<path d="M-17.247707090460782,4.041586015883545 L-17.24271468747731,4.208593000018612 " />
			<path d="M-17.242487311105968,4.224151144644868 L-17.241943359375,4.306030273437495 " />
			<path d="M-19.107863874773564,0.6092908387631055 L-19.035113078606972,0.6525792747942742 L-18.963491090008766,0.6975867179284185 L-18.893044054411057,0.7443074643640862 L-18.823816542125027,0.7927322789442164 L-18.755851449316044,0.8428482587524302 L-18.68918989897874,0.8946386967093235 L-18.623871141912122,0.948082945168758 L-18.559932434365443,1.0031563001578006 L-18.49740718561317,1.0598315126917766 L-18.43632625162686,1.1180777479884916 L-18.376717765595796,1.177860667199278 L-18.318606197069577,1.2391434142396431 L-18.26201246352013,1.3018867233626146 L-18.206954041903675,1.3660490267320842 L-18.15344508022275,1.431586561996153 L-18.10149646959984,1.4984535335058742 " />
			<path d="M-17.99702343480635,1.6437059174882962 L-17.929268655370453,1.746625095937164 L-17.864804957378464,1.8518837089771558 " />
			<path d="M-17.79854134477328,1.968589108961889 L-17.747314453125004,2.0655517578124956 " />
			<path d="M-6.471923828125,0.2012939453125 L-6.246885557216789,0.20459558784955442 " />
			<path d="M-5.645643846289884,0.2507580172601293 L-5.582652974913351,0.25928629990852803 " />
			<path d="M-5.229941750974051,0.32293439802949964 L-5.149536132812503,0.34167480468749933 " />
			<path d="M-5.1495361328125,0.3416748046875 L-5.061844581124868,0.3640902538461587 " />
			<path d="M-4.881503924970453,0.41713001424437834 L-4.869534411287891,0.4210074414491789 " />
			<path d="M-4.623718525840403,0.5118528971942894 L-4.609949027043372,0.5176318296271128 " />
			<path d="M-4.408170072353658,0.6121709904366085 L-4.378210426995108,0.6279347073127962 " />
			<path d="M-4.236137428746013,0.7097680156765975 L-4.166870117187502,0.7543945312499987 " />
			<path d="M-5.14111328125,8.3153076171875 L-5.229028771530547,8.334247144916977 " />
			<path d="M-5.56441844598852,8.384982957209663 L-5.696487703687161,8.398321756652189 L-5.831342175839164,8.409118621049904 " />
			<path d="M-6.067597547692485,8.422446327274333 L-6.095892980611483,8.42363235665415 " />
			<path d="M-6.565774103196143,8.43317346430242 L-6.6066894531249964,8.4332275390625 " />
			<path d="M-4.1668701171875,0.75439453125 L-4.099232485355336,0.801357575906056 " />
			<path d="M-3.9719165208893656,0.8994388103349777 L-3.9511433757628964,0.9166958609331207 " />
			<path d="M-3.780623996808306,1.072584121501128 L-3.7652509377276857,1.0879430790018543 " />
			<path d="M-3.465713341573074,1.435509141993549 L-3.4172363281250018,1.501220703124998 " />
			<path d="M-3.933837890625,7.7257080078125 L-4.045024896385091,7.8154317427405156 L-4.161064503680466,7.898865690441386 " />
			<path d="M-4.384748937259283,8.034643538688265 L-4.448637163676999,8.068122174697978 " />
			<path d="M-4.526794901963407,8.106215336930413 L-4.600206427424402,8.139296394109637 L-4.674723143205302,8.170362071290828 L-4.750289188201559,8.199426612478788 L-4.826849040071526,8.226508373048635 " />
			<path d="M-3.417236328125,1.501220703125 L-3.369892500108274,1.5688660595960047 " />
			<path d="M-3.256906736866804,1.7485561531837888 L-3.2490738410332414,1.7620652254825926 " />
			<path d="M-3.0877152400017978,2.0768697941714365 L-3.0511100824605726,2.1595470159765746 " />
			<path d="M-2.986797514778709,2.3172153657638286 L-2.939517859745234,2.4446837127279175 L-2.8952440075576655,2.5744238190583344 " />
			<path d="M-2.871753427715718,2.6478815164572698 L-2.855712890625001,2.7000732421874973 " />
			<path d="M-2.9595947265625,6.319091796875 L-2.9953835141343617,6.410584429717553 " />
			<path d="M-3.1519741213096477,6.7480186633919805 L-3.1739038135443725,6.788947651102185 " />
			<path d="M-3.5186758392893207,7.303694012091929 L-3.6210296028438447,7.422974895950547 L-3.729093696181826,7.537050390946731 " />
			<path d="M-3.811136098029597,7.6166077418114035 L-3.8717761568670244,7.671919371211854 L-3.933837890624997,7.725708007812498 " />
			<path d="M-2.855712890625,2.7000732421875 L-2.8323943402685763,2.780013612204674 " />
			<path d="M-2.691240913135082,3.4795033169184064 L-2.6904135929661583,3.4858242985059813 " />
			<path d="M-2.673270554437819,3.6315789672712584 L-2.6726580133706674,3.637429464038659 " />
			<path d="M-2.6516698212836127,3.886707161010684 L-2.649167851975884,3.927148119872243 " />
			<path d="M-2.6372736934633885,4.2683127402563965 L-2.63671875,4.362182617187496 " />
			<path d="M-2.63671875,4.3621826171875 L-2.637308355990908,4.4557980991516715 " />
			<path d="M-2.810504562106563,5.845601083891522 L-2.853178534078602,6.000716200315562 L-2.9010416652036977,6.153822820642953 " />
			<path d="M-2.922437223499102,6.2166734157343635 L-2.9595947265624982,6.319091796874996 " />
			<path d="M43.0,-26.0 L43.0,12.0 " />
			<path d="M43.0,12.0 L5.0,12.0 " />
			<path d="M5.0,12.0 L5.0,-26.0 " />
			<path d="M5.0,-26.0 L43.0,-26.0 " />
			<path d="M-31.965087890625,0.20129394531250044 L-33.054443359375,0.20129394531250044 " />
			<path d="M-33.054443359375,0.20129394531250044 L-33.054443359375,8.4332275390625 " />
			<path d="M-31.965087890625,4.0814208984375 L-31.965087890625,0.20129394531250044 " />
			<path d="M-33.054443359375,8.4332275390625 L-31.965087890625,8.4332275390625 " />
			<path d="M-27.686279296875,4.0814208984375 L-31.965087890625,4.0814208984375 " />
			<path d="M-31.965087890625,8.4332275390625 L-31.965087890625,5.0528564453125 " />
			<path d="M-27.686279296875,0.20129394531250044 L-27.686279296875,4.0814208984375 " />
			<path d="M-31.965087890625,5.0528564453125 L-27.686279296875,5.0528564453125 " />
			<path d="M-26.596923828125,0.20129394531250044 L-27.686279296875,0.20129394531250044 " />
			<path d="M-27.686279296875,5.0528564453125 L-27.686279296875,8.4332275390625 " />
			<path d="M-26.596923828125,8.4332275390625 L-26.596923828125,0.2012939453125 " />
			<path d="M-27.686279296875,8.4332275390625 L-26.596923828125,8.4332275390625 " />
			<path d="M-25.114501953125,4.2105712890625 L-25.11342716217041,4.337799668312073 L-25.11020278930664,4.463289737701416 L-25.10482883453369,4.58704149723053 L-25.097305297851562,4.709054946899414 L-25.087632179260254,4.829330086708069 L-25.075809478759766,4.947866916656494 L-25.061837196350098,5.06466543674469 L-25.04571533203125,5.179725646972656 L-25.027443885803223,5.293047547340393 L-25.007022857666016,5.4046311378479 L-24.98445224761963,5.514476418495178 L-24.959732055664062,5.622583389282227 L-24.932862281799316,5.728952050209045 L-24.90384292602539,5.833582401275635 L-24.872673988342285,5.936474442481995 L-24.83935546875,6.037628173828125 L-24.803887367248535,6.137043595314026 L-24.76626968383789,6.234720706939697 L-24.726502418518066,6.330659508705139 L-24.684585571289062,6.424860000610352 L-24.64051914215088,6.5173221826553345 L-24.594303131103516,6.608046054840088 L-24.545937538146973,6.697031617164612 L-24.49542236328125,6.784278869628906 L-24.442757606506348,6.869787812232971 L-24.387943267822266,6.953558444976807 L-24.330979347229004,7.035590767860413 L-24.271865844726562,7.115884780883789 L-24.21060276031494,7.194440484046936 L-24.14719009399414,7.2712578773498535 L-24.08162784576416,7.3463369607925415 L-24.013916015625004,7.419677734374995 " />
			<path d="M-24.013916015625,7.419677734375 L-23.944504261016846,7.491016983985901 L-23.873842239379883,7.560091495513916 L-23.80192995071411,7.626901268959045 L-23.72876739501953,7.691446304321289 L-23.654354572296143,7.753726601600647 L-23.578691482543945,7.813742160797119 L-23.50177812576294,7.871492981910706 L-23.423614501953125,7.926979064941406 L-23.344200611114502,7.980200409889221 L-23.26353645324707,8.03115701675415 L-23.18162202835083,8.079848885536194 L-23.09845733642578,8.126276016235352 L-23.014042377471924,8.170438408851624 L-22.928377151489258,8.21233606338501 L-22.841461658477783,8.25196897983551 L-22.7532958984375,8.289337158203125 L-22.663879871368408,8.324440598487854 L-22.573213577270508,8.357279300689697 L-22.4812970161438,8.387853264808655 L-22.38813018798828,8.416162490844727 L-22.293713092803955,8.442206978797913 L-22.19804573059082,8.465986728668213 L-22.101128101348877,8.487501740455627 L-22.002960205078125,8.506752014160156 L-21.903542041778564,8.5237375497818 L-21.802873611450195,8.538458347320557 L-21.700954914093018,8.550914406776428 L-21.59778594970703,8.561105728149414 L-21.493366718292236,8.569032311439514 L-21.387697219848633,8.574694156646729 L-21.28077745437622,8.578091263771057 L-21.172607421875007,8.5792236328125 " />
			<path d="M-24.642822265625,2.1553955078125 L-24.699939727783203,2.277263641357422 L-24.753372192382812,2.4000091552734375 L-24.803119659423828,2.523632049560547 L-24.84918212890625,2.64813232421875 L-24.891559600830078,2.773509979248047 L-24.930252075195312,2.8997650146484375 L-24.965259552001953,3.026897430419922 L-24.99658203125,3.1549072265625 L-25.024219512939453,3.283794403076172 L-25.048171997070312,3.4135589599609375 L-25.068439483642578,3.544200897216797 L-25.08502197265625,3.67572021484375 L-25.097919464111328,3.808116912841797 L-25.107131958007812,3.9413909912109375 L-25.112659454345703,4.075542449951172 L-25.114501953125,4.210571289062495 " />
			<path d="M-21.172607421875,8.5792236328125 L-21.03099822998047,8.577095985412598 L-20.891143798828125,8.57071304321289 L-20.75304412841797,8.560074806213379 L-20.61669921875,8.545181274414062 L-20.48210906982422,8.526032447814941 L-20.349273681640625,8.502628326416016 L-20.21819305419922,8.474968910217285 L-20.0888671875,8.44305419921875 L-19.96129608154297,8.40688419342041 L-19.835479736328125,8.366458892822266 L-19.71141815185547,8.321778297424316 L-19.589111328125,8.272842407226562 L-19.46855926513672,8.219651222229004 L-19.349761962890625,8.16220474243164 L-19.23271942138672,8.100502967834473 L-19.117431640625004,8.034545898437502 " />
			<path d="M-23.255859375,0.6224365234375004 L-23.368536949157715,0.6942281723022465 L-23.47774887084961,0.7692222595214848 L-23.583495140075684,0.8474187850952153 L-23.685775756835938,0.9288177490234379 L-23.78459072113037,1.0134191513061528 L-23.879940032958984,1.1012229919433598 L-23.971823692321777,1.192229270935059 L-24.06024169921875,1.2864379882812504 L-24.145194053649902,1.383849143981934 L-24.226680755615234,1.4844627380371098 L-24.304701805114746,1.5882787704467773 L-24.379257202148438,1.6952972412109375 L-24.45034694671631,1.8055181503295898 L-24.51797103881836,1.9189414978027344 L-24.58212947845459,2.035567283630371 L-24.642822265624996,2.1553955078124956 " />
			<path d="M-19.117431640625,8.0345458984375 L-19.00472116470337,7.964783191680908 L-18.895410537719727,7.891664505004883 L-18.789499759674072,7.815189838409424 L-18.686988830566406,7.735359191894531 L-18.58787775039673,7.652172565460205 L-18.49216651916504,7.565629959106445 L-18.399855136871338,7.475731372833252 L-18.310943603515625,7.382476806640625 L-18.2254319190979,7.2858662605285645 L-18.143320083618164,7.18589973449707 L-18.064608097076416,7.082577228546143 L-17.989295959472656,6.975898742675781 L-17.917383670806885,6.865864276885986 L-17.8488712310791,6.752473831176758 L-17.783758640289307,6.635727405548096 L-17.722045898437504,6.515625000000004 " />
			<path d="M-21.17822265625,0.060913085937500444 L-21.322551727294922,0.06310653686523482 L-21.464950561523438,0.06968688964843794 L-21.605419158935547,0.08065414428710982 L-21.74395751953125,0.09600830078125044 L-21.880565643310547,0.11574935913085982 L-22.015243530273438,0.13987731933593794 L-22.147991180419922,0.16839218139648482 L-22.27880859375,0.20129394531250044 L-22.407695770263672,0.23858261108398482 L-22.534652709960938,0.28025817871093794 L-22.659679412841797,0.3263206481933598 L-22.78277587890625,0.37677001953125044 L-22.903942108154297,0.4316062927246098 L-23.023178100585938,0.49082946777343794 L-23.140483856201172,0.5544395446777348 L-23.255859374999996,0.622436523437498 " />
			<path d="M-17.7220458984375,6.515625 L-17.6639084815979,6.392824649810791 L-17.609521865844727,6.267984390258789 L-17.55888605117798,6.141104221343994 L-17.512001037597656,6.012184143066406 L-17.46886682510376,5.881224155426025 L-17.42948341369629,5.748224258422852 L-17.393850803375244,5.613184452056885 L-17.361968994140625,5.476104736328125 L-17.33383798599243,5.336985111236572 L-17.309457778930664,5.195825576782227 L-17.288828372955322,5.052626132965088 L-17.271949768066406,4.907386779785156 L-17.258821964263916,4.760107517242432 L-17.24944496154785,4.610788345336914 L-17.243818759918213,4.4594292640686035 L-17.241943359375,4.306030273437505 " />
			<path d="M-19.17919921875,0.5690917968750004 L-19.295583724975586,0.5075545310974126 L-19.413108825683594,0.4499874114990239 L-19.531774520874023,0.39639043807983443 L-19.651580810546875,0.3467636108398442 L-19.77252769470215,0.3011069297790532 L-19.894615173339844,0.2594203948974614 L-20.01784324645996,0.2217040061950688 L-20.1422119140625,0.18795776367187544 L-20.26772117614746,0.1581816673278813 L-20.394371032714844,0.13237571716308638 L-20.52216148376465,0.11053991317749068 L-20.651092529296875,0.0926742553710942 L-20.781164169311523,0.07877874374389693 L-20.912376403808594,0.06885337829589888 L-21.044729232788086,0.06289815902710005 L-21.178222656249996,0.060913085937500444 " />
			<path d="M-17.241943359375,4.3060302734375 L-17.24391746520996,4.15053653717041 L-17.249839782714844,3.9971046447753906 L-17.25971031188965,3.8457345962524414 L-17.273529052734375,3.6964263916015625 L-17.291296005249023,3.549180030822754 L-17.313011169433594,3.403995513916016 L-17.338674545288086,3.260872840881348 L-17.3682861328125,3.1198120117187504 L-17.401845932006836,2.9808130264282227 L-17.439353942871094,2.8438758850097656 L-17.480810165405273,2.709000587463379 L-17.526214599609375,2.576187133789063 L-17.5755672454834,2.445435523986817 L-17.628868103027344,2.316745758056641 L-17.68611717224121,2.1901178359985356 L-17.747314453124996,2.065551757812505 " />
			<path d="M-17.747314453125,2.0655517578125004 L-17.81213092803955,1.9438920021057133 L-17.880237579345703,1.825983047485352 L-17.951634407043457,1.7118248939514165 L-18.026321411132812,1.6014175415039067 L-18.10429859161377,1.4947609901428227 L-18.185565948486328,1.3918552398681645 L-18.27012348175049,1.292700290679932 L-18.35797119140625,1.1972961425781254 L-18.449109077453613,1.1056427955627446 L-18.543537139892578,1.0177402496337895 L-18.641255378723145,0.9335885047912602 L-18.742263793945312,0.8531875610351567 L-18.846562385559082,0.776537418365479 L-18.954151153564453,0.703638076782227 L-19.065030097961426,0.6344895362854008 L-19.179199218749996,0.5690917968750027 " />
			<path d="M-10.739501953125,0.20129394531250044 L-15.883056640625,0.20129394531250044 " />
			<path d="M-15.883056640625,0.20129394531250044 L-15.883056640625,8.4332275390625 " />
			<path d="M-10.739501953125,1.1727294921875004 L-10.739501953125,0.20129394531250056 " />
			<path d="M-15.883056640625,8.4332275390625 L-14.793701171875,8.4332275390625 " />
			<path d="M-14.793701171875,1.1727294921875004 L-10.739501953125,1.1727294921875004 " />
			<path d="M-14.793701171875,8.4332275390625 L-14.793701171875,1.1727294921875 " />
			<path d="M-6.471923828125,0.20129394531250044 L-9.4423828125,0.20129394531250044 " />
			<path d="M-9.4423828125,0.20129394531250044 L-9.4423828125,8.4332275390625 " />
			<path d="M-5.1495361328125,0.34167480468750044 L-5.296102523803711,0.3087730407714848 L-5.448020935058594,0.28025817871093794 L-5.605291366577148,0.2561302185058598 L-5.767913818359375,0.23638916015625044 L-5.935888290405273,0.22103500366210982 L-6.109214782714844,0.21006774902343794 L-6.287893295288086,0.20348739624023482 L-6.4719238281249964,0.20129394531250044 " />
			<path d="M-9.4423828125,8.4332275390625 L-6.606689453125,8.4332275390625 " />
			<path d="M-4.166870117187501,0.7543945312500004 L-4.271278381347657,0.6883716583251958 L-4.380950927734376,0.6264724731445317 L-4.495887756347657,0.5686969757080083 L-4.616088867187501,0.5150451660156254 L-4.741554260253907,0.46551704406738326 L-4.872283935546875,0.4201126098632817 L-5.008277893066406,0.37883186340332076 L-5.149536132812497,0.34167480468750105 " />
			<path d="M-6.606689453125,8.4332275390625 L-6.373744964599609,8.431385040283203 L-6.1550140380859375,8.425857543945312 L-5.950496673583984,8.416645050048828 L-5.76019287109375,8.40374755859375 L-5.584102630615234,8.387165069580078 L-5.4222259521484375,8.366897583007812 L-5.274562835693359,8.342945098876953 L-5.141113281250003,8.3153076171875 " />
			<path d="M-3.417236328125001,1.5012207031250002 L-3.5038776397705087,1.3857574462890627 L-3.592536926269532,1.2766113281250004 L-3.683214187622071,1.173782348632813 L-3.775909423828126,1.0772705078125004 L-3.870622634887696,0.9870758056640629 L-3.967353820800782,0.9031982421875004 L-4.066102981567384,0.8256378173828129 L-4.166870117187499,0.7543945312500017 " />
			<path d="M-5.14111328125,8.3153076171875 L-5.053484916687012,8.29392147064209 L-4.967479705810547,8.27047348022461 L-4.8830976486206055,8.244963645935059 L-4.8003387451171875,8.217391967773438 L-4.719202995300294,8.187758445739746 L-4.639690399169922,8.156063079833984 L-4.561800956726075,8.122305870056152 L-4.485534667968751,8.08648681640625 L-4.41089153289795,8.048605918884277 L-4.337871551513673,8.008663177490234 L-4.266474723815919,7.966658592224121 L-4.196701049804688,7.9225921630859375 L-4.128550529479981,7.876463890075684 L-4.062023162841798,7.828273773193359 L-3.9971189498901376,7.778021812438965 L-3.933837890625003,7.725708007812502 " />
			<path d="M-2.855712890625001,2.7000732421875 L-2.912391662597657,2.522886276245117 L-2.972930908203126,2.3535079956054688 L-3.037330627441407,2.1919384002685547 L-3.105590820312501,2.038177490234375 L-3.177711486816407,1.8922252655029297 L-3.253692626953126,1.754081726074219 L-3.333534240722657,1.6237468719482424 L-3.4172363281249996,1.5012207031250022 " />
			<path d="M-3.933837890625001,7.7257080078125 L-3.8537001609802255,7.655725955963135 L-3.7761287689208993,7.583353042602539 L-3.7011237144470224,7.508589267730713 L-3.6286849975585946,7.431434631347656 L-3.558812618255616,7.351889133453369 L-3.491506576538087,7.269952774047852 L-3.4267668724060067,7.1856255531311035 L-3.364593505859376,7.098907470703125 L-3.3049864768981942,7.009798526763916 L-3.247945785522462,6.918298721313477 L-3.1934714317321786,6.824408054351807 L-3.1415634155273446,6.728126525878906 L-3.09222173690796,6.629454135894775 L-3.0454463958740243,6.528390884399414 L-3.001237392425538,6.424936771392822 L-2.959594726562502,6.3190917968750036 " />
			<path d="M-2.636718750000001,4.3621826171875 L-2.6401405334472665,4.131080627441406 L-2.6504058837890634,3.906646728515625 L-2.6675148010253915,3.6888809204101562 L-2.691467285156251,3.477783203125 L-2.7222633361816415,3.2733535766601562 L-2.7599029541015634,3.075592041015625 L-2.7812891006469735,2.9792118072509766 L-2.8043861389160165,2.8844985961914062 L-2.8291940689086923,2.791452407836914 L-2.855712890625,2.7000732421875036 " />
			<path d="M-2.959594726562501,6.319091796875 L-2.9204964637756357,6.211097240447998 L-2.883920669555665,6.101194381713867 L-2.849867343902589,5.989383220672607 L-2.818336486816407,5.875663757324219 L-2.78932809829712,5.760035991668701 L-2.7628421783447275,5.642499923706055 L-2.7388787269592294,5.523055553436279 L-2.717437744140626,5.401702880859375 L-2.698519229888917,5.278441905975342 L-2.6821231842041025,5.15327262878418 L-2.6682496070861825,5.026195049285889 L-2.656898498535157,4.897209167480469 L-2.6480698585510263,4.76631498336792 L-2.64176368713379,4.633512496948242 L-2.637979984283448,4.4988017082214355 L-2.636718750000001,4.362182617187505 " />
			<path d="M-33.81,27.525242076144718 L-40.19,27.525242076144718 " />
			<path d="M-40.19,27.525242076144718 L-43.38,22.0 " />
			<path d="M-30.62,22.0 L-33.81,27.525242076144718 " />
			<path d="M-43.38,22.0 L-40.190000000000005,16.474757923855282 " />
			<path d="M-33.81,16.47475792385528 L-30.619999999999997,22.0 " />
			<path d="M-40.190000000000005,16.474757923855282 L-33.81000000000001,16.47475792385528 " />
			<path d="M7.0,-24.0 L41.0,-24.0 " />
			<path d="M41.0,-24.0 L41.0,10.0 " />
			<path d="M41.0,10.0 L7.0,10.0 " />
			<path d="M7.0,10.0 L7.0,-24.0 " />
			<path d="M-23.991455078125,4.1937255859375 L-23.98832941055298,4.010188579559326 L-23.978952407836914,3.8315868377685547 L-23.963324069976807,3.6579203605651855 L-23.941444396972656,3.4891891479492188 L-23.913313388824463,3.3253931999206543 L-23.878931045532227,3.1665325164794926 L-23.838297367095947,3.012607097625733 L-23.791412353515625,2.8636169433593754 L-23.73827600479126,2.7195620536804204 L-23.67888832092285,2.580442428588867 L-23.6132493019104,2.446258068084717 L-23.541358947753906,2.317008972167969 L-23.46321725845337,2.1926951408386235 L-23.37882423400879,2.07331657409668 L-23.288179874420166,1.9588732719421391 L-23.191284179687504,1.8493652343750044 " />
			<path d="M-23.1912841796875,1.8493652343750004 L-23.089672565460205,1.7456698417663579 L-22.984880447387695,1.6486644744873051 L-22.87690782546997,1.5583491325378422 L-22.76575469970703,1.4747238159179692 L-22.651421070098877,1.397788524627686 L-22.533906936645508,1.3275432586669926 L-22.413212299346924,1.2639880180358891 L-22.289337158203125,1.2071228027343754 L-22.16228151321411,1.1569476127624516 L-22.032045364379883,1.1134624481201176 L-21.89862871170044,1.0766673088073735 L-21.76203155517578,1.0465621948242192 L-21.622253894805908,1.0231471061706547 L-21.47929573059082,1.0064220428466801 L-21.333157062530518,0.9963870048522953 L-21.183837890625007,0.9930419921875003 " />
			<path d="M-21.183837890625,0.9930419921875003 L-21.03182077407837,0.9964199066162113 L-20.883203506469727,1.0065536499023442 L-20.737986087799072,1.0234432220458989 L-20.596168518066406,1.0470886230468754 L-20.45775079727173,1.0774898529052739 L-20.32273292541504,1.1146469116210942 L-20.191114902496338,1.1585597991943364 L-20.062896728515625,1.2092285156250004 L-19.9380784034729,1.2666530609130864 L-19.816659927368164,1.3308334350585942 L-19.698641300201416,1.4017696380615239 L-19.584022521972656,1.4794616699218754 L-19.472803592681885,1.5639095306396489 L-19.3649845123291,1.6551132202148442 L-19.260565280914307,1.7530727386474614 L-19.159545898437504,1.8577880859374967 " />
			<path d="M-19.1595458984375,1.8577880859375004 L-19.11066210269928,1.9125421047210698 L-19.06333017349243,1.9687108993530278 L-19.017550110816956,2.0262944698333745 L-18.97332191467285,2.08529281616211 L-18.93064558506012,2.145705938339234 L-18.88952112197876,2.2075338363647465 L-18.849948525428772,2.270776510238648 L-18.811927795410156,2.335433959960938 L-18.775458931922913,2.4015061855316167 L-18.74054193496704,2.468993186950684 L-18.70717680454254,2.53789496421814 L-18.675363540649414,2.608211517333985 L-18.616392612457275,2.7530889511108403 L-18.563629150390625,2.9036254882812504 L-18.517073154449463,3.0598211288452153 L-18.47672462463379,3.2216758728027344 L-18.442583560943604,3.3891897201538086 L-18.414649963378906,3.5623626708984375 L-18.392923831939697,3.741194725036621 L-18.377405166625977,3.9256858825683594 L-18.368093967437744,4.115836143493652 L-18.364990234375,4.311645507812493 " />
			<path d="M-18.364990234375,4.3116455078125 L-18.36631727218628,4.436288356781006 L-18.370298385620117,4.558935165405273 L-18.376933574676514,4.679585933685303 L-18.38622283935547,4.798240661621094 L-18.398166179656982,4.9148993492126465 L-18.412763595581055,5.029561996459961 L-18.430015087127686,5.142228603363037 L-18.449920654296875,5.252899169921875 L-18.472480297088623,5.361573696136475 L-18.49769401550293,5.468252182006836 L-18.525561809539795,5.572934627532959 L-18.55608367919922,5.675621032714844 L-18.5892596244812,5.77631139755249 L-18.625089645385742,5.875005722045898 L-18.663573741912842,5.971704006195068 L-18.7047119140625,6.0664062499999964 " />
			<path d="M-18.7047119140625,6.06640625 L-18.74840545654297,6.158794403076172 L-18.7945556640625,6.2485504150390625 L-18.843162536621094,6.335674285888672 L-18.89422607421875,6.420166015625 L-18.94774627685547,6.502025604248047 L-19.00372314453125,6.5812530517578125 L-19.062156677246094,6.657848358154297 L-19.123046875,6.7318115234375 L-19.18639373779297,6.803142547607422 L-19.252197265625,6.8718414306640625 L-19.320457458496094,6.937908172607422 L-19.39117431640625,7.0013427734375 L-19.46434783935547,7.062145233154297 L-19.53997802734375,7.1203155517578125 L-19.618064880371094,7.175853729248047 L-19.698608398437496,7.228759765624998 " />
			<path d="M-19.6986083984375,7.228759765625 L-19.781005382537842,7.278737545013428 L-19.864652633666992,7.325490951538086 L-19.94955015182495,7.369019985198975 L-20.03569793701172,7.409324645996094 L-20.123095989227295,7.446404933929443 L-20.21174430847168,7.480260848999023 L-20.301642894744873,7.510892391204834 L-20.392791748046875,7.538299560546875 L-20.485190868377686,7.5624823570251465 L-20.578840255737305,7.583440780639648 L-20.673739910125732,7.601174831390381 L-20.76988983154297,7.615684509277344 L-20.867290019989014,7.626969814300537 L-20.965940475463867,7.635030746459961 L-21.06584119796753,7.639867305755615 L-21.166992187499996,7.6414794921875 " />
			<path d="M-21.1669921875,7.6414794921875 L-21.310323238372803,7.638375759124756 L-21.45113182067871,7.629064559936523 L-21.589417934417725,7.613545894622803 L-21.725181579589844,7.591819763183594 L-21.85842275619507,7.5638861656188965 L-21.9891414642334,7.529745101928711 L-22.117337703704834,7.489396572113037 L-22.243011474609375,7.442840576171875 L-22.36616277694702,7.390077114105225 L-22.486791610717773,7.331106185913086 L-22.60489797592163,7.265927791595459 L-22.720481872558594,7.194541931152344 L-22.833543300628662,7.11694860458374 L-22.944082260131836,7.033147811889648 L-23.052098751068115,6.943139553070068 L-23.157592773437496,6.8469238281250036 " />
			<path d="M-23.1575927734375,6.846923828125 L-23.208894848823547,6.79622495174408 L-23.258568286895752,6.743447780609131 L-23.306613087654114,6.688592314720154 L-23.353029251098633,6.631658554077148 L-23.39781677722931,6.572646498680115 L-23.440975666046143,6.511556148529053 L-23.482505917549133,6.448387503623962 L-23.52240753173828,6.383140563964844 L-23.560680508613586,6.315815329551697 L-23.59732484817505,6.2464118003845215 L-23.63234055042267,6.174929976463318 L-23.665727615356445,6.101369857788086 L-23.69748604297638,6.025731444358826 L-23.72761583328247,5.948014736175537 L-23.75611698627472,5.86821973323822 L-23.782989501953125,5.786346435546875 L-23.808233380317688,5.7023948431015015 L-23.831848621368408,5.6163649559021 L-23.853835225105286,5.528256773948669 L-23.87419319152832,5.438070297241211 L-23.91002321243286,5.251462459564209 L-23.93933868408203,5.056541442871094 L-23.96213960647583,4.853307247161865 L-23.978425979614258,4.641759872436523 L-23.988197803497314,4.421899318695068 L-23.991455078125,4.193725585937509 " />
			<path d="M-8.35302734375,7.4617919921875 L-8.35302734375,1.1727294921875009 " />
			<path d="M-8.35302734375,1.1727294921875004 L-6.595458984375,1.1727294921875004 " />
			<path d="M-6.595458984375,1.1727294921875004 L-6.397390365600586,1.1750984191894536 L-6.210289001464844,1.182205200195313 L-6.034154891967773,1.1940498352050786 L-5.868988037109375,1.2106323242187504 L-5.714788436889648,1.2319526672363286 L-5.571556091308594,1.258010864257813 L-5.439291000366211,1.2888069152832036 L-5.317993164062502,1.3243408203124998 " />
			<path d="M-5.3179931640625,1.3243408203125004 L-5.205118179321289,1.3641738891601567 L-5.098121643066406,1.4078674316406254 L-4.997003555297852,1.4554214477539067 L-4.901763916015625,1.5068359375000004 L-4.812402725219727,1.5621109008789067 L-4.728919982910156,1.6212463378906254 L-4.651315689086914,1.6842422485351565 L-4.579589843750001,1.7510986328124991 " />
			<path d="M-4.57958984375,1.7510986328125002 L-4.531827449798584,1.800571918487549 L-4.485403060913086,1.8521289825439455 L-4.440316677093506,1.9057698249816897 L-4.396568298339844,1.9614944458007812 L-4.3541579246521005,2.0193028450012207 L-4.313085556030274,2.079195022583008 L-4.273351192474366,2.1411709785461426 L-4.234954833984376,2.205230712890625 L-4.197896480560304,2.271374225616455 L-4.162176132202149,2.339601516723633 L-4.127793788909913,2.409912586212158 L-4.094749450683595,2.4823074340820312 L-4.063043117523194,2.556786060333252 L-4.032674789428712,2.6333484649658203 L-3.9759521484375018,2.7927246093749973 " />
			<path d="M-3.975952148437501,2.792724609375 L-3.949773311614991,2.875582218170166 L-3.925283432006837,2.960611343383789 L-3.902482509613038,3.047811985015869 L-3.8813705444335946,3.1371841430664062 L-3.8619475364685067,3.2287278175354004 L-3.8442134857177743,3.3224430084228516 L-3.8281683921813974,3.4183297157287598 L-3.813812255859376,3.516387939453125 L-3.7901668548583993,3.7190189361572266 L-3.7732772827148446,3.9303359985351562 L-3.763143539428712,4.150339126586914 L-3.759765625000001,4.379028320312496 " />
			<path d="M-3.759765625000001,4.3790283203125 L-3.7614216804504403,4.538130283355713 L-3.7663898468017587,4.692560195922852 L-3.774670124053956,4.842318058013916 L-3.786262512207032,4.987403869628906 L-3.801167011260987,5.127817630767822 L-3.819383621215821,5.263559341430664 L-3.840912342071534,5.394629001617432 L-3.865753173828126,5.521026611328125 L-3.893906116485596,5.642752170562744 L-3.9253711700439458,5.759805679321289 L-3.9601483345031743,5.87218713760376 L-3.9982376098632817,5.979896545410156 L-4.039638996124268,6.0829339027404785 L-4.084352493286133,6.181299209594727 L-4.132378101348877,6.2749924659729 L-4.183715820312498,6.3640136718749964 " />
			<path d="M-4.1837158203125,6.364013671875 L-4.237422466278076,6.448911190032959 L-4.29255485534668,6.530233383178711 L-4.3491129875183105,6.607980251312256 L-4.407096862792969,6.682151794433594 L-4.466506481170654,6.752748012542725 L-4.527341842651367,6.819768905639648 L-4.589602947235107,6.883214473724365 L-4.653289794921875,6.943084716796875 L-4.71840238571167,6.999379634857178 L-4.784940719604492,7.052099227905273 L-4.852904796600342,7.101243495941162 L-4.922294616699219,7.146812438964844 L-4.993110179901123,7.188806056976318 L-5.065351486206055,7.227224349975586 L-5.139018535614014,7.2620673179626465 L-5.214111328124997,7.293334960937499 " />
			<path d="M-5.214111328125,7.2933349609375 L-5.270943641662598,7.31373405456543 L-5.331943511962891,7.332817077636719 L-5.397110939025879,7.350584030151367 L-5.4664459228515625,7.367034912109375 L-5.539948463439941,7.382169723510742 L-5.617618560791016,7.395988464355469 L-5.78546142578125,7.419677734375 L-5.969974517822266,7.438102722167969 L-6.1711578369140625,7.451263427734375 L-6.389011383056641,7.459159851074219 L-6.623535156249996,7.4617919921875 " />
			<path d="M-6.62353515625,7.4617919921875 L-8.35302734375,7.4617919921875 " />
			<path d="M-23.1912841796875,1.849365234375 L-23.24399823374864,1.9074485059674309 L-23.2949831084782,1.9670301660291123 L-23.34419690424945,2.028071550235333 L-23.39160324391063,2.090530406861357 L-23.437169887608537,2.1543590087017552 L-23.480870161767893,2.2195059058821998 L-23.522683660529346,2.2859172623301767 L-23.56259597195327,2.35353702930842 L-23.600598404223646,2.422307118948343 L-23.636687711851835,2.4921675777834715 L-23.670865821880444,2.563056760282874 L-23.703140233581152,2.6349131100560133 L-23.733524232190124,2.707676989410702 L-23.762035143531744,2.781288295499886 L-23.813527654087807,2.930819248993974 L-23.857832767019758,3.083053757933601 L-23.895211605765112,3.2375686689864107 L-23.925957765559275,3.3939742623471987 L-23.95038788516364,3.5519297327200903 L-23.968828072157624,3.711132986694108 L-23.981605644796808,3.8713159895693763 L-23.98904344133081,4.032245827850471 L-23.991455078125,4.193725585937495 " />
			<path d="M-21.183837890625,0.9930419921875 L-21.336747654994667,0.9965516272988688 L-21.488851940972225,1.0073218953397167 L-21.63978645620796,1.025691291764904 L-21.714694015132462,1.0378205753778376 L-21.78915645465624,1.0519563544165844 " />
			<path d="M-23.13460994566171,1.7903055611118788 L-23.1912841796875,1.8493652343749962 " />
			<path d="M-19.1595458984375,1.8577880859375 L-19.258392370210164,1.7552186559564116 L-19.36189462700672,1.657871342157396 L-19.470006142074105,1.5661559649032684 L-19.582622231142693,1.4804677143300333 L-19.6995768968025,1.4011721901311254 L-19.820651034887334,1.3285860304912709 L-19.9455687883806,1.2629694941271516 L-20.074013390187325,1.204511285234863 L-20.205623254010334,1.1533283857960985 L-20.340018022598006,1.1094566583898224 L-20.47681292114102,1.0728537211797076 L-20.615621887166974,1.0434080284353042 L-20.75606132169923,1.0209478633676399 L-20.897782480686,1.0052475759415145 L-21.040470902824556,0.9960425622309234 L-21.183837890624993,0.9930419921875 " />
			<path d="M-18.364990234375,4.3116455078125 L-18.365134396682862,4.2689662430605235 " />
			<path d="M-18.953306413034724,2.113177826033352 L-19.001825026067586,2.046873788491336 L-19.052393004799995,1.9821646167144957 L-19.104979678554933,1.9191155519802992 L-19.159545898437496,1.8577880859375042 " />
			<path d="M-18.7047119140625,6.06640625 L-18.668069979258732,5.982459226048006 L-18.633688541157973,5.897378103593222 " />
			<path d="M-18.496210993859133,5.462327208073559 L-18.481365469967713,5.400698342294485 " />
			<path d="M-18.425727220159796,5.115961098361503 L-18.402901064976177,4.954672496243377 L-18.385658806175158,4.7919451583360395 " />
			<path d="M-18.368457336491012,4.512119355661359 L-18.364990234375,4.3116455078125036 " />
			<path d="M-19.6986083984375,7.228759765625 L-19.63007286991974,7.184013549878533 " />
			<path d="M-19.62958015982721,7.183680663914168 L-19.593055684930427,7.158540281097481 " />
			<path d="M-19.55320228328096,7.130032376456877 L-19.510217903633738,7.097963472912344 " />
			<path d="M-19.463257152982372,7.061272704002205 L-19.408599913544837,7.016250008397463 " />
			<path d="M-19.331910206619963,6.948513597244053 L-19.313423200727435,6.931328217673835 " />
			<path d="M-19.07725317012697,6.6767149655768625 L-19.031194908696357,6.61799310222488 L-18.986767560204527,6.557894178823015 L-18.943977871078005,6.496466861660753 L-18.902828552252252,6.433761344460745 " />
			<path d="M-18.779589524685072,6.2202474758368576 L-18.741135889254913,6.143955911003333 L-18.7047119140625,6.0664062500000036 " />
			<path d="M-21.1669921875,7.6414794921875 L-21.06261031935772,7.639761948620376 L-20.958680398386424,7.634550239059933 " />
			<path d="M-20.34835793918103,7.525388561536316 L-20.250701507169406,7.493983472982666 L-20.154401100210634,7.458784436359164 " />
			<path d="M-20.083655086609433,7.430135947531066 L-19.97589804383114,7.381752478968425 " />
			<path d="M-19.935306695378692,7.36198555400092 L-19.86576644778405,7.326087235290972 L-19.797238120795154,7.288118801188481 " />
			<path d="M-19.768478212855335,7.271394583822213 L-19.698608398437504,7.228759765625002 " />
			<path d="M-23.1575927734375,6.846923828125 L-23.086659689958047,6.912551484367688 " />
			<path d="M-22.866175108086264,7.093050818967368 L-22.759618016935477,7.168578321234251 " />
			<path d="M-23.991455078125,4.1937255859375 L-23.991288014464978,4.246130086840123 " />
			<path d="M-23.978065645891686,4.647681119673947 L-23.977187224037717,4.661766249626298 " />
			<path d="M-23.944366012889656,5.016997731415786 L-23.926945108730376,5.14533706793166 L-23.90631090527422,5.272908546627457 L-23.88225777186664,5.399572795525786 L-23.854568087000644,5.525165757813263 L-23.823013949485702,5.649495314090368 L-23.7873585288104,5.772341755255936 L-23.747357602748128,5.89345771782315 L-23.70276686482995,6.012555947579765 L-23.653347405078677,6.129311824146005 L-23.598872940560305,6.243363245053576 L-23.53914011688166,6.35431298006932 L-23.473978091677374,6.461734523690636 L-23.40326417464404,6.565174187370798 L-23.326940961134774,6.664158826529001 L-23.245019767649982,6.758223374900318 L-23.157592773437504,6.846923828124996 " />
			<path d="M-5.3179931640625,1.3243408203125 L-5.405752996961326,1.2978526295349266 " />
			<path d="M-5.6668473923283775,1.2399345153937293 L-5.7741661887746645,1.2229964903896628 " />
			<path d="M-6.082990039836076,1.190209577567923 L-6.149136558941636,1.1857030541228002 " />
			<path d="M-6.454042676936785,1.173917811327054 L-6.5954589843749964,1.1727294921875 " />
			<path d="M-4.57958984375,1.7510986328125 L-4.6409169346826245,1.6933726319815452 " />
			<path d="M-4.828648682344728,1.551492475978244 L-4.85893185281411,1.5323960495243658 " />
			<path d="M-4.957542247625538,1.4758756350756537 L-4.974870562501989,1.4667527271934007 " />
			<path d="M-5.215600170592852,1.360219470697121 L-5.317993164062498,1.3243408203125007 " />
			<path d="M-3.9759521484375,2.792724609375 L-4.0222963116384705,2.660813668609099 " />
			<path d="M-4.174274119770378,2.3159712618300996 L-4.182527316517838,2.3001628906510216 " />
			<path d="M-4.2861787405583485,2.1207045616907787 L-4.300235917201943,2.098783801684215 " />
			<path d="M-4.492104028491172,1.844464464719301 L-4.535174409555927,1.7969906612115132 L-4.579589843749998,1.7510986328125018 " />
			<path d="M-3.759765625,4.3790283203125 L-3.7632711133250076,4.146144035072703 " />
			<path d="M-3.8328408083208583,3.3891137436959267 L-3.84025112010712,3.34501227210193 " />
			<path d="M-3.933263902183683,2.9320100648708087 L-3.9759521484374987,2.7927246093750036 " />
			<path d="M-4.1837158203125,6.364013671875 L-4.143794837219547,6.295706239551787 L-4.106339974157747,6.225580048243368 " />
			<path d="M-4.014730367314169,6.02250250319358 L-3.9813303670312643,5.93380942794843 " />
			<path d="M-3.8183776466583006,5.2567713430895155 L-3.8087822575004107,5.188179803201146 " />
			<path d="M-3.7624307804100328,4.580067816106942 L-3.759765625,4.379028320312505 " />
			<path d="M-5.214111328125,7.2933349609375 L-5.138275725264154,7.261736982659768 L-5.063979781598478,7.226534837373203 " />
			<path d="M-4.910881775193872,7.139625407583491 L-4.9094698869496725,7.138728009188968 " />
			<path d="M-4.758158986968264,7.031444091559771 L-4.681716429221374,6.9682538855832075 " />
			<path d="M-4.599727803848384,6.893063709575265 L-4.528301622100656,6.820785528455763 L-4.4596861055612615,6.744908688046716 " />
			<path d="M-4.366260668417443,6.630480205406306 L-4.321299872553842,6.57043886765083 " />
			<path d="M-4.205409024684859,6.399009001395126 L-4.183715820312502,6.3640136718750036 " />
			<path d="M-6.62353515625,7.4617919921875 L-6.493425824103368,7.4610073837681625 " />
			<path d="M-6.105318099944617,7.447645833361412 L-6.085549668996689,7.446434876572567 " />
			<path d="M-5.702377151033857,7.40890223573589 L-5.657730260550123,7.402360567310442 " />
			<path d="M-5.30288357509489,7.324052181376785 L-5.214111328125003,7.293334960937501 " />

       </g>
    </g>
    
</svg>
