<?xml version="1.0" encoding="UTF-8" standalone="no"?>
<svg
   xmlns:svg="http://www.w3.org/2000/svg"
   xmlns="http://www.w3.org/2000/svg"
   width="960.0"
   height="720.0"

>
    <g transform="scale(5.294313754684557, -5.294313754684557)   translate(44.97967329719045,-56.59272186837516)" stroke-width="0.7"  fill="none">
       <!-- hidden lines -->
       <g  stroke="rgb(160,160,160)" fill="none" stroke-dasharray="0.7,0.7" >

       </g>

       <!-- solid lines -->
       <g  stroke="rgb(37,42,48)" fill="none">
			<path d="M-40.446507883870524,-46.70360442906593 L-40.446507883870524,8.49156444164835 " />
			<path d="M-40.44650788387052,-46.70360442906593 L-40.44463405348229,-46.79066246689618 L-40.43901707653914,-46.87534706132979 L-40.4296704848305,-46.95745419976128 L-40.41661679511448,-47.03678607890243 L-40.39988745487296,-47.11315158130774 L-40.3795227665519,-47.18636673579308 L-40.35557179046921,-47.25625516063842 L-40.32809222662413,-47.322648488506786 L-40.29715027569288,-47.38538677205599 L-40.262820479545454,-47.44431886926572 L-40.225185541667706,-47.49930280755198 L-40.18433612792141,-47.55020612579139 L-40.14037064812227,-47.59690619343173 L-40.09339501896205,-47.63929050591959 L-40.043522408845966,-47.67725695573377 L-39.990872965260124,-47.7107140783712 " />
			<path d="M-39.99087296526012,-47.7107140783712 L-39.935573525325644,-47.739581272692945 L-39.877757310237016,-47.763788995099425 L-39.817563604320476,-47.783278927067 L-39.755137419485926,-47.798004115642456 L-39.69062914588052,-47.80792908655674 L-39.62419418958564,-47.8130299296856 L-39.55599259823,-47.81329435665114 L-39.486188675420934,-47.80872173042565 L-39.41495058492259,-47.79932306686623 L-39.34244994553471,-47.7851210081766 L-39.26886141764787,-47.766149768360116 L-39.19436228247135,-47.74245505079517 L-39.11913201494715,-47.714093938131796 L-39.043351851379114,-47.681134754774526 L-38.96720435281885,-47.64365690228296 L-38.89087296526012,-47.60175066808644 " />
			<path d="M-40.44650788387052,8.49156444164835 L-40.44463405348229,8.580786192436715 L-40.43901707653914,8.671956713170651 L-40.4296704848305,8.76485636608011 L-40.41661679511448,8.859261347764189 L-40.39988745487296,8.954944228353108 L-40.3795227665519,9.051674499406701 L-40.35557179046921,9.149219129229426 L-40.32809222662413,9.247343124264141 L-40.29715027569288,9.34581009521216 L-40.262820479545454,9.444382826515781 L-40.225185541667706,9.542823847831343 L-40.18433612792141,9.64089600611608 L-40.14037064812227,9.738363036950581 L-40.09339501896205,9.834990133720456 L-40.043522408845966,9.930544513286058 L-39.99087296526012,10.024795976777437 L-39.935573525325644,10.117517464163587 L-39.877757310237016,10.208485601259953 L-39.817563604320476,10.297481237856402 L-39.755137419485926,10.384289975669276 L-39.69062914588052,10.468702684845638 L-39.62419418958564,10.550516007775398 L-39.55599259823,10.629532848997622 L-39.486188675420934,10.705562850020744 L-39.41495058492259,10.77842284791286 L-39.34244994553471,10.847937316557267 L-39.26886141764787,10.913938789510249 L-39.19436228247135,10.976268263442417 L-39.11913201494715,11.034775581191653 L-39.043351851379114,11.089319793504862 L-38.96720435281885,11.139769498597072 L-38.89087296526012,11.186003158709841 " />
			<path d="M-38.890872965260115,-47.60175066808643 L31.53696244092002,-6.9402209378856625 " />
			<path d="M-38.890872965260115,11.18600315870985 L31.53696244092002,51.84753288891062 " />
			<path d="M33.09259735953042,-4.245782220824174 L33.090723529142196,-4.335003971612541 L33.08510655219904,-4.426174492346476 L33.07575996049041,-4.519074145255936 L33.062706270774385,-4.613479126940014 L33.045976930532866,-4.709162007528933 L33.02561224221181,-4.805892278582525 L33.00166126612912,-4.90343690840525 L32.974181702284035,-5.001560903439965 L32.943239751352785,-5.100027874387983 L32.90890995520536,-5.198600605691604 L32.87127501732761,-5.297041627007165 L32.83042560358132,-5.395113785291905 L32.78646012378218,-5.492580816126406 L32.739484494621955,-5.589207912896282 L32.68961188450587,-5.684762292461883 L32.63696244092002,-5.779013755953262 L32.58166300098555,-5.871735243339411 L32.52384678589692,-5.962703380435777 L32.46365307998038,-6.0516990170322265 L32.40122689514583,-6.138507754845102 L32.33671862154043,-6.222920464021464 L32.27028366524554,-6.304733786951225 L32.202082073889905,-6.3837506281734475 L32.13227815108084,-6.459780629196571 L32.0610400605825,-6.5326406270886865 L31.988539421194616,-6.602155095733092 L31.914950893307775,-6.668156568686074 L31.84045175813126,-6.730486042618242 L31.765221490607054,-6.788993360367478 L31.689441327039024,-6.843537572680686 L31.613293828478756,-6.893987277772897 L31.536962440920036,-6.9402209378856625 " />
			<path d="M33.09259735953042,50.949386649890116 L33.090723529142196,51.03644468772036 L33.08510655219904,51.12112928215397 L33.07575996049041,51.20323642058546 L33.062706270774385,51.28256829972661 L33.045976930532866,51.35893380213192 L33.02561224221181,51.43214895661726 L33.00166126612912,51.5020373814626 L32.974181702284035,51.56843070933097 L32.943239751352785,51.63116899288017 L32.90890995520536,51.690101090089904 L32.87127501732761,51.74508502837616 L32.83042560358132,51.79598834661557 L32.78646012378218,51.84268841425591 L32.739484494621955,51.88507272674377 L32.68961188450587,51.92303917655795 L32.63696244092003,51.95649629919538 " />
			<path d="M32.63696244092002,51.95649629919538 L32.58166300098555,51.98536349351713 L32.52384678589692,52.00957121592361 L32.46365307998038,52.029061147891184 L32.40122689514583,52.04378633646664 L32.33671862154043,52.05371130738092 L32.27028366524554,52.05881215050978 L32.202082073889905,52.059076577475324 L32.13227815108084,52.054503951249835 L32.0610400605825,52.04510528769041 L31.988539421194613,52.030903229000785 L31.914950893307775,52.0119319891843 L31.84045175813126,51.988237271619354 L31.765221490607054,51.95987615895598 L31.68944132703902,51.92691697559871 L31.613293828478756,51.889439123107145 L31.53696244092002,51.847532888910614 " />
			<path d="M33.09259735953043,-4.245782220824175 L33.09259735953043,50.9493866498901 " />
			<path d="M32.244069222106575,-2.4494897427831797 L32.24168434706701,-2.3386886037265002 L32.23453546732117,-2.230908210810997 L32.22263980514655,-2.1264082164436484 L32.20602601823524,-2.025440370264003 L32.18473413065513,-1.9282479126572476 L32.158815436428334,-1.8350649887668102 L32.12833237595945,-1.7461160844182024 L32.09335838561117,-1.6616154853130052 L32.053977720789575,-1.58176676079584 L32.01028525296558,-1.5067622734379924 L31.96238624112117,-1.4367827156191235 L31.910396078171342,-1.3719966742235035 L31.854440012972436,-1.312560224499442 L31.794652848586697,-1.2586165540603442 L31.731178617529864,-1.210295617933205 L31.66417023478425,-1.1677138254855746 " />
			<path d="M31.664170234784237,-1.167713825485567 L31.593789129413093,-1.1309737599851624 L31.52020485566393,-1.100163931467831 L31.443594684497423,-1.0753585635090932 L31.36414317652618,-1.0566174144130556 L31.28204173739203,-1.043985633249421 L31.197488156653083,-1.037493651085426 L31.11068613129136,-1.0371571076747341 L31.021844774988914,-1.0429768137798998 L30.931178114354665,-1.0549387492191689 L30.83890457331554,-1.0730140966423267 L30.74524644691411,-1.0971593109542184 L30.650429365780358,-1.1273162242186938 L30.554681752567735,-1.1634121857902664 L30.458234271662967,-1.2053602373358778 L30.361319273495354,-1.253059322325138 L30.26417023478424,-1.3063945294843622 L30.167021196073122,-1.3652373696278919 L30.07010619790551,-1.429446085199796 L29.973658717000742,-1.4988659917802432 L29.87791110378812,-1.573329850733816 L29.783094022654367,-1.6526582721020309 L29.689435896252938,-1.736660146769462 L29.59716235521381,-1.8251331068623422 L29.506495694579563,-1.9178640132704907 L29.417654338277117,-2.0146294691181015 L29.330852312915393,-2.1151963579463855 L29.246298732176445,-2.2193224053115364 L29.164197293042296,-2.3267567624450862 L29.08474578507105,-2.437240610570563 L29.008135613904546,-2.550507784420589 L28.93455134015538,-2.6662854134523277 L28.86417023478424,-2.7842945792165192 L28.797161852038613,-2.904250987296455 L28.733687620981776,-3.02586565219813 L28.673900456596037,-3.1488455935416093 L28.617944391397135,-3.272894541876427 L28.565954228447307,-3.3977136524206384 L28.5180552166029,-3.5230022250040802 L28.4743627487789,-3.6484584284814163 L28.434982083957312,-3.7737800278698046 L28.400008093609024,-3.8986651124594425 L28.369525033140146,-4.02281282314291 L28.343606338913347,-4.145924077211118 L28.32231445133323,-4.267702288869743 L28.305700664421927,-4.387854083740388 L28.293805002247304,-4.506090005625156 L28.28665612250147,-4.622125213831982 L28.284271247461906,-4.735680169380812 L28.28665612250147,-4.846481308437489 L28.293805002247304,-4.954261701352992 L28.30570066442193,-5.058761695720342 L28.32231445133323,-5.159729541899988 L28.343606338913347,-5.256921999506743 L28.369525033140146,-5.350104923397181 L28.400008093609024,-5.439053827745788 L28.434982083957312,-5.523554426850986 L28.4743627487789,-5.603403151368152 L28.5180552166029,-5.678407638726 L28.565954228447307,-5.7483871965448685 L28.617944391397135,-5.813173237940488 L28.673900456596037,-5.872609687664548 L28.733687620981776,-5.926553358103646 L28.797161852038613,-5.974874294230785 L28.864170234784233,-6.01745608667842 " />
			<path d="M28.86417023478424,-6.017456086678424 L28.91664900847845,-6.045563880731708 L28.970953984473606,-6.0703473221373985 L29.027011566992375,-6.091772823611796 L29.08474578507105,-6.1098113486548975 L29.14407839551773,-6.1244384509015575 L29.204928988949916,-6.135634307251955 L29.267215098767764,-6.143383744736472 L29.330852312915393,-6.147676261078566 L29.395754388278675,-6.148506038927778 L29.461833367564587,-6.145871953743594 L29.528999698503625,-6.139777575319446 L29.59716235521381,-6.130231162944822 L29.666228961561778,-6.117245654212025 L29.73610591635374,-6.100838647482744 L29.806698520186725,-6.081032378038221 L29.87791110378812,-6.057853687945297 L29.94964715766962,-6.031333989679233 L30.021809462919865,-6.0015092235525405 L30.094300222958502,-5.9684198090075755 L30.167021196073122,-5.932110589838853 L30.239873828559453,-5.89263077341936 L30.312759388284398,-5.850033864013207 L30.38557909849084,-5.804377590264998 L30.458234271662967,-5.7557238269641955 L30.530626443270616,-5.704138511190493 L30.60265750521147,-5.649691552953855 L30.674229838770145,-5.592456740450321 L30.74524644691411,-5.53251164006196 L30.815611085747037,-5.469937491236526 L30.88522839494151,-5.40481909638925 L30.954004026974275,-5.337244705975991 L31.021844774988914,-5.267305898893501 L31.088658699112635,-5.1950974583688865 L31.15435525105604,-5.120717243506448 L31.218845396826953,-5.044266056666011 L31.282041737392028,-4.965847506852457 L31.34385862712261,-4.885567869301614 L31.404212289864333,-4.803535941452774 L31.463020932473153,-4.719862895503053 L31.520204855663927,-4.634662127743403 L31.575686562021353,-4.54804910488046 L31.629390861026845,-4.460141207552503 L31.68124497095905,-4.371057571251606 L31.731178617529864,-4.280918924867537 L31.779124129122344,-4.189847427072243 L31.825016528501333,-4.097966500766665 L31.868793620872644,-4.005400665814203 L31.91039607817134,-3.912275370287566 L31.949767519464963,-3.8187168204576842 L31.98685458736271,-3.7248518097550702 L32.02160702032703,-3.630807546935457 L32.053977720789575,-3.5367114836825753 L32.08392281897931,-3.442691141881694 L32.111401732376166,-3.348873940798037 L32.13637722070971,-3.2553870243942704 L32.158815436428334,-3.1623570890210804 L32.17868597057046,-3.0699102117143746 L32.19596189397576,-2.9781716793317994 L32.21061979378033,-2.8872658187601212 L32.22263980514655,-2.7973158284236033 L32.23200563818451,-2.708443611321708 L32.238704600028605,-2.620769609822386 L32.24272761203925,-2.534412642434873 L32.244069222106575,-2.4494897427831996 " />
			<path d="M26.728636328851497,29.47552657149091 L26.728636328851497,-1.5513435037626815 " />
			<path d="M26.728636328851504,-1.5513435037626735 L-0.14142135623730923,-17.064778541389472 " />
			<path d="M-27.049976309930752,-11.207173065178239 L-26.279685670854978,-10.76244555735359 " />
			<path d="M-26.27968567085498,-10.76244555735359 L-26.27968567085498,-7.594335166561514 " />
			<path d="M-26.279685670854978,-7.59433516656151 L-23.961217880001627,-6.25576716340485 " />
			<path d="M-26.27968567085498,-5.984664783018694 L-26.27968567085498,-4.041099923632629 " />
			<path d="M-23.254111098815077,-9.015629263733066 L-22.483820459739302,-8.57090175590842 " />
			<path d="M-22.483820459739306,-8.570901755908421 L-22.483820459739306,-1.8495561221874581 " />
			<path d="M-20.603942547127676,-6.704138628656402 L-20.54889894742817,-6.734005952088362 L-20.492233539334045,-6.76099850236542 L-20.433998616512763,-6.785114149306595 L-20.374250338135585,-6.806359557295918 L-20.313047453156162,-6.82474979276526 L-20.250451211386505,-6.840307855876924 L-20.186524431380317,-6.85306427231748 L-20.121331128553294,-6.863056429468406 " />
			<path d="M-16.208334093454447,0.20788170396007777 L-16.257198320450602,0.28895068485451286 L-16.309549031584307,0.36555135693531904 L-16.3654107605545,0.43746929223850883 L-16.424788340361964,0.5045027713240946 L-16.48766543942015,0.5664672450038432 L-16.55400329300868,0.6231994355177861 L-16.623740937825435,0.6745618491083402 L-16.69679528977422,0.7204458004476592 " />
			<path d="M-20.121331128553294,-6.863056429468406 L-20.038558063881247,-6.871563618931723 L-19.954127510083783,-6.875578685719861 L-19.86811949119487,-6.8750644204907525 L-19.78062237702515,-6.87000303983441 L-19.69173087582492,-6.860396534735232 L-19.601547589971744,-6.846267221912019 L-19.510178658851217,-6.827656968260642 L-19.417732225242286,-6.804626082659129 L-19.32431816090634,-6.77725220734005 L-19.23004764918555,-6.745629155447991 L-19.135028481636855,-6.7098639953068036 L-19.039365406522602,-6.6700753596741995 L-18.943159527155846,-6.626391370059473 L-18.846506974031865,-6.578947421436667 L-18.749498673407913,-6.527884376124002 L-18.652220115883004,-6.473346757663304 " />
			<path d="M-15.868850332418472,-1.4002437946945112 L-15.87002092119872,-1.283195813722576 L-15.873581571816297,-1.1677952850089535 L-15.879604737939703,-1.0541535134402102 L-15.888161176474647,-0.9423860239216112 L-15.899319229989219,-0.8326119907274862 L-15.913144047699946,-0.7249536181906685 L-15.929696745018722,-0.6195354727310028 L-15.949033501660619,-0.516483766222925 L-15.971204598312577,-0.41592559070211044 L-15.996253668762158,-0.31798706850507386 L-16.0242162480975,-0.22279415764673358 L-16.055119008233145,-0.13047029419494643 L-16.088979578727077,-0.041133183833319265 L-16.12580584596795,0.0451059212315954 L-16.16559525201774,0.1281429439252541 L-16.208334093454447,0.20788170396007494 " />
			<path d="M-18.652220115883,-6.473346757663302 L-18.55967751926227,-6.418359680328749 L-18.467341861281838,-6.360338116863706 L-18.375285666168857,-6.299271488716361 L-18.283583988260265,-6.2351590611867245 L-18.19231415877709,-6.168010701745601 L-18.101554644618293,-6.097846851412632 L-18.011385021346566,-6.024699207328308 L-17.92188418750403,-5.948610263538778 L-17.833130121659426,-5.8696331987353085 L-17.74519812029902,-5.7878305379502555 L-17.65816178817984,-5.703275479485079 L-17.57209152836255,-5.616050339014008 L-17.48705243003335,-5.526244186874198 L-17.403104449444776,-5.433952419159453 L-17.320302590856453,-5.339276328813958 L-17.238697087475913,-5.242322676726008 " />
			<path d="M-16.22620165982476,-3.435903727417642 L-16.181385616737447,-3.3045369138328073 L-16.139617674579693,-3.1732449083003402 L-16.100921221324032,-3.04214681009388 L-16.065308052817638,-2.911358961813927 L-16.032778349757905,-2.7809935090817137 L-16.003321229447376,-2.6511572332187963 L-15.976915177411131,-2.5219505877344766 L-15.953528831424222,-2.3934671759095347 L-15.93312177378845,-2.2657929254495364 L-15.915645467295993,-2.1390056336988397 L-15.901044292760734,-2.0131749192832857 L-15.889256571805323,-1.8883622958875406 L-15.880215580353719,-1.764621178070054 L-15.873850518604385,-1.641996924206343 L-15.87008748756296,-1.520527490469707 L-15.868850332418472,-1.4002437946945157 " />
			<path d="M-17.23869708747591,-5.242322676726005 L-17.158026423771393,-5.1423912135187475 L-17.079245243992446,-5.040167119690798 L-17.002476082857815,-4.935737173824275 L-16.927834953769782,-4.829201215758629 L-16.855430717913162,-4.720672785828172 L-16.785364230999157,-4.610279404001664 L-16.717723955164587,-4.498156665577102 L-16.65258690820775,-4.384449742021292 L-16.59001618337363,-4.269308852965688 L-16.530060500650134,-4.152887110406581 L-16.47275485806776,-4.03534000973953 L-16.41811914211244,-3.9168202829825343 L-16.366159179467182,-3.797476821649338 L-16.31686770020356,-3.677453145482189 L-16.2702252416451,-3.5568857485942416 L-16.226201659824763,-3.435903727417646 " />
			<path d="M-14.907972318726006,-4.196983792354665 L-11.270929919790905,-2.0971363842754016 " />
			<path d="M-11.270929919790907,-2.0971363842754034 L-11.270929919790907,-1.3039625816603095 " />
			<path d="M-14.137681679650235,-2.1425859009872 L-14.137681679650235,2.9690893491909414 " />
			<path d="M-10.3537281794481,-1.5675897125872904 L-8.253296488360029,-0.35490491032317273 " />
			<path d="M-8.253296488360036,-0.3549049103231745 L-8.13136576037416,-0.2829387108348495 L-8.010566958698512,-0.2083692420596643 L-7.891031685555664,-0.13108839063826075 L-7.7729107072453205,-0.05099007250442378 L-7.656373497273381,0.032028959036522475 L-7.5416076707451705,0.11806812046134052 L-7.428818310022837,0.2072218204145273 L-7.318227181646918,0.29957809732598306 " />
			<path d="M-7.318227181646916,0.2995780973259847 L-7.222970261452062,0.38340663925757473 L-7.12972887972882,0.4696342296478495 L-7.038684648799666,0.5582859259899531 L-6.950029090725333,0.6493736332308937 L-6.863962054489057,0.7428940796477158 L-6.7806905832274325,0.838825488638222 L-6.700425397628396,0.9371263875943124 L-6.623377378356915,1.037734063921532 " />
			<path d="M-6.623377378356913,1.0377340639215338 L-6.5493671606403305,1.1410130803032643 L-6.477538412353016,1.2479862812006441 L-6.407927648741294,1.358402646399992 L-6.340554350192575,1.4720109302462578 L-6.275422284235955,1.5885638518777585 L-6.212520576030552,1.7078224784905283 L-6.1518263079142965,1.8295576192753875 L-6.093306242704255,1.9535517926635253 " />
			<path d="M-6.093306242704253,1.9535517926635275 L-6.0299674326286405,2.097605355395957 L-5.9708522789375165,2.244352360809695 L-5.915825974358587,2.393389271514828 L-5.864733262330928,2.544353579415575 L-5.817405828686374,2.6969240201873417 L-5.773667615387387,2.850821002985464 L-5.7333408628843845,3.0058004330799823 L-5.696249212252824,3.161651775259346 " />
			<path d="M-5.769704762886337,6.074158469543962 L-5.81852359823254,6.18554547794123 L-5.845005100183448,6.2387870058383035 L-5.872886742870829,6.290315072513078 L-5.902179656141771,6.340072634363769 L-5.932892395957124,6.388004611107548 L-5.965030750627491,6.434058151716599 L-5.998597543132345,6.47818290545105 L-6.033592429522238,6.520331297988787 L-6.070011693404134,6.560458812652151 L-6.107848036509837,6.598524276731509 L-6.147090365347532,6.634490152905715 L-6.187723573936441,6.668322835759445 L-6.2297283226245765,6.699992953397407 L-6.273080951511335,6.729475760177477 L-6.317757125772394,6.756753601778875 " />
			<path d="M-5.696249212252823,3.161651775259349 L-5.65760401585521,3.3452560741367154 L-5.62505334249143,3.5284482295404405 L-5.598309036219238,3.7109847350405074 L-5.577074930316451,3.8926663994777417 L-5.5610541878229585,4.0733337402076435 L-5.549954543761732,4.25286391333076 L-5.5434927218092165,4.431162933871033 L-5.5413969703767645,4.608162380606524 " />
			<path d="M-5.5413969703767645,4.608162380606528 L-5.544500759136432,4.813211635685466 L-5.554076808985486,5.0133154833546545 L-5.5705293050003375,5.207894829769945 L-5.581461597476894,5.302916975251304 L-5.5942655378245085,5.396316851069589 L-5.608991140645283,5.488007813109818 L-5.625687098996047,5.577899587083342 L-5.644400496457918,5.665899394908074 L-5.665176401263569,5.751912405597658 L-5.68805730940703,5.835842269815144 L-5.713082589056138,5.917591679612861 L-5.740287924964979,5.997062928172294 L-5.769704762886336,6.074158469543959 " />
			<path d="M-27.58423553408722,10.79428245420904 L-25.32856490210213,7.585253236818586 " />
			<path d="M-25.328564902102134,7.585253236818573 L-27.58423553408722,1.771599926268678 " />
			<path d="M-27.58423553408722,1.7715999262686783 L-32.095576798057394,-0.8330241668907665 " />
			<path d="M-36.31391770309007,-49.833605188783295 L-36.2586182631556,-49.862472383105036 L-36.20080204806697,-49.886680105511516 L-36.14060834215043,-49.90617003747909 L-36.07818215731588,-49.92089522605455 L-36.013673883710474,-49.93082019696884 L-35.94723892741559,-49.93592104009769 L-35.87903733605995,-49.93618546706323 L-35.80923341325089,-49.931612840837744 L-35.737995322752546,-49.92221417727832 L-35.66549468336466,-49.908012118588694 L-35.59190615547782,-49.88904087877221 L-35.517407020301306,-49.86534616120726 L-35.4421767527771,-49.83698504854389 L-35.36639658920907,-49.80402586518662 L-35.2902490906488,-49.766548012695054 L-35.213917703090075,-49.72464177849853 " />
			<path d="M-35.21391770309007,-49.72464177849852 L35.21391770309007,-9.063112048297754 " />
			<path d="M36.76955262170047,-6.368673331236262 L36.76767879131224,-6.457895082024629 L36.76206181436909,-6.549065602758564 L36.752715222660456,-6.6419652556680235 L36.73966153294443,-6.7363702373521015 L36.72293219270291,-6.832053117941021 L36.702567504381854,-6.928783388994613 L36.678616528299166,-7.026328018817337 L36.65113696445408,-7.124452013852053 L36.62019501352283,-7.222918984800071 L36.58586521737541,-7.321491716103692 L36.54823027949766,-7.419932737419253 L36.507380865751365,-7.518004895703992 L36.463415385952224,-7.615471926538493 L36.416439756792,-7.71209902330837 L36.36656714667592,-7.807653402873971 L36.31391770309007,-7.901904866365349 L36.2586182631556,-7.9946263537514985 L36.20080204806697,-8.085594490847864 L36.14060834215043,-8.174590127444313 L36.07818215731588,-8.26139886525719 L36.013673883710474,-8.34581157443355 L35.94723892741559,-8.427624897363312 L35.87903733605995,-8.506641738585536 L35.80923341325089,-8.582671739608658 L35.737995322752546,-8.655531737500773 L35.66549468336466,-8.72504620614518 L35.59190615547782,-8.791047679098162 L35.517407020301306,-8.85337715303033 L35.4421767527771,-8.911884470779565 L35.36639658920907,-8.966428683092774 L35.29024909064881,-9.016878388184985 L35.21391770309008,-9.06311204829775 " />
			<path d="M36.76955262170048,-6.368673331236263 L36.76955262170048,48.82649553947802 " />
			<path d="M36.76955262170047,48.826495539478024 L36.76767879131224,48.91355357730827 L36.76206181436909,48.99823817174188 L36.752715222660456,49.08034531017337 L36.73966153294443,49.15967718931452 L36.72293219270291,49.23604269171983 L36.702567504381854,49.30925784620517 L36.678616528299166,49.37914627105051 L36.65113696445408,49.44553959891888 L36.62019501352283,49.50827788246808 L36.58586521737541,49.56720997967781 L36.54823027949766,49.62219391796407 L36.507380865751365,49.67309723620348 L36.463415385952224,49.71979730384382 L36.416439756792,49.76218161633168 L36.36656714667592,49.80014806614586 L36.31391770309008,49.83360518878329 " />
			<path d="M32.110480507220046,-1.7010762871712024 L32.043398174634596,-1.7114080803913496 L31.975472159729442,-1.7250403031151134 L31.90679092025045,-1.7419552025611034 L31.837443897446846,-1.7621307510293471 L31.767521399594905,-1.785540674587219 L31.697114484392532,-1.8121544872850888 L31.626314840377937,-1.8419375308571428 L31.55521466752673,-1.874851019855666 L31.483906557183044,-1.9108520921600167 L31.412483371480956,-1.9498938647945137 L31.341038122413273,-1.9919254949825436 L31.269663850705182,-2.036892246357385 L31.198453504650463,-2.0847355602435256 L31.12749981906807,-2.135393131915635 L31.05689519453673,-2.188798991735901 L30.9867315770648,-2.244883591064048 L30.917100338352096,-2.3035738928281733 L30.84809215679963,-2.364793466638451 L30.779796899422205,-2.4284625883198365 L30.712303504817644,-2.4944983437341537 L30.645699867345062,-2.5628147367563696 L30.580072722663047,-2.6333228012644283 L30.515507534776734,-2.705930716996818 L30.452088384740925,-2.780543929126982 L30.3898978611642,-2.857065271398862 L30.329016952656563,-2.9353950926632217 L30.269524942360718,-3.015431386649957 L30.211499304704326,-3.097069924807402 L30.155015604507685,-3.180204392035641 L30.100147398578223,-3.264726525137055 L30.046966139919967,-3.350526253803812 L29.995541084682714,-3.4374918439586986 L29.945939201972102,-3.52551004326262 L29.898225086638007,-3.6144662285992797 L29.852460875154865,-3.704244555344977 L29.808706164703445,-3.794728108229133 L29.767017935559466,-3.885799053589082 L29.72745047689012,-3.9773387928208574 L29.69005531605511,-4.069228116826127 L29.654881151504338,-4.161347361254165 L29.62197378935956,-4.253576562336674 L29.59137608376263,-4.345795613112533 L29.563127881067985,-4.4378844198390235 L29.537265967952113,-4.5297230583858346 L29.513824023507503,-4.621191930408193 L29.492832575383492,-4.7121719190957325 L29.474318960031166,-4.802544544294274 L29.45830728710401,-4.892192116798516 L29.44481840806073,-4.980997891614695 L29.4338698890111,-5.068846219993632 L29.425475987840215,-5.155622700036172 L29.419647635640946,-5.241214325674911 L29.41639242247872,-5.32550963383815 L29.415714587507253,-5.408398849604484 L29.41761501344805,-5.489774029158957 L29.42209122544084,-5.569529200364627 L29.429137394266544,-5.647560500766499 L29.438744343938424,-5.723766312848062 L29.450899563651696,-5.798047396364346 L29.465587224075897,-5.870307017579128 L29.482788197968915,-5.9404510752379895 L29.502480085085725,-6.008388223113194 L29.524637241349474,-6.07402998896078 L29.5492308122469,-6.137290889734961 " />
			<path d="M26.728636328851497,29.475526571490914 L26.021529547664947,29.883774861954777 " />
			<path d="M26.021529547664947,-1.143095213298817 L26.021529547664947,29.883774861954777 " />
			<path d="M26.728636328851497,-1.5513435037626802 L26.021529547664947,-1.1430952132988172 " />
			<path d="M26.021529547664947,29.883774861954777 L-0.848528137423866,14.370339824327976 " />
			<path d="M-0.14142135623730967,-17.064778541389476 L-0.8485281374238571,-16.656530250925613 " />
			<path d="M-0.8485281374238571,14.37033982432798 L-0.8485281374238571,-16.656530250925613 " />
			<path d="M-0.8485281374238571,-16.656530250925613 L26.021529547664954,-1.1430952132988121 " />
			<path d="M-27.049976309930756,-11.207173065178235 L-27.757083091117302,-10.798924774714372 " />
			<path d="M-26.986792452041527,-10.354197266889727 L-27.757083091117302,-10.798924774714376 " />
			<path d="M-26.27968567085498,-10.762445557353589 L-26.986792452041527,-10.354197266889727 " />
			<path d="M-27.757083091117302,-10.798924774714374 L-27.757083091117302,-4.07757914099341 " />
			<path d="M-26.986792452041527,-7.186086876097651 L-26.986792452041527,-10.354197266889729 " />
			<path d="M-26.27968567085498,-7.594335166561513 L-26.986792452041527,-7.18608687609765 " />
			<path d="M-26.27968567085498,-4.041099923632626 L-26.986792452041527,-3.6328516331687633 " />
			<path d="M-27.757083091117302,-4.077579140993411 L-26.986792452041527,-3.632851633168763 " />
			<path d="M-23.961217880001627,-5.439270582477125 L-26.986792452041527,-7.186086876097648 " />
			<path d="M-26.986792452041527,-3.6328516331687637 L-26.986792452041527,-6.392913073482557 " />
			<path d="M-23.961217880001627,-8.607380973269203 L-23.961217880001627,-5.439270582477125 " />
			<path d="M-23.25411109881508,-9.015629263733064 L-23.961217880001627,-8.607380973269201 " />
			<path d="M-26.986792452041527,-6.392913073482557 L-23.961217880001627,-4.646096779862034 " />
			<path d="M-23.190927240925852,-8.162653465444555 L-23.961217880001627,-8.607380973269203 " />
			<path d="M-22.483820459739306,-8.570901755908416 L-23.190927240925852,-8.162653465444553 " />
			<path d="M-23.961217880001627,-4.646096779862033 L-23.961217880001627,-1.8860353395482399 " />
			<path d="M-23.190927240925852,-1.441307831723591 L-23.190927240925852,-8.162653465444555 " />
			<path d="M-22.483820459739306,-1.8495561221874541 L-23.190927240925852,-1.441307831723591 " />
			<path d="M-23.961217880001627,-1.8860353395482394 L-23.190927240925852,-1.4413078317235917 " />
			<path d="M-22.142696680534073,-4.283896026066701 L-22.13965671264468,-4.075797150536398 L-22.130536808976498,-3.8698653186774368 L-22.11533696952953,-3.666100530489819 L-22.094057194303772,-3.4645027859735436 L-22.06669748329923,-3.265072085128611 L-22.033257836515897,-3.067808427955021 L-21.99373825395378,-2.8727118144527743 L-21.948138735612872,-2.6797822446218698 L-21.89645928149318,-2.489019718462308 L-21.838699891594697,-2.3004242359740887 L-21.77486056591743,-2.1139957971572128 L-21.70494130446137,-1.929734402011679 L-21.62894210722653,-1.7476400505374885 L-21.546862974212896,-1.5677127427346402 L-21.458703905420478,-1.389952478603135 L-21.364464900849274,-1.2143592581429785 " />
			<path d="M-21.36446490084927,-1.2143592581429723 L-21.26541778379994,-1.0425270225669583 L-21.162834377573155,-0.8760497130878986 L-21.05671468216891,-0.7149273297057931 L-20.947058697587206,-0.559159872420642 L-20.833866423828045,-0.40874734123244527 L-20.717137860891423,-0.2636897361412026 L-20.596873008777347,-0.12398705714691438 L-20.47307186748581,0.010360695750419424 L-20.345734437016816,0.13935352255079891 L-20.214860717370364,0.2629914232542241 L-20.080450708546454,0.3812743978606954 L-19.942504410545087,0.49420244637021193 L-19.80102182336626,0.6017755687827744 L-19.656002947009977,0.7039937650983827 L-19.507447781476234,0.8008570353170366 L-19.35535632676504,0.8923653794387327 " />
			<path d="M-21.809168774954877,-5.7693775985943905 L-21.849556919771107,-5.693190790512639 L-21.887339377825,-5.614783210404057 L-21.922516149116557,-5.534154858268645 L-21.955087233645774,-5.451305734106401 L-21.985052631412657,-5.366235837917328 L-22.0124123424172,-5.278945169701424 L-22.037166366659406,-5.189433729458688 L-22.059314704139275,-5.097701517189123 L-22.078857354856805,-5.003748532892727 L-22.095794318811997,-4.907574776569501 L-22.110125596004853,-4.809180248219445 L-22.12185118643537,-4.708564947842556 L-22.130971090103554,-4.605728875438839 L-22.1374853070094,-4.50067203100829 L-22.141393837152904,-4.393394414550911 L-22.142696680534073,-4.283896026066705 " />
			<path d="M-19.355356326765033,0.8923653794387358 L-19.255223506898062,0.9484398731162073 L-19.156331490251254,1.0003235550656273 L-19.058680276824607,1.0480164252869963 L-18.96226986661812,1.0915184837803142 L-18.86710025963179,1.1308297305455808 L-18.773171455865626,1.1659501655827962 L-18.680483455319617,1.1968797888919602 L-18.589036257993776,1.2236186004730734 L-18.49882986388809,1.2461666003261351 L-18.409864273002565,1.2645237884511458 L-18.322139485337203,1.278690164848105 L-18.235655500892,1.2886657295170134 L-18.15041231966696,1.2944504824578704 L-18.06640994166208,1.296044423670676 L-17.983648366877357,1.2934475531554308 L-17.902127595312802,1.2866598709121346 " />
			<path d="M-20.82843790973984,-6.454808139004543 L-20.894658093727198,-6.444634824655131 L-20.959194348133167,-6.431692537275968 L-21.022046672957746,-6.415981276867054 L-21.083215068200932,-6.397501043428389 L-21.142699533862725,-6.376251836959973 L-21.20050006994313,-6.352233657461807 L-21.256616676442142,-6.325446504933889 L-21.311049353359763,-6.295890379376221 " />
			<path d="M-21.311049353359763,-6.29589037937622 L-21.385076544034636,-6.249417582809054 L-21.455743088145088,-6.197418700233155 L-21.523048985691112,-6.139893731648525 L-21.586994236672712,-6.076842677055161 L-21.647578841089892,-6.008265536453067 L-21.704802798942644,-5.9341623098422405 L-21.758666110230973,-5.854532997222681 L-21.809168774954877,-5.769377598594393 " />
			<path d="M-17.9021275953128,1.2866598709121342 L-17.833667543766165,1.2775293399703544 L-17.766973737619658,1.2653658981861389 L-17.702046176873278,1.2501695455594874 L-17.638884861527025,1.2319402820904002 L-17.577489791580902,1.2106781077788773 L-17.517860967034903,1.1863830226249183 L-17.45999838788903,1.1590550266285238 L-17.403902054143284,1.1286941197896938 " />
			<path d="M-17.403902054143284,1.1286941197896934 L-17.33185443532693,1.083495049360797 L-17.262946808333027,1.0329041374342374 L-17.19717917316157,0.9769213840100137 L-17.13455152981256,0.9155467890881264 L-17.075063878285995,0.8487803526685755 L-17.01871621858188,0.776622074751361 L-16.965508550700214,0.6990719553364828 L-16.915440874640993,0.6161299944239436 " />
			<path d="M-19.35932689706955,-6.065098467199439 L-19.461382961927768,-6.122229618534838 L-19.562074143243812,-6.1749908636238935 L-19.661400441017676,-6.223382202466604 L-19.759361855249367,-6.267403635062971 L-19.855958385938877,-6.307055161412994 L-19.951190033086213,-6.342336781516673 L-20.04505679669137,-6.373248495374008 L-20.137558676754352,-6.399790302984999 L-20.22869567327516,-6.421962204349646 L-20.318467786253784,-6.439764199467949 L-20.406875015690236,-6.4531962883399085 L-20.49391736158451,-6.462258470965523 L-20.57959482393661,-6.466950747344794 L-20.663907402746528,-6.467273117477721 L-20.746855098014272,-6.463225581364304 L-20.828437909739836,-6.454808139004543 " />
			<path d="M-16.915440874640993,0.6161299944239409 L-16.87433151295304,0.5395984293944759 L-16.835874368148186,0.4598700272134847 L-16.800069440226423,0.3769447878809672 L-16.766916729187756,0.2908227113969235 L-16.73641623503218,0.20150379776135352 L-16.708567957759698,0.10898804697425735 L-16.68337189737031,0.013275459035634873 L-16.660828053864016,-0.08563396605451379 L-16.640936427240813,-0.18774022829618875 L-16.623697017500703,-0.2930433276893899 L-16.60910982464369,-0.40154326423411724 L-16.59717484866977,-0.513240037930371 L-16.587892089578943,-0.6281336487781508 L-16.58126154737121,-0.7462240967774569 L-16.577283222046567,-0.8675113819282894 L-16.57595711360502,-0.9919955042306436 " />
			<path d="M-17.945803868662455,-4.834074386262142 L-18.028100142239616,-4.931833129072259 L-18.11120293790988,-5.026815906848839 L-18.195112255673248,-5.11902271959188 L-18.27982809552972,-5.208453567301383 L-18.3653504574793,-5.295108449977348 L-18.45167934152198,-5.378987367619774 L-18.538814747657767,-5.460090320228662 L-18.626756675886657,-5.538417307804012 L-18.715505126208654,-5.613968330345825 L-18.805060098623755,-5.686743387854099 L-18.89542159313196,-5.7567424803288345 L-18.98658960973327,-5.823965607770032 L-19.07856414842768,-5.888412770177691 L-19.1713452092152,-5.950083967551812 L-19.264932792095824,-6.008979199892394 L-19.359326897069547,-6.065098467199437 " />
			<path d="M-16.57595711360502,-0.9919955042306481 L-16.5773530172277,-1.119761533580722 L-16.581540728095746,-1.247455925123479 L-16.58852024620915,-1.3750786788589187 L-16.598291571567913,-1.5026297947870413 L-16.61085470417204,-1.6301092729078468 L-16.62620964402153,-1.7575171132213352 L-16.644356391116382,-1.8848533157275065 L-16.665294945456594,-2.0121178804263606 L-16.689025307042165,-2.139310807317898 L-16.7155474758731,-2.2664320964021174 L-16.744861451949397,-2.3934817476790204 L-16.776967235271055,-2.520459761148606 L-16.811864825838075,-2.6473661368108745 L-16.849554223650458,-2.7742008746658264 L-16.890035428708202,-2.9009639747134606 L-16.933308441011306,-3.0276554369537734 " />
			<path d="M-16.933308441011306,-3.027655436953778 L-16.979140609955994,-3.153451426602631 L-17.02729928493848,-3.277528108875874 L-17.07778446595877,-3.3998854837735055 L-17.13059615301686,-3.520523551295527 L-17.185734346112753,-3.639442311441937 L-17.243199045246445,-3.7566417642127368 L-17.302990250417942,-3.872121909607926 L-17.36510796162724,-3.9858827476275036 L-17.429552178874335,-4.097924278271471 L-17.496322902159235,-4.208246501539827 L-17.565420131481932,-4.316849417432573 L-17.636843866842437,-4.4237330259497085 L-17.710594108240738,-4.528897327091233 L-17.786670855676842,-4.632342320857147 L-17.865074109150747,-4.7340680072474495 L-17.945803868662452,-4.834074386262138 " />
			<path d="M-14.90797231872601,-4.196983792354668 L-15.615079099912558,-3.7887355018908044 " />
			<path d="M-11.978036700977455,-1.6888880938115398 L-15.61507909991256,-3.7887355018908044 " />
			<path d="M-11.270929919790907,-2.097136384275403 L-11.978036700977455,-1.6888880938115398 " />
			<path d="M-15.615079099912558,-3.788735501890804 L-15.615079099912558,2.93261013183016 " />
			<path d="M-11.978036700977455,-0.895714291196446 L-11.978036700977455,-1.6888880938115394 " />
			<path d="M-11.270929919790907,-1.303962581660309 L-11.978036700977455,-0.895714291196446 " />
			<path d="M-14.137681679650235,2.9690893491909445 L-14.844788460836783,3.3773376396548076 " />
			<path d="M-15.615079099912558,2.93261013183016 L-14.844788460836783,3.377337639654808 " />
			<path d="M-14.844788460836783,-2.5508341914510626 L-11.978036700977455,-0.8957142911964457 " />
			<path d="M-14.844788460836783,3.3773376396548076 L-14.844788460836783,-2.5508341914510635 " />
			<path d="M-10.353728179448103,-1.5675897125872909 L-11.06083496063465,-1.1593414221234277 " />
			<path d="M-8.960403269546582,0.05334338014068907 L-11.060834960634649,-1.1593414221234277 " />
			<path d="M-11.06083496063465,-1.1593414221234277 L-11.06083496063465,5.562004211597536 " />
			<path d="M-8.025333962833464,0.7078263877898483 L-8.128972051797389,0.6211267314843103 L-8.236394590582803,0.535824012421456 L-8.347601579189707,0.4519182306012855 L-8.4625930176181,0.36940938602379875 L-8.581368905867986,0.28829747868899575 L-8.703929243939362,0.20858250859687638 L-8.830274031832227,0.13026447574744082 L-8.96040326954658,0.0533433801406904 " />
			<path d="M-11.06083496063465,5.562004211597536 L-9.055696956854927,6.719671177842109 " />
			<path d="M-7.330484159543461,1.4459823543853971 L-7.404311951143024,1.3494504090255852 L-7.481862152403069,1.2541363063901643 L-7.563134763323596,1.160040046479134 L-7.648129783904606,1.067161629292495 L-7.736847214146097,0.975501054830247 L-7.829287054048071,0.8850583230923897 L-7.9254493036105265,0.7958334340789235 L-8.025333962833463,0.7078263877898499 " />
			<path d="M-9.055696956854927,6.719671177842109 L-8.890980329378591,6.8132659731019185 L-8.736314207985558,6.898049318061724 L-8.591698592675826,6.9740212127215235 L-8.457133483449395,7.041181657081319 L-8.332618880306267,7.099530651141109 L-8.21815478324644,7.149068194900893 L-8.113741192269915,7.189794288360673 L-8.019378107376694,7.221708931520448 " />
			<path d="M-6.800413023890801,2.361800083127391 L-6.861677682886237,2.2321535613352426 L-6.924369265584858,2.10684112688578 L-6.988487771986662,1.9858627797790023 L-7.054033202091652,1.8692185200149105 L-7.121005555899828,1.756908347593504 L-7.189404833411188,1.6489322625147829 L-7.259231034625732,1.5452902647787474 L-7.3304841595434596,1.4459823543853987 " />
			<path d="M-8.019378107376692,7.221708931520448 L-7.896600628741789,7.255987622321687 L-7.83693350389231,7.269607760437854 L-7.778414122021481,7.280881760364385 L-7.721042483129299,7.28980962210128 L-7.664818587215767,7.29639134564854 L-7.609742434280883,7.300626931006164 L-7.555814024324647,7.302516378174153 L-7.503033357347061,7.302059687152506 L-7.451400433348123,7.2992568579412245 L-7.400915252327834,7.294107890540307 L-7.351577814286193,7.286612784949754 L-7.303388119223201,7.276771541169565 L-7.256346167138857,7.264584159199741 L-7.210451958033163,7.250050639040281 L-7.1657054919061185,7.233170980691187 " />
			<path d="M-6.403355993439371,3.569900065723212 L-6.443433937450562,3.402088502082871 L-6.486241648546107,3.2390766715327763 L-6.531779126726005,3.080864574072929 L-6.580046371990257,2.9274522097033278 L-6.631043384338863,2.7788395784239737 L-6.684770163771822,2.635026680234866 L-6.741226710289134,2.4960135151360054 L-6.8004130238908,2.361800083127393 " />
			<path d="M-7.165705491906117,7.233170980691186 L-7.0938112407869705,7.201522206422465 L-7.024863899745033,7.165001904168028 " />
			<path d="M-7.024863899745032,7.165001904168028 L-6.980991174590606,7.138241595704557 L-6.938401043159502,7.109361035501547 L-6.8970935054517195,7.078360223558999 L-6.85706856146726,7.045239159876911 L-6.818326211206124,7.009997844455285 L-6.780866454668308,6.97263627729412 L-6.744689291853815,6.933154458393416 L-6.709794722762645,6.891552387753173 L-6.6761827473947974,6.84783006537339 L-6.643853365750272,6.801987491254069 L-6.612806577829068,6.754024665395209 L-6.583042383631187,6.70394158779681 L-6.554560783156628,6.651738258458872 L-6.5273617764053915,6.597414677381395 L-6.501445363377478,6.540970844564379 L-6.476811544072887,6.4824067600078275 " />
			<path d="M-6.248503751563312,5.016410671070391 L-6.250923317842626,4.826319749354427 L-6.258182016680566,4.638879426509197 L-6.270279848077133,4.4540897025346995 L-6.287216812032327,4.271950577430935 L-6.308992908546148,4.092462051197905 L-6.335608137618595,3.915624123835607 L-6.36706249924967,3.741436795344043 L-6.40335599343937,3.569900065723215 " />
			<path d="M-6.476811544072886,6.482406760007825 L-6.44916489732368,6.410191372869216 L-6.423301905203455,6.335388069941276 L-6.3992225677122105,6.257996851224005 L-6.376926884849947,6.178017716717404 L-6.356414856616666,6.095450666421472 L-6.337686483012365,6.01029570033621 L-6.320741764037044,5.922552818461616 L-6.305580699690706,5.832222020797692 L-6.292203289973348,5.7393033073444375 L-6.280609534884971,5.643796678101851 L-6.270799434425576,5.545702133069935 L-6.26277298859516,5.445019672248687 L-6.252071060821274,5.235891003238201 L-6.248503751563312,5.016410671070394 " />
			<path d="M-28.43276367151108,11.28418040276566 L-32.94410493548125,8.679556309606212 " />
			<path d="M-27.58423553408722,10.794282454209025 L-28.432763671511076,11.28418040276566 " />
			<path d="M-32.94410493548125,8.679556309606214 L-35.19977556746634,2.865902999056316 " />
			<path d="M-26.177093039525992,8.07515118537521 L-28.43276367151108,11.284180402765662 " />
			<path d="M-25.328564902102137,7.585253236818574 L-26.177093039525992,8.07515118537521 " />
			<path d="M-32.0955767980574,-0.8330241668907674 L-32.944104935481256,-0.3431262183341316 " />
			<path d="M-35.19977556746634,2.8659029990563183 L-32.944104935481256,-0.3431262183341337 " />
			<path d="M-28.43276367151108,2.2614978748253107 L-26.17709303952599,8.075151185375212 " />
			<path d="M-27.58423553408722,1.7715999262686748 L-28.432763671511076,2.2614978748253107 " />
			<path d="M-32.944104935481256,-0.3431262183341315 L-28.432763671511083,2.261497874825311 " />
			<path d="M0.5656854249492378,-14.207040508142434 L24.60731598529186,-0.3265986323710859 " />
			<path d="M24.607315985291855,-0.32659863237109077 L24.607315985291855,27.434285119171598 " />
			<path d="M24.607315985291855,27.434285119171598 L0.5656854249492334,13.55384324340025 " />
			<path d="M0.5656854249492378,13.553843243400253 L0.5656854249492378,-14.207040508142436 " />
			<path d="M-21.348582619631216,-3.8391685182420523 L-21.346372438895305,-3.9877498079807054 L-21.33974189668757,-4.129749374172098 L-21.328690993008014,-4.265167216816232 L-21.313219727856634,-4.394003335913105 L-21.293328101233435,-4.516257731462718 L-21.26901611313841,-4.631930403465072 L-21.240283763571565,-4.741021351920166 L-21.207131052532894,-4.843530576828 L-21.169557980022404,-4.939458078188573 L-21.127564546040087,-5.028803856001887 L-21.08115075058595,-5.111567910267941 L-21.03031659365999,-5.187750240986735 L-20.97506207526221,-5.25735084815827 L-20.915387195392604,-5.320369731782543 L-20.851291954051177,-5.376806891859558 L-20.78277635123793,-5.426662328389311 " />
			<path d="M-20.782776351237928,-5.4266623283893125 L-20.731913835830966,-5.458065512981538 " />
			<path d="M-20.731913835830966,-5.458065512981538 L-20.661776495549685,-5.494879927891808 L-20.589585664235436,-5.5255211316400015 L-20.515341341888217,-5.549989124226117 L-20.439043528508027,-5.568283905650154 L-20.360692224094866,-5.580405475912114 L-20.280287428648734,-5.586353835011997 L-20.197829142169635,-5.586128982949802 L-20.11331736465756,-5.57973091972553 L-20.02675209611252,-5.56715964533918 L-19.93813333653451,-5.5484151597907525 L-19.847461085923527,-5.523497463080248 L-19.754735344279574,-5.4924065552076655 L-19.65995611160265,-5.455142436173006 L-19.56312338789276,-5.411705105976268 L-19.464237173149893,-5.362094564617453 L-19.363297467374064,-5.306310812096562 " />
			<path d="M-19.36329746737406,-5.3063108120965605 L-19.255805133407513,-5.241492028563444 L-19.150716855680024,-5.172545116383678 L-19.0480326341916,-5.099470075557264 L-18.947752468942234,-5.022266906084202 L-18.849876359931933,-4.940935607964489 L-18.75440430716069,-4.855476181198129 L-18.66133631062851,-4.76588862578512 L-18.570672370335394,-4.672172941725462 L-18.482412486281337,-4.574329129019155 L-18.39655665846634,-4.4723571876662 L-18.313104886890407,-4.366257117666596 L-18.23205717155353,-4.256028919020343 L-18.15341351245572,-4.141672591727441 L-18.077173909596972,-4.0231881357878905 L-18.00333836297728,-3.9005755512016917 L-17.93190687259666,-3.773834837968849 " />
			<path d="M-17.931906872596656,-3.773834837968844 L-17.863872081031218,-3.6439868348436164 L-17.8002266308571,-3.5120523805802777 L-17.7409705220743,-3.3780314751788283 L-17.68610375468282,-3.2419241186392678 L-17.635626328682655,-3.103730310961596 L-17.589538244073808,-2.963450052145814 L-17.547839500856284,-2.8210833421919204 L-17.510530099030074,-2.676630181099916 L-17.477610038595184,-2.5300905688698005 L-17.449079319551615,-2.381464505501574 L-17.424937941899362,-2.230751990995237 L-17.40518590563843,-2.077953025350789 L-17.389823210768814,-1.9230676085682297 L-17.37884985729052,-1.7660957406475597 L-17.37226584520354,-1.6070374215887786 L-17.37007117450788,-1.4458926513918922 " />
			<path d="M-17.37007117450788,-1.4458926513918864 L-17.373824604248867,-1.2461485351399415 L-17.3785163914251,-1.1503463999421726 L-17.385084893471827,-1.0572575466965395 L-17.393530110389044,-0.9668819754030421 L-17.40385204217676,-0.8792196860616805 L-17.41605068883496,-0.7942706786724545 L-17.43012605036366,-0.7120349532353643 L-17.446078126762853,-0.6325125097504097 L-17.463906918032535,-0.5557033482175908 L-17.483612424172712,-0.48160746863690795 L-17.505194645183384,-0.41022487100836047 L-17.52865358106455,-0.3415555553319489 L-17.553989231816203,-0.2755995216076732 L-17.581201597438355,-0.21235676983553287 L-17.610290677930998,-0.15182730001553035 " />
			<path d="M-17.610290677930998,-0.15182730001552835 L-17.649459744648848,-0.07984778632022968 L-17.691380635535644,-0.012861538531140249 L-17.736053350591384,0.04913144335173997 L-17.78347788981607,0.10613115932841088 L-17.8336542532097,0.15813760939887267 L-17.886582440772276,0.2051507935631251 L-17.942262452503797,0.2471707118211683 L-18.00069428840426,0.2841973641730019 " />
			<path d="M-18.00069428840426,0.2841973641730023 L-18.07306232886705,0.32141154403114847 L-18.149249564592274,0.3516956817346082 L-18.229255995579933,0.37504977728338174 L-18.313081621830026,0.39147383067746866 " />
			<path d="M-18.31308162183003,0.391473830677469 L-18.3713450880367,0.39864208877213786 L-18.43049262653774,0.4026672380707683 L-18.490524237333137,0.40354927857336037 L-18.551439920422904,0.401288210279914 L-18.613239675807034,0.39588403319042925 L-18.675923503485528,0.3873367473049061 L-18.739491403458388,0.3756463526233445 L-18.80394337572561,0.3608128491457445 L-18.8692794202872,0.3428362368721061 L-18.93549953714315,0.3217165158024293 L-19.00260372629347,0.2974536859367141 L-19.070591987738148,0.2700477472749605 L-19.139464321477195,0.23949869981716848 L-19.209220727510605,0.20580654356333805 L-19.27986120583838,0.16897127851346921 L-19.351385756460516,0.1289929046675634 " />
			<path d="M-19.35138575646052,0.12899290466756197 L-19.452736114487273,0.06794406074450822 L-19.552302817885046,0.0028566354339521483 L-19.650085866653836,-0.06626937126410629 L-19.746085260793645,-0.139433959349667 L-19.840301000304475,-0.21663712882273006 L-19.93273308518632,-0.2978788796832955 L-20.023381515439187,-0.38315921193136326 L-20.112246291063073,-0.47247812556693325 L-20.19932741205798,-0.5658356205900056 L-20.2846248784239,-0.6632316970005803 L-20.368138690160844,-0.7646663547986574 L-20.449868847268807,-0.8701395939842367 L-20.529815349747786,-0.9796514145573183 L-20.607978197597784,-1.0932018165179025 L-20.684357390818803,-1.2107907998659888 L-20.758952929410835,-1.332418364601573 " />
			<path d="M-20.75895292941084,-1.3324183646015775 L-20.830353399710962,-1.4581292843542417 L-20.89714738805624,-1.5879683327535545 L-20.95933489444667,-1.7219355097995162 L-21.016915918882255,-1.8600308154921268 L-21.06989046136299,-2.0022542498313856 L-21.11825852188888,-2.1486058128172933 L-21.162020100459923,-2.29908550444985 L-21.20117519707612,-2.4536933247290555 L-21.235723811737472,-2.61242927365491 L-21.265665944443974,-2.7752933512274125 L-21.29100159519563,-2.9422855574465636 L-21.311730763992443,-3.113405892312364 L-21.327853450834407,-3.2886543558248134 L-21.339369655721523,-3.4680309479839107 L-21.346279378653794,-3.651535668789657 L-21.348582619631216,-3.839168518242045 " />
			<path d="M-10.290544321558876,5.2135579168070905 L-10.290544321558876,0.07855988831631322 " />
			<path d="M-10.290544321558876,0.07855988831631322 L-9.047755816245898,0.7960841664045335 " />
			<path d="M-9.047755816245896,0.7960841664045337 L-8.907700152770255,0.8788795622112888 L-8.775399509420618,0.9610660366558486 L-8.650853886196986,1.042643589738213 L-8.534063283099359,1.1236122214583815 L-8.425027700127735,1.2039719318163549 L-8.323747137282117,1.2837227208121327 L-8.230221594562503,1.3628645884457151 L-8.144451071968895,1.4413975347171006 " />
			<path d="M-8.144451071968893,1.441397534717102 L-8.064636404832054,1.5200021187958062 L-7.9889784284827545,1.59935889985134 L-7.917477142920993,1.6794678778837033 L-7.85013254814677,1.7603290528928965 L-7.786944644160085,1.8419424248789193 L-7.727913430960939,1.924307993841772 L-7.673038908549332,2.007425759781454 L-7.622321076925263,2.0912957226979647 " />
			<path d="M-7.622321076925262,2.091295722697966 L-7.555720964083135,2.2122382509010845 L-7.492905301062499,2.337801417676157 L-7.4338740878633525,2.4679852230231836 L-7.378627324485697,2.602789666942164 L-7.327165010929531,2.7422147494330984 L-7.279487147194855,2.886260470495986 L-7.23559373328167,3.0349268301308285 L-7.195484769189975,3.188213828337622 " />
			<path d="M-7.195484769189974,3.1882138283376245 L-7.1596565762078335,3.34597818950174 L-7.128605475623312,3.5080766380085415 L-7.102331467436409,3.6745091738580284 L-7.080834551647124,3.8452757970502 L-7.064114728255459,4.020376507585057 L-7.052171997261412,4.1998113054626005 L-7.045006358664984,4.383580190682829 L-7.042617812466174,4.571683163245739 " />
			<path d="M-7.042617812466174,4.571683163245742 L-7.043788820505201,4.70091329028286 L-7.047301844622281,4.8249765404672305 L-7.053156884817414,4.943872913798855 L-7.061353941090601,5.057602410277732 L-7.071893013441841,5.166165029903862 L-7.084774101871135,5.269560772677245 L-7.0999972063784815,5.367789638597881 L-7.117562326963881,5.46085162766577 L-7.137469463627335,5.5487467398809125 L-7.159718616368842,5.631474975243308 L-7.184309785188402,5.709036333752957 L-7.2112429700860154,5.781430815409859 L-7.240518171061682,5.848658420214013 L-7.2721353881154025,5.9107191481654215 L-7.306094621247176,5.967612999264082 L-7.342395870457002,6.019339973509995 " />
			<path d="M-7.342395870457003,6.019339973509997 L-7.374308916824173,6.059482546270563 L-7.40693688582235,6.097142204224615 L-7.440279777451533,6.132318947372152 L-7.4743375917117225,6.165012775713175 L-7.509110328602919,6.195223689247683 L-7.544597988125122,6.222951687975677 L-7.580800570278332,6.248196771897157 L-7.617718075062548,6.270958941012121 " />
			<path d="M-7.617718075062549,6.270958941012122 L-7.669646978749288,6.298202789212686 L-7.722927533035274,6.320752376607184 L-7.777559737920507,6.338607703195616 L-7.833543593404987,6.351768768977982 L-7.890879099488714,6.36023557395428 L-7.949566256171688,6.364008118124512 L-8.00960506345391,6.363086401488678 L-8.070995521335377,6.3574704240467765 " />
			<path d="M-8.070995521335378,6.3574704240467765 L-8.111182035628334,6.350924519403176 L-8.15431545756917,6.341602649726036 L-8.24942302439449,6.314631015271142 L-8.356318221811335,6.276555520682096 L-8.475001049819708,6.227376165958897 L-8.605471508419608,6.167092951101544 L-8.747729597611034,6.09570587611004 L-8.901775317393987,6.0132149409843825 L-9.067608667768464,5.919620145724574 " />
			<path d="M-9.067608667768468,5.919620145724572 L-10.290544321558874,5.2135579168070905 " />
			<path d="M0.5656854249492378,13.553843243400253 L2.4041630560342617,12.49239768819421 " />
			<path d="M24.607315985291855,25.31139400875951 L2.4041630560342604,12.492397688194208 " />
			<path d="M2.4041630560342613,12.49239768819421 L2.4041630560342613,-13.145594952936388 " />
			<path d="M-20.33236580541914,-5.583225420698097 L-20.372936767712243,-5.521622290574153 L-20.410411010160626,-5.456227414914408 L-20.444800897968026,-5.387222011519758 L-20.476139034037622,-5.314794863758128 L-20.504473899814204,-5.239141822923884 L-20.52986820829904,-5.16046095546316 L-20.5523964344263,-5.0789498277170875 L-20.572142299931595,-4.994802896490265 L-20.58919634710889,-4.908210005870456 L-20.603654922793385,-4.819349909925074 L-20.61561727912317,-4.728391680983648 L-20.625183736153623,-4.635496065082175 L-20.632454574084232,-4.5408146024050176 L-20.637529051351418,-4.44448884885672 L-20.64050454858734,-4.34664969876371 L-20.641475838444666,-4.24741680870592 " />
			<path d="M-18.644278975273973,-0.27925538579630116 L-18.519194761167004,-0.21110188132427965 L-18.395185052114616,-0.1519194744836586 L-18.33370174586061,-0.1258521387418429 L-18.27263053673216,-0.10221030227935188 L-18.212020268140066,-0.08104468987891389 L-18.15192010410637,-0.06240024382548348 L-18.092379433305247,-0.04631561571644166 L-18.0334477731039,-0.0328226582717962 L-17.975174673603455,-0.021945917144381655 L-17.91760948125334,-0.01370210369571297 L-17.860796230062427,-0.008099146891794964 L-17.804776870220582,-0.005136972452227393 L-17.749591544851587,-0.0048075008529279775 L-17.69527695514364,-0.00709466434486972 " />
			<path d="M-20.051846148224293,-1.7406666550654406 L-19.979625733757885,-1.6228058346584306 L-19.904785697573733,-1.5073130748274282 L-19.82735888829294,-1.3944717829185649 L-19.74740415623875,-1.2845711579095933 L-19.66500764331752,-1.1779000728887197 L-19.580284551673504,-1.0747416970541426 L-19.493375980999243,-0.9753629570760154 L-19.40444704940192,-0.880007649068969 L-19.3136813583744,-0.788887525806001 L-19.221281339795613,-0.7021815506175998 L-19.127457294261795,-0.6200258354442573 L-19.03242108805936,-0.5425114732224016 L-18.93638511773738,-0.46968821259305077 L-18.839557911985406,-0.40156584883939744 L-18.742129627474192,-0.33811023318169503 L-18.644278975273977,-0.27925538579630316 " />
			<path d="M-20.641475838444666,-4.247416808705916 L-20.640010352566122,-4.097414125847357 L-20.635451400328826,-3.946020459624643 L-20.627535160456944,-3.793215684218793 L-20.615968884525863,-3.6389978978004964 L-20.600428203648388,-3.4833824029770204 L-20.580556034356494,-3.326415058436626 L-20.55596150518991,-3.168178161520638 L-20.526221703779708,-3.008806660483068 L-20.490887747238865,-2.8485067582681745 L-20.44949183134857,-2.687563495333456 L-20.40156908715214,-2.5263819196949973 L-20.346681327390147,-2.365497337229509 L-20.284452138090835,-2.20558777770449 L-20.214609990819884,-2.0474794758809 L-20.17679306129001,-1.969403113353375 L-20.13704636230684,-1.8921517713954656 L-20.09538679744404,-1.8158602824778836 L-20.051846148224296,-1.740666655065446 " />
			<path d="M-9.583437540372328,0.48680817878017635 L-9.583437540372328,4.805309626343227 " />
			<path d="M-9.583437540372328,4.8053096263432264 L-10.290544321558876,5.21355791680709 " />
			<path d="M-7.36388874014883,5.949222133582913 L-7.298124383450047,5.955061576389317 " />
			<path d="M-7.36388874014883,5.949222133582913 L-8.070995521335378,6.3574704240467765 " />
			<path d="M-8.360501886581922,5.511371855260709 L-8.22379743639605,5.588856361352776 L-8.089101298412569,5.66202148710357 L-7.956788888306484,5.730158909980453 L-7.827489028804715,5.792296710725836 L-7.702104855809155,5.847161376779059 L-7.5818465617536175,5.893117994753958 L-7.524114547733934,5.912122639307802 L-7.468309403854683,5.928063736784701 L-7.414775105775012,5.940566756853908 L-7.363888740148832,5.9492221335829125 " />
			<path d="M-9.583437540372323,4.805309626343231 L-8.360501886581918,5.5113718552607125 " />
			<path d="M-35.21391770309007,-49.72464177849852 L-38.890872965260115,-47.60175066808643 " />
			<path d="M35.21391770309007,-9.06311204829776 L31.53696244092002,-6.940220937885672 " />
			<path d="M36.76955262170048,-6.368673331236263 L33.09259735953043,-4.245782220824174 " />
			<path d="M36.76955262170048,48.82649553947802 L33.09259735953043,50.94938664989011 " />
			<path d="M-20.121331128553294,-6.863056429468405 L-20.82843790973984,-6.454808139004542 " />
			<path d="M-16.208334093454447,0.20788170396007777 L-16.915440874640993,0.6161299944239409 " />
			<path d="M-18.652220115883004,-6.473346757663301 L-19.35932689706955,-6.065098467199438 " />
			<path d="M-15.868850332418472,-1.4002437946945112 L-16.57595711360502,-0.9919955042306481 " />
			<path d="M-17.23869708747591,-5.242322676726004 L-17.945803868662455,-4.834074386262141 " />
			<path d="M-16.22620165982476,-3.435903727417641 L-16.933308441011306,-3.027655436953778 " />
			<path d="M-8.253296488360036,-0.35490491032317495 L-8.960403269546584,0.05334338014068818 " />
			<path d="M-7.318227181646916,0.29957809732598517 L-8.025333962833464,0.7078263877898483 " />
			<path d="M-6.623377378356913,1.0377340639215336 L-7.330484159543461,1.4459823543853967 " />
			<path d="M-6.093306242704253,1.9535517926635269 L-6.800413023890801,2.36180008312739 " />
			<path d="M-5.696249212252823,3.1616517752593483 L-6.403355993439371,3.5699000657232114 " />
			<path d="M-5.769704762886338,6.074158469543961 L-6.476811544072886,6.482406760007824 " />
			<path d="M-5.541396970376765,4.608162380606527 L-6.248503751563313,5.01641067107039 " />
			<path d="M-20.67991407065778,-5.486049893771721 L-20.782776351237928,-5.426662328389313 " />
			<path d="M-20.64147583844467,-4.247416808705915 L-21.348582619631216,-3.839168518242052 " />
			<path d="M-17.749414079177463,0.06604022319355457 L-18.31308162183003,0.391473830677469 " />
			<path d="M-18.644278975273973,-0.27925538579630116 L-19.35138575646052,0.12899290466756197 " />
			<path d="M-20.051846148224293,-1.7406666550654406 L-20.75895292941084,-1.3324183646015775 " />
			<path d="M-8.360501886581922,5.511371855260708 L-9.06760866776847,5.919620145724571 " />
			<path d="M-36.31391770309006,-49.83360518878328 L-39.99087296526011,-47.71071407837119 " />
			<path d="M36.31391770309006,49.83360518878328 L32.636962440920016,51.95649629919537 " />
			<path d="M-20.603942572173214,-6.704138669840082 L-21.311049353359763,-6.29589037937622 " />
			<path d="M-16.696795272956738,0.7204458293258296 L-17.403902054143284,1.1286941197896918 " />
			<path d="M-6.317757118558486,6.756753613704164 L-7.024863899745032,7.165001904168025 " />

       </g>
    </g>
    
</svg>
