<?xml version="1.0" encoding="UTF-8" standalone="no"?>
<svg
   xmlns:svg="http://www.w3.org/2000/svg"
   xmlns="http://www.w3.org/2000/svg"
   width="960.0"
   height="720.0"

>
    <g transform="scale(5.943646402356512, -5.943646402356512)   translate(37.2719439850914,-50.199431472049746)" stroke-width="0.7"  fill="none">
       <!-- hidden lines -->
       <g  stroke="rgb(160,160,160)" fill="none" stroke-dasharray="0.7,0.7" >

       </g>

       <!-- solid lines -->
       <g  stroke="rgb(37,42,48)" fill="none">
			<path d="M35.77960312803931,-42.212873233963435 L35.77960312803931,6.776921621700133 " />
			<path d="M33.23401871576774,-43.682567079633344 L33.23401871576774,5.307227776030224 " />
			<path d="M35.779603128039305,-42.21287323396344 L35.77789964586819,-42.29201690471821 L35.77279330319259,-42.36900289965786 L35.76429640163929,-42.44364575277739 L35.75242941098836,-42.51576564290571 L35.73722091985971,-42.58518882691054 L35.718707566840564,-42.65174805826085 L35.696933952219936,-42.71528298993842 L35.67195253054259,-42.77564056072785 L35.64382348424145,-42.8326753639544 L35.61261457865289,-42.886249997781434 L35.578400998764025,-42.93623539622348 L35.54126516808557,-42.9825111400775 L35.50129655008636,-43.02496574702325 L35.45859143266797,-43.063496940194035 L35.4132526961988,-43.09801189457057 L35.36538956566622,-43.12842746060459 " />
			<path d="M35.779603128039305,6.776921621700128 L35.77789964586819,6.858032304235007 L35.77279330319259,6.940914595811311 L35.76429640163929,7.025368825729002 L35.75242941098836,7.111191536350891 L35.73722091985971,7.198175973249908 L35.718707566840564,7.286112583298628 L35.696933952219936,7.374789519501106 L35.67195253054259,7.463993151350846 L35.64382348424145,7.553508579485409 L35.61261457865289,7.643120153397791 L35.578400998764025,7.732611990957392 L35.54126516808557,7.821768498488973 L35.50129655008636,7.910374890156701 L35.45859143266797,7.998217705402044 L35.4132526961988,8.085085323188954 L35.36538956566621,8.17076847181748 L35.31511734754397,8.255060733077615 L35.26255715200885,8.337759039528857 L35.20783560117563,8.418664163707447 L35.15108452405332,8.49758119808279 L35.09244063895749,8.574320024606754 L35.03204522414396,8.648695772724718 L34.970043777457015,8.720529264744922 L34.90658566581241,8.789647447493214 L34.84182376535937,8.85588380921332 L34.77591409318857,8.919078780708235 L34.70901543147326,8.9790801197564 L34.64128894494916,9.035743277876552 L34.57289779265442,9.088931748557677 L34.50400673486531,9.13851739611514 L34.43478173617415,9.184380764380784 L34.36538956566623,9.2264113644833 " />
			<path d="M34.36538956566622,9.226411364483306 L-29.274220741123074,45.968757506230986 " />
			<path d="M-30.274220741123067,46.06781515194441 L-30.22394852300082,46.09405805587327 L-30.171388327465703,46.11606507624279 L-30.116666776632485,46.13378319621332 L-30.059915699510167,46.14716973128192 L-30.001271814414345,46.15619243211309 L-29.940876399600814,46.16082956223023 L-29.87887495291387,46.16106995038072 L-29.815416841269265,46.15691301744846 L-29.750654940816226,46.14836877784898 L-29.684745268645425,46.13545781540387 L-29.617846606930115,46.11821123375252 L-29.55012012040601,46.096670581420746 L-29.481728968111277,46.070887751726765 L-29.412837910322157,46.04092485776562 L-29.343612911631006,46.00685408277329 L-29.274220741123074,45.968757506230986 " />
			<path d="M33.23401871576773,-43.68256707963335 L33.232315233596616,-43.76171075038812 L33.22720889092102,-43.838696745327766 L33.21871198936772,-43.9133395984473 L33.20684499871679,-43.98545948857562 L33.191636507588136,-44.05488267258045 L33.17312315456899,-44.12144190393076 L33.15134953994836,-44.18497683560833 L33.12636811827102,-44.24533440639776 L33.09823907196988,-44.30236920962431 L33.067030166381315,-44.35594384345134 L33.03281658649245,-44.40592924189339 L32.995680755814,-44.45220498574741 L32.955712137814785,-44.49465959269316 L32.9130070203964,-44.533190785863944 L32.86766828392723,-44.56770574024048 L32.81980515339465,-44.5981213062745 " />
			<path d="M32.81980515339464,-44.5981213062745 L32.769532935272395,-44.62436421020336 L32.71697273973727,-44.64637123057288 L32.66225118890406,-44.664089350543414 L32.605500111781744,-44.67747588561201 L32.54685622668592,-44.68649858644318 L32.486460811872384,-44.69113571656032 L32.42445936518544,-44.69137610471081 L32.361001253540834,-44.68721917177855 L32.2962393530878,-44.67867493217907 L32.230329680916995,-44.66576396973396 L32.16343101920169,-44.64851738808261 L32.09570453267758,-44.62697673575084 L32.02731338038285,-44.60119390605686 L31.95842232259373,-44.57123101209571 L31.88919732390258,-44.53716023710338 L31.81980515339464,-44.49906366056108 " />
			<path d="M33.23401871576773,5.307227776030221 L33.232315233596616,5.3883384585651 L33.22720889092102,5.471220750141404 L33.21871198936772,5.555674980059095 L33.20684499871679,5.641497690680984 L33.191636507588136,5.728482127580001 L33.17312315456899,5.816418737628721 L33.15134953994836,5.905095673831199 L33.12636811827102,5.994299305680939 L33.09823907196988,6.083814733815502 L33.067030166381315,6.173426307727884 L33.03281658649245,6.262918145287485 L32.995680755814,6.352074652819066 L32.955712137814785,6.440681044486794 L32.9130070203964,6.528523859732137 L32.86766828392723,6.615391477519047 L32.81980515339464,6.701074626147572 L32.769532935272395,6.785366887407709 L32.71697273973728,6.868065193858951 L32.66225118890406,6.94897031803754 L32.605500111781744,7.027887352412882 L32.54685622668592,7.104626178936847 L32.486460811872384,7.179001927054812 L32.42445936518544,7.250835419075015 L32.361001253540834,7.319953601823308 L32.2962393530878,7.386189963543414 L32.230329680916995,7.449384935038328 L32.16343101920169,7.509386274086493 L32.09570453267759,7.566049432206646 L32.02731338038285,7.619237902887769 L31.958422322593734,7.668823550445231 L31.889197323902582,7.7146869187108775 L31.819805153394654,7.756717518813391 " />
			<path d="M31.81980515339464,7.756717518813399 L34.36538956566621,9.226411364483306 " />
			<path d="M31.819805153394643,-44.49906366056107 L-31.819805153394647,-7.756717518813389 " />
			<path d="M31.819805153394643,7.756717518813399 L12.020815280171309,19.18766965180157 " />
			<path d="M-33.23401871576773,-5.307227776030221 L-33.232315233596616,-5.388338458565099 L-33.22720889092102,-5.471220750141403 L-33.21871198936772,-5.555674980059094 L-33.20684499871679,-5.641497690680984 L-33.191636507588136,-5.728482127580001 L-33.17312315456899,-5.816418737628721 L-33.15134953994836,-5.905095673831199 L-33.12636811827102,-5.99429930568094 L-33.09823907196988,-6.083814733815503 L-33.067030166381315,-6.173426307727885 L-33.03281658649245,-6.262918145287487 L-32.995680755814,-6.352074652819067 L-32.955712137814785,-6.4406810444867935 L-32.9130070203964,-6.528523859732136 L-32.86766828392723,-6.615391477519046 L-32.81980515339464,-6.701074626147571 L-32.769532935272395,-6.785366887407708 L-32.71697273973728,-6.86806519385895 L-32.66225118890406,-6.94897031803754 L-32.605500111781744,-7.027887352412881 L-32.54685622668592,-7.1046261789368454 L-32.48646081187239,-7.17900192705481 L-32.42445936518544,-7.250835419075013 L-32.361001253540834,-7.319953601823307 L-32.2962393530878,-7.386189963543412 L-32.230329680916995,-7.449384935038326 L-32.16343101920169,-7.509386274086492 L-32.09570453267759,-7.566049432206646 L-32.02731338038285,-7.619237902887769 L-31.958422322593734,-7.668823550445232 L-31.889197323902582,-7.7146869187108775 L-31.819805153394647,-7.756717518813394 " />
			<path d="M12.020815280171309,4.4907311951024935 L12.020815280171309,19.187669651801563 " />
			<path d="M-33.23401871576774,-5.307227776030221 L-33.23401871576774,43.682567079633344 " />
			<path d="M-33.23401871576773,43.68256707963335 L-33.232315233596616,43.76171075038812 L-33.22720889092102,43.838696745327766 L-33.21871198936772,43.9133395984473 L-33.20684499871679,43.98545948857562 L-33.191636507588136,44.05488267258045 L-33.17312315456899,44.12144190393076 L-33.15134953994836,44.18497683560833 L-33.12636811827102,44.24533440639776 L-33.09823907196988,44.30236920962431 L-33.06703016638131,44.35594384345134 L-33.032816586492444,44.40592924189339 L-32.995680755814,44.45220498574741 L-32.955712137814785,44.49465959269316 L-32.9130070203964,44.533190785863944 L-32.86766828392723,44.56770574024048 L-32.81980515339465,44.5981213062745 " />
			<path d="M-32.81980515339464,44.5981213062745 L-32.769532935272395,44.62436421020336 L-32.71697273973727,44.64637123057288 L-32.66225118890406,44.664089350543414 L-32.605500111781744,44.67747588561201 L-32.54685622668592,44.68649858644318 L-32.486460811872384,44.69113571656032 L-32.42445936518544,44.69137610471081 L-32.361001253540834,44.68721917177855 L-32.2962393530878,44.67867493217907 L-32.230329680916995,44.66576396973396 L-32.16343101920169,44.64851738808261 L-32.09570453267758,44.62697673575084 L-32.02731338038285,44.60119390605686 L-31.95842232259373,44.57123101209571 L-31.88919732390258,44.53716023710338 L-31.819805153394647,44.49906366056108 " />
			<path d="M-12.020815280171313,33.06811152757292 L-31.819805153394647,44.49906366056108 " />
			<path d="M23.33452377915607,-32.251614946645184 L23.33452377915607,-24.08664913736792 " />
			<path d="M23.33452377915607,-24.08664913736792 L13.435028842544401,-18.371173070873837 " />
			<path d="M-13.435028842544403,-11.022703842524301 L-13.435028842544403,-2.85773803324704 " />
			<path d="M-13.435028842544403,-2.857738033247041 L-23.334523779156072,2.857738033247043 " />
			<path d="M-31.81980515339464,44.49906366056108 L-29.274220741123067,45.968757506230986 " />
			<path d="M-12.020815280171309,33.06811152757291 L-16.687720036002524,30.37367281051141 " />
			<path d="M7.353910524340096,16.49323093474007 L-16.687720036002524,30.373672810511415 " />
			<path d="M12.020815280171309,19.187669651801563 L7.353910524340095,16.493230934740065 " />
			<path d="M7.353910524340096,16.49323093474007 L7.353910524340096,-1.4696938456699051 " />
			<path d="M7.353910524340096,-1.4696938456699078 L8.768124086713192,-0.6531972647421814 " />
			<path d="M8.76812408671319,-0.6531972647421815 L8.76812408671319,15.513435037626795 " />
			<path d="M8.76812408671319,15.513435037626797 L10.465180361560904,16.49323093474007 " />
			<path d="M10.465180361560904,16.49323093474007 L10.465180361560904,3.5925849560819945 " />
			<path d="M10.465180361560904,3.5925849560819945 L12.020815280171309,4.4907311951024935 " />
			<path d="M10.465180361560904,3.5925849560819945 L8.76812408671319,4.572380853195266 " />
			<path d="M-16.687720036002524,30.373672810511415 L-16.687720036002524,12.410748030101441 " />
			<path d="M22.485995641732213,-32.74151289520182 L23.334523779156072,-32.251614946645184 " />
			<path d="M22.485995641732213,-24.576547085924556 L23.334523779156072,-24.08664913736792 " />
			<path d="M22.485995641732213,-32.74151289520182 L22.485995641732213,-24.57654708592456 " />
			<path d="M22.485995641732213,-24.576547085924556 L12.586500705120546,-18.861071019430472 " />
			<path d="M12.586500705120546,-18.861071019430472 L13.435028842544403,-18.371173070873837 " />
			<path d="M22.485995641732213,-32.74151289520182 L12.586500705120546,-27.02603682870774 " />
			<path d="M12.586500705120546,-27.026036828707735 L12.586500705120546,-18.861071019430476 " />
			<path d="M-14.28355697996826,-11.512601791080936 L-13.435028842544403,-11.022703842524301 " />
			<path d="M-14.28355697996826,-3.3476359818036765 L-13.435028842544403,-2.8577380332470406 " />
			<path d="M-14.28355697996826,-11.512601791080936 L-14.28355697996826,-3.347635981803675 " />
			<path d="M-14.28355697996826,-11.512601791080936 L-24.183051916579927,-5.797125724586852 " />
			<path d="M-24.183051916579924,2.3678400846904064 L-23.334523779156065,2.8577380332470423 " />
			<path d="M-24.183051916579924,-5.797125724586855 L-24.183051916579924,2.367840084690406 " />
			<path d="M-14.28355697996826,-3.3476359818036765 L-24.183051916579927,2.3678400846904073 " />
			<path d="M7.353910524340096,-1.4696938456699078 L-16.687720036002524,12.410748030101441 " />
			<path d="M33.23401871576774,-43.682567079633344 L35.77960312803931,-42.212873233963435 " />
			<path d="M33.23401871576774,5.307227776030221 L35.77960312803931,6.776921621700128 " />
			<path d="M32.81980515339464,-44.5981213062745 L35.36538956566621,-43.12842746060459 " />
			<path d="M-32.81980515339464,44.5981213062745 L-30.274220741123067,46.06781515194441 " />

       </g>
    </g>
    
</svg>
