<?xml version="1.0" encoding="UTF-8" standalone="no"?>
<svg
   xmlns:svg="http://www.w3.org/2000/svg"
   xmlns="http://www.w3.org/2000/svg"
   width="960.0"
   height="720.0"

>
    <g transform="scale(5.943646402356512, -5.943646402356512)   translate(39.81752839736297,-50.199431472049746)" stroke-width="0.7"  fill="none">
       <!-- hidden lines -->
       <g  stroke="rgb(160,160,160)" fill="none" stroke-dasharray="0.7,0.7" >

       </g>

       <!-- solid lines -->
       <g  stroke="rgb(37,42,48)" fill="none">
			<path d="M-35.77960312803931,-42.212873233963435 L-35.77960312803931,6.776921621700133 " />
			<path d="M-35.779603128039305,-42.21287323396344 L-35.77789964586819,-42.29201690471821 L-35.77279330319259,-42.36900289965786 L-35.76429640163929,-42.44364575277739 L-35.75242941098836,-42.51576564290571 L-35.73722091985971,-42.58518882691054 L-35.718707566840564,-42.65174805826085 L-35.696933952219936,-42.71528298993842 L-35.67195253054259,-42.77564056072785 L-35.64382348424145,-42.8326753639544 L-35.61261457865288,-42.886249997781434 L-35.57840099876402,-42.93623539622348 L-35.54126516808557,-42.9825111400775 L-35.50129655008636,-43.02496574702325 L-35.45859143266797,-43.063496940194035 L-35.4132526961988,-43.09801189457057 L-35.36538956566622,-43.12842746060459 " />
			<path d="M-35.36538956566621,-43.12842746060459 L-35.31511734754397,-43.15467036453345 L-35.26255715200885,-43.17667738490297 L-35.20783560117563,-43.194395504873505 L-35.15108452405332,-43.2077820399421 L-35.09244063895749,-43.21680474077327 L-35.03204522414396,-43.22144187089041 L-34.970043777457015,-43.221682259040904 L-34.90658566581241,-43.21752532610864 L-34.84182376535937,-43.20898108650916 L-34.77591409318857,-43.19607012406405 L-34.70901543147326,-43.1788235424127 L-34.64128894494915,-43.15728289008093 L-34.57289779265442,-43.13150006038695 L-34.50400673486531,-43.1015371664258 L-34.43478173617415,-43.06746639143347 L-34.36538956566622,-43.02936981489117 " />
			<path d="M-35.779603128039305,6.776921621700128 L-35.77789964586819,6.858032304235007 L-35.77279330319259,6.94091459581131 L-35.76429640163929,7.025368825729001 L-35.75242941098836,7.111191536350891 L-35.73722091985971,7.198175973249909 L-35.718707566840564,7.286112583298628 L-35.696933952219936,7.374789519501106 L-35.67195253054259,7.463993151350847 L-35.64382348424145,7.55350857948541 L-35.61261457865288,7.643120153397793 L-35.578400998764025,7.732611990957395 L-35.54126516808557,7.821768498488974 L-35.50129655008636,7.9103748901567 L-35.45859143266797,7.998217705402043 L-35.4132526961988,8.085085323188954 L-35.36538956566621,8.17076847181748 L-35.31511734754397,8.255060733077617 L-35.26255715200885,8.337759039528859 L-35.20783560117563,8.418664163707449 L-35.15108452405332,8.497581198082788 L-35.09244063895749,8.574320024606752 L-35.03204522414396,8.648695772724718 L-34.970043777457015,8.72052926474492 L-34.90658566581241,8.789647447493214 L-34.84182376535937,8.85588380921332 L-34.77591409318857,8.919078780708235 L-34.70901543147326,8.9790801197564 L-34.64128894494916,9.035743277876554 L-34.57289779265442,9.088931748557677 L-34.50400673486531,9.13851739611514 L-34.43478173617415,9.184380764380785 L-34.36538956566622,9.226411364483303 " />
			<path d="M-34.36538956566622,-43.02936981489116 L29.274220741123074,-6.28702367314348 " />
			<path d="M-34.36538956566622,9.226411364483306 L29.274220741123074,45.968757506230986 " />
			<path d="M30.688434303496162,-3.8375339303603138 L30.686730821325042,-3.9186446128951924 L30.68162447864945,-4.001526904471497 L30.673127577096146,-4.085981134389188 L30.661260586445213,-4.171803845011077 L30.64605209531656,-4.258788281910094 L30.627538742297418,-4.346724891958814 L30.605765127676793,-4.435401828161292 L30.580783705999444,-4.524605460011032 L30.55265465969831,-4.614120888145595 L30.521445754109738,-4.703732462057977 L30.487232174220875,-4.793224299617578 L30.450096343542427,-4.8823808071491595 L30.41012772554321,-4.970987198816887 L30.367422608124823,-5.05883001406223 L30.322083871655657,-5.14569763184914 L30.274220741123067,-5.231380780477665 L30.22394852300082,-5.315673041737802 L30.171388327465703,-5.398371348189044 L30.11666677663249,-5.4792764723676335 L30.05991569951017,-5.558193506742975 L30.001271814414345,-5.63493233326694 L29.940876399600814,-5.709308081384905 L29.87887495291387,-5.781141573405108 L29.815416841269265,-5.850259756153401 L29.75065494081623,-5.916496117873507 L29.684745268645425,-5.979691089368421 L29.61784660693012,-6.039692428416586 L29.55012012040601,-6.096355586536739 L29.48172896811128,-6.149544057217862 L29.41283791032216,-6.199129704775324 L29.34361291163101,-6.244993073040971 L29.27422074112308,-6.2870236731434845 " />
			<path d="M30.688434303496162,45.15226092530326 L30.686730821325042,45.23140459605803 L30.68162447864945,45.308390590997675 L30.673127577096146,45.38303344411721 L30.661260586445213,45.45515333424553 L30.64605209531656,45.524576518250356 L30.627538742297418,45.59113574960067 L30.605765127676793,45.65467068127824 L30.580783705999444,45.71502825206767 L30.55265465969831,45.77206305529422 L30.521445754109738,45.82563768912125 L30.487232174220875,45.8756230875633 L30.450096343542427,45.921898831417316 L30.41012772554321,45.96435343836307 L30.367422608124823,46.00288463153385 L30.322083871655657,46.037399585910386 L30.274220741123077,46.06781515194441 " />
			<path d="M30.274220741123067,46.06781515194441 L30.22394852300082,46.09405805587327 L30.171388327465703,46.11606507624279 L30.116666776632485,46.13378319621332 L30.059915699510167,46.14716973128192 L30.001271814414345,46.15619243211309 L29.940876399600814,46.16082956223023 L29.87887495291387,46.16106995038072 L29.815416841269265,46.15691301744846 L29.75065494081623,46.14836877784898 L29.684745268645425,46.13545781540387 L29.617846606930115,46.11821123375252 L29.55012012040601,46.096670581420746 L29.481728968111277,46.070887751726765 L29.412837910322157,46.04092485776562 L29.343612911631006,46.00685408277329 L29.274220741123067,45.968757506230986 " />
			<path d="M30.688434303496166,-3.8375339303603138 L30.688434303496166,45.15226092530325 " />
			<path d="M23.68807716974934,21.596334565538356 L23.68807716974934,-6.327848502189879 " />
			<path d="M23.688077169749356,-6.32784850218987 L-0.4949747468305823,-20.289940036053995 " />
			<path d="M-19.565434022572145,-2.207182023313769 L-17.538889465846346,-1.0371559779633577 " />
			<path d="M-17.538889465846342,-1.0371559779633583 L-17.424914396141396,-0.9700122815658139 L-17.312429151250676,-0.9009166593842213 L-17.2016138271256,-0.8297616040093179 L-17.092686102760762,-0.7564430015517506 L-16.985901028232878,-0.6808603471203952 L-16.88155070241189,-0.6029170621973268 L-16.77996384034427,-0.5225209139094422 L-16.681505230308503,-0.4395845361967363 " />
			<path d="M-16.681505230308503,-0.43958453619673477 L-16.599794818409297,-0.3665668782038521 L-16.52026530643132,-0.2915570678729587 L-16.44310106019368,-0.21454531913164268 L-16.368494452903242,-0.13553509724289897 L-16.296643712659595,-0.0545448862421285 L-16.227750948936734,0.028389116740341114 L-16.16201841217574,0.11321174113755997 L-16.09964404720566,0.19984830254127894 " />
			<path d="M-16.099644047205658,0.1998483025412805 L-16.040732048626168,0.2888119233681654 L-15.984714251422977,0.3813484297418032 L-15.931632964910456,0.4771862516930513 L-15.881502489169188,0.5760463069157707 L-15.834311175512617,0.6776493379796232 L-15.790023455937176,0.7817241397902603 L-15.7485845621307,0.8880102141723732 L-15.709923940143003,0.9962613799220164 " />
			<path d="M-16.018074722471614,5.2179832644869215 L-16.058811750872053,5.265712740337953 L-16.102692517412017,5.308501193173658 L-16.14969384024794,5.346182601189677 L-16.199768208139524,5.378623409240063 " />
			<path d="M-15.709923940143005,0.9962613799220164 L-15.672823156799991,1.1116311125267095 L-15.64062329619144,1.226303140721836 L-15.613400738560753,1.3400760914002987 L-15.591197946496326,1.452752964808846 L-15.57402261123125,1.564143742560475 L-15.56184700335737,1.6740756800614456 L-15.554610668468303,1.7823929235944176 L-15.552223245657185,1.8889556703369543 " />
			<path d="M-15.809619781484614,4.528316749383234 L-15.812935536670977,4.632483803864737 L-15.822919854515643,4.731960196222516 L-15.839574251023809,4.82645492955204 L-15.862825791795562,4.915724193162448 L-15.892531140150409,4.999588526267201 L-15.928486117101793,5.077939829010713 L-15.970434150238134,5.150733948610448 L-16.018074722471614,5.217983264486921 " />
			<path d="M-15.552223245657185,1.888955670336956 L-15.555990280362586,2.013902100797101 L-15.560776334580702,2.0739870866795287 L-15.567559607831464,2.1323493916682 L-15.576379799251637,2.1888940927707234 L-15.587270190219884,2.2435294602537565 L-15.600256902845928,2.2961676587818305 L-15.615358137446187,2.346725467492483 L-15.632583389005891,2.3951250190076854 L-15.651932642627672,2.441294557381577 L-15.673395547966656,2.4851692149845044 L-15.696952201450312,2.5266944468223858 L-15.72257536474439,2.5658293435598543 L-15.750227859877835,2.6025414784436203 L-15.77986447729704,2.6368097959621575 L-15.811432433145367,2.6686241889291344 " />
			<path d="M-15.994510250881778,3.6806234607125425 L-15.95181395295414,3.7914661916886607 L-15.914406128392457,3.9014452884145006 L-15.882498021037708,4.010292863212499 L-15.856258891279412,4.117739283593375 L-15.835810842735354,4.223514342626565 L-15.821222654388713,4.32735742665 L-15.81250663849293,4.429029740049344 L-15.809619781484612,4.528316749383234 " />
			<path d="M-15.811432433145368,2.6686241889291358 L-15.863559117568435,2.7123602832691036 L-15.919872493578033,2.7494229475695198 " />
			<path d="M-16.3776769701618,3.0137364679072545 L-16.31981954119358,3.0932478448226743 L-16.26450808739127,3.1740525988299604 L-16.211902950656484,3.2560732515351476 L-16.16215849404911,3.3392175956441394 L-16.11542226593286,3.423374195103634 L-16.071827759447622,3.5084191487508756 L-16.03149129346317,3.5942176386104543 L-15.99451025088178,3.6806234607125408 " />
			<path d="M-22.910259710444144,8.654863757833898 L-22.910259710444144,0.16329931618554738 " />
			<path d="M-22.910259710444137,0.16329931618554383 L-30.26417023478424,-4.082482904638634 " />
			<path d="M-14.464632249203264,0.7377672536236721 L-13.76132340482973,1.1438228042461773 " />
			<path d="M-13.76132340482973,1.1438228042461756 L-13.76132340482973,7.280703600252274 " />
			<path d="M-11.997055506998091,3.7119706551292624 L-12.015080940487666,3.758509488009077 L-12.031451626831767,3.8073641613020066 L-12.046207185545143,3.8584267622346684 L-12.059390139294338,3.91159042095295 L-12.0812183693971,4.0238025424152974 L-12.097309180255234,4.143191897246427 " />
			<path d="M-12.253669709861432,2.5768692794036503 L-12.193889587173514,2.545749129446157 L-12.131279762846667,2.5197625052478587 L-12.065966452873237,2.498917321978576 L-11.998087124069873,2.4831859310512083 L-11.927788894005994,2.472508363185493 L-11.855226961319701,2.4667955883392825 L-11.780563036033671,2.4659327756398213 L-11.70396376987107,2.4697825533150244 " />
			<path d="M-11.703963769871068,2.4697825533150244 L-11.63519408921125,2.476972133053594 L-11.56508262876748,2.487638283984652 L-11.493743419733574,2.501638858586809 L-11.421284874485268,2.5188298403924207 L-11.347809160191513,2.5390671662097204 L-11.27341163925346,2.562208356079077 L-11.198180376571125,2.5881139509633804 L-11.122196148823843,2.6166485959141044 L-10.968263268896642,2.681085856595126 L-10.812130699736443,2.7545400655876495 L-10.654232479325454,2.8361197919431564 L-10.494925112146463,2.925025245378913 " />
			<path d="M-10.494925112146461,2.9250252453789143 L-10.360682591469482,3.005959287628937 L-10.227591308753354,3.0933106470110463 L-10.09593827799478,3.187232729878249 L-9.96603547834136,3.287832857885115 L-9.838215581735222,3.39516299880818 L-9.712829143843727,3.5092077335972975 L-9.590232442375719,3.629880468187756 L-9.470776923819022,3.757020510185333 " />
			<path d="M-9.47077692381902,3.7570205101853356 L-9.364902225245418,3.87852590671738 L-9.26336650299406,4.004277859093858 L-9.166697548948406,4.134114233994697 L-9.075406160715955,4.267807538062664 L-8.989973897088884,4.405056908961393 L-8.910840052082996,4.545479534412715 L-8.838387459699293,4.688602316269335 L-8.77290603442776,4.833904947274397 " />
			<path d="M-8.772906034427757,4.8339049472744 L-8.717286829447454,4.972508619573017 L-8.668309113191594,5.110371605388473 L-8.62635235270341,5.247059315840879 L-8.591732357068663,5.3821238816854 L-8.564688866239134,5.515106722649888 L-8.545372142741865,5.645549037657085 L-8.533830175981432,5.7730331719014245 L-8.530010711886382,5.89718443034776 " />
			<path d="M-8.530010711886382,5.897184430347762 L-8.533258398715017,6.013341191086475 L-8.54319250650186,6.123911216388557 L-8.560054673484556,6.2283378300375585 L-8.571140444342774,6.278083480941393 L-8.584016290110991,6.326102476840738 L-8.598690467526312,6.3723380072878335 L-8.615165145276356,6.416737233357464 L-8.633435958351905,6.459251703724742 L-8.65349172997923,6.499838088243429 L-8.675316481103735,6.538462472308119 L-8.698888027478478,6.575096957536277 L-8.724178391856023,6.609720029717583 L-8.75115421449868,6.642317296438541 " />
			<path d="M-8.75115421449868,6.642317296438542 L-8.785986766818858,6.678745908284654 L-8.823373458434101,6.711880945873826 L-8.863214473031402,6.741739559393622 L-8.905402455507145,6.768357231995267 " />
			<path d="M-10.77769877122448,5.698342794733648 L-10.52128045462551,5.77399552294118 L-10.274886399591823,5.843326278934217 L-10.046153143969136,5.902347423905215 L-9.94335159330127,5.925580842600472 L-9.853602781214864,5.94221114342431 " />
			<path d="M-11.803659611212677,5.489035809876687 L-11.752768651370602,5.4888620874611265 L-11.698694412387992,5.49156416089362 L-11.582902838878814,5.504185162478247 L-11.459370793561652,5.524578214322637 L-11.330179774241984,5.551066650071646 L-11.196562073138448,5.582475533077454 L-11.059476165242597,5.617921406677414 L-10.919686657897602,5.656715782203852 L-10.777698771224482,5.698342794733647 " />
			<path d="M-12.20371749305408,5.589192477407048 L-12.160414732928858,5.566388998023084 L-12.11498538082787,5.546674564715747 L-12.067534803876532,5.529983847048889 L-12.018169384358815,5.516241937246613 L-11.966995411899212,5.505366484461767 L-11.914117871350156,5.497269207269414 L-11.859639461071943,5.491857461800694 L-11.803659611212678,5.489035809876687 " />
			<path d="M-11.878520411807179,6.784470796553357 L-11.87979098096445,6.834879722506946 " />
			<path d="M-11.87979098096445,6.834879722506947 L-11.87864361035161,6.8828773091452184 L-11.875169003541679,6.931671514237839 L-11.869328626551898,6.981197835842394 L-11.861098553876458,7.031384577375055 L-11.850470714958789,7.082152486675011 L-11.83745357850841,7.133416406941688 L-11.822071731743868,7.185088667154853 L-11.804366601913838,7.237076623546519 L-11.76222128229664,7.341641886727153 L-11.711604938210616,7.446426903560678 L-11.65325118855939,7.550815043064792 L-11.587954063582652,7.654316568221948 " />
			<path d="M-11.58795406358265,7.65431656822195 L-11.543555813527819,7.717888556887205 L-11.49625376972666,7.779741755064525 L-11.446324458696179,7.839786629288514 L-11.394040495771923,7.897970247412972 L-11.339663676112563,7.954270950980094 L-11.283439074057664,8.008693800890034 L-11.225591117897254,8.06126592871463 L-11.166324874910671,8.112029037857033 L-11.044197098594582,8.208392063988727 L-10.918208805725419,8.298334435549945 L-10.789272903931801,8.382415571212475 L-10.658063761614553,8.461194994845533 " />
			<path d="M-10.65806376161455,8.461194994845535 L-10.580051896986049,8.504991532231768 L-10.502761321583268,8.545764219912176 L-10.426314117809657,8.583252520251351 L-10.350856587052794,8.617169851411346 L-10.276558639588718,8.647205655860034 L-10.203613004054386,8.673028055559135 L-10.132234247410961,8.694287096928408 L-10.062662331105226,8.710617813902427 " />
			<path d="M-9.363830475834385,8.032115675888768 L-8.689524058032955,8.480032623482666 " />
			<path d="M-8.950545897181897,9.29632986442481 L-8.991576188217929,9.340948217792757 L-9.035493425833316,9.38129718694686 L-9.082242856294949,9.417291921467196 L-9.13175326977937,9.448875432085103 " />
			<path d="M-8.689524058032957,8.480032623482662 L-8.69727794945525,8.605469460409175 L-8.711931089840089,8.72515038727515 L-8.72190986305147,8.782666248781902 L-8.73368317355445,8.838548353265276 L-8.747265058489821,8.892737110047234 L-8.762664529384708,8.945176054433512 L-8.779885227020126,8.995812168615839 L-8.79892507629854,9.044596202574155 L-8.819775941111427,9.091482994978838 L-8.842424217651557,9.136433515288795 L-8.866851784647915,9.179416749397568 L-8.893034623033389,9.220406230570005 L-8.920943881427023,9.259381843696872 L-8.950545897181897,9.296329864424807 " />
			<path d="M-2.8455351037538996,6.9688361928154094 L-2.638892814427656,7.6532700332976695 " />
			<path d="M-3.3708315087902503,8.009449728929471 L-3.303519067244292,8.143557371466219 L-3.2398913819906636,8.278715296709017 L-3.1800507916412686,8.414747850250215 L-3.1240792043529066,8.551475581160062 L-3.072038756004128,8.688713507982568 L-3.0239692459180088,8.826278227010953 L-2.979888366183349,8.963990306613756 L-2.9397929901132427,9.101674368507831 " />
			<path d="M-3.987505650030516,7.0630243360010345 L-3.8537426212422923,7.023102634803089 L-3.717366552576498,6.990331154771068 L-3.648195164175382,6.976763836971776 L-3.5783690046392365,6.965150141529037 L-3.507890440343642,6.955546710208043 L-3.4367633300485503,6.948010461304674 L-3.3649932539271528,6.942598391909833 L-3.2925881339717518,6.939367229499129 L-3.2195578755810965,6.9383731069323735 L-3.1459145640976622,6.939671256053634 L-3.071672582681443,6.9433155893808784 L-2.9968487164078113,6.949358279293057 L-2.9214622563653876,6.957849337217182 L-2.845535103753905,6.9688361928154015 " />
			<path d="M-2.939792990113242,9.101674368507835 L-2.890960652325117,9.291021529082247 L-2.849389384977241,9.479613326997002 L-2.8149112870287056,9.667108574377156 L-2.787312707896057,9.853210731121234 L-2.7663445378982106,10.037669705217715 L-2.7517318146599066,10.220284429450642 L-2.743183765155078,10.400895377553553 L-2.740401307430023,10.579381681597976 " />
			<path d="M-5.292614845775218,5.928580478076306 L-5.206796707082355,5.979517146435605 L-5.121209389693352,6.0331436970418375 L-5.03592199377785,6.089481945362819 L-4.95100497341985,6.148546531298681 L-4.8665300029058765,6.21034429478578 L-4.7825698410255635,6.274873638735772 L-4.69919819338464,6.34212387930986 L-4.616489572730329,6.412074583528196 L-4.534519157289156,6.4846948942144556 L-4.453362647117167,6.5599428422755794 L-4.373096118462554,6.637764646316674 L-4.293794110130924,6.718095833034037 L-4.215521929780812,6.800869114835227 L-4.13834395259265,6.886006343283632 L-4.062320168747959,6.973422036848071 L-3.987505650030519,7.063024336001032 " />
			<path d="M-2.740401307430023,10.57938168159798 L-2.741481614283989,10.685857656908029 L-2.744764725835629,10.790789490213564 L-2.750312943306588,10.894078099145897 L-2.7581866859557174,10.99562124468102 L-2.768443780730537,11.095314095596512 L-2.7811387519186974,11.193049792928418 L-2.7963221107994385,11.288720014428158 L-2.8140396452950527,11.382215539019407 L-2.834331878008307,11.473427902621014 L-2.8572329227435924,11.562249248999864 L-2.8827693631434435,11.648571910067986 L-2.910960376070205,11.732292895574062 L-2.941817206984772,11.813314531967544 L-2.9753426294788228,11.891545011898495 L-3.0115304048070497,11.966898943717455 L-3.050364741419388,12.039297900975281 " />
			<path d="M-6.6013493448414335,5.574851673668041 L-6.527011787445101,5.5688529181300925 L-6.451340642898041,5.566638121093942 L-6.374394563536269,5.568245261294582 L-6.296238217371987,5.573698336754084 L-6.216942442067177,5.583006759704374 L-6.1365824639360715,5.59616514260047 L-6.05523808090929,5.613153196525257 L-5.97299181278266,5.633936156574445 L-5.889927776664411,5.658465504884647 L-5.80613154097389,5.68667960861005 L-5.721688324216432,5.718505030938515 L-5.636681824074692,5.753857939085087 L-5.5511939708740705,5.79264535443374 L-5.465303643838022,5.834766831780537 L-5.37908650710997,5.880115729227469 L-5.292614845775221,5.928580478076304 " />
			<path d="M-3.05036474141939,12.039297900975283 L-3.0948518982907522,12.113107718945274 L-3.1424954223427735,12.18282757056185 L-3.1933173161338764,12.248267033687194 L-3.2473224673018883,12.309247228630706 L-3.304497345291464,12.365604534672386 L-3.364808789631598,12.417194024320777 L-3.428204208612922,12.463893417958007 L-3.4946117743555667,12.505605830287173 " />
			<path d="M-7.059111923634918,5.719568401146667 L-7.007097001633505,5.691429297314515 L-6.95349314737082,5.666154636948357 L-6.89834645321725,5.6437594605791785 L-6.841707334028434,5.624249359995633 L-6.7836296068392805,5.6076205181469305 L-6.724170270127469,5.593860158274159 L-6.663389283076946,5.582946993041601 L-6.601349344841436,5.574851673668041 " />
			<path d="M2.3966534991539854,13.063855591850109 L2.3966534991539854,16.60951591532703 " />
			<path d="M2.215388333078331,11.489867065725761 L2.2411870747225175,11.587267057627871 L2.264456015179697,11.685230495440647 L2.2853475492769095,11.783608717229779 L2.304007492802639,11.8822731053919 L2.3351808450295346,12.080046505679555 L2.358996972206857,12.277919107354952 L2.376343376002052,12.475463919869089 L2.3879833167986098,12.672408207351774 L2.394568073635179,12.868572857636645 L2.3966534991539845,13.063855591850105 " />
			<path d="M1.5610210835452243,10.226699412114002 L1.6697591416981783,10.373780106689926 L1.7722270596529333,10.52499257206954 L1.820858188256734,10.602032703436336 L1.867624404509,10.679954241961015 L1.9124327283046587,10.758692617005273 L1.9551946980676065,10.838175876768746 L1.9958273177694386,10.918324302800828 L2.0342540389988484,10.999050008256594 L2.0704057780816996,11.080256519896782 L2.1042219772840434,11.161838366569839 L2.135655796900155,11.243691873399166 L2.1646741188545664,11.325716657611432 L2.1912547916790817,11.407808984987698 L2.21538833307833,11.489867065725758 " />
			<path d="M0.3193546959270006,9.168652603662062 L0.4861481141659295,9.269144722494756 L0.5689390934971923,9.322354399090342 L0.6512385136430923,9.377645760547145 L0.7329669576844184,9.435096528945527 L0.814034377065125,9.494782260769304 L0.894340366314807,9.556775532877857 L0.973774488745725,9.62114498732281 L1.052216653124386,9.687954235009226 L1.1295375413176703,9.757260618201368 L1.2055963131072027,9.829111123715077 L1.2802297479114106,9.903527885548364 L1.35326802197524,9.980518286538082 L1.4245344876676058,10.060070772498753 L1.4938471818686805,10.142151127614698 L1.5610210835452218,10.226699412114 " />
			<path d="M-0.9690903987758095,10.002859751382285 L-0.9853720375226994,10.05351329746989 L-0.9999262070118681,10.107374108514275 L-1.024375237458948,10.22337188772016 L-1.0433747816613954,10.348499761923593 L-1.0577115528082042,10.480905314985467 L-1.0680455683944123,10.619197018232589 L-1.0749249620584589,10.762419257911722 L-1.0787938838071174,10.909876076500938 L-1.0800123861770412,11.060787746768987 " />
			<path d="M-0.9023725234229012,8.76050398319099 L-0.834877850457908,8.759500486384063 L-0.7655823117904965,8.76284070987731 L-0.6946444952663954,8.770362299362088 L-0.622217360147333,8.781891923629798 L-0.5484467658773695,8.79724928320424 L-0.4734701555590219,8.816250701585226 L-0.3974153941391817,8.838712299103483 L-0.32040095881027797,8.864452345458412 L-0.242534864996173,8.893293610609552 L-0.16391188096486817,8.925066257516608 L-0.08461929647902172,8.959607053632473 L-0.004737038128231841,8.996759943117565 L0.15651437226767972,9.078317041532022 L0.3193546959269977,9.16865260366206 " />
			<path d="M-1.080012386177041,11.060787746768991 L-1.080012386177041,14.60226193054877 " />
			<path d="M-1.26282297913593,8.85980077096606 L-1.2226471377640165,8.838365020535434 L-1.180955446623688,8.81955147712507 L-1.1378045862938098,8.803349876908392 L-1.0932548103723463,8.789739930798687 L-1.0473695141375134,8.778692109477689 L-1.0002148032089293,8.770168428424146 L-0.9518590622087659,8.764123232942408 L-0.9023725234229032,8.76050398319099 " />
			<path d="M3.582127685288757,11.157068959803196 L7.548209519024049,13.446887374138353 " />
			<path d="M7.548209519024045,13.446887374138347 L7.548209519024045,14.171089541743433 " />
			<path d="M7.424949206092602,18.788401627687993 L7.424949206092602,19.512603795293078 " />
			<path d="M4.28543652966229,13.022173600865738 L4.28543652966229,14.376210386903253 " />
			<path d="M4.285436529662292,16.975803138826713 L7.424949206092606,18.788401627687996 " />
			<path d="M4.285436529662293,14.376210386903256 L7.225557523409387,16.07369003409321 " />
			<path d="M4.28543652966229,15.831073337646153 L4.28543652966229,16.97580313882671 " />
			<path d="M7.225557523409384,16.07369003409321 L7.225557523409384,16.793706062001156 " />
			<path d="M-32.81980515339464,-44.5981213062745 L-32.769532935272395,-44.62436421020336 L-32.71697273973727,-44.64637123057288 L-32.66225118890406,-44.664089350543414 L-32.605500111781744,-44.67747588561201 L-32.54685622668592,-44.68649858644318 L-32.486460811872384,-44.69113571656032 L-32.42445936518544,-44.69137610471081 L-32.361001253540834,-44.68721917177855 L-32.2962393530878,-44.67867493217907 L-32.230329680916995,-44.66576396973396 L-32.16343101920169,-44.64851738808261 L-32.09570453267758,-44.62697673575084 L-32.02731338038285,-44.60119390605686 L-31.95842232259373,-44.57123101209571 L-31.88919732390258,-44.53716023710338 L-31.819805153394647,-44.49906366056108 " />
			<path d="M-31.819805153394643,-44.49906366056107 L31.819805153394647,-7.756717518813389 " />
			<path d="M33.23401871576773,-5.307227776030221 L33.232315233596616,-5.3883384585651 L33.22720889092102,-5.471220750141404 L33.21871198936772,-5.555674980059095 L33.20684499871679,-5.641497690680984 L33.191636507588136,-5.728482127580001 L33.17312315456899,-5.816418737628721 L33.15134953994836,-5.905095673831199 L33.12636811827102,-5.994299305680939 L33.09823907196988,-6.083814733815502 L33.067030166381315,-6.173426307727884 L33.03281658649245,-6.262918145287485 L32.995680755814,-6.352074652819066 L32.955712137814785,-6.440681044486794 L32.9130070203964,-6.528523859732137 L32.86766828392723,-6.615391477519047 L32.81980515339464,-6.701074626147572 L32.769532935272395,-6.785366887407709 L32.71697273973728,-6.868065193858951 L32.66225118890406,-6.94897031803754 L32.605500111781744,-7.027887352412882 L32.54685622668592,-7.104626178936847 L32.486460811872384,-7.179001927054812 L32.42445936518544,-7.250835419075015 L32.361001253540834,-7.319953601823308 L32.2962393530878,-7.386189963543414 L32.230329680916995,-7.449384935038328 L32.16343101920169,-7.509386274086493 L32.09570453267759,-7.566049432206646 L32.02731338038285,-7.619237902887769 L31.958422322593734,-7.668823550445231 L31.889197323902582,-7.7146869187108775 L31.819805153394654,-7.756717518813391 " />
			<path d="M33.23401871576774,-5.307227776030221 L33.23401871576774,43.682567079633344 " />
			<path d="M33.23401871576773,43.68256707963335 L33.232315233596616,43.76171075038812 L33.22720889092102,43.838696745327766 L33.21871198936772,43.9133395984473 L33.20684499871679,43.98545948857562 L33.191636507588136,44.05488267258045 L33.17312315456899,44.12144190393076 L33.15134953994836,44.18497683560833 L33.12636811827102,44.24533440639776 L33.09823907196988,44.30236920962431 L33.067030166381315,44.35594384345134 L33.03281658649245,44.40592924189339 L32.995680755814,44.45220498574741 L32.955712137814785,44.49465959269316 L32.9130070203964,44.533190785863944 L32.86766828392723,44.56770574024048 L32.81980515339465,44.5981213062745 " />
			<path d="M23.688077169749345,21.596334565538356 L23.122391744800108,21.922933197909448 " />
			<path d="M23.122391744800105,-6.001249869818789 L23.122391744800105,21.922933197909448 " />
			<path d="M23.688077169749345,-6.32784850218988 L23.122391744800108,-6.00124986981879 " />
			<path d="M23.122391744800105,21.922933197909448 L-1.0606601717798263,7.960841664045326 " />
			<path d="M-0.4949747468305845,-20.289940036054 L-1.0606601717798225,-19.963341403682907 " />
			<path d="M-1.0606601717798227,7.960841664045331 L-1.0606601717798227,-19.963341403682904 " />
			<path d="M-1.0606601717798227,-19.963341403682907 L23.122391744800108,-6.0012498698187855 " />
			<path d="M-19.565434022572145,-2.207182023313772 L-20.201830125640036,-1.839758561896295 " />
			<path d="M-18.175285568914234,-0.6697325165458816 L-20.201830125640036,-1.8397585618962944 " />
			<path d="M-20.201830125640036,-1.8397585618962948 L-20.201830125640036,4.297122234109804 " />
			<path d="M-17.317901333376394,-0.07216107477925804 L-17.407825849359238,-0.14811661733086615 L-17.502678512044763,-0.22371241350225135 L-17.60245932143297,-0.2989484632934136 L-17.70716827752386,-0.37382476670435305 L-17.81680538031743,-0.4483413237350695 L-17.931370629813685,-0.5224981343855631 L-18.05086402601262,-0.5962951986558338 L-18.17528556891423,-0.6697325165458803 " />
			<path d="M-20.201830125640036,4.297122234109803 L-18.207913298807853,5.44831065082309 " />
			<path d="M-16.73604015027355,0.5672717639587572 L-16.795885977760715,0.4840231811535395 L-16.85941375393379,0.4017230206234549 L-16.926623478792777,0.3203712823685033 L-16.997515152337677,0.2399679663886849 L-17.07208877456849,0.1605130726839995 L-17.150344345485212,0.08200660125444725 L-17.23228186508785,0.004448552100028036 L-17.317901333376394,-0.0721610747792567 " />
			<path d="M-18.207913298807853,5.448310650823089 L-18.059417476036813,5.531134078815316 L-17.918455486730796,5.60378649551215 L-17.785027330889793,5.666267900913591 L-17.659133008513813,5.71857829501964 L-17.540772519602854,5.760717677830295 L-17.42994586415691,5.792686049345557 L-17.37735772398332,5.804856105867416 L-17.326653042175987,5.814483409565426 L-17.277831818734906,5.821567960439589 L-17.230894053660084,5.826109758489903 " />
			<path d="M-16.346320043210895,1.3636848413394949 L-16.38690644680252,1.250282971028321 L-16.429815310334494,1.140838310899599 L-16.47504663380681,1.0353508609533288 L-16.52260041721947,0.9338206211895106 L-16.572476660572473,0.8362475916081443 L-16.62467536386582,0.74263177220923 L-16.679196527099514,0.6529731629927676 L-16.73604015027355,0.5672717639587588 " />
			<path d="M-17.230894053660084,5.826109758489903 L-17.174855699487217,5.828404694959545 L-17.120730812874125,5.827184546395071 L-17.06851939382081,5.822449312796481 L-17.01822144232727,5.814198994163775 L-16.969836958393508,5.8024335904969515 L-16.923365942019522,5.787153101796012 L-16.87880839320531,5.768357528060955 L-16.836164311950878,5.746046869291783 " />
			<path d="M-16.836164311950874,5.746046869291782 L-16.78641222795519,5.713838780198016 L-16.7395459522214,5.676329393268864 L-16.6955654847495,5.633518708504324 L-16.654470825539505,5.5854067259044 " />
			<path d="M-16.188619348725076,2.256379131754433 L-16.191083422076417,2.1481118234155314 L-16.19847564213044,2.038896092801497 L-16.210796008887144,1.9287319399123293 L-16.22804452234653,1.8176193647480283 L-16.2502211825086,1.7055583673085946 L-16.27732598937335,1.5925489475940278 L-16.309358942940783,1.4785911056043277 L-16.346320043210895,1.3636848413394969 " />
			<path d="M-16.654470825539505,5.585406725904399 L-16.62922823502936,5.55143930916267 L-16.605614198745677,5.516253660360642 L-16.583628716688455,5.479849779498313 L-16.563271788857694,5.4422276665756835 L-16.527443595875553,5.363328744549524 L-16.498129619799254,5.279556894282164 L-16.4753298606288,5.190912115773603 L-16.459044318364192,5.097394409023841 L-16.449272993005426,4.999003774032877 L-16.446015884552505,4.895740210800715 " />
			<path d="M-16.44782853621326,3.036047650346613 L-16.416439923665866,3.0044267611304294 L-16.387076382895717,2.970524752821469 L-16.359737913902823,2.9343416254197314 L-16.334424516687182,2.895877378925217 L-16.31113619124879,2.855132013337925 L-16.28987293758765,2.8121055286578565 L-16.27063475570376,2.7667979248850108 L-16.253421645597122,2.719209202019388 L-16.238233607267738,2.6693393600609885 L-16.225070640715604,2.6171883990098115 L-16.21393274594072,2.5627563188658575 L-16.204819922943088,2.506043119629127 L-16.19773217172271,2.447048801299619 L-16.19266949227958,2.385773363877334 L-16.189631884613704,2.322216807362272 L-16.188619348725076,2.2563791317544357 " />
			<path d="M-16.446015884552505,4.895740210800713 L-16.448904798136837,4.796417505642808 L-16.457571538889827,4.6951979559346375 L-16.47201610681148,4.5920815616762 L-16.492238501901795,4.487068322867496 L-16.51823872416077,4.380158239508527 L-16.55001677358841,4.2713513115992905 L-16.587572650184708,4.160647539139788 L-16.63090635394967,4.0480469221300215 " />
			<path d="M-17.18920306546268,3.164771446033644 L-17.094210247001666,3.184341339720184 L-17.00375343164247,3.1966082262857913 L-16.91783261938509,3.201572105730467 L-16.83644781022953,3.1992329780542104 L-16.759599004175787,3.1895908432570215 L-16.722875602312097,3.1820311481880776 L-16.687286201223863,3.1726457013389004 L-16.65283080091108,3.1614345027094903 L-16.619509401373755,3.148397552299847 L-16.58732200261188,3.133534850109971 L-16.556268604625465,3.116846396139862 " />
			<path d="M-16.556268604625465,3.1168463961398616 L-16.499969483438562,3.079794372591333 L-16.44782853621326,3.036047650346614 " />
			<path d="M-16.63090635394967,4.04804692213002 L-16.68007453024769,3.934890333441725 L-16.73513382444317,3.8225186459466443 L-16.79608423653611,3.710931859644777 L-16.862925766526505,3.6001299745361233 L-16.935658414414362,3.490112990620683 L-17.014282180199675,3.3808809078984563 L-17.09879706388245,3.272433726369443 L-17.18920306546268,3.1647714460336456 " />
			<path d="M-22.910259710444144,8.6548637578339 L-23.688077169749345,9.103936877344148 " />
			<path d="M-23.688077169749345,0.6123724356957951 L-23.688077169749345,9.103936877344147 " />
			<path d="M-22.910259710444144,0.16329931618554583 L-23.688077169749345,0.6123724356957954 " />
			<path d="M-23.688077169749345,9.103936877344147 L-31.041987694089443,4.85815465651997 " />
			<path d="M-31.04198769408944,-3.6334097851283818 L-23.68807716974934,0.6123724356957951 " />
			<path d="M-30.26417023478424,-4.082482904638631 L-31.04198769408944,-3.6334097851283818 " />
			<path d="M-31.04198769408944,4.85815465651997 L-31.04198769408944,-3.633409785128382 " />
			<path d="M-14.464632249203264,0.7377672536236723 L-15.101028352271157,1.1051907150411493 " />
			<path d="M-14.397719507897623,1.5112462656636534 L-15.101028352271157,1.1051907150411489 " />
			<path d="M-13.761323404829731,1.1438228042461758 L-14.397719507897625,1.5112462656636527 " />
			<path d="M-15.101028352271157,1.105190715041149 L-15.101028352271157,7.242071511047248 " />
			<path d="M-14.397719507897623,7.648127061669752 L-14.397719507897623,1.5112462656636527 " />
			<path d="M-13.761323404829731,7.280703600252274 L-14.397719507897625,7.648127061669751 " />
			<path d="M-15.101028352271157,7.242071511047247 L-14.397719507897623,7.648127061669752 " />
			<path d="M-12.097309180255236,4.143191897246428 L-12.733705283323129,4.510615358663905 " />
			<path d="M-13.39713579116002,4.060605341221438 L-12.733705283323129,4.510615358663904 " />
			<path d="M-12.733705283323129,4.510615358663905 L-12.719968782456458,4.40601092256 L-12.702323751446281,4.308830343575241 L-12.680770190292598,4.219073621709627 L-12.655308098995409,4.1367407569631585 L-12.625937477554713,4.061831749335835 L-12.592658325970511,3.994346598827657 L-12.555470644242803,3.934285305438624 L-12.51437443237159,3.881647869168738 " />
			<path d="M-13.105298873778217,3.126049653835107 L-13.13893913956046,3.1680868359695626 L-13.170526010883252,3.212307024547644 L-13.200059487746595,3.2587102195693505 L-13.227539570150485,3.307296421034682 L-13.252966258094926,3.3580656289436392 L-13.276339551579916,3.4110178432962215 L-13.297659450605455,3.466153064092429 L-13.316925955171543,3.523471291332262 L-13.33413906527818,3.5829725250157205 L-13.349298780925366,3.644656765142804 L-13.362405102113103,3.708524011713513 L-13.373458028841387,3.774574264727847 L-13.382457561110222,3.842807524185807 L-13.389403698919605,3.913223790087392 L-13.394296442269537,3.985823062432602 L-13.39713579116002,4.060605341221435 " />
			<path d="M-12.51437443237159,3.881647869168737 L-12.488469076141776,3.8545048675916407 L-12.460572427310865,3.829694060462225 L-12.430684485878855,3.8072154477804903 L-12.398805251845747,3.7870690295464366 " />
			<path d="M-12.398805251845747,3.7870690295464366 L-12.356924266075378,3.765515447106578 L-12.31203916697521,3.747480270964267 L-12.264149954545243,3.732963501119502 L-12.213256628785475,3.7219651375722846 L-12.159359189695907,3.7144851803226135 L-12.102457637276542,3.7105236293704897 L-12.042551971527377,3.710080484715913 L-11.979642192448415,3.7131557463588827 " />
			<path d="M-12.340359872938961,2.8372060147325007 L-12.418989684207547,2.8333171418984358 L-12.49478619011254,2.8343639015215127 L-12.56774939065394,2.8403462936017307 L-12.637879285831747,2.85126431813909 L-12.705175875645962,2.867117975133591 L-12.769639160096581,2.8879072645852335 L-12.83126913918361,2.9136321864940173 L-12.890065812907043,2.944292740859942 " />
			<path d="M-12.890065812907043,2.9442927408599426 L-12.948521817283364,2.9816355836812796 L-13.003879328887335,3.0243760167842524 L-13.056138347718951,3.0725140401688615 L-13.105298873778215,3.1260496538351057 " />
			<path d="M-11.979642192448413,3.7131557463588827 L-11.887593475300621,3.7236210956017306 L-11.792712489932896,3.7414121893145724 L-11.694999236345238,3.7665290274974077 L-11.59445371453765,3.798971610150237 L-11.49107592451013,3.8387399372730595 L-11.384865866262675,3.8858340088658756 L-11.27582353979529,3.9402538249286856 L-11.163948945107975,4.001999385461488 " />
			<path d="M-11.131321215214356,3.2924487067963915 L-11.308026429455918,3.194221592887347 L-11.477424391690056,3.107800701092891 L-11.63951510191677,3.0331860314130226 L-11.717820237527341,3.000306029866059 L-11.794298560136056,2.970377583847742 L-11.868950069742917,2.9434006933580728 L-11.94177476634792,2.91937535839705 L-12.012772649951067,2.898301578964674 L-12.081943720552358,2.8801793550609456 L-12.149287978151794,2.8650086866858637 L-12.214805422749372,2.852789573839429 L-12.278496054345094,2.8435220165216415 L-12.34035987293896,2.8372060147325007 " />
			<path d="M-11.163948945107974,4.001999385461489 L-11.06481955741035,4.061390242414652 L-10.968635728661457,4.123397436678527 L-10.875397458861293,4.188020968253113 L-10.785104748009857,4.255260837138412 L-10.697757596107152,4.325117043334423 L-10.613356003153177,4.397589586841145 L-10.53189996914793,4.4726784676585805 L-10.453389494091414,4.550383685786725 " />
			<path d="M-10.107173026886915,4.124443971602812 L-10.222701247577945,4.00132894902562 L-10.341798126226088,3.8836755305845383 L-10.464463662831347,3.771483716279569 L-10.590697857393721,3.664753506110711 L-10.720500709913207,3.5634849000779636 L-10.853872220389809,3.4676778981813285 L-10.990812388823526,3.3773325004208044 L-11.131321215214355,3.292448706796393 " />
			<path d="M-10.453389494091413,4.550383685786727 L-10.378815871860601,4.629576945760341 L-10.30917039633247,4.709129952114179 L-10.244453067507022,4.78904270484824 L-10.184663885384255,4.869315203962523 L-10.129802849964172,4.949947449457029 L-10.079869961246768,5.030939441331757 L-10.034865219232048,5.112291179586709 L-9.994788623920009,5.194002664221881 " />
			<path d="M-9.40930213749565,5.201328408691876 L-9.473339721948316,5.059048715313718 L-9.54400481403562,4.918960204433282 L-9.621297413757567,4.781062876050568 L-9.705217521114154,4.645356730165574 L-9.795765136105382,4.511841766778302 L-9.892940258731253,4.38051798588875 L-9.996742888991763,4.251385387496921 L-10.107173026886914,4.124443971602814 " />
			<path d="M-9.994788623920009,5.194002664221883 L-9.959526884581855,5.2752235856112994 L-9.928966710488787,5.355103634128975 L-9.903108101640807,5.433642809774912 L-9.881951058037915,5.510841112549108 L-9.86549557968011,5.586698542451565 L-9.853741666567391,5.6612150994822805 L-9.846689318699761,5.734390783641258 L-9.844338536077217,5.8062255949284935 " />
			<path d="M-9.166406814954275,6.264607891765239 L-9.170202054368984,6.140855136968561 L-9.181587772613112,6.0144860448611706 L-9.200563969686655,5.8855006154430685 L-9.227130645589618,5.753898848714254 L-9.261287800322,5.619680744674728 L-9.3030354338838,5.482846303324489 L-9.352373546275016,5.3433955246635385 L-9.409302137495649,5.201328408691879 " />
			<path d="M-9.844338536077217,5.806225594928494 L-9.846604350653163,5.875983688475354 L-9.853401794381,5.940836149564627 L-9.864730867260729,6.000782978196317 L-9.880591569292347,6.055824174370421 L-9.90098390047586,6.1059597380869395 L-9.925907860811261,6.151189669345873 L-9.955363450298556,6.1915139681472215 L-9.98935066893774,6.226932634490985 " />
			<path d="M-9.387550317566571,7.00974075785602 L-9.360771221547113,6.977396287852343 L-9.335719809141814,6.943154973298399 L-9.312396080350673,6.907016814194189 L-9.290800035173692,6.868981810539713 L-9.270931673610868,6.829049962334971 L-9.252790995662203,6.787221269579963 L-9.236378001327697,6.743495732274689 L-9.221692690607348,6.697873350419148 L-9.20873506350116,6.650354124013341 L-9.19750512000913,6.600938053057268 L-9.188002860131258,6.549625137550929 L-9.180228283867544,6.496415377494324 L-9.169862182182593,6.384305323730314 L-9.166406814954275,6.264607891765241 " />
			<path d="M-9.856386566639884,5.959696418016926 L-10.467890707377466,6.31274849828234 " />
			<path d="M-9.98935066893774,6.226932634490986 L-10.01502409008887,6.2478166908293025 L-10.043354148348214,6.266193557500057 " />
			<path d="M-10.043354148348214,6.266193557500057 L-10.082144304769372,6.2854866998164995 L-10.125013579321243,6.300930192213325 L-10.171961972003828,6.312524034690536 L-10.222989482817127,6.320268227248129 L-10.27809611176114,6.324162769886106 L-10.337281858835867,6.324207662604467 L-10.400546724041309,6.320402905403212 L-10.467890707377464,6.31274849828234 " />
			<path d="M-10.07273264533254,7.239978441198677 L-9.993329328170459,7.241557688529762 L-9.917650741839562,7.238964373693003 L-9.84569688633985,7.232198496688398 L-9.777467761671321,7.221260057515948 L-9.712963367833977,7.2061490561756525 L-9.652183704827818,7.186865492667513 L-9.595128772652844,7.1634093669915275 L-9.541798571309053,7.135780679147698 " />
			<path d="M-9.541798571309053,7.135780679147697 L-9.499151508496194,7.108846845298082 L-9.459227778601495,7.078862247132931 L-9.422027381624954,7.045826884652244 L-9.387550317566573,7.0097407578560205 " />
			<path d="M-10.467890707377466,6.31274849828234 L-10.52946421847879,6.30293723336717 L-10.607238303798123,6.287108392637362 L-10.70121296333547,6.2652619760929165 L-10.811388197090828,6.237397983733834 L-11.080340387255578,6.163617271571754 L-11.41409487429237,6.065766256151125 " />
			<path d="M-11.249143573163531,6.952181337020355 L-11.043209350892269,7.015970911077153 L-10.854098801847403,7.071813360552662 L-10.681811926028935,7.119708685446884 L-10.526348723436863,7.159656885759818 L-10.387709194071187,7.191657961491464 L-10.265893337931908,7.215711912641823 L-10.160901155019026,7.231818739210894 L-10.072732645332541,7.239978441198677 " />
			<path d="M-11.803659611212678,5.489035809876686 L-12.440055714280572,5.856459271294163 " />
			<path d="M-11.414094874292374,6.065766256151124 L-11.590318602936549,6.014420636428401 L-11.75283415339625,5.970269944310136 L-11.901641525671483,5.933314179796328 L-12.036740719762243,5.90355334288698 L-12.158131735668531,5.880987433582089 L-12.26581457339035,5.865616451881655 L-12.359789232927696,5.85744039778568 L-12.44005571428057,5.856459271294163 " />
			<path d="M-12.3095447947061,6.777410004664794 L-12.281611549387021,6.766809750529362 L-12.248566059930964,6.759079291381617 L-12.210408326337928,6.75421862722156 L-12.167138348607915,6.75222775804919 L-12.118756126740927,6.753106683864507 L-12.065261660736958,6.756855404667512 L-12.006654950596014,6.763473920458203 L-11.942935996318091,6.772962231236582 L-11.800161355351316,6.800548237756402 L-11.63693773783663,6.839613424226971 L-11.453265143774036,6.8901577906482885 L-11.249143573163535,6.952181337020354 " />
			<path d="M-12.440055714280572,5.856459271294163 L-12.498349547291596,5.859455028615267 L-12.55427578108752,5.8651718789401865 L-12.607834415668345,5.873609822268924 L-12.65902545103407,5.884768858601477 L-12.707848887184696,5.898648987937848 L-12.754304724120223,5.915250210278034 L-12.79839296184065,5.934572525622038 L-12.840113600345978,5.956615933969858 " />
			<path d="M-12.840113600345978,5.956615933969858 L-12.88705313558844,5.986659866752281 L-12.930583327961157,6.0206221734601995 L-12.970704177464134,6.058502854093613 L-13.007415684097365,6.100301908652523 " />
			<path d="M-12.516187084032346,7.202303183924423 L-12.513398038773511,7.128655158086893 L-12.505030902997008,7.06139165616163 L-12.491085676702834,7.0005126781486355 L-12.471562359890994,6.946018224047908 L-12.446460952561482,6.897908293859449 L-12.4318184649526,6.876247525232319 L-12.415781454714303,6.856182887583257 L-12.398349921846586,6.837714380912261 L-12.379523866349453,6.820842005219332 L-12.359303288222902,6.805565760504471 L-12.337688187466934,6.7918856467676765 " />
			<path d="M-12.337688187466934,6.7918856467676765 L-12.309544794706103,6.777410004664794 " />
			<path d="M-13.007415684097365,6.100301908652524 L-13.030024265162973,6.130214002562648 L-13.051174228095316,6.161605962264145 L-13.089098299560206,6.228829479041251 L-13.121187898492037,6.301972458983844 L-13.147443024890807,6.381034902091923 L-13.167863678756518,6.466016808365487 L-13.182449860089168,6.556918177804538 L-13.191201568888758,6.653739010409074 L-13.194118805155288,6.756479306179094 " />
			<path d="M-12.224350166650543,8.021740029639426 L-12.292749444161903,7.91301486227115 L-12.352028818005081,7.8060884268039885 L-12.40218828818008,7.700960723237942 L-12.443227854686896,7.597631751573009 L-12.460327674064736,7.54664179020346 L-12.47514751752553,7.496101511809191 L-12.487687385069279,7.4460109163901995 L-12.497947276695983,7.396370003946487 L-12.505927192405641,7.347178774478053 L-12.511627132198255,7.2984372279848975 L-12.515047096073824,7.250145364467021 L-12.516187084032346,7.202303183924425 " />
			<path d="M-13.194118805155288,6.756479306179096 L-13.190550147198174,6.873756626131762 L-13.17984417332683,6.993257832798533 L-13.162000883541259,7.11498292617941 L-13.137020277841458,7.2389319062743915 L-13.104902356227427,7.365104773083478 L-13.065647118699168,7.4935015266066705 L-13.01925456525668,7.624122166843968 L-12.965724695899967,7.756966693795367 " />
			<path d="M-11.294459864682445,8.82861845626301 L-11.44856357852895,8.735427791677086 L-11.591848027775313,8.640045944593442 L-11.659433028173442,8.591533327614973 L-11.724313212421535,8.542472915012077 L-11.786488580519595,8.492864706784747 L-11.845959132467618,8.44270870293299 L-11.902724868265606,8.3920049034568 L-11.95678578791356,8.340753308356181 L-12.008141891411478,8.28895391763113 L-12.056793178759362,8.23660673128165 L-12.10273964995721,8.18371174930774 L-12.145981305005023,8.130268971709398 L-12.1865181439028,8.076278398486627 L-12.224350166650542,8.021740029639428 " />
			<path d="M-12.965724695899965,7.75696669379537 L-12.905340737451013,7.889778516530389 L-12.838385916731818,8.020301044118535 L-12.764860233742382,8.148534276559808 L-12.684763688482702,8.274478213854206 L-12.598096280952781,8.398132856001734 L-12.504858011152617,8.519498203002387 L-12.40504887908221,8.638574254856167 L-12.298668884741563,8.755361011563073 " />
			<path d="M-10.368194866035855,9.066181884075661 L-10.408561768840437,9.078867032005567 L-10.451265292926463,9.087881131646379 L-10.496305438293934,9.093224182998098 L-10.543682204942847,9.094896186060726 L-10.593395592873206,9.09289714083426 L-10.645445602085006,9.0872270473187 L-10.699832232578252,9.07788590551405 L-10.756555484352942,9.064873715420305 L-10.815615357409076,9.048190477037467 L-10.877011851746655,9.027836190365539 L-10.940744967365676,9.003810855404515 L-11.006814704266143,8.9761144721544 L-11.075221062448051,8.944747040615193 L-11.145964041911405,8.90970856078689 L-11.219043642656203,8.870999032669497 L-11.294459864682441,8.828618456263012 " />
			<path d="M-12.298668884741561,8.755361011563075 L-12.187474034427028,8.868615712900521 L-12.073220334434968,8.977095598645917 L-11.955907784765381,9.080800668799265 L-11.83553638541827,9.179730923360562 L-11.71210613639363,9.273886362329812 L-11.585617037691462,9.36326698570701 L-11.456069089311768,9.447872793492161 L-11.32346229125455,9.52770378568526 " />
			<path d="M-10.000226578902279,8.399539137306242 L-10.015511036733102,8.516505565325382 L-10.02555335071785,8.570967371987006 L-10.037195721415486,8.622748240416666 L-10.050438148826013,8.67184817061436 L-10.06528063294943,8.718267162580092 L-10.081723173785736,8.76200521631386 L-10.099765771334933,8.803062331815662 L-10.11940842559702,8.841438509085501 L-10.140651136571998,8.877133748123375 L-10.163493904259864,8.910148048929285 L-10.187936728660622,8.940481411503232 L-10.213979609774269,8.968133835845213 L-10.241622547600807,8.99310532195523 L-10.270865542140234,9.015395869833284 L-10.301708593392549,9.035005479479373 " />
			<path d="M-10.30170859339255,9.035005479479373 L-10.334151701357758,9.0519341508935 L-10.368194866035854,9.066181884075661 " />
			<path d="M-9.363830475834385,8.032115675888765 L-10.000226578902279,8.399539137306242 " />
			<path d="M-11.323462291254549,9.527703785685262 L-11.177912027432239,9.608303326963384 L-11.036723456668625,9.679516758139327 L-10.899896578963705,9.74134407921309 L-10.767431394317482,9.793785290184672 L-10.639327902729955,9.836840391054078 L-10.515586104201121,9.870509381821304 L-10.455350839833716,9.883824085916599 L-10.396205998730984,9.894792262486348 L-10.338151580892927,9.903413911530555 L-10.281187586319545,9.909689033049215 " />
			<path d="M-9.32592016110085,8.847456084900138 L-10.000226578902279,8.399539137306242 " />
			<path d="M-8.689524058032957,8.480032623482662 L-9.32592016110085,8.847456084900138 " />
			<path d="M-10.281187586319543,9.909689033049215 L-10.206734292814808,9.914237607105232 L-10.135230575730713,9.91415122615463 L-10.066676435067256,9.909429890197407 L-10.001071870824438,9.900073599233565 L-9.938416883002258,9.886082353263104 L-9.878711471600717,9.867456152286024 L-9.821955636619816,9.844194996302326 L-9.768149378059555,9.816298885312007 " />
			<path d="M-9.768149378059553,9.816298885312007 L-9.71866555314961,9.784734046235211 L-9.671969715211334,9.748788173297992 L-9.628061864244728,9.708461266500352 L-9.586942000249792,9.663753325842288 " />
			<path d="M-9.58694200024979,9.663753325842286 L-9.557458088080297,9.626961082410398 L-9.529730182207162,9.588271994428245 L-9.503758282630384,9.547686061895824 L-9.479542389349966,9.505203284813138 L-9.457082502365903,9.460823663180186 L-9.4363786216782,9.414547196996967 L-9.417430747286854,9.366373886263482 L-9.400238879191868,9.31630373097973 L-9.384803017393237,9.264336731145713 L-9.371123161890965,9.21047288676143 L-9.359199312685051,9.15471219782688 L-9.349031469775495,9.097054664342064 L-9.333963802845457,8.976049063721634 L-9.32592016110085,8.84745608490014 " />
			<path d="M-2.6388928144276576,7.653270033297665 L-3.2752889174955504,8.020693494715141 " />
			<path d="M-4.177989444552302,8.068834101232243 L-4.056825010103608,8.044731093757308 L-3.938039680959656,8.02579535247103 L-3.821633457120448,8.012026877373408 L-3.7076063385859825,8.003425668464443 L-3.5959583253562597,7.999991725744133 L-3.4866894174312804,8.00172504921248 L-3.3797996148110436,8.008625638869482 L-3.2752889174955517,8.020693494715141 " />
			<path d="M-2.845535103753902,6.9688361928154015 L-3.4819312068217947,7.336259654232879 " />
			<path d="M-3.27528891749555,8.020693494715141 L-3.4819312068217942,7.336259654232879 " />
			<path d="M-3.5761890931811338,9.469097829925312 L-3.629209154258262,9.28971520305962 L-3.6885734961480385,9.111575336416516 L-3.7542821188504627,8.934678229995999 L-3.826335022365535,8.759023883798072 L-3.904732206693255,8.584612297822732 L-3.989473671833623,8.411443472069982 L-4.080559417786638,8.239517406539818 L-4.1779894445523,8.068834101232246 " />
			<path d="M-3.987505650030516,7.063024336001035 L-4.623901753098409,7.430447797418513 " />
			<path d="M-3.4819312068217942,7.3362596542328795 L-3.5535167860805776,7.3258351852605115 L-3.6250740426571615,7.317585546677672 L-3.6966029765515462,7.311510738484364 L-3.768103587763732,7.307610760680583 L-3.8395758762937175,7.305885613266333 L-3.9110198421415046,7.3063352962416115 L-3.982435485307092,7.308959809606419 L-4.05382280579048,7.313759153360756 L-4.125181803591668,7.320733327504623 L-4.196512478710658,7.32988233203802 L-4.267814831147448,7.341206166960945 L-4.339088860902039,7.354704832273399 L-4.41033456797443,7.370378327975384 L-4.481551952364622,7.388226654066897 L-4.552741014072615,7.40824981054794 L-4.623901753098406,7.430447797418512 " />
			<path d="M-3.3767974104979155,10.946805143015458 L-3.379912905539841,10.75797099761482 L-3.3892593906656168,10.570314204004 L-3.404836865875243,10.383834762183001 L-3.42664533116872,10.198532672151822 L-3.4546847865460477,10.014407933910464 L-3.4889552320072257,9.831460547458926 L-3.5294566675522545,9.649690512797209 L-3.576189093181133,9.469097829925316 " />
			<path d="M-4.623901753098409,7.430447797418513 L-4.698248793871626,7.341394216205153 L-4.7735588058396194,7.254760747004201 L-4.8498317890023905,7.170547389815658 L-4.927067743359938,7.088754144639523 L-5.005266668912263,7.0093810114757975 L-5.084428565659365,6.932427990324481 L-5.1645534336012435,6.857895081185572 L-5.245641272737899,6.7857822840590725 L-5.327692083069331,6.716089598944981 L-5.41070586459554,6.648817025843298 L-5.494682617316526,6.583964564754024 L-5.579622341232289,6.5215322156771585 L-5.665525036342829,6.461519978612702 L-5.752390702648146,6.403927853560654 L-5.84021934014824,6.348755840521014 L-5.929010948843107,6.296003939493785 " />
			<path d="M-3.6867608444872824,12.406721362392762 L-3.6492262099026327,12.336877420277895 L-3.6141131646460245,12.264180035283534 L-3.5814217087174587,12.188629207409676 L-3.5511518421169344,12.110224936656323 L-3.5233035648444524,12.028967223023475 L-3.497876876900012,11.944856066511132 L-3.474871778283614,11.857891467119293 L-3.454288268995257,11.768073424847959 L-3.436126349034943,11.67540193969713 L-3.42038601840267,11.579877011666806 L-3.40706727709844,11.481498640756985 L-3.396170125122251,11.38026682696767 L-3.3876945624741044,11.27618157029886 L-3.3816405891539993,11.169242870750555 L-3.3780082051619367,11.059450728322755 L-3.3767974104979155,10.946805143015462 " />
			<path d="M-5.929010948843111,6.296003939493783 L-6.018666399345061,6.245811143398592 L-6.1072739106056355,6.199362980079358 L-6.194833482624836,6.156659449536081 L-6.281345115402662,6.11770055176876 L-6.366808808939112,6.082486286777395 L-6.451224563234188,6.051016654561987 L-6.534592378287888,6.023291655122535 L-6.616912254100214,5.99931128845904 L-6.698184190671165,5.979075554571502 L-6.778408188000742,5.962584453459921 L-6.857584246088942,5.9498379851242955 L-6.935712364935769,5.940836149564627 L-7.01279254454122,5.935578946780915 L-7.088824784905297,5.93406637677316 L-7.1638090860279995,5.9362984395413605 L-7.237745447909323,5.942275135085518 " />
			<path d="M-4.587648719883278,13.016851223250804 L-4.524875493234192,13.008691845287577 L-4.4637288726835065,12.99772722061439 L-4.404208858231222,12.983957349231245 L-4.346315449877337,12.96738223113814 L-4.290048647621854,12.948001866335074 L-4.235408451464769,12.92581625482205 L-4.182394861406086,12.900825396599066 L-4.131007877445804,12.873029291666123 " />
			<path d="M-4.1310078774458034,12.873029291666121 L-4.065507518606152,12.831934176464156 L-4.002855582543597,12.78592666813156 L-3.9430520692581377,12.735006766668334 L-3.8860969787497748,12.67917447207448 L-3.831990311018507,12.618429784349996 L-3.780732066064336,12.552772703494881 L-3.7323222438872614,12.482203229509135 L-3.6867608444872837,12.406721362392764 " />
			<path d="M-7.237745447909326,5.942275135085518 L-7.300498849221287,5.950480995458015 L-7.361671370817441,5.961510778870038 L-7.4212630126977865,5.975364485321587 L-7.479273774862325,5.992042114812662 L-7.535703657311055,6.011543667343262 L-7.590552660043978,6.033869142913388 L-7.643820783061094,6.05901854152304 L-7.6955080263624005,6.0869918631722175 " />
			<path d="M-7.695508026362401,6.0869918631722175 L-7.760855956167633,6.127929703092495 L-7.823488427466529,6.17371816242565 L-7.883405440259088,6.22435724117168 L-7.940606994545311,6.2798469393305885 L-7.995093090325197,6.340187256902374 L-8.046863727598746,6.405378193887036 L-8.09591890636596,6.4754197502845745 L-8.142258626626834,6.550311926094988 " />
			<path d="M-5.9145097355570595,12.654750139448259 L-5.823084117417652,12.70595676625135 L-5.732791406566217,12.753353351845718 L-5.643631603002755,12.796939896231361 L-5.555604706727266,12.83671639940828 L-5.46871071773975,12.872682861376475 L-5.382949636040206,12.904839282135944 L-5.298321461628635,12.93318566168669 L-5.214826194505038,12.957722000028712 L-5.132463834669413,12.978448297162007 L-5.051234382121761,12.995364553086581 L-4.9711378368620815,13.008470767802429 L-4.892174198890375,13.017766941309553 L-4.8143434682066415,13.023253073607952 L-4.737645644810881,13.024929164697626 L-4.662080728703093,13.022795214578577 L-4.587648719883281,13.016851223250804 " />
			<path d="M-8.142258626626836,6.550311926094991 L-8.180671264359665,6.619902410532882 L-8.216605667400053,6.692362689958461 L-8.250061835748,6.767692764371727 L-8.281039769403508,6.84589263377268 L-8.309539468366573,6.926962298161321 L-8.335560932637199,7.010901757537648 L-8.359104162215385,7.097711011901663 L-8.380169157101129,7.187390061253366 L-8.398755917294434,7.279938905592755 L-8.414864442795297,7.375357544919831 L-8.42849473360372,7.473645979234595 L-8.439646789719703,7.574804208537047 L-8.448320611143245,7.678832232827185 L-8.454516197874346,7.785730052105011 L-8.458233549913007,7.895497666370524 L-8.459472667259227,8.00813507562372 " />
			<path d="M-7.232307492927056,11.504608257659259 L-7.158123307576485,11.594581644958415 L-7.08284869896124,11.68214309629926 L-7.006483667081322,11.767292611681793 L-6.929028211936729,11.850030191106011 L-6.850482333527463,11.930355834571918 L-6.770846031853523,12.008269542079512 L-6.690119306914909,12.083771313628795 L-6.608302158711622,12.156861149219763 L-6.525394587243659,12.22753904885242 L-6.441396592511024,12.295805012526763 L-6.356308174513714,12.361659040242793 L-6.270129333251731,12.425101132000512 L-6.182860068725074,12.486131287799918 L-6.094500380933743,12.544749507641011 L-6.005050269877739,12.600955791523791 L-5.914509735557063,12.654750139448257 " />
			<path d="M-8.459472667259227,8.008135075623724 L-8.458226469242458,8.121765875449585 L-8.454487875192147,8.235560196357365 L-8.448256885108297,8.349518038347066 L-8.439533498990906,8.463639401418686 L-8.428317716839974,8.577924285572225 L-8.414609538655503,8.692372690807684 L-8.398408964437492,8.806984617125062 L-8.37971599418594,8.92176006452436 L-8.358530627900848,9.036699033005576 L-8.334852865582217,9.151801522568713 L-8.308682707230044,9.267067533213769 L-8.280020152844331,9.382497064940745 L-8.248865202425078,9.49809011774964 L-8.215217855972286,9.613846691640454 L-8.179078113485952,9.729766786613189 L-8.140445974966081,9.845850402667839 " />
			<path d="M-8.14044597496608,9.845850402667843 L-8.09951261851751,9.96123496609729 L-8.056469222245093,10.075057903194407 L-8.011315786148826,10.187319213959192 L-7.964052310228709,10.298018898391646 L-7.914678794484743,10.407156956491768 L-7.863195238916927,10.51473338825956 L-7.809601643525262,10.62074819369502 L-7.753898008309749,10.72520137279815 L-7.6960843332703845,10.828092925568948 L-7.636160618407172,10.929422852007415 L-7.574126863720109,11.02919115211355 L-7.509983069209198,11.127397825887353 L-7.443729234874436,11.224042873328827 L-7.375365360715826,11.319126294437968 L-7.304891446733365,11.412648089214779 L-7.232307492927059,11.504608257659255 " />
			<path d="M1.056948551712559,13.02940964234222 L1.056948551712559,16.570883826122 " />
			<path d="M2.3966534991539854,16.609515915327027 L1.7602573960860926,16.976939376744504 " />
			<path d="M1.056948551712559,16.570883826122 L1.760257396086093,16.976939376744504 " />
			<path d="M0.7270459494548707,11.277510179089457 L0.7669950926970126,11.354258798888376 L0.8043668718590163,11.435373431574543 L0.8391612869408819,11.520854077147963 L0.8713783379426093,11.610700735608631 L0.9010180248641985,11.704913406956553 L0.9280803477056494,11.803492091191723 L0.9525653064669622,11.906436788314146 L0.9744729011481369,12.013747498323816 L0.9938031317491733,12.12542422122074 L1.0105559982700716,12.241466957004913 L1.0247315007108315,12.361875705676338 L1.0363296390714534,12.486650467235012 L1.0453504133519371,12.615791241680938 L1.0517938235522826,12.749298029014115 L1.05565986967249,12.887170829234542 L1.056948551712559,13.029409642342214 " />
			<path d="M1.7602573960860926,16.976939376744504 L1.7602573960860926,13.431279053267584 " />
			<path d="M-0.3786715636066136,10.233068324653221 L-0.28343654471139734,10.289638442943273 L-0.1916852157266976,10.347369560914952 L-0.10341757665251433,10.40626167856826 L-0.018633627488847504,10.466314795903198 L0.06266663176430287,10.527528912919763 L0.1404832011069368,10.589904029617957 L0.2148160805390542,10.653440145997779 L0.28566527006065523,10.71813726205923 L0.35303076967173985,10.783995377802308 L0.41691257937230786,10.851014493227016 L0.47731069916235946,10.91919460833335 L0.5342251290418947,10.988535723121316 L0.5876558690109134,11.059037837590909 L0.6376029190694155,11.13070095174213 L0.6840662792174013,11.20352506557498 L0.7270459494548691,11.277510179089454 " />
			<path d="M1.7602573960860926,13.431279053267586 L1.7574251278661606,13.204311791563319 L1.7489283232063642,12.9859784429844 L1.734766982106704,12.776279007530833 L1.7149411045671794,12.575213485202616 L1.6894506905877908,12.382781875999747 L1.6582957401685379,12.198984179922228 L1.6214762533094211,12.023820396970057 L1.5789922300104409,11.857290527143242 " />
			<path d="M-1.1454232161066265,9.99550489684057 L-1.1056794123104294,9.993612140317351 L-1.0648451852495588,9.993951446562335 L-1.022920534924014,9.996522815575519 L-0.9799054613337956,10.001326247356904 L-0.9357999644789032,10.00836174190649 L-0.890604044359337,10.017629299224279 L-0.7969409343261832,10.042860602164458 L-0.6989161312343339,10.077020156177442 L-0.5965296350837892,10.12010796126323 L-0.4897814458745491,10.172124017421822 L-0.3786715636066156,10.23306832465322 " />
			<path d="M1.57899223001044,11.857290527143238 L1.5551940962924606,11.776318975403749 L1.529115986657436,11.695617233449427 L1.500757901105366,11.615185301280274 L1.4701198396362507,11.535023178896287 L1.43720180225009,11.455130866297466 L1.4020037889468842,11.375508363483814 L1.364525799726633,11.296155670455327 L1.3247678345893363,11.21707278721201 L1.2827298935349944,11.138259713753857 L1.2384119765636072,11.059716450080874 L1.1918140836751747,10.981442996193056 L1.1429362148696969,10.903439352090407 L1.0917783701471737,10.825705517772924 L1.0383405495076052,10.74824149324061 L0.9246249804773344,10.594122873531482 " />
			<path d="M-1.5877102213312198,10.324116863066 L-1.5675580433215361,10.280396509701525 L-1.545363156510076,10.239774862922578 L-1.5211255608968395,10.202251922729161 L-1.4948452564818262,10.167827689121273 L-1.4665222432650362,10.136502162098912 L-1.43615652124647,10.108275341662079 L-1.4037480904261268,10.083147227810775 L-1.3692969508040078,10.061117820545 " />
			<path d="M-1.3692969508040074,10.061117820545 L-1.3190261553164357,10.03607150306835 L-1.264956934371015,10.01678724329206 L-1.207089287967745,10.003265041216133 L-1.1454232161066278,9.99550489684057 " />
			<path d="M0.9246249804773323,10.594122873531479 L0.8643330707455281,10.517999721870902 L0.8017328624144794,10.44320926702797 L0.736824355484186,10.369751509002683 L0.6696075499546479,10.29762644779504 L0.6000824458258651,10.22683408340504 L0.5282490430978377,10.157374415832683 L0.4541073417705657,10.089247445077971 L0.3776573418440491,10.022453171140903 L0.29889904331828776,9.95699159402148 L0.2178324461932819,9.8928627137197 L0.1344575504690313,9.830066530235563 L0.048774356145535935,9.76860304356907 L-0.039217136777203954,9.708472253720222 L-0.12951692829918837,9.649674160689017 L-0.22212501842041754,9.592208764475457 L-0.317041407140888,9.536076065079541 " />
			<path d="M-1.7164084892449334,11.428211208186468 L-1.7143975788087815,11.236057584822863 L-1.7083648475003264,11.059373055808843 L-1.6983102953195675,10.898157621144406 L-1.684233922266505,10.752411280829556 L-1.666135728341139,10.62213403486429 L-1.6440157135434694,10.507325883248608 L-1.6178738778734965,10.407986825982512 L-1.6032947772113961,10.364118207730558 L-1.5877102213312204,10.324116863066001 " />
			<path d="M-0.31704140714089135,9.53607606507954 L-0.40933086708737815,9.483953720217698 L-0.4994961258689159,9.435379782833511 L-0.5875371834855045,9.390354252926976 L-0.6734540399371441,9.348877130498096 L-0.7572466952238347,9.310948415546866 L-0.8389151493455762,9.276568108073292 L-0.9184594023023687,9.24573620807737 L-0.9958794540942121,9.218452715559101 L-1.0711753047211063,9.194717630518486 L-1.1443469541830518,9.174530952955523 L-1.2153944024800478,9.157892682870214 L-1.2843176496120952,9.144802820262559 L-1.3511166955791931,9.135261365132557 L-1.4157915403813424,9.129268317480207 L-1.4783421840185422,9.12682367730551 L-1.5387686264907912,9.127927444608467 " />
			<path d="M-1.7164084892449334,14.96968539196625 L-1.7164084892449334,11.428211208186468 " />
			<path d="M-1.0800123861770405,14.602261930548774 L-1.7164084892449334,14.96968539196625 " />
			<path d="M-1.5387686264907932,9.127927444608467 L-1.5894061228126768,9.13166081190734 L-1.6384489940631914,9.137873815969822 L-1.6858972402423371,9.146566456795913 L-1.731750861350114,9.157738734385616 L-1.776009857386522,9.171390648738925 L-1.818674228351561,9.187522199855845 L-1.859743974245231,9.206133387736374 L-1.8992190950675316,9.227224212380511 " />
			<path d="M-1.899219095067532,9.227224212380511 L-1.948457772250016,9.258562378901475 L-1.9949668721141547,9.294145029213146 L-2.038746394659948,9.333972163315526 L-2.0797963398873964,9.378043781208616 L-2.118116707796499,9.426359882892413 L-2.1537074983872566,9.478920468366919 L-2.186568711659669,9.535725537632135 L-2.2167003476137346,9.596775090688057 " />
			<path d="M-2.4197173336184674,14.563629841343745 L-1.7164084892449334,14.96968539196625 " />
			<path d="M-2.2167003476137355,9.596775090688059 L-2.241284435762746,9.654571617092506 L-2.2642824537085944,9.716505226869518 L-2.285694401451281,9.782575920019092 L-2.3055202789908056,9.85278369654123 L-2.323760086327168,9.927128556435932 L-2.340413823460369,10.005610499703195 L-2.3554814903904076,10.088229526343023 L-2.3689630871172844,10.174985636355414 L-2.3808586136409993,10.26587882974037 L-2.391168069961552,10.360909106497887 L-2.4070287719931716,10.563380910130613 L-2.4165451932121433,10.782401047253593 L-2.4197173336184674,11.01796951786682 " />
			<path d="M-2.4197173336184674,11.017969517866826 L-2.4197173336184674,14.563629841343745 " />
			<path d="M3.582127685288757,11.157068959803196 L2.9457315822208643,11.524492421220671 " />
			<path d="M6.9118134159561535,13.814310835555824 L2.9457315822208634,11.52449242122067 " />
			<path d="M7.548209519024047,13.446887374138349 L6.9118134159561535,13.814310835555824 " />
			<path d="M2.9457315822208643,11.524492421220671 L2.9457315822208643,17.66137321722677 " />
			<path d="M6.9118134159561535,14.53851300316091 L6.9118134159561535,13.814310835555824 " />
			<path d="M7.548209519024047,14.171089541743434 L6.9118134159561535,14.53851300316091 " />
			<path d="M7.424949206092602,19.512603795293078 L6.788553103024709,19.880027256710555 " />
			<path d="M2.9457315822208643,17.661373217226767 L6.78855310302471,19.880027256710555 " />
			<path d="M3.649040426594398,12.65475013944826 L6.9118134159561535,14.538513003160912 " />
			<path d="M7.424949206092602,18.788401627687993 L6.788553103024709,19.15582508910547 " />
			<path d="M6.788553103024709,19.880027256710555 L6.788553103024709,19.15582508910547 " />
			<path d="M3.649040426594398,14.743633848320732 L3.649040426594398,12.65475013944826 " />
			<path d="M4.285436529662292,14.376210386903256 L3.6490404265943983,14.743633848320732 " />
			<path d="M4.285436529662292,16.97580313882671 L3.6490404265943983,17.343226600244186 " />
			<path d="M6.788553103024709,19.15582508910547 L3.649040426594397,17.343226600244186 " />
			<path d="M6.589161420341492,16.441113495510685 L3.6490404265943983,14.74363384832073 " />
			<path d="M7.225557523409385,16.07369003409321 L6.589161420341492,16.441113495510688 " />
			<path d="M3.649040426594398,17.343226600244186 L3.649040426594398,15.463649876228676 " />
			<path d="M6.589161420341492,17.16112952341863 L6.589161420341492,16.441113495510685 " />
			<path d="M7.225557523409385,16.793706062001153 L6.589161420341492,17.16112952341863 " />
			<path d="M3.649040426594398,15.463649876228677 L6.589161420341492,17.161129523418634 " />
			<path d="M0.07071067811865461,-18.003749609456364 L21.99102089490163,-5.348052605076605 " />
			<path d="M21.991020894901627,-5.348052605076605 L21.991020894901627,19.963341403682904 " />
			<path d="M21.991020894901627,19.963341403682904 L0.07071067811865106,7.307644399303145 " />
			<path d="M0.07071067811865461,7.307644399303149 L0.07071067811865461,-18.003749609456364 " />
			<path d="M-19.498521281266502,3.9789756171272224 L-19.498521281266502,2.124515731294547 " />
			<path d="M-19.498521281266502,2.1245157312945473 L-18.34930012834686,2.788018873291114 " />
			<path d="M-18.34930012834686,2.788018873291115 L-18.236519207829165,2.8542449114685127 L-18.13200851051367,2.9179200207679665 L-18.03576803640038,2.9790442011894758 L-17.94779778548929,3.037617452733041 L-17.8680977577804,3.0936397753986618 L-17.796667953273715,3.1471111691863385 L-17.73350837196923,3.198031634096071 L-17.678619013866946,3.246401170127858 " />
			<path d="M-17.678619013866946,3.246401170127859 L-17.613618458219506,3.308849871312917 L-17.552753014173163,3.372704853802482 L-17.496022681727926,3.437966117596555 L-17.443427460883786,3.5046336626951358 L-17.394967351640748,3.572707489098224 L-17.35064235399881,3.64218759680582 L-17.310452467957973,3.713073985817924 L-17.27439769351824,3.7853666561345336 " />
			<path d="M-17.27439769351824,3.785366656134535 L-17.242534676044002,3.8588366782409667 L-17.214920060899665,3.933255122622531 L-17.191553848085228,4.008621989279229 L-17.172436037600683,4.08493727821106 L-17.15756662944604,4.162200989418024 L-17.146945623621296,4.240413122900121 L-17.14057302012645,4.319573678657351 L-17.1384488189615,4.399682656689713 " />
			<path d="M-17.1384488189615,4.3996826566897145 L-17.140431406715454,4.473790411015632 L-17.14637916997731,4.543319575047804 L-17.15629210874707,4.60827014878623 L-17.17017022302474,4.668642132230909 L-17.18801351281031,4.7244355253818435 L-17.209821978103786,4.775650328239031 L-17.23559561890517,4.822286540802472 L-17.265334435214456,4.864344163072167 " />
			<path d="M-17.265334435214456,4.864344163072168 L-17.286019445286684,4.888127598103692 L-17.30805670422358,4.90930862898178 L-17.331446212025156,4.927887255706432 L-17.356187968691405,4.943863478277648 " />
			<path d="M-17.356187968691405,4.943863478277648 L-17.384572156360353,4.958258403607684 L-17.414549318933684,4.9695876473048575 L-17.446119456411402,4.9778512093691685 L-17.479282568793504,4.983049089800618 L-17.514038656079993,4.985181288599204 L-17.550387718270866,4.984247805764928 L-17.58832975536612,4.9802486412977895 L-17.62786476736576,4.973183795197789 " />
			<path d="M-17.62786476736576,4.973183795197789 L-17.692043965229423,4.956243011110929 L-17.76675920087123,4.930537497033183 L-17.852010474291188,4.896067252964552 L-17.94779778548929,4.852832278905035 L-18.05412113446554,4.800832574854635 L-18.17098052121994,4.740068140813348 L-18.298375945752483,4.670538976781176 L-18.436307408063172,4.5922450827581205 " />
			<path d="M-18.436307408063175,4.592245082758119 L-19.498521281266502,3.9789756171272224 " />
			<path d="M-19.498521281266502,1.4003135636894617 L-19.498521281266502,-0.709500843668706 " />
			<path d="M-19.498521281266502,-0.7095008436687051 L-18.175285568914234,0.054469651059202984 " />
			<path d="M-18.175285568914234,0.05446965105920376 L-18.017584874428415,0.14734962558947973 L-17.88526130319319,0.2292409834147653 L-17.778314855208553,0.30014372453506044 L-17.69674553047451,0.36005784895036475 " />
			<path d="M-17.69674553047451,0.3600578489503652 L-17.637267897855935,0.4080022301691632 L-17.580282661270903,0.45660069571563916 L-17.52578982071941,0.505853245589793 L-17.47378937620146,0.555759879791625 L-17.424281327717043,0.6063205983211348 L-17.377265675266173,0.6575354011783228 L-17.33274241884884,0.7094042883631886 L-17.29071155846505,0.7619272598757314 " />
			<path d="M-17.29071155846505,0.7619272598757323 L-17.250833221928403,0.8159219211255512 L-17.212767537052517,0.872205877522243 L-17.176514503837385,0.9307791290658081 L-17.142074122283013,0.9916416757562461 L-17.109446392389394,1.0547935175935572 L-17.07863131415653,1.1202346545777413 L-17.04962888758443,1.1879650867087985 L-17.02243911267308,1.2579848139867276 " />
			<path d="M-17.02243911267308,1.257984813986729 L-16.997798379159672,1.3292800057036314 L-16.976443076781383,1.4008368311516048 L-16.95837320553822,1.4726552903306498 L-16.94358876543017,1.5447353832407658 L-16.93208975645725,1.617077109881953 L-16.923876178619444,1.6896804702542112 L-16.918948031916763,1.762545464357541 L-16.917305316349204,1.8356720921919403 " />
			<path d="M-16.917305316349204,1.8356720921919416 L-16.919684421653947,1.918708097590664 L-16.926821737568176,1.9961843862041238 L-16.93871726409189,2.06810095803232 L-16.95537100122509,2.1344578130752536 L-16.976782948967777,2.195254951332924 L-17.00295310731995,2.2504923728053314 L-17.033881476281607,2.300170077492476 L-17.069568055852752,2.3442880653943563 " />
			<path d="M-17.069568055852752,2.344288065394357 L-17.09066620113347,2.3656195817656513 L-17.112838583241082,2.3849568814826796 L-17.136085202175597,2.4022999645454424 L-17.160406057937006,2.4176488309539392 " />
			<path d="M-17.160406057937006,2.4176488309539397 L-17.194978773975805,2.435222228786439 L-17.23151320810609,2.449153886928899 L-17.27000936032786,2.45944380538132 L-17.31046723064112,2.4660919841437012 L-17.352886819045864,2.469098423216043 L-17.397268125542098,2.468463122598345 L-17.443611150129815,2.464186082290608 L-17.491915892809022,2.456267302292831 " />
			<path d="M-17.491915892809022,2.456267302292831 L-17.563147438540312,2.4391793492322433 L-17.641799527007826,2.4146021306197425 L-17.727872158211564,2.3825356464553287 L-17.821365332151522,2.3429798967390014 L-17.922279048827704,2.295934881470761 L-18.030613308240106,2.2414006006506075 L-18.146368110388728,2.179377054278541 L-18.26954345527357,2.1098642423545626 " />
			<path d="M-18.269543455273574,2.1098642423545613 L-19.498521281266502,1.4003135636894632 " />
			<path d="M-5.896383218949493,7.524635940604144 L-5.72599396283838,8.213255920783546 " />
			<path d="M-5.7259939628383805,8.213255920783546 L-5.650698112211486,8.231382232714322 L-5.5770732998343515,8.247039376308114 L-5.505119525706977,8.260227351564923 L-5.434836789829362,8.270946158484746 L-5.366225092201507,8.279195797067585 L-5.299284432823413,8.28497626731344 L-5.2340148116950775,8.288287569222309 L-5.170416228816503,8.289129702794195 L-5.108488684187687,8.287502668029095 L-5.048232177808632,8.283406464927012 L-4.989646709679338,8.276841093487944 L-4.9327322797998026,8.267806553711893 L-4.877488888170028,8.256302845598855 L-4.823916534790012,8.242329969148834 L-4.772015219659757,8.225887924361828 L-4.721784942779263,8.206976711237838 " />
			<path d="M-4.721784942779261,8.206976711237838 L-4.646715673609961,8.334514979080952 L-4.576489583096746,8.464391598395515 L-4.511106671239613,8.596606569181528 L-4.450566938038565,8.73115989143899 L-4.3948703834936005,8.8680515651679 L-4.34401700760472,9.007281590368258 L-4.298006810371923,9.148849967040068 L-4.256839791795211,9.292756695183323 L-4.220515951874582,9.43900177479803 L-4.189035290610037,9.587585205884183 L-4.162397808001575,9.738506988441786 L-4.140603504049198,9.891767122470839 L-4.1236523787529045,10.04736560797134 L-4.111544432112695,10.20530244494329 L-4.104279664128569,10.365577633386689 L-4.1018580748005276,10.52819117330153 " />
			<path d="M-4.1018580748005276,10.528191173301536 L-4.105285119346646,10.709552405258455 L-4.115566252984999,10.88106966808382 L-4.132701475715588,11.042742961777629 L-4.143839370490471,11.119888120200201 L-4.1566907875384125,11.194572286339886 L-4.171255726859413,11.26679546019668 L-4.187534188453473,11.336557641770588 L-4.2055261723205914,11.403858831061607 L-4.225231678460769,11.468699028069738 L-4.246650706874005,11.531078232794979 L-4.2697832575603005,11.590996445237332 L-4.294629330519655,11.648453665396797 L-4.321188925752067,11.70344989327337 " />
			<path d="M-4.321188925752068,11.703449893273373 L-4.356857596976341,11.768692960172025 L-4.395026005913286,11.829425951316567 L-4.435694152562904,11.885648866707001 L-4.478862036925195,11.937361706343324 L-4.524529659000158,11.98456447022554 L-4.572697018787793,12.027257158353645 L-4.623364116288101,12.065439770727641 L-4.676530951501081,12.099112307347529 " />
			<path d="M-4.676530951501082,12.099112307347529 L-4.742839095126985,12.133206926995161 L-4.812664586695419,12.16095547857575 L-4.886007426206384,12.182357962089297 L-4.962867613659878,12.1974143775358 " />
			<path d="M-4.9628676136598795,12.1974143775358 L-5.016064691500754,12.203959308839629 L-5.0700689657843085,12.207634445155769 L-5.124880436510544,12.208439786484222 L-5.180499103679461,12.206375332824988 L-5.236924967291057,12.201441084178068 L-5.294158027345335,12.193637040543459 L-5.352198283842293,12.182963201921163 L-5.411045736781932,12.16941956831118 L-5.470700386164252,12.153006139713511 L-5.531162231989252,12.133722916128153 L-5.592431274256932,12.11156989755511 L-5.654507512967294,12.086547083994379 L-5.717390948120336,12.058654475445959 L-5.781081579716059,12.027892071909854 L-5.845579407754462,11.99425987338606 L-5.910884432235544,11.957757879874581 " />
			<path d="M-5.910884432235546,11.95775787987458 L-6.008172845590213,11.899160100168727 L-6.10336538046213,11.836915800336069 L-6.1964620368512975,11.771024980376605 L-6.287462814757715,11.701487640290338 L-6.3763677141813835,11.628303780077266 L-6.4631767351223015,11.551473399737388 L-6.54788987758047,11.470996499270706 L-6.6305071415558885,11.386873078677219 L-6.7110285270485575,11.299103137956926 L-6.789454034058477,11.207686677109828 L-6.865783662585646,11.112623696135927 L-6.940017412630066,11.013914195035222 L-7.012155284191737,10.911558173807709 L-7.082197277270657,10.805555632453393 L-7.150143391866827,10.695906570972271 L-7.215993627980247,10.58261098936435 " />
			<path d="M-7.215993627980248,10.582610989364346 L-7.278770853075042,10.46626573957862 L-7.337497934615334,10.347467673564104 L-7.392174872601123,10.226216791320793 L-7.442801667032409,10.10251309284869 L-7.489378317909192,9.976356578147795 L-7.5319048252314715,9.84774724721811 L-7.570381188999249,9.716685100059628 L-7.6048074092125235,9.583170136672356 L-7.635183485871295,9.447202357056291 L-7.661509418975563,9.308781761211433 L-7.68378520852533,9.167908349137784 L-7.7020108545205925,9.02458212083534 L-7.7161863569613525,8.878803076304106 L-7.72631171584761,8.730571215544078 L-7.732386931179364,8.579886538555257 L-7.734412002956615,8.426749045337651 " />
			<path d="M-7.734412002956615,8.426749045337646 L-7.732408173191013,8.280426293209029 L-7.726396683894207,8.14076702516863 L-7.716377535066198,8.007771241216453 L-7.702350726706984,7.881438941352495 L-7.684316258816566,7.7617701255767555 L-7.662274131394946,7.648764793889237 L-7.6362243444421205,7.542422946289937 L-7.606166897958091,7.442744582778857 L-7.572101791942858,7.349729703355997 L-7.534029026396421,7.263378308021357 L-7.49194860131878,7.183690396774937 L-7.445860516709936,7.110665969616736 L-7.395764772569887,7.044305026546755 L-7.3416613688986345,6.984607567564993 L-7.283550305696179,6.931573592671451 L-7.22143158296252,6.88520310186613 " />
			<path d="M-7.221431582962518,6.885203101866129 L-7.169763649896566,6.852981172784982 " />
			<path d="M-7.169763649896566,6.852981172784981 L-7.10614313351719,6.819668606624516 L-7.040514692507888,6.792034276832752 L-6.9728783268686625,6.770078183409691 L-6.903234036599511,6.75380032635533 L-6.831581821700436,6.743200705669673 L-6.757921682171434,6.7382793213527155 L-6.682253618012508,6.739036173404461 L-6.604577629223657,6.745471261824908 L-6.524893715804881,6.757584586614056 L-6.443201877756179,6.775376147771905 L-6.359502115077553,6.798845945298457 L-6.273794427769002,6.827993979193711 L-6.186078815830525,6.862820249457666 L-6.096355279262124,6.903324756090323 L-6.004623818063798,6.949507499091681 L-5.91088443223555,7.00136847846174 " />
			<path d="M-5.910884432235546,7.001368478461742 L-5.8173062902489905,7.057946772805889 L-5.725087637008002,7.118842023712711 L-5.63422847251258,7.184054231182207 L-5.544728796762727,7.253583395214379 L-5.45658860975844,7.327429515809226 L-5.369807911499722,7.405592592966748 L-5.28438670198657,7.488072626686944 L-5.200324981218987,7.5748696169698135 " />
			<path d="M-5.200324981218985,7.574869616969815 L-5.283367085427394,7.586446909569716 L-5.367542096923776,7.592922344413728 L-5.45285001570813,7.5942959215018515 L-5.539290841780457,7.590567640834087 L-5.626864575140757,7.581737502410434 L-5.71557121578903,7.567805506230893 L-5.805410763725275,7.548771652295462 L-5.896383218949492,7.524635940604145 " />
			<path d="M0.07071067811865461,7.307644399303149 L1.131370849898476,6.695271963607354 " />
			<path d="M21.991020894901627,18.738596532291314 L1.1313708498984738,6.695271963607352 " />
			<path d="M1.131370849898476,6.695271963607354 L1.131370849898476,-17.391377173760567 " />
			<path d="M-18.86212517819861,2.491939192712019 L-18.86212517819861,3.6115521557097434 " />
			<path d="M-18.86212517819861,3.611552155709745 L-19.498521281266502,3.978975617127222 " />
			<path d="M-17.799911304995284,4.2248216213406415 L-17.625325670500043,4.323423880053337 L-17.456766549190302,4.413479265286468 L-17.29643529617344,4.4924186576039835 L-17.220439026882694,4.526566964517824 L-17.148003635571108,4.556364568783387 " />
			<path d="M-18.86212517819861,3.611552155709746 L-17.799911304995284,4.224821621340642 " />
			<path d="M-18.86212517819861,-0.3420773822512295 L-18.86212517819861,1.0328901022719847 " />
			<path d="M-18.86212517819861,1.032890102271985 L-19.498521281266502,1.400313563689462 " />
			<path d="M-17.633147352205683,1.7424407809370843 L-17.446083267924077,1.8466221018042372 L-17.35513132142128,1.8940812015561619 L-17.26622311418831,1.9379857209715776 L-17.179691256569537,1.9779013749937975 L-17.095940712768776,2.0133258162807617 L-17.01544926713982,2.0436878866387955 L-16.93876805380405,2.0683467683776358 " />
			<path d="M-18.862125178198603,1.0328901022719865 L-17.633147352205675,1.742440780937084 " />
			<path d="M-5.496183421181058,7.293580479632904 L-5.896383218949494,7.524635940604144 " />
			<path d="M-5.274488329167653,11.590334418457102 L-5.159099547937613,11.653165624044549 L-5.04479925318789,11.70759303541496 L-4.931929156449264,11.75316963686096 L-4.8761388005868405,11.77251804190942 L-4.820836489191363,11.789518749836587 L-4.766066044440503,11.804137960177124 L-4.711871295034602,11.816348016478429 L-4.658295991578293,11.826127843285661 L-4.60538344753835,11.833463418482562 L-4.553171960506022,11.838348536609088 L-4.5016985675565895,11.840784022022325 L-4.450998343380568,11.840777862781579 L-4.401103367382301,11.838345127101109 " />
			<path d="M-6.579597524912355,10.215187527946869 L-6.514832394546764,10.326674017344692 L-6.447222765093689,10.435908983518514 L-6.376815357553152,10.542586218353586 L-6.303683815359582,10.646404881657851 L-6.227931636181875,10.747072767745943 L-6.1496951037234675,10.844309572023183 L-6.069144415494639,10.937852194791503 L-5.986466293075274,11.027478947028865 L-5.901872530693006,11.112999674678269 L-5.815583691906704,11.194271633526943 L-5.727823056347926,11.27120023726999 L-5.638814975278969,11.343734516826965 L-5.548782686176615,11.411862977470003 L-5.457929354700984,11.475620878465028 L-5.366440700759054,11.535079057048037 L-5.2744883291676565,11.5903344184571 " />
			<path d="M-7.098015899888723,8.059325583920169 L-7.096584358478508,8.188245465655104 L-7.092151664892584,8.318456759936954 L-7.084498835096616,8.449949805633032 L-7.073391045054376,8.582697579027363 L-7.058578176765253,8.716652251077692 L-7.039797143828003,8.851737221583225 L-7.016774920885783,8.987841896349819 L-6.989233868887543,9.124814439944046 L-6.956898724716171,9.262455337291104 L-6.919508157020066,9.400505107880539 L-6.876826717366381,9.53864220560701 L-6.8286599136818085,9.67648252627792 L-6.774869284845423,9.813582429498204 L-6.715394766305732,9.949432777436542 L-6.650263494546062,10.083487923602602 L-6.579597524912358,10.215187527946863 " />
			<path d="M-6.807899585902727,6.740981415656901 L-6.846887859840873,6.801517546606222 L-6.882692167756206,6.866007717748972 L-6.91536302205843,6.9342162946668315 L-6.944968878293823,7.005903102402336 L-6.971593325328803,7.0808285059518745 L-6.995331701637835,7.158757221941429 L-7.016287476756558,7.239460875347134 L-7.034569630358776,7.322719397481323 L-7.050292314808612,7.4083336324912965 L-7.063569766664639,7.496116091246452 L-7.074514921208535,7.585890362883887 L-7.083238529866831,7.677491856588285 L-7.089848387454397,7.770768449405267 L-7.094448669239681,7.865581040088242 L-7.098015899888723,8.059325583920163 " />
			<path d="M-31.81980515339464,-44.49906366056108 L-34.36538956566621,-43.02936981489117 " />
			<path d="M31.81980515339464,-7.756717518813399 L29.274220741123067,-6.2870236731434925 " />
			<path d="M33.23401871576774,-5.307227776030221 L30.688434303496166,-3.8375339303603133 " />
			<path d="M33.23401871576774,43.682567079633344 L30.688434303496166,45.15226092530325 " />
			<path d="M-17.538889465846342,-1.0371559779633583 L-18.175285568914234,-0.6697325165458815 " />
			<path d="M-16.681505230308503,-0.43958453619673477 L-17.317901333376394,-0.07216107477925793 " />
			<path d="M-16.099644047205658,0.1998483025412805 L-16.73604015027355,0.5672717639587573 " />
			<path d="M-15.709923940143003,0.9962613799220181 L-16.346320043210895,1.363684841339495 " />
			<path d="M-16.018074722471614,5.2179832644869215 L-16.654470825539505,5.585406725904399 " />
			<path d="M-15.552223245657185,1.888955670336956 L-16.188619348725076,2.256379131754433 " />
			<path d="M-15.809619781484612,4.528316749383236 L-16.446015884552505,4.895740210800713 " />
			<path d="M-15.811432433145368,2.6686241889291358 L-16.44782853621326,3.0360476503466125 " />
			<path d="M-15.994510250881778,3.6806234607125425 L-16.63090635394967,4.04804692213002 " />
			<path d="M-12.25137538970234,3.7298053010870316 L-12.51437443237159,3.8816478691687366 " />
			<path d="M-11.703963769871068,2.4697825533150235 L-12.340359872938961,2.8372060147325002 " />
			<path d="M-10.494925112146463,2.9250252453789143 L-11.131321215214356,3.292448706796391 " />
			<path d="M-9.470776923819022,3.7570205101853347 L-10.107173026886915,4.124443971602812 " />
			<path d="M-8.772906034427757,4.8339049472744 L-9.40930213749565,5.201328408691877 " />
			<path d="M-8.530010711886382,5.897184430347762 L-9.166406814954275,6.264607891765239 " />
			<path d="M-8.751154214498678,6.642317296438542 L-9.387550317566571,7.00974075785602 " />
			<path d="M-10.77769877122448,5.698342794733647 L-11.414094874292374,6.065766256151124 " />
			<path d="M-11.879790980964453,6.834879722506946 L-12.516187084032346,7.202303183924423 " />
			<path d="M-11.58795406358265,7.654316568221949 L-12.224350166650543,8.021740029639426 " />
			<path d="M-10.658063761614551,8.461194994845535 L-11.294459864682445,8.82861845626301 " />
			<path d="M-10.241622547600805,8.99310532195523 L-10.368194866035855,9.066181884075661 " />
			<path d="M-8.950545897181897,9.296329864424811 L-9.58694200024979,9.663753325842286 " />
			<path d="M-2.939792990113242,9.101674368507837 L-3.5761890931811346,9.469097829925312 " />
			<path d="M-2.740401307430023,10.579381681597981 L-3.376797410497916,10.946805143015457 " />
			<path d="M-5.292614845775218,5.928580478076306 L-5.9290109488431115,6.296003939493783 " />
			<path d="M-3.05036474141939,12.039297900975285 L-3.686760844487283,12.40672136239276 " />
			<path d="M-6.601349344841433,5.574851673668041 L-7.237745447909326,5.942275135085518 " />
			<path d="M2.3966534991539854,13.06385559185011 L1.7602573960860926,13.431279053267586 " />
			<path d="M2.215388333078333,11.489867065725763 L1.57899223001044,11.857290527143238 " />
			<path d="M1.5610210835452252,10.226699412114003 L0.9246249804773323,10.594122873531479 " />
			<path d="M-1.0206477672711003,9.99672320256706 L-1.5877102213312198,10.324116863066 " />
			<path d="M0.31935469592700155,9.168652603662064 L-0.31704140714089135,9.53607606507954 " />
			<path d="M-1.0800123861770405,11.060787746768993 L-1.7164084892449334,11.428211208186468 " />
			<path d="M-0.9023725234228999,8.760503983190992 L-1.5387686264907927,9.127927444608467 " />
			<path d="M-17.185616225565994,4.717851480540974 L-17.62786476736576,4.973183795197789 " />
			<path d="M-17.799911304995284,4.2248216213406415 L-18.436307408063175,4.592245082758119 " />
			<path d="M-16.959937813012992,2.1491296147196133 L-17.491915892809022,2.456267302292831 " />
			<path d="M-17.633147352205683,1.7424407809370843 L-18.269543455273574,2.1098642423545613 " />
			<path d="M-4.446471856422773,11.899273148086577 L-4.96286761365988,12.1974143775358 " />
			<path d="M-5.274488329167653,11.590334418457104 L-5.910884432235546,11.95775787987458 " />
			<path d="M-6.579597524912355,10.21518752794687 L-7.215993627980248,10.582610989364346 " />
			<path d="M-7.098015899888722,8.059325583920169 L-7.734412002956615,8.426749045337646 " />
			<path d="M-7.116691165254782,6.824731193507533 L-7.221431582962518,6.885203101866129 " />
			<path d="M-32.81980515339464,-44.5981213062745 L-35.36538956566621,-43.12842746060459 " />
			<path d="M32.81980515339464,44.5981213062745 L30.274220741123067,46.06781515194441 " />
			<path d="M-16.199768208882983,5.378623407874306 L-16.83616431195087,5.746046869291782 " />
			<path d="M-15.919872501557572,2.749422934722385 L-16.556268604625465,3.116846396139861 " />
			<path d="M-12.253669709839151,2.576869279442465 L-12.890065812907043,2.9442927408599413 " />
			<path d="M-8.90540246824116,6.7683572177302205 L-9.541798571309052,7.135780679147697 " />
			<path d="M-12.203717497278085,5.589192472552381 L-12.840113600345976,5.956615933969857 " />
			<path d="M-9.13175327499166,9.44887542389453 L-9.768149378059551,9.816298885312005 " />
			<path d="M-3.4946117743779115,12.505605830248646 L-4.131007877445802,12.873029291666121 " />
			<path d="M-7.059111923294509,5.71956840175474 L-7.6955080263624005,6.086991863172217 " />
			<path d="M-1.2628229919996392,8.859800750963036 L-1.8992190950675307,9.227224212380511 " />

       </g>
    </g>
    
</svg>
