<?xml version="1.0" encoding="UTF-8" standalone="no"?>
<svg
   xmlns:svg="http://www.w3.org/2000/svg"
   xmlns="http://www.w3.org/2000/svg"
   width="960.0"
   height="720.0"

>
    <g transform="scale(7.052026965346288, -7.052026965346288)   translate(34.09171113694224,-42.057564671131814)" stroke-width="0.7"  fill="none">
       <!-- hidden lines -->
       <g  stroke="rgb(160,160,160)" fill="none" stroke-dasharray="0.7,0.7" >

       </g>

       <!-- solid lines -->
       <g  stroke="rgb(37,42,48)" fill="none">
			<path d="M-30.688434303496166,-36.57904682556213 L-30.688434303496166,4.082482904638631 " />
			<path d="M-30.688434303496162,-36.57904682556214 L-30.687412214193493,-36.626533028015 L-30.684348408588136,-36.672724624978784 L-30.679250267656155,-36.7175103368505 L-30.672130073265595,-36.76078227092749 L-30.663004978588404,-36.80243618133039 L-30.651896966776917,-36.84237172014058 L-30.638832798004543,-36.880492679147125 L-30.623843944998132,-36.91670722162078 L-30.60696651721745,-36.950928103556706 L-30.58824117386431,-36.98307288385293 L-30.567713025930992,-37.01306412291816 L-30.545431527523924,-37.04082956923057 L-30.521450356724394,-37.06630233339802 L-30.49582728627336,-37.08942104930049 L-30.468624044391863,-37.11013002192641 L-30.43990616607231,-37.12837936154683 " />
			<path d="M-30.43990616607231,-37.12837936154683 L-30.40974283519896,-37.144125103904145 L-30.378206717877887,-37.15732931612585 L-30.34537378737796,-37.16796018810817 L-30.31132314110457,-37.175992109149334 L-30.276136810047074,-37.181405729648034 L-30.239899561158953,-37.18418800771831 L-30.202698693146786,-37.18433224060861 L-30.164623826160025,-37.18183808084925 L-30.125766685888202,-37.17671153708957 L-30.08622088258572,-37.1689649596225 L-30.046081685556537,-37.15861701063169 L-30.005445793642075,-37.145692619232626 L-29.964411102265235,-37.13022292141624 L-29.923076467591763,-37.11224518503955 L-29.881541468377073,-37.09180272004415 L-29.83990616607231,-37.06894477411877 " />
			<path d="M-29.839906166072307,-37.06894477411876 L0.6363961030678986,-19.47344345512626 " />
			<path d="M4.650711734328457,13.911957527491232 L4.650711734328457,14.587879550589312 " />
			<path d="M1.720499902993497,12.220198937887371 L4.650711734328457,13.911957527491236 " />
			<path d="M1.7204999029934984,11.11912459354841 L1.7204999029934984,12.220198937887371 " />
			<path d="M4.464612830490786,11.37822670680277 L4.464612830490786,12.050241666183519 " />
			<path d="M1.7204999029935006,9.793912369425483 L4.46461283049079,11.378226706802774 " />
			<path d="M1.7204999029934984,8.49748483922002 L1.7204999029934984,9.793912369425481 " />
			<path d="M23.61736649163069,20.167465548914834 L23.61736649163069,-6.205374015050719 " />
			<path d="M23.617366491630705,-6.205374015050705 L27.294321753800737,-4.082482904638624 " />
			<path d="M28.142849891224593,-2.612789058968726 L28.138763996316563,-2.7111848434354364 L28.126545660994022,-2.8133510077591843 L28.106312554505344,-2.9183036359278267 L28.07825953272656,-3.0250319767591574 L28.04265676159274,-3.1325081779873245 L27.99984711525235,-3.2396971850420337 L27.950242874001788,-3.345566709189876 L27.894321753800735,-3.4490971690391374 L27.832622305606318,-3.5492915096659643 L27.765738728832996,-3.645184804798323 L27.69431514888738,-3.735853549583481 L27.61903941388845,-3.8204245544445787 L27.540636470314148,-3.8980833543735907 L27.4598613813705,-3.9680820526745815 L27.37749205532019,-4.029746523617733 L27.29432175380074,-4.082482904638629 " />
			<path d="M28.142849891224593,-2.612789058968726 L28.142849891224593,38.04874067123203 " />
			<path d="M28.142849891224593,38.04874067123204 L28.14182780192192,38.096226873684905 L28.138763996316563,38.14241847064869 L28.13366585538458,38.18720418252041 L28.126545660994022,38.2304761165974 L28.11742056631683,38.2721300270003 L28.106312554505347,38.312065565810485 L28.09324838573297,38.35018652481703 L28.07825953272656,38.38640106729069 L28.061382104945878,38.420621949226614 L28.04265676159274,38.452766729522835 L28.02212861365942,38.48275796858807 L27.99984711525235,38.510523414900476 L27.97586594445282,38.53599617906793 L27.95024287400179,38.5591148949704 L27.92303963212029,38.57982386759632 L27.894321753800742,38.59807320721673 " />
			<path d="M27.894321753800735,38.598073207216736 L27.86415842292739,38.61381894957405 L27.832622305606318,38.62702316179576 L27.799789375106386,38.63765403377808 L27.765738728832996,38.645685954819236 L27.730552397775504,38.65109957531794 L27.694315148887384,38.65388185338822 L27.657114280875216,38.65402608627852 L27.61903941388845,38.65153192651916 L27.580182273616632,38.646405382759475 L27.540636470314148,38.63865880529241 L27.500497273284964,38.628310856301596 L27.4598613813705,38.615386464902535 L27.41882668999366,38.59991676708615 L27.37749205532019,38.58193903070946 L27.3359570561055,38.56149656571406 L27.294321753800734,38.53863861978868 " />
			<path d="M6.505382386916246,26.536138880151107 L27.294321753800737,38.53863861978868 " />
			<path d="M6.505382386916238,26.536138880151103 L6.505382386916238,30.618621784789735 " />
			<path d="M-9.050966799187808,21.637159394584746 L6.50538238691624,30.618621784789735 " />
			<path d="M-9.050966799187808,17.554676489946115 L-9.050966799187808,21.637159394584746 " />
			<path d="M-29.839906166072307,5.552176750308541 L-9.050966799187805,17.554676489946118 " />
			<path d="M-30.688434303496166,4.08248290463863 L-30.684348408588136,4.18087868910534 L-30.672130073265595,4.283044853429089 L-30.65189696677692,4.387997481597732 L-30.623843944998132,4.4947258224290625 L-30.58824117386431,4.602202023657231 L-30.545431527523924,4.70939103071194 L-30.49582728627336,4.8152605548597815 L-30.43990616607231,4.9187910147090435 L-30.37820671787789,5.018985355335871 L-30.31132314110457,5.114878650468229 L-30.239899561158957,5.205547395253387 L-30.164623826160025,5.290118400114485 L-30.08622088258572,5.367777200043497 L-30.005445793642075,5.437775898344489 L-29.923076467591763,5.49944036928764 L-29.83990616607231,5.552176750308538 " />
			<path d="M-14.727259579823158,-0.08119117612594184 L-13.83460632197174,0.4341824225875701 " />
			<path d="M-12.626033774674188,-0.3175685310244063 L-12.626033774674188,1.8078741312030804 " />
			<path d="M-13.624200622530786,-1.5639218568526543 L-13.491620476819397,-1.4255459505286316 L-13.361082718553817,-1.281526944649504 L-13.232708795953403,-1.1321960543052376 L-13.106598178582326,-0.9778906638107632 L-12.982828658517487,-0.8189484051401905 L-12.861456308146877,-0.6557008323544373 L-12.742518154436816,-0.488470671252477 L-12.62603377467419,-0.3175685310244074 " />
			<path d="M-14.679888949755387,-2.3980799605025993 L-14.54499546795819,-2.3166904228899345 L-14.41055122229084,-2.2285009466337047 L-14.276755575813892,-2.1335946832857164 L-14.143805987718743,-2.032094674354005 L-14.011896797544232,-1.9241641568904497 L-13.88121348548645,-1.810001686521769 L-13.75192827546593,-1.6898356190837487 L-13.624200622530788,-1.5639218568526565 " />
			<path d="M-16.007958399869672,-2.8034378211755833 L-15.931412998931366,-2.8037752472807305 L-15.853692458743215,-2.8005550919037687 L-15.774856057084207,-2.7937715165040418 L-15.694964660243842,-2.7834297180425125 L-15.614089622688212,-2.769547255118162 L-15.532303332590907,-2.7521532986600366 L-15.449677954922977,-2.7312877010789203 L-15.366285273040475,-2.7070001491676643 L-15.282196533463363,-2.679349336654332 L-15.197482293845788,-2.648402156408149 L-15.112212274137741,-2.6142329122982657 L-15.026455210938087,-2.576922550705331 L-14.940278715038941,-2.536557911685873 L-14.853749132161454,-2.4932309997894966 L-14.766931406882938,-2.4470382745288806 L-14.67988894975539,-2.398079960502598 " />
			<path d="M-16.52932558192435,-2.6655520287312067 L-16.471203709227872,-2.6964842943250567 L-16.41087435347771,-2.7234625133321186 L-16.348426144442804,-2.7464843768135485 L-16.28395587704056,-2.765566456757805 L-16.217566025107587,-2.7807436486280546 L-16.149363443965168,-2.7920676948683374 L-16.07945741800217,-2.7996056143023904 L-16.007958399869676,-2.803437821175578 " />
			<path d="M-13.076054760318009,3.6891253110974453 L-13.126862981352865,3.7294901823444615 L-13.181183127732726,3.7645133906332644 " />
			<path d="M-12.700473336209257,2.968272055250071 L-12.731818594969079,3.0810795864307083 L-12.767179568713493,3.188557672011941 L-12.806791132978269,3.290172437422136 L-12.850884099877282,3.3853483735268584 L-12.899678428128725,3.4734749901918915 L-12.92590122142539,3.514695546414303 L-12.953370732848507,3.553912475057661 L-12.982106202636336,3.5910441601188583 L-13.012123973565991,3.626009615733354 L-13.043437067230853,3.6587291970485962 L-13.076054760318007,3.6891253110974445 " />
			<path d="M-13.292606212056388,2.4388649215518727 L-12.700473336209255,2.96827205525008 " />
			<path d="M-14.043769060273895,3.0932980942046333 L-13.990335807457784,3.0967177549440223 " />
			<path d="M-14.727259579823162,2.8491066118715125 L-14.63713641089694,2.898925843103335 L-14.548069416319166,2.943613187069669 L-14.46019572400466,2.9829567528525036 L-14.373657432101739,3.0167582301331985 L-14.288599849551264,3.044837265153622 L-14.205169849401289,3.067035856709956 L-14.12351264675318,3.0832229266135425 L-14.043769060273897,3.0932980942046333 " />
			<path d="M-15.505491359507964,2.241558203826709 L-15.41677039851228,2.33177889357421 L-15.325038959765356,2.417831350850028 L-15.230597471645224,2.4997176809364254 L-15.133735942463987,2.577478814408188 L-15.0347285483693,2.6511882890858995 L-14.933828415564555,2.7209471025494687 L-14.831268334407827,2.7868752225576556 L-14.727259579823164,2.849106611871511 " />
			<path d="M-16.03502733133697,1.519728182049998 L-15.98109578059583,1.6155999523365003 L-15.923289240704186,1.7100801101042704 L-15.86177872723862,1.8030339507664586 L-15.796751211673389,1.8943455891578511 L-15.728404714310535,1.9839190196660654 L-15.656942629144883,2.071679506462894 L-15.582570291292182,2.1575716384778962 L-15.505491359507966,2.2415582038267075 " />
			<path d="M-16.3480118514276,0.7725022461106487 L-16.318568336949873,0.8661863564241252 L-16.286289320959675,0.9599293846420806 L-16.25119961620395,1.053661093392913 L-16.21333283184619,1.147310367133294 L-16.17273024792357,1.2408079506642873 L-16.129440405933885,1.3340866110330318 L-16.083518760550433,1.4270811109239574 L-16.03502733133697,1.5197281820499962 " />
			<path d="M-16.53749437169868,-0.4894793345869227 L-16.534700701062977,-0.3383291361804452 L-16.526194871096582,-0.18490937977475352 L-16.511807591368157,-0.029376631585182722 L-16.491398155352687,0.1280828698008235 L-16.464859837350232,0.28725404656687303 L-16.4321250927879,0.44789390339745455 L-16.393169071436827,0.6097373439664104 L-16.3480118514276,0.7725022461106458 " />
			<path d="M-16.30910026244336,-1.6391328334112556 L-16.33920168804062,-1.5849759432531516 L-16.366933110446585,-1.527802229281192 L-16.392332097367323,-1.4677572402861268 L-16.415444951064245,-1.4049886810551473 L-16.436325169994866,-1.339644611798787 L-16.455032036643466,-1.2718717957028667 L-16.471629331541628,-1.2018141946054928 L-16.48618414485833,-1.1296117059466966 L-16.49876584737714,-1.0553988318424847 L-16.50944542510777,-0.979302021476519 L-16.525381650862798,-0.821932882501704 L-16.534551965827404,-0.6583963412260121 L-16.53749437169868,-0.4894793345869257 " />
			<path d="M-16.275059196599695,-1.6925174461885426 L-16.30910026244336,-1.6391328334112572 " />
			<path d="M-11.685388406185602,-0.5715276726508502 L-8.585995753180034,1.2179075098862633 " />
			<path d="M-11.028966818103637,1.136576795770413 L-11.028966818103637,5.535212917535842 " />
			<path d="M-8.585995753180034,1.2179075098862597 L-8.585995753180034,1.4914019700993588 " />
			<path d="M-8.349142602841178,1.354654739992812 L-7.652117617558266,1.7570823028777953 " />
			<path d="M-3.706820856199652,4.03490045008115 L-3.7959045221139656,4.2348013498357115 " />
			<path d="M-4.14392885667923,5.015756835917703 L-5.736990716246966,8.59053674448786 " />
			<path d="M-4.4546000879837475,3.6031699093161915 L-3.706820856199652,4.0349004500811505 " />
			<path d="M-7.107355371778906,3.8063372226173477 L-5.381018590464668,4.803038228021076 " />
			<path d="M-7.652117617558266,1.757082302877798 L-7.107355371778905,3.8063372226173477 " />
			<path d="M-3.5782434317299927,4.109134660710418 L0.28284271247461845,6.338333785431285 " />
			<path d="M-3.2906360348899533,9.327018255204553 L-1.5843310894295186,10.312153874785725 " />
			<path d="M0.26216122019284405,11.378226706802767 L0.26216122019284405,12.054148729900845 " />
			<path d="M-2.346809457219937,6.149222685223307 L0.26216122019284605,11.378226706802774 " />
			<path d="M-19.657568516986025,4.000833246545859 L-19.659964249249096,3.849185211453548 L-19.66714819926811,3.694976341118704 L-19.67911063113256,3.53841562415563 L-19.695835332986068,3.3797152364736736 L-19.71729963899717,3.2190902537298918 L-19.74347446007675,3.056758359851895 L-19.7743243233005,2.892939552025867 L-19.80980741998288,2.727855842549606 L-19.84987566233756,2.561730957954625 L-19.89447474864746,2.394790035805042 L-19.94354423685613,2.227259319584226 L-19.997017626480662,2.059365852082652 L-20.05482244873521,1.891337167702506 L-20.116880364742915,1.723400984096054 L-20.183107271703186,1.5557848935556715 L-20.253413416870366,1.3887160545737398 L-20.327703519189466,1.2224208839904602 L-20.405876898423948,1.0571247501467773 L-20.487827611600718,0.8930516674582449 L-20.573444596587287,0.7304239928237923 L-20.662611822606603,0.5694621242808098 L-20.755208447485533,0.4103842023149227 L-20.851108981423913,0.25340581422928654 L-20.950183457062174,0.09873970197403037 L-21.052297605617127,-0.053404526168201016 L-21.157313038847164,-0.20282067964984574 L-21.26508743660024,-0.34930626509420293 L-21.375474739690564,-0.49266276072070836 L-21.488325347842483,-0.6326958853877689 L-21.6034863224334,-0.7692158618885498 L-21.72080159376091,-0.9020376741429033 L-21.84011217255327,-1.0309813179368597 L-21.96125636543655,-1.1558720448698767 L-22.08406999406649,-1.2765405991792678 L-22.20838661762805,-1.3928234471208327 L-22.334037758401134,-1.5045629985948223 L-22.460853130086782,-1.6116078207168938 L-22.588660868584416,-1.713812843044634 L-22.71728776490737,-1.8110395541814874 L-22.846559499921035,-1.9031561894916709 L-22.97630088058554,-1.9900379096716758 L-23.10633607738276,-2.0715669699363346 L-23.236488862605878,-2.14763287959018 L-23.366582849188617,-2.2181325517678463 L-23.496441729750433,-2.2829704431405657 L-23.62588951553371,-2.342058683399431 L-23.75475077490915,-2.39531719433995 L-23.88285087112612,-2.4426737983864957 L-24.010016198985753,-2.484064316409574 L-24.13607442011608,-2.519432654703368 L-24.260854696530295,-2.5487308810056515 L-24.384187922151664,-2.5719192894570764 L-24.505906951991285,-2.5889664544117617 L-24.625846828668138,-2.5998492730263134 L-24.74384500596441,-2.604552996569499 L-24.859741569113126,-2.6030712504101885 L-24.973379451519605,-2.5954060426564514 L-25.084604647622907,-2.5815677614340995 L-25.19326642160895,-2.5615751608083883 L-25.299217511692312,-2.5354553353679252 L-25.402314329689947,-2.503243683505244 L-25.50241715561632,-2.4649838594438194 L-25.59939032703624,-2.4207277140765155 L-25.69310242291874,-2.370535224695664 " />
			<path d="M-20.693102422918763,6.2897188131487365 L-20.63250230487097,6.252992447612708 L-20.573444596587287,6.21367989806367 L-20.51596487222287,6.171804844911479 L-20.46009775541437,6.1273925121223485 L-20.405876898423948,6.0804696520248624 L-20.353334961868406,6.031064529195388 L-20.302503595045657,5.979206903432539 L-20.253413416870366,5.924928011830994 L-20.206093997430266,5.868260549965438 L-20.160573840174244,5.80923865219596 L-20.11688036474292,5.747897871106811 L-20.075039890452086,5.6842751560908376 L-20.035077620438944,5.618408831092559 L-19.997017626480662,5.550338571523252 L-19.960882834494445,5.480105380361972 L-19.926695010727823,5.407751563456885 L-19.89447474864746,5.333320704041812 L-19.86424145653445,5.256857636483316 L-19.836013345793457,5.178408419274158 L-19.80980741998288,5.098020307289375 L-19.785639464572526,5.0157417233217245 L-19.76352403743503,4.931622228913594 L-19.743474460076754,4.845712494502983 L-19.725502809613396,4.7580642689015304 L-19.709619911495192,4.668730348122958 L-19.695835332986068,4.577764543580736 L-19.68415737740068,4.485221649674086 L-19.674593079102806,4.391157410781897 L-19.66714819926811,4.295628487684389 L-19.66182722241382,4.198692423432782 L-19.65863335369743,4.100407608687506 L-19.657568516986025,4.000833246545877 " />
			<path d="M-29.167113959936522,-37.86322628438178 L-29.136950629063172,-37.8789720267391 L-29.1054145117421,-37.89217623896081 L-29.072581581242172,-37.90280711094312 L-29.038530934968783,-37.91083903198428 L-29.003344603911287,-37.91625265248299 L-28.967107355023167,-37.919034930553266 L-28.929906487011,-37.919179163443566 L-28.891831620024238,-37.91668500368421 L-28.852974479752415,-37.91155845992452 L-28.813428676449934,-37.903811882457454 L-28.77328947942075,-37.89346393346664 L-28.732653587506288,-37.88053954206758 L-28.691618896129448,-37.865069844251195 L-28.650284261455976,-37.8470921078745 L-28.608749262241286,-37.826649642879104 L-28.567113959936524,-37.80379169695372 " />
			<path d="M-28.56711395993652,-37.803791696953716 L28.567113959936524,-4.8173298274735785 " />
			<path d="M29.415642097360376,-3.3476359818036796 L29.41155620245235,-3.44603176627039 L29.39933786712981,-3.548197930594138 L29.379104760641134,-3.65315055876278 L29.351051738862346,-3.759878899594111 L29.315448967728525,-3.867355100822278 L29.272639321388137,-3.974544107876987 L29.223035080137574,-4.08041363202483 L29.167113959936522,-4.183944091874091 L29.105414511742104,-4.284138432500917 L29.038530934968783,-4.380031727633277 L28.967107355023167,-4.470700472418434 L28.891831620024238,-4.555271477279533 L28.813428676449934,-4.632930277208544 L28.732653587506288,-4.702928975509535 L28.650284261455976,-4.764593446452686 L28.567113959936528,-4.817329827473582 " />
			<path d="M29.41564209736038,-3.3476359818036796 L29.41564209736038,37.31389374839708 " />
			<path d="M29.415642097360376,37.313893748397085 L29.414620008057707,37.36137995084995 L29.41155620245235,37.40757154781374 L29.406458061520368,37.452357259685456 L29.39933786712981,37.49562919376245 L29.390212772452617,37.53728310416535 L29.379104760641134,37.57721864297553 L29.366040591868757,37.61533960198208 L29.351051738862346,37.65155414445574 L29.334174311081664,37.68577502639166 L29.315448967728525,37.71791980668788 L29.294920819795205,37.74791104575311 L29.272639321388137,37.77567649206552 L29.248658150588607,37.801149256232975 L29.223035080137578,37.824267972135445 L29.195831838256076,37.84497694476136 L29.16711395993653,37.863226284381774 " />
			<path d="M7.778174593052023,27.270985802986054 L7.778174593052023,29.88377486195478 " />
			<path d="M23.758787847868003,-6.2870236731434925 L23.617366491630694,-6.20537401505072 " />
			<path d="M23.758787847868,-6.368673331236261 L23.758787847868,-6.28702367314349 " />
			<path d="M23.61736649163069,20.167465548914837 L23.193102422918763,20.412414523193156 " />
			<path d="M23.193102422918763,-6.04207469886517 L23.193102422918763,20.412414523193156 " />
			<path d="M23.758787847868,-6.368673331236261 L23.193102422918763,-6.042074698865171 " />
			<path d="M23.193102422918763,20.412414523193153 L4.341490624352538,9.528431376632618 " />
			<path d="M4.3414906243525415,9.52843137663262 L4.3414906243525415,9.17149319845655 " />
			<path d="M4.3414906243525415,9.17149319845655 L4.200069268115232,9.253142856549323 " />
			<path d="M4.200069268115232,9.929064879647402 L4.200069268115232,9.253142856549323 " />
			<path d="M4.617738737451839,9.687923299093624 L4.200069268115232,9.929064879647402 " />
			<path d="M1.1548144780442604,8.17088620684893 L4.200069268115232,9.929064879647404 " />
			<path d="M1.1548144780442604,10.12051100179657 L1.1548144780442604,8.17088620684893 " />
			<path d="M1.7204999029934984,9.793912369425481 L1.1548144780442604,10.12051100179657 " />
			<path d="M3.8989274055415484,11.704825339173862 L1.1548144780442615,10.12051100179657 " />
			<path d="M4.464612830490786,11.378226706802772 L3.8989274055415475,11.704825339173862 " />
			<path d="M3.8989274055415484,12.37684029855461 L3.8989274055415484,11.70482533917386 " />
			<path d="M4.464612830490786,12.05024166618352 L3.8989274055415475,12.37684029855461 " />
			<path d="M1.1548144780442604,10.792525961177319 L3.8989274055415475,12.37684029855461 " />
			<path d="M1.1548144780442604,12.54679757025846 L1.1548144780442604,10.792525961177317 " />
			<path d="M1.7204999029934984,12.220198937887371 L1.1548144780442604,12.54679757025846 " />
			<path d="M4.085026309379219,14.238556159862325 L1.1548144780442606,12.54679757025846 " />
			<path d="M4.650711734328457,13.911957527491236 L4.085026309379218,14.238556159862325 " />
			<path d="M4.085026309379219,14.914478182960405 L4.085026309379219,14.238556159862325 " />
			<path d="M4.650711734328457,14.587879550589316 L4.085026309379218,14.914478182960405 " />
			<path d="M0.498392889962296,12.843734412775538 L4.085026309379219,14.914478182960407 " />
			<path d="M0.498392889962296,7.115979003169846 L0.498392889962296,12.843734412775538 " />
			<path d="M0.6398142461996057,7.034329345077074 L0.49839288996229647,7.115979003169846 " />
			<path d="M0.4983928899622967,7.309617865160369 L0.282842712474622,7.185169912163987 " />
			<path d="M0.8485281374238574,-19.595917942265423 L0.2828427124746191,-19.269319309894332 " />
			<path d="M0.2828427124746191,7.18516991216399 L0.2828427124746191,-19.269319309894335 " />
			<path d="M-14.72725957982316,-0.08119117612594438 L-15.292945004772399,0.24540745624514615 " />
			<path d="M-13.834606321971743,1.0873796873297492 L-15.292945004772397,0.24540745624514682 " />
			<path d="M-15.292945004772399,0.24540745624514604 L-15.292945004772399,0.9174224156258954 " />
			<path d="M-13.834606321971743,0.02075129249867591 L-13.834606321971743,1.0873796873297497 " />
			<path d="M-12.626033774674188,1.8078741312030822 L-13.191719199623426,2.1344727635741725 " />
			<path d="M-15.292945004772399,0.9174224156258968 L-13.191719199623428,2.1344727635741734 " />
			<path d="M-14.450424512852761,-0.7391726005219981 L-14.351982422243175,-0.6345670742775471 L-14.25967313641915,-0.5327087022093437 L-14.173496655380683,-0.4335974843173881 L-14.093452979127775,-0.33723342060168005 L-14.019542107660428,-0.2436165110622196 L-13.95176404097864,-0.15274675569900675 L-13.890118779082412,-0.06462415451204162 L-13.834606321971744,0.020751292498674467 " />
			<path d="M-12.626033774674188,-0.3175685310244044 L-13.191719199623426,0.009030101346686137 " />
			<path d="M-13.191719199623426,2.1344727635741725 L-13.191719199623426,0.009030101346684916 " />
			<path d="M-15.28279415547216,-1.409234028044082 L-15.17652745186031,-1.3449200963845962 L-15.070895176329723,-1.2750508085020318 L-14.9658973288804,-1.199626164396389 L-14.861533909512342,-1.1186461640676677 L-14.75780491822555,-1.032110807515868 L-14.654710355020022,-0.9400200947409898 L-14.55225021989576,-0.8423740257430332 L-14.450424512852763,-0.739172600522 " />
			<path d="M-13.191719199623426,0.009030101346686026 L-13.31315930817886,-0.16898548927415907 L-13.435551058856191,-0.3406521013543431 L-13.558894451655421,-0.5059697348938661 L-13.683189486576547,-0.6649383898927279 L-13.80843616361957,-0.8175580663509288 L-13.93463448278449,-0.9638287642684684 L-14.061784444071307,-1.1037504836453471 L-14.189886047480021,-1.2373232244815624 " />
			<path d="M-16.2099050582271,-1.6944496794091684 L-16.155132767211242,-1.6931066262563361 L-16.099937524141204,-1.6895658497625057 L-16.044319329016993,-1.6838273499276772 L-15.988278181838602,-1.6758911267518508 L-15.931814082606037,-1.6657571802350262 L-15.874927031319293,-1.6534255103772035 L-15.817617027978375,-1.6388961171783827 L-15.75988407258328,-1.6221690006385638 L-15.643149305630558,-1.582121597535932 L-15.524722730461132,-1.5332833010693077 L-15.404604347074999,-1.475654111238691 L-15.282794155472162,-1.4092340280440832 " />
			<path d="M-14.189886047480023,-1.2373232244815646 L-14.318886424003862,-1.364455414971246 L-14.448732704636056,-1.4850554833085163 L-14.579424889376602,-1.5991234294933756 L-14.710962978225501,-1.7066592535258238 L-14.843346971182752,-1.8076629554058612 L-14.976576868248356,-1.9021345351334875 L-15.110652669422315,-1.990073992708703 L-15.245574374704624,-2.071481328131506 " />
			<path d="M-16.8747856873926,-1.3125342010401668 L-16.845540056374926,-1.3588370585670295 L-16.81468123300132,-1.4021489085233532 L-16.782209217271777,-1.4424697509091378 L-16.748124009186306,-1.479799585724383 L-16.712425608744898,-1.5141384129690896 L-16.675114015947557,-1.5454862326432568 L-16.636189230794287,-1.573843044746885 L-16.59565125328508,-1.5992088492799739 " />
			<path d="M-16.59565125328508,-1.5992088492799739 L-16.553167029011206,-1.6217454113597696 L-16.509044504706367,-1.6412444139213807 L-16.463283680370566,-1.6577058569648067 L-16.415884556003803,-1.6711297404900485 L-16.36684713160607,-1.6815160644971054 L-16.31617140717738,-1.6888648289859778 L-16.26385738271772,-1.6931760339566653 L-16.209905058227104,-1.6944496794091684 " />
			<path d="M-15.245574374704626,-2.071481328131507 L-15.33640993696488,-2.122513532447218 L-15.426201336341387,-2.1701194250264426 L-15.514948572834147,-2.2142990058691803 L-15.602651646443157,-2.2550522749754314 L-15.689310557168419,-2.292379232345196 L-15.774925305009932,-2.3262798779784735 L-15.859495889967697,-2.356754211875265 L-15.943022312041714,-2.38380223403557 L-16.025504571231984,-2.4074239444593877 L-16.106942667538505,-2.427619343146719 L-16.187336600961277,-2.444388430097564 L-16.2666863715003,-2.457731205311922 L-16.344991979155576,-2.4676476687897937 L-16.422253423927103,-2.4741378205311784 L-16.49847070581488,-2.477201660536077 L-16.57364382481891,-2.4768391888044885 " />
			<path d="M-17.10317979664792,-0.1628807022158305 L-17.099611138690808,-0.3483593950154819 L-17.088905164819465,-0.5219032291161021 L-17.080875684415957,-0.6041995741542754 L-17.07106187503389,-0.6835122045176909 L-17.05946373667327,-0.7598411202063486 L-17.046081269334092,-0.8331863212202486 L-17.030914473016356,-0.9035478075593908 L-17.01396334772006,-0.9709255792237751 L-16.99522789344521,-1.0353196362134014 L-16.974708110191802,-1.0967299785282703 L-16.952403997959838,-1.1551566061683811 L-16.928315556749315,-1.210599519133734 L-16.902442786560236,-1.2630587174243293 L-16.8747856873926,-1.3125342010401653 " />
			<path d="M-16.573643824818912,-2.4768391888044885 L-16.646723338050084,-2.472879295733518 L-16.717543246850788,-2.4651263080800336 L-16.78610355122102,-2.4535802258440365 L-16.85240425116079,-2.4382410490255264 L-16.91644534667009,-2.4191087776245026 L-16.978226837748924,-2.396183411640966 L-17.037748724397293,-2.369464951074916 L-17.095011006615188,-2.338953395926353 " />
			<path d="M-17.09501100661519,-2.3389533959263527 L-17.15065486804007,-2.304217510779011 L-17.203985004690274,-2.265597681703288 L-17.2550014165658,-2.223093908699184 L-17.30370410366665,-2.1767061917666988 L-17.35009306599282,-2.126434530905832 L-17.394168303544312,-2.072278926116584 L-17.435929816321128,-2.014239377398955 L-17.475377604323263,-1.9523158847529472 " />
			<path d="M-16.913697276376837,1.0991008784817409 L-16.958107242065374,0.9392165054241297 L-16.996595878995436,0.7799426110723513 L-17.02916318716703,0.6212791954264059 L-17.05580916658015,0.46322625848629295 L-17.0765338172348,0.3057838002520128 L-17.091337139130978,0.1489518207235656 L-17.100219132268688,-0.007269680099048825 L-17.10317979664792,-0.16288070221582762 " />
			<path d="M-16.3480118514276,0.7725022461106504 L-16.913697276376837,1.099100878481741 " />
			<path d="M-17.475377604323263,-1.952315884752945 L-17.51225373654678,-1.8875135701287928 L-17.546750763465553,-1.8200861970695597 L-17.57886868507958,-1.7500337655752454 L-17.608607501388867,-1.67735627564585 L-17.635967212393414,-1.6020537272813735 L-17.660947818093213,-1.5241261204818164 L-17.68354931848827,-1.443573455247178 L-17.703771713578586,-1.3603957315774584 L-17.721615003364157,-1.274592949472658 L-17.737079187844987,-1.1861651089327765 L-17.750164267021074,-1.0951122099578137 L-17.760870240892416,-1.0014342525477702 L-17.769197109459018,-0.9051312367026456 L-17.775144872720876,-0.8062031624224397 L-17.77871353067799,-0.7046500297071532 L-17.77990308333036,-0.6004718385567891 " />
			<path d="M-16.60071275628621,1.8463268144210903 L-16.649643022053755,1.752816738655151 L-16.695771230462384,1.6593371868245033 L-16.739097381512092,1.565888158929147 L-16.77962147520288,1.4724696549690826 L-16.817343511534748,1.3790816749443096 L-16.852263490507696,1.2857242188548286 L-16.884381412121726,1.192397286700639 L-16.913697276376837,1.0991008784817424 " />
			<path d="M-17.77990308333036,-0.6004718385567853 L-17.778720139303836,-0.49570987714396475 L-17.77517130722426,-0.390451901782655 L-17.769256587091636,-0.28469791247285603 L-17.76097597890596,-0.178447909214568 L-17.750329482667237,-0.07170189200779076 L-17.73731709837546,0.03554013914747556 L-17.721938826030637,0.14327818425123118 L-17.704194665632762,0.25151224330347577 L-17.68408461718184,0.36024231630420955 L-17.661608680677862,0.46946840325343264 L-17.636766856120836,0.5791905041511447 L-17.60955914351076,0.6894086189973458 L-17.579985542847638,0.8001227477920363 L-17.548046054131465,0.911332890535216 L-17.51374067736224,1.0230390472268849 L-17.477069412539965,1.1352412178670386 " />
			<path d="M-16.071176784457204,2.5681568361977956 L-16.151246895213497,2.480812595360767 L-16.227351830461885,2.3926442082708648 L-16.29949159020237,2.303651674928088 L-16.367666174434945,2.2138349953324368 L-16.43187558315962,2.1231941694839116 L-16.492119816376388,2.031729197382512 L-16.54839887408525,1.9394400790282382 L-16.60071275628621,1.8463268144210918 " />
			<path d="M-17.477069412539965,1.1352412178670426 L-17.438177649433264,1.2468329098013675 L-17.39721077781076,1.3567076303755374 L-17.354168797672454,1.4648653795895528 L-17.30905170901834,1.5713061574434133 L-17.261859511848428,1.6760299639371192 L-17.212592206162707,1.7790367990706704 L-17.161249791961186,1.8803266628440667 L-17.10783226924386,1.9798995552573082 L-17.052339638010732,2.0777554763103954 L-16.9947718982618,2.1738944260033275 L-16.935129049997062,2.2683164043361046 L-16.87341109321652,2.361021411308727 L-16.80961802792018,2.452009446921195 L-16.74374985410803,2.5412805111735084 L-16.67580657178008,2.6288346040656663 L-16.60578818093633,2.714671725597667 " />
			<path d="M-15.292945004772399,3.175705244242603 L-15.40354696693956,3.1093767328538693 L-15.51034236061913,3.0403010672888877 L-15.613331185811115,2.9684782475476585 L-15.71251344251551,2.8939082736301813 L-15.807889130732317,2.8165911455364565 L-15.899458250461535,2.736526863266484 L-15.987220801703163,2.6537154268202636 L-16.071176784457204,2.5681568361977973 " />
			<path d="M-16.605788180936326,2.71467172559767 L-16.534058155998327,2.7986659645364407 L-16.46097997138764,2.8806914096489002 L-16.386553627104266,2.9607480609350496 L-16.3107791231482,3.038835918394888 L-16.23365645951945,3.1149549820284155 L-16.155185636218015,3.189105251835632 L-16.07536665324389,3.261286727816538 L-15.994199510597074,3.3314994099711335 L-15.911684208277574,3.3997432982994176 L-15.827820746285385,3.4660183928013915 L-15.742609124620508,3.5303246934770542 L-15.656049343282945,3.5926622003264064 L-15.568141402272692,3.653030913349448 L-15.478885301589752,3.7114308325461782 L-15.388281041234125,3.767861957916598 L-15.296328621205813,3.8223242894607052 " />
			<path d="M-14.609454485223134,3.4198967265757236 L-14.687489139218703,3.4100985433471074 L-14.767638553485154,3.394378716671913 L-14.849902728022489,3.3727372465501406 L-14.934281662830706,3.3451741329817892 L-15.020775357909805,3.31168937596686 L-15.109383813259788,3.2722829755053526 L-15.200107028880652,3.226954931597267 L-15.292945004772397,3.1757052442426037 " />
			<path d="M-15.29632862120581,3.822324289460707 L-15.163442372684223,3.8959022354812056 L-15.033781133575733,3.9613302907788364 L-14.907344903880338,4.018608455353599 L-14.78413368359804,4.067736729205494 L-14.664147472728837,4.1087151123345205 L-14.54738627127273,4.141543604740679 L-14.43385007922972,4.166222206423971 L-14.323538896599807,4.182750917384394 " />
			<path d="M-14.135748184545427,3.2929171557625017 L-14.17434647571176,3.3249695488509667 L-14.216453702438665,3.352536053967683 " />
			<path d="M-14.216453702438665,3.352536053967683 L-14.256175949526744,3.3729769159679845 L-14.298584725403389,3.3899832699899157 L-14.3436800300686,3.4035551160334765 L-14.391461863522375,3.413692454098667 L-14.441930225764716,3.4203952841854868 L-14.495085116795623,3.4236636062939363 L-14.550926536615096,3.423497420424015 L-14.609454485223132,3.4198967265757236 " />
			<path d="M-14.323538896599805,4.182750917384394 L-14.238241199304275,4.190059397747105 L-14.156718903253083,4.192006923186863 L-14.078972008446229,4.1885934937036655 L-14.005000514883713,4.179819109297514 L-13.934804422565536,4.165683769968408 L-13.868383731491699,4.1461874757163475 L-13.8057384416622,4.121330226541333 L-13.74686855307704,4.0911120224433635 " />
			<path d="M-13.74686855307704,4.0911120224433635 L-13.692465381350647,4.056029289722268 L-13.641740185267249,4.01572394346854 " />
			<path d="M-13.858291637005628,2.7654635539229586 L-13.887052376689631,2.8553260194215473 L-13.917504924590341,2.9383511234148085 L-13.949649280707758,3.014538865902743 L-13.983485445041879,3.083889246885349 L-14.019013417592708,3.146402266362628 L-14.05623319836024,3.20207792433458 L-14.09514478734448,3.2509162208012046 L-14.135748184545427,3.2929171557625008 " />
			<path d="M-13.29260621205639,2.4388649215518683 L-13.858291637005628,2.7654635539229586 " />
			<path d="M-12.700473336209257,2.9682720552500745 L-13.266158761158495,3.294870687621165 " />
			<path d="M-13.641740185267247,4.015723943468539 L-13.611327289121617,3.987496934307595 L-13.581839600594497,3.957026415902715 L-13.55327711968589,3.9243123882538993 L-13.525639846395793,3.8893548513611487 L-13.498927780724205,3.852153805224462 L-13.473140922671131,3.8127092498438397 L-13.424342829420514,3.727089611350789 L-13.379245566643943,3.6324959358819964 L-13.337849134341417,3.5289282234374615 L-13.300153532512933,3.4163864740171843 L-13.266158761158495,3.294870687621167 " />
			<path d="M-13.266158761158495,3.294870687621165 L-13.858291637005628,2.7654635539229577 " />
			<path d="M-11.6853884061856,-0.5715276726508519 L-12.251073831134839,-0.24492904027976137 " />
			<path d="M-9.151681178129273,1.5445061422573512 L-12.25107383113484,-0.24492904027976192 " />
			<path d="M-8.585995753180034,1.2179075098862606 L-9.151681178129273,1.5445061422573512 " />
			<path d="M-12.251073831134839,-0.24492904027976148 L-12.251073831134839,5.48282636932593 " />
			<path d="M-9.151681178129273,2.2204281653554307 L-9.151681178129273,1.5445061422573512 " />
			<path d="M-8.818123969950527,2.027848821423292 L-9.151681178129273,2.2204281653554307 " />
			<path d="M-11.028966818103635,5.535212917535844 L-11.594652243052874,5.8618115499069345 " />
			<path d="M-12.251073831134839,5.48282636932593 L-11.594652243052874,5.8618115499069345 " />
			<path d="M-11.594652243052874,0.8099781633993228 L-9.151681178129271,2.220428165355431 " />
			<path d="M-11.594652243052874,5.8618115499069345 L-11.594652243052874,0.8099781633993217 " />
			<path d="M-8.34914260284118,1.3546547399928093 L-8.914828027790419,1.6812533723638998 " />
			<path d="M-8.217803042507507,2.083680935248883 L-8.914828027790419,1.681253372363899 " />
			<path d="M-7.652117617558268,1.7570823028777927 L-8.217803042507507,2.083680935248883 " />
			<path d="M-8.914828027790419,1.681253372363899 L-7.0098519757793545,8.508847218397971 " />
			<path d="M-7.673040796728144,4.132935854988437 L-8.217803042507507,2.0836809352488834 " />
			<path d="M-7.107355371778906,3.806337222617347 L-7.673040796728145,4.132935854988437 " />
			<path d="M-5.73699071624697,8.590536744487858 L-6.3026761411962084,8.917135376858948 " />
			<path d="M-7.009851975779355,8.50884721839797 L-6.302676141196208,8.917135376858948 " />
			<path d="M-5.598883923046472,5.330450884350064 L-7.673040796728145,4.132935854988437 " />
			<path d="M-3.706820856199655,4.034900450081148 L-4.272506281148893,4.361499082452238 " />
			<path d="M-6.302676141196208,8.917135376858948 L-4.2725062811488925,4.361499082452237 " />
			<path d="M-5.020285512932987,3.92976854168728 L-5.598883923046472,5.330450884350063 " />
			<path d="M-4.454600087983749,3.6031699093161893 L-5.020285512932988,3.92976854168728 " />
			<path d="M-4.272506281148893,4.361499082452238 L-5.020285512932987,3.92976854168728 " />
			<path d="M-3.578243431729992,4.109134660710416 L-4.14392885667923,4.4357332930815065 " />
			<path d="M-0.22231741035450026,6.699876717274207 L-4.1439288566792305,4.4357332930815065 " />
			<path d="M0.2828427124746191,6.40822238437495 L-0.22231741035450048,6.699876717274207 " />
			<path d="M-4.14392885667923,4.435733293081507 L-4.14392885667923,5.139004762200897 " />
			<path d="M-0.22231741035450026,7.375798740372287 L-0.22231741035450026,6.699876717274207 " />
			<path d="M0.2828427124746191,7.08414440747303 L-0.22231741035450048,7.375798740372287 " />
			<path d="M-4.14392885667923,5.139004762200896 L-1.6028329151866743,10.274840018631103 " />
			<path d="M-3.3893823920283115,5.547292920661874 L-0.22231741035450003,7.375798740372287 " />
			<path d="M-1.602832915186674,10.274840018631101 L-1.4691800660668926,10.541008734374204 L-1.3389108333805233,10.792525961177319 L-1.2120252171275663,11.029391699040447 L-1.0885232173080222,11.251605947963585 " />
			<path d="M-3.088240529454626,6.123584818968041 L-3.389382392028311,5.547292920661874 " />
			<path d="M-2.7397280368131702,5.922371037525549 L-3.088240529454626,6.123584818968041 " />
			<path d="M-3.2906360348899555,9.327018255204552 L-3.8563214598391937,9.653616887575641 " />
			<path d="M-1.0885232173080213,11.251605947963586 L-3.8563214598391937,9.653616887575641 " />
			<path d="M-0.3035242047563931,11.70482533917386 L-3.0882405294546262,6.123584818968039 " />
			<path d="M0.26216122019284477,11.37822670680277 L-0.3035242047563933,11.70482533917386 " />
			<path d="M-3.8563214598391937,9.653616887575641 L-3.8563214598391937,10.32953891067372 " />
			<path d="M-0.3035242047563931,12.38074736227194 L-0.3035242047563931,11.70482533917386 " />
			<path d="M0.26216122019284477,12.05414872990085 L-0.3035242047563933,12.38074736227194 " />
			<path d="M-3.8563214598391937,10.32953891067372 L-0.3035242047563931,12.38074736227194 " />
			<path d="M-20.293964620053917,4.368256707963335 L-20.29502945676532,4.467831070104982 L-20.29822332548171,4.5661158848502605 L-20.303544302336,4.6630519491018685 L-20.310989182170697,4.758580872199374 L-20.320553480468572,4.8526451110915625 L-20.33223143605396,4.9451880049982115 L-20.346016014563084,5.036153809540434 L-20.361898912681287,5.125487730319007 L-20.379870563144642,5.213135955920459 L-20.39992014050292,5.29904569033107 L-20.422035567640414,5.383165184739202 L-20.446203523050773,5.465443768706851 L-20.47240944886135,5.545831880691633 L-20.50063755960234,5.624281097900793 L-20.530870851715353,5.700744165459288 L-20.563091113795714,5.775175024874359 L-20.597278937562336,5.847528841779446 L-20.63341372954855,5.9177620329407254 L-20.671473723506832,5.985832292510032 L-20.711435993519974,6.051698617508311 L-20.753276467810807,6.115321332524285 L-20.796969943242132,6.176662113613435 L-20.842490100498157,6.235684011382913 L-20.889809519938257,6.29235147324847 L-20.93889969811355,6.346630364850014 L-20.989731064936297,6.398487990612865 L-21.04227300149184,6.4478931134423405 L-21.096493858482262,6.494815973539826 L-21.15236097529076,6.5392283063289565 L-21.209840699655178,6.581103359481146 L-21.268898407938863,6.620415909030184 L-21.329498525986633,6.6571422745662 " />
			<path d="M-21.329498525986654,6.657142274566214 L-21.391604550553424,6.691260333499922 L-21.455179071292267,6.722749534388365 L-21.5201837932891,6.751590909314383 L-21.586579560130065,6.7777670853121705 L-21.65432637748792,6.801262294832097 L-21.72338343721311,6.822062385238488 L-21.793709141915055,6.840154827334651 L-21.8652611300189,6.855528722909984 L-21.937996301282507,6.868174811304662 L-22.011870842758455,6.878085474987902 L-22.0868402551853,6.885254744146487 L-22.162859379792287,6.8896783002807505 L-22.239882425501293,6.891353478805886 L-22.317862996509653,6.890279270656987 L-22.39675412023728,6.886456322896876 L-22.476508275621164,6.879886938326334 L-22.557077421740303,6.870575074096982 L-22.638413026753753,6.858526339327639 L-22.720466097134384,6.843747991725597 L-22.803187207180763,6.826248933214857 L-22.886526528789336,6.80603970457393 L-22.97043386146903,6.78313247908648 L-23.05485866258013,6.757541055208583 L-23.139750077779297,6.7292808482570585 L-23.225056971652307,6.698368881123857 L-23.310727958516125,6.664823774022107 L-23.396711433371706,6.628665733269994 L-23.482955602988927,6.589916539119231 L-23.569408517104886,6.548599532635447 L-23.656018099716803,6.504739601638408 L-23.742732180450655,6.458363165710518 L-23.829498525986654,6.40949816028265 L-23.916264871522653,6.3581740198068974 L-24.002978952256505,6.304421660026348 L-24.089588534868426,6.248273459352603 L-24.176041448984382,6.189763239362233 L-24.262285618601602,6.128926244423921 L-24.348269093457183,6.0657991204685775 L-24.51924697419401,5.932827943765769 L-24.68856319050428,5.791170048465386 L-24.855809844792546,5.641166700844972 L-25.02058402521956,5.483179272107686 L-25.182488776352148,5.317588367807422 L-25.341134055463655,5.144792910936688 L-25.49613767218102,4.9652091808861805 L-25.647126209214854,4.779269810591269 L-25.79373592195441,4.5874227442813575 L-25.935613614760204,4.390130158343006 L-26.072417491843247,4.187867347896532 L-26.20381798068104,3.9811215817684262 L-26.329498525986654,3.7703909286180846 L-26.44915635231813,3.5561830570467707 L-26.56250319349105,3.3390140125794936 L-26.66926598703701,3.1194069744661377 L-26.76918753203505,2.8978909952968213 L-26.862027108731173,2.6749997264678718 L-26.94756105845333,2.451270132568869 L-27.025583322424758,2.2272411977879107 L-27.095905938177594,2.003452627451504 L-27.15835949237097,1.7804435478271505 L-27.212793528922536,1.5587512073209573 L-27.259076911470387,1.338909682199158 L-27.297098139292025,1.1214485899516131 L-27.32676561591935,0.9068918133968908 L-27.338443571504737,0.8008643778886257 L-27.34800786980261,0.6957562386026617 L-27.35545274963731,0.5916307087518604 L-27.360773726491598,0.4885505096619005 L-27.36396759520799,0.3865777329902953 L-27.365032431919392,0.2857738033247048 L-27.36396759520799,0.18619944118305787 L-27.360773726491598,0.08791462643778214 L-27.35545274963731,-0.009021437813825361 L-27.34800786980261,-0.10455036091133296 L-27.338443571504737,-0.19861459980352247 L-27.32676561591935,-0.2911574937101715 L-27.312981037410225,-0.3821232982523952 L-27.29709813929202,-0.47145721903096627 L-27.279126488828666,-0.55910544463242 L-27.259076911470387,-0.6450151790430301 L-27.236961484332895,-0.7291346734511617 L-27.212793528922536,-0.8114132574188115 L-27.18658760311196,-0.8918013694035936 L-27.15835949237097,-0.9702505866127531 L-27.128126200257956,-1.0467136541712483 L-27.095905938177594,-1.1211445135863216 L-27.061718114410972,-1.1934983304914089 L-27.025583322424755,-1.263731521652688 L-26.987523328466473,-1.3318017812219947 L-26.94756105845333,-1.3976681062202734 L-26.9057205841625,-1.4612908212362474 L-26.862027108731173,-1.5226316023253967 L-26.81650695147515,-1.5816535000948733 L-26.76918753203505,-1.638320961960431 L-26.72009735385976,-1.6925998535619762 L-26.66926598703701,-1.744457479324824 L-26.616724050481473,-1.7938626021542987 L-26.562503193491047,-1.8407854622517839 L-26.506636076682547,-1.8851977950409164 L-26.44915635231813,-1.9270728481931059 L-26.390098644034445,-1.966385397742144 L-26.329498525986665,-2.0031117632781674 " />
			<path d="M-26.329498525986654,-2.0031117632781736 L-26.23578643010413,-2.0533042526590375 L-26.138813258684213,-2.097560398026342 L-26.03871043275784,-2.1358202220877667 L-25.935613614760204,-2.168031873950448 L-25.82966252467684,-2.194151699390912 L-25.721000750690802,-2.2141443000166223 L-25.609775554587497,-2.227982581238974 L-25.49613767218102,-2.2356477889927113 L-25.3802411090323,-2.237129535152021 L-25.262242931736033,-2.2324258116088354 L-25.142303055059177,-2.2215429929942845 L-25.020584025219556,-2.2044958280395983 L-24.89725079959819,-2.181307419588175 L-24.772470523183973,-2.15200919328589 L-24.646412302053644,-2.116640854992097 L-24.51924697419401,-2.0752503369690185 L-24.391146877977047,-2.0278937329224744 L-24.262285618601606,-1.9746352219819547 L-24.132837832818325,-1.9155469817230877 L-24.002978952256505,-1.8507090903503682 L-23.87288496567377,-1.7802094181727028 L-23.742732180450655,-1.7041435085188583 L-23.612696983653436,-1.6226144482542004 L-23.482955602988927,-1.5357327280741946 L-23.353683867975263,-1.4436160927640111 L-23.22505697165231,-1.3463893816271577 L-23.097249233154677,-1.244184359299418 L-22.97043386146903,-1.137139537177346 L-22.844782720695942,-1.0253999857033564 L-22.720466097134384,-0.9091171377617915 L-22.597652468504442,-0.7884485834524009 L-22.476508275621164,-0.6635578565193834 L-22.357197696828806,-0.5346142127254274 L-22.239882425501293,-0.40179240047107356 L-22.12472145091038,-0.26527242397029305 L-22.011870842758455,-0.12523929930323252 L-21.901483539668135,0.01811719632327291 L-21.793709141915055,0.16460278176762966 L-21.68869370868502,0.3140189352492744 L-21.586579560130065,0.466163163391506 L-21.487505084491804,0.6208292756467622 L-21.391604550553428,0.7778076637323983 L-21.299007925674495,0.9368855856982854 L-21.209840699655178,1.097847454241268 L-21.12422371466861,1.2604751288757203 L-21.04227300149184,1.424548211564253 L-20.964099622257358,1.5898443454079358 L-20.889809519938257,1.7561395159912152 L-20.819503374771077,1.923208354973147 L-20.753276467810807,2.0908244455135296 L-20.6912185518031,2.2587606291199815 L-20.633413729548554,2.4267893135001275 L-20.579940339924022,2.5946827810017017 L-20.530870851715353,2.7622134972225174 L-20.48627176540545,2.9291544193721 L-20.446203523050773,3.095279303967082 L-20.410720426368393,3.2603630134433423 L-20.379870563144642,3.42418182126937 L-20.35369574206506,3.586513715147367 L-20.33223143605396,3.7471386978911485 L-20.315506734200454,3.9058390855731053 L-20.303544302336,4.062399802536179 L-20.296360352316988,4.2166086728710255 L-20.293964620053917,4.368256707963298 " />
			<path d="M7.778174593052023,29.88377486195478 L6.505382386916238,30.618621784789735 " />
			<path d="M0.8485281374238574,-19.595917942265423 L23.758787847868,-6.368673331236257 " />
			<path d="M4.3414906243525415,9.171493198456549 L0.6398142461996033,7.034329345077071 " />
			<path d="M0.2828427124746191,-19.269319309894335 L23.19310242291876,-6.04207469886517 " />
			<path d="M1.1313708498984758,-17.79962546422443 L22.344574285494907,-5.552176750308535 " />
			<path d="M1.1313708498984758,6.695271963607355 L1.1313708498984758,-17.79962546422443 " />
			<path d="M22.344574285494904,-5.552176750308536 L22.344574285494904,18.942720677523248 " />
			<path d="M22.344574285494904,18.942720677523244 L1.1313708498984738,6.6952719636073486 " />
			<path d="M4.200069268115232,9.253142856549323 L0.49839288996229536,7.115979003169845 " />
			<path d="M-6.9387960306776995,6.85420573410874 L-7.483558276457062,4.8596497064118065 " />
			<path d="M-7.483558276457062,4.859649706411806 L-5.801900909051203,5.830555040168296 " />
			<path d="M-5.801900909051204,5.830555040168296 L-6.319594223363269,7.117932535028511 " />
			<path d="M-6.319594223363269,7.117932535028511 L-6.430407661557518,7.399241122676266 L-6.525994825801412,7.657107328020043 L-6.606355716094952,7.891531151059839 L-6.671490332438135,8.102512591795653 " />
			<path d="M-6.671490332438136,8.102512591795655 L-6.696391634627779,7.950533917978579 L-6.7237249111289366,7.797395334620419 L-6.75349016194161,7.643096841721179 L-6.785687387065797,7.487638439280856 L-6.820316586501501,7.33102012729945 L-6.857377760248719,7.173241905776962 L-6.896870908307451,7.014303774713392 L-6.938796030677699,6.854205734108743 " />
			<path d="M1.9091883092036785,6.246198844097105 L1.9091883092036785,-17.35055234471418 " />
			<path d="M1.9091883092036785,6.246198844097105 L1.1313708498984758,6.695271963607355 " />
			<path d="M22.344574285494904,18.044574438502746 L1.9091883092036745,6.2461988440970995 " />
			<path d="M-6.7060697040268265,5.308532942996264 L-6.373110605728457,6.527607101737656 " />
			<path d="M-6.373110605728462,6.52760710173765 L-6.9387960306777,6.85420573410874 " />
			<path d="M-6.373110605728463,6.527607101737651 L-6.315106489356626,6.7513791501167715 L-6.261647222089617,6.973832421559847 " />
			<path d="M-28.56711395993652,-37.80379169695372 L-29.839906166072307,-37.06894477411877 " />
			<path d="M29.41564209736038,37.31389374839709 L28.142849891224593,38.048740671232046 " />
			<path d="M29.41564209736038,-3.3476359818036805 L28.142849891224593,-2.612789058968727 " />
			<path d="M28.56711395993652,-4.817329827473586 L27.294321753800734,-4.082482904638632 " />
			<path d="M-13.624200622530784,-1.5639218568526552 L-14.189886047480023,-1.2373232244815646 " />
			<path d="M-14.679888949755387,-2.3980799605025975 L-15.245574374704626,-2.071481328131507 " />
			<path d="M-16.309100262443362,-1.6391328334112574 L-16.8747856873926,-1.3125342010401668 " />
			<path d="M-16.007958399869672,-2.803437821175579 L-16.57364382481891,-2.4768391888044885 " />
			<path d="M-16.537494371698685,-0.48947933458692094 L-17.10317979664792,-0.1628807022158304 " />
			<path d="M-16.03502733133697,1.5197281820499997 L-16.600712756286207,1.8463268144210903 " />
			<path d="M-15.505491359507964,2.2415582038267052 L-16.0711767844572,2.5681568361977956 " />
			<path d="M-14.72725957982316,2.8491066118715125 L-15.292945004772399,3.175705244242603 " />
			<path d="M-14.043769060273895,3.0932980942046333 L-14.609454485223134,3.4198967265757236 " />
			<path d="M-13.076054760318009,3.689125311097449 L-13.641740185267247,4.015723943468539 " />
			<path d="M-29.16711395993652,-37.863226284381774 L-30.439906166072305,-37.12837936154682 " />
			<path d="M29.16711395993652,37.863226284381774 L27.89432175380073,38.59807320721673 " />
			<path d="M-16.52932558166595,-2.6655520282974434 L-17.09501100661519,-2.3389533959263535 " />
			<path d="M-13.181183128127802,3.764513390072273 L-13.74686855307704,4.091112022443363 " />
			<path d="M-26.329498525986654,-2.003111763278175 L-25.693102422918763,-2.3705352246956517 " />
			<path d="M-21.329498525986654,6.6571422745662145 L-20.693102422918763,6.289718813148737 " />

       </g>
    </g>
    
</svg>
