<?xml version="1.0" encoding="UTF-8" standalone="no"?>
<svg
   xmlns:svg="http://www.w3.org/2000/svg"
   xmlns="http://www.w3.org/2000/svg"
   width="960.0"
   height="720.0"

>
    <g transform="scale(7.346938775510204, -7.346938775510204)   translate(52.266666666666666,-37.266666666666666)" stroke-width="0.7"  fill="none">
       <!-- hidden lines -->
       <g  stroke="rgb(160,160,160)" fill="none" stroke-dasharray="0.7,0.7" >

       </g>

       <!-- solid lines -->
       <g  stroke="rgb(37,42,48)" fill="none">
			<path d="M-49.0,-32.0 L-49.0,32.0 " />
			<path d="M-49.0,-32.0 L-48.996053456856544,-32.12558103905862 L-48.984229402628955,-32.2506664671286 L-48.96457450145738,-32.37476262917145 L-48.93716632225726,-32.49737977432971 L-48.90211303259031,-32.61803398874989 L-48.8595529717765,-32.73624910536935 L-48.809654104932044,-32.85155858313014 L-48.75261336008773,-32.96350734820343 L-48.688655851004036,-33.07165358995799 L-48.6180339887499,-33.17557050458494 L-48.54102648555158,-33.27484797949737 L-48.45793725484283,-33.36909421185737 L-48.36909421185739,-33.45793725484282 L-48.27484797949739,-33.54102648555157 L-48.175570504584954,-33.618033988749886 L-48.071653589958004,-33.68865585100402 L-47.96350734820344,-33.75261336008772 L-47.851558583130156,-33.80965410493204 L-47.73624910536937,-33.859552971776495 L-47.61803398874991,-33.9021130325903 L-47.49737977432972,-33.937166322257255 L-47.374762629171464,-33.96457450145738 L-47.250666467128625,-33.984229402628955 L-47.125581039058645,-33.996053456856544 L-47.00000000000002,-34.0 " />
			<path d="M-49.0,32.0 L-48.996053456856544,32.12558103905862 L-48.984229402628955,32.25066646712861 L-48.96457450145738,32.37476262917145 L-48.93716632225726,32.49737977432971 L-48.90211303259031,32.61803398874989 L-48.8595529717765,32.73624910536935 L-48.80965410493204,32.85155858313015 L-48.75261336008773,32.96350734820343 L-48.68865585100403,33.071653589958 L-48.61803398874989,33.17557050458495 L-48.541026485551576,33.27484797949738 L-48.45793725484282,33.36909421185738 L-48.36909421185737,33.457937254842825 L-48.27484797949738,33.54102648555158 L-48.17557050458495,33.61803398874989 L-48.07165358995799,33.68865585100403 L-47.96350734820343,33.75261336008773 L-47.85155858313014,33.809654104932044 L-47.73624910536935,33.8595529717765 L-47.61803398874989,33.90211303259031 L-47.49737977432971,33.93716632225726 L-47.37476262917144,33.96457450145738 L-47.2506664671286,33.984229402628955 L-47.12558103905862,33.996053456856544 L-46.99999999999999,34.0 " />
			<path d="M-47.0,-34.0 L47.0,-34.0 " />
			<path d="M-47.0,34.0 L47.0,34.0 " />
			<path d="M49.0,-32.0 L48.996053456856544,-32.12558103905862 L48.984229402628955,-32.2506664671286 L48.96457450145738,-32.37476262917145 L48.93716632225726,-32.49737977432971 L48.90211303259031,-32.61803398874989 L48.8595529717765,-32.73624910536935 L48.809654104932044,-32.85155858313014 L48.75261336008773,-32.96350734820343 L48.688655851004036,-33.07165358995799 L48.6180339887499,-33.17557050458494 L48.54102648555158,-33.27484797949737 L48.45793725484283,-33.36909421185737 L48.36909421185739,-33.45793725484282 L48.27484797949739,-33.54102648555157 L48.175570504584954,-33.618033988749886 L48.071653589958004,-33.68865585100402 L47.96350734820344,-33.75261336008772 L47.851558583130156,-33.80965410493204 L47.73624910536937,-33.859552971776495 L47.61803398874991,-33.9021130325903 L47.49737977432972,-33.937166322257255 L47.374762629171464,-33.96457450145738 L47.250666467128625,-33.984229402628955 L47.125581039058645,-33.996053456856544 L47.00000000000002,-34.0 " />
			<path d="M49.0,32.0 L48.996053456856544,32.12558103905862 L48.984229402628955,32.25066646712861 L48.96457450145738,32.37476262917145 L48.93716632225726,32.49737977432971 L48.90211303259031,32.61803398874989 L48.8595529717765,32.73624910536935 L48.80965410493204,32.85155858313015 L48.75261336008773,32.96350734820343 L48.68865585100403,33.071653589958 L48.61803398874989,33.17557050458495 L48.541026485551576,33.27484797949738 L48.45793725484282,33.36909421185738 L48.36909421185737,33.457937254842825 L48.27484797949738,33.54102648555158 L48.17557050458495,33.61803398874989 L48.07165358995799,33.68865585100403 L47.96350734820343,33.75261336008773 L47.85155858313014,33.809654104932044 L47.73624910536935,33.8595529717765 L47.61803398874989,33.90211303259031 L47.49737977432971,33.93716632225726 L47.37476262917144,33.96457450145738 L47.2506664671286,33.984229402628955 L47.12558103905862,33.996053456856544 L46.99999999999999,34.0 " />
			<path d="M49.0,-32.0 L49.0,32.0 " />
			<path d="M-41.9,-25.799999999999997 L-41.800000000000004,-25.799999999999997 " />
			<path d="M-41.9,-29.0 L-41.9,-25.8 " />
			<path d="M-41.800000000000004,-25.799999999999997 L-41.800000000000004,27.1 " />
			<path d="M-41.9,-29.0 L41.9,-29.0 " />
			<path d="M-41.800000000000004,27.1 L-38.6,27.1 " />
			<path d="M41.9,-29.0 L41.9,-25.8 " />
			<path d="M-38.6,-25.799999999999997 L-38.6,27.1 " />
			<path d="M41.800000000000004,-25.799999999999997 L41.9,-25.799999999999997 " />
			<path d="M-38.6,-25.799999999999997 L38.6,-25.799999999999997 " />
			<path d="M41.800000000000004,-25.799999999999997 L41.800000000000004,27.1 " />
			<path d="M38.6,-25.799999999999997 L38.6,27.1 " />
			<path d="M38.6,27.1 L41.800000000000004,27.1 " />
			<path d="M-36.0,25.799999999999997 L-36.0,28.999999999999996 " />
			<path d="M-36.0,29.0 L-18.0,29.0 " />
			<path d="M-36.0,25.799999999999997 L-18.0,25.799999999999997 " />
			<path d="M-18.0,25.799999999999997 L-18.0,28.999999999999996 " />
			<path d="M18.0,25.799999999999997 L18.0,28.999999999999996 " />
			<path d="M18.0,25.799999999999997 L36.0,25.799999999999997 " />
			<path d="M36.0,25.799999999999997 L36.0,28.999999999999996 " />
			<path d="M18.0,29.0 L36.0,29.0 " />

       </g>
    </g>
    
</svg>
