<?xml version="1.0" encoding="UTF-8" standalone="no"?>
<svg
   xmlns:svg="http://www.w3.org/2000/svg"
   xmlns="http://www.w3.org/2000/svg"
   width="960.0"
   height="720.0"

>
    <g transform="scale(5.649185650850974, -5.649185650850974)   translate(38.89663222165919,-52.69609657284207)" stroke-width="0.7"  fill="none">
       <!-- hidden lines -->
       <g  stroke="rgb(160,160,160)" fill="none" stroke-dasharray="0.7,0.7" >

       </g>

       <!-- solid lines -->
       <g  stroke="rgb(37,42,48)" fill="none">
			<path d="M36.910973977937786,-44.825662292932165 L36.910973977937786,7.430118886442308 " />
			<path d="M34.64823227814083,-46.13205682241653 L34.64823227814083,6.123724356957943 " />
			<path d="M36.910973977937786,-44.82566229293216 L36.90927049576667,-44.904805963686925 L36.904164153091074,-44.98179195862657 L36.89566725153777,-45.05643481174611 L36.883800260886844,-45.12855470187443 L36.86859176975819,-45.197977885879254 L36.850078416739045,-45.264537117229565 L36.82830480211842,-45.32807204890714 L36.80332338044107,-45.388429619696566 L36.77519433413993,-45.445464422923116 L36.74398542855137,-45.49903905675015 L36.709771848662506,-45.549024455192196 L36.672636017984054,-45.595300199046214 L36.63266739998484,-45.63775480599197 L36.589962282566454,-45.67628599916275 L36.544623546097284,-45.710800953539284 L36.4967604155647,-45.74121651957331 " />
			<path d="M36.910973977937786,7.430118886442308 L36.90927049576667,7.511229568977187 L36.904164153091074,7.594111860553491 L36.89566725153777,7.6785660904711825 L36.883800260886844,7.764388801093071 L36.86859176975819,7.851373237992089 L36.850078416739045,7.939309848040809 L36.82830480211842,8.027986784243286 L36.80332338044107,8.117190416093027 L36.77519433413993,8.206705844227589 L36.74398542855137,8.296317418139973 L36.709771848662506,8.385809255699574 L36.672636017984054,8.474965763231154 L36.63266739998484,8.563572154898882 L36.589962282566454,8.651414970144224 L36.544623546097284,8.738282587931135 L36.496760415564694,8.82396573655966 L36.44648819744245,8.908257997819796 L36.393928001907334,8.990956304271037 L36.33920645107411,9.071861428449628 L36.2824553739518,9.15077846282497 L36.22381148885597,9.227517289348935 L36.16341607404244,9.3018930374669 L36.101414627355496,9.373726529487103 L36.03795651571089,9.442844712235395 L35.97319461525785,9.509081073955501 L35.90728494308705,9.572276045450415 L35.84038628137174,9.63227738449858 L35.77265979484764,9.688940542618734 L35.704268642552904,9.742129013299856 L35.63537758476379,9.79171466085732 L35.56615258607263,9.837578029122964 L35.49676041556471,9.87960862922548 " />
			<path d="M35.496760415564694,9.879608629225487 L-30.971277015970784,48.25494793282862 " />
			<path d="M-31.971277015970788,48.354005578542036 L-31.921004797848543,48.3802484824709 L-31.868444602313424,48.40225550284042 L-31.813723051480206,48.41997362281095 L-31.75697197435789,48.43336015787955 L-31.69832808926207,48.442382858710715 L-31.637932674448535,48.447019988827854 L-31.57593122776159,48.44726037697835 L-31.512473116116986,48.44310344404609 L-31.447711215663947,48.43455920444661 L-31.381801543493147,48.421648242001496 L-31.31490288177784,48.404401660350146 L-31.24717639525373,48.382861008018374 L-31.178785242959002,48.35707817832439 L-31.10989418516988,48.327115284363245 L-31.040669186478727,48.293044509370915 L-30.971277015970795,48.254947932828614 " />
			<path d="M34.64823227814083,-46.13205682241652 L34.646528795969715,-46.21120049317129 L34.64142245329412,-46.28818648811094 L34.63292555174082,-46.36282934123047 L34.62105856108989,-46.43494923135879 L34.605850069961235,-46.50437241536362 L34.58733671694209,-46.57093164671393 L34.56556310232146,-46.6344665783915 L34.54058168064412,-46.69482414918093 L34.51245263434298,-46.75185895240748 L34.481243728754414,-46.805433586234514 L34.44703014886555,-46.85541898467656 L34.4098943181871,-46.90169472853058 L34.369925700187885,-46.94414933547633 L34.3272205827695,-46.982680528647116 L34.28188184630033,-47.01719548302365 L34.234018715767746,-47.04761104905767 " />
			<path d="M34.23401871576774,-47.04761104905767 L34.183746497645494,-47.07385395298653 L34.13118630211037,-47.095860973356054 L34.07646475127716,-47.113579093326585 L34.01971367415484,-47.12696562839518 L33.96106978905902,-47.13598832922635 L33.90067437424548,-47.14062545934349 L33.83867292755854,-47.140865847493984 L33.775214815913934,-47.13670891456172 L33.7104529154609,-47.12816467496224 L33.644543243290094,-47.11525371251713 L33.57764458157479,-47.09800713086578 L33.50991809505068,-47.07646647853401 L33.44152694275595,-47.05068364884003 L33.37263588496683,-47.02072075487888 L33.30341088627568,-46.98664997988655 L33.23401871576774,-46.94855340334425 " />
			<path d="M34.64823227814083,6.123724356957947 L34.646528795969715,6.204835039492826 L34.64142245329412,6.28771733106913 L34.63292555174082,6.372171560986821 L34.62105856108989,6.45799427160871 L34.605850069961235,6.544978708507728 L34.58733671694209,6.632915318556448 L34.56556310232146,6.721592254758925 L34.54058168064412,6.810795886608665 L34.51245263434298,6.900311314743228 L34.481243728754414,6.98992288865561 L34.44703014886555,7.079414726215211 L34.4098943181871,7.168571233746793 L34.369925700187885,7.257177625414521 L34.3272205827695,7.345020440659863 L34.28188184630033,7.4318880584467735 L34.23401871576774,7.5175712070752985 L34.183746497645494,7.601863468335435 L34.13118630211038,7.684561774786677 L34.07646475127716,7.765466898965267 L34.01971367415484,7.844383933340608 L33.96106978905902,7.9211227598645735 L33.90067437424548,7.995498507982538 L33.83867292755854,8.067332000002741 L33.775214815913934,8.136450182751034 L33.7104529154609,8.20268654447114 L33.644543243290094,8.265881515966054 L33.57764458157479,8.32588285501422 L33.509918095050686,8.382546013134373 L33.44152694275595,8.435734483815494 L33.37263588496683,8.485320131372958 L33.30341088627568,8.531183499638603 L33.23401871576775,8.573214099741119 " />
			<path d="M33.23401871576774,8.573214099741126 L35.496760415564694,9.879608629225487 " />
			<path d="M33.23401871576774,-46.948553403344256 L-33.23401871576774,-8.573214099741122 " />
			<path d="M33.23401871576774,8.573214099741126 L23.33452377915607,14.28869016623521 " />
			<path d="M-34.64823227814083,-6.123724356957947 L-34.646528795969715,-6.204835039492825 L-34.64142245329412,-6.287717331069129 L-34.63292555174082,-6.37217156098682 L-34.62105856108989,-6.45799427160871 L-34.605850069961235,-6.544978708507728 L-34.58733671694209,-6.632915318556448 L-34.56556310232146,-6.721592254758925 L-34.54058168064412,-6.810795886608666 L-34.51245263434298,-6.900311314743229 L-34.48124372875441,-6.989922888655611 L-34.44703014886555,-7.079414726215213 L-34.4098943181871,-7.1685712337467935 L-34.369925700187885,-7.25717762541452 L-34.3272205827695,-7.345020440659862 L-34.28188184630033,-7.431888058446773 L-34.23401871576774,-7.517571207075298 L-34.183746497645494,-7.601863468335434 L-34.13118630211038,-7.684561774786676 L-34.07646475127716,-7.765466898965267 L-34.01971367415484,-7.844383933340607 L-33.96106978905902,-7.921122759864572 L-33.90067437424549,-7.9954985079825365 L-33.83867292755854,-8.06733200000274 L-33.77521481591394,-8.136450182751032 L-33.7104529154609,-8.202686544471138 L-33.644543243290094,-8.265881515966052 L-33.57764458157479,-8.325882855014218 L-33.509918095050686,-8.382546013134371 L-33.44152694275595,-8.435734483815496 L-33.37263588496683,-8.485320131372958 L-33.30341088627568,-8.531183499638605 L-33.234018715767746,-8.57321409974112 " />
			<path d="M23.33452377915607,2.85773803324704 L23.33452377915607,14.288690166235206 " />
			<path d="M-34.64823227814083,-6.123724356957947 L-34.64823227814083,46.13205682241653 " />
			<path d="M-34.64823227814083,46.13205682241652 L-34.646528795969715,46.21120049317129 L-34.64142245329412,46.28818648811094 L-34.63292555174082,46.36282934123047 L-34.62105856108989,46.43494923135879 L-34.605850069961235,46.50437241536362 L-34.58733671694209,46.57093164671393 L-34.56556310232146,46.6344665783915 L-34.54058168064412,46.69482414918093 L-34.51245263434298,46.75185895240748 L-34.48124372875441,46.805433586234514 L-34.447030148865544,46.85541898467656 L-34.4098943181871,46.90169472853058 L-34.369925700187885,46.94414933547633 L-34.3272205827695,46.982680528647116 L-34.28188184630033,47.01719548302365 L-34.234018715767746,47.04761104905767 " />
			<path d="M-34.23401871576774,47.04761104905767 L-34.183746497645494,47.07385395298653 L-34.13118630211038,47.095860973356054 L-34.07646475127716,47.113579093326585 L-34.01971367415484,47.12696562839518 L-33.96106978905902,47.13598832922635 L-33.90067437424548,47.14062545934349 L-33.83867292755854,47.140865847493984 L-33.775214815913934,47.13670891456172 L-33.7104529154609,47.12816467496224 L-33.644543243290094,47.11525371251713 L-33.57764458157479,47.09800713086578 L-33.50991809505068,47.07646647853401 L-33.44152694275595,47.05068364884003 L-33.37263588496683,47.02072075487888 L-33.30341088627568,46.98664997988655 L-33.234018715767746,46.94855340334425 " />
			<path d="M-23.334523779156072,41.23307733685017 L-33.23401871576774,46.94855340334426 " />
			<path d="M10.60660171779821,21.63715939458475 L-10.60660171779822,33.88460810850064 " />
			<path d="M-10.606601717798213,22.45365597551247 L-10.606601717798213,33.884608108500636 " />
			<path d="M21.213203435596427,-35.10935297989222 L21.213203435596427,-28.577380332470412 " />
			<path d="M21.213203435596427,-28.577380332470412 L12.727922061357855,-23.678400846904054 " />
			<path d="M-12.727922061357857,-15.513435037626795 L-12.727922061357857,-8.981462390204985 " />
			<path d="M-12.727922061357857,-8.981462390204985 L-21.213203435596427,-4.082482904638628 " />
			<path d="M-33.23401871576774,46.94855340334425 L-30.971277015970784,48.254947932828614 " />
			<path d="M-23.33452377915607,41.23307733685017 L-28.001428534987284,38.53863861978868 " />
			<path d="M-15.273506473629427,31.19016939143914 L-28.001428534987284,38.53863861978868 " />
			<path d="M-10.606601717798213,33.884608108500636 L-15.273506473629428,31.190169391439138 " />
			<path d="M10.606601717798213,21.637159394584742 L5.939696961966999,18.942720677523244 " />
			<path d="M18.667619023324853,11.594251449173711 L5.939696961966995,18.942720677523248 " />
			<path d="M23.33452377915607,14.288690166235208 L18.667619023324853,11.594251449173711 " />
			<path d="M18.667619023324853,11.594251449173711 L18.667619023324853,-3.1026870075253594 " />
			<path d="M18.667619023324853,-3.1026870075253594 L20.08183258569795,-2.286190426597633 " />
			<path d="M20.08183258569795,-2.286190426597633 L20.08183258569795,10.614455552060441 " />
			<path d="M20.08183258569795,10.614455552060441 L21.778888860545663,11.594251449173713 " />
			<path d="M21.778888860545663,11.594251449173713 L21.778888860545663,1.9595917942265437 " />
			<path d="M21.778888860545663,1.9595917942265413 L23.33452377915607,2.85773803324704 " />
			<path d="M21.778888860545663,1.9595917942265413 L20.08183258569795,2.939387691339813 " />
			<path d="M5.939696961967,18.942720677523248 L5.939696961967,4.245782220824177 " />
			<path d="M-28.001428534987284,38.53863861978868 L-28.001428534987284,23.841700163089605 " />
			<path d="M-15.273506473629427,31.19016939143914 L-15.273506473629427,16.49323093474007 " />
			<path d="M-15.273506473629427,16.49323093474007 L-13.85929291125633,17.309727515667795 " />
			<path d="M-13.859292911256333,17.309727515667795 L-13.859292911256333,30.21037349432587 " />
			<path d="M-13.859292911256333,30.21037349432587 L-12.162236636408618,31.19016939143914 " />
			<path d="M-12.162236636408618,31.19016939143914 L-12.162236636408618,21.55550973649197 " />
			<path d="M-12.162236636408618,21.55550973649197 L-10.606601717798213,22.45365597551247 " />
			<path d="M-12.162236636408618,21.55550973649197 L-13.859292911256333,22.53530563360524 " />
			<path d="M20.50609665440988,-35.51760127035608 L21.213203435596427,-35.109352979892215 " />
			<path d="M20.50609665440988,-28.985628622934275 L21.213203435596427,-28.577380332470412 " />
			<path d="M20.50609665440988,-35.51760127035608 L20.50609665440988,-28.98562862293427 " />
			<path d="M20.50609665440988,-28.985628622934275 L12.020815280171309,-24.086649137367917 " />
			<path d="M12.020815280171309,-24.08664913736792 L12.727922061357857,-23.678400846904058 " />
			<path d="M20.50609665440988,-35.51760127035608 L12.020815280171309,-30.618621784789724 " />
			<path d="M12.020815280171309,-30.61862178478973 L12.020815280171309,-24.08664913736792 " />
			<path d="M-13.435028842544405,-15.921683328090658 L-12.727922061357857,-15.513435037626795 " />
			<path d="M-13.435028842544405,-9.389710680668848 L-12.727922061357857,-8.981462390204985 " />
			<path d="M-13.435028842544405,-15.921683328090658 L-13.435028842544405,-9.389710680668848 " />
			<path d="M-13.435028842544405,-15.921683328090658 L-21.920310216782976,-11.022703842524301 " />
			<path d="M-21.920310216782973,-4.490731195102493 L-21.213203435596427,-4.0824829046386295 " />
			<path d="M-21.920310216782973,-11.022703842524303 L-21.920310216782973,-4.4907311951024935 " />
			<path d="M-13.435028842544405,-9.389710680668848 L-21.920310216782976,-4.490731195102491 " />
			<path d="M-15.273506473629427,16.49323093474007 L-28.001428534987284,23.841700163089605 " />
			<path d="M18.667619023324853,-3.1026870075253594 L5.939696961966995,4.245782220824178 " />
			<path d="M34.64823227814083,-46.13205682241653 L36.910973977937786,-44.825662292932165 " />
			<path d="M34.64823227814083,6.123724356957947 L36.910973977937786,7.430118886442309 " />
			<path d="M34.23401871576773,-47.04761104905768 L36.49676041556469,-45.741216519573314 " />
			<path d="M-34.23401871576773,47.04761104905768 L-31.971277015970777,48.35400557854204 " />

       </g>
    </g>
    
</svg>
