<?xml version="1.0" encoding="UTF-8" standalone="no"?>
<svg
   xmlns:svg="http://www.w3.org/2000/svg"
   xmlns="http://www.w3.org/2000/svg"
   width="960.0"
   height="720.0"

>
    <g transform="scale(7.052026965346288, -7.052026965346288)   translate(32.81891893080645,-42.057564671131814)" stroke-width="0.7"  fill="none">
       <!-- hidden lines -->
       <g  stroke="rgb(160,160,160)" fill="none" stroke-dasharray="0.7,0.7" >

       </g>

       <!-- solid lines -->
       <g  stroke="rgb(37,42,48)" fill="none">
			<path d="M30.688434303496166,-36.57904682556213 L30.688434303496166,4.082482904638631 " />
			<path d="M29.41564209736038,-37.313893748397085 L29.41564209736038,3.347635981803677 " />
			<path d="M30.688434303496166,-36.57904682556214 L30.687412214193493,-36.626533028015 L30.684348408588136,-36.672724624978784 L30.679250267656155,-36.7175103368505 L30.672130073265595,-36.76078227092749 L30.663004978588404,-36.80243618133039 L30.651896966776917,-36.84237172014058 L30.638832798004543,-36.880492679147125 L30.623843944998132,-36.91670722162078 L30.60696651721745,-36.950928103556706 L30.58824117386431,-36.98307288385293 L30.567713025930992,-37.01306412291816 L30.545431527523924,-37.04082956923057 L30.521450356724394,-37.06630233339802 L30.49582728627336,-37.08942104930049 L30.468624044391863,-37.11013002192641 L30.439906166072312,-37.12837936154682 " />
			<path d="M-27.894321753800735,38.598073207216736 L-27.86415842292739,38.61381894957405 L-27.832622305606318,38.62702316179576 L-27.799789375106386,38.63765403377808 L-27.765738728832996,38.645685954819236 L-27.730552397775504,38.65109957531794 L-27.694315148887384,38.65388185338822 L-27.657114280875216,38.65402608627852 L-27.61903941388845,38.65153192651916 L-27.580182273616632,38.646405382759475 L-27.540636470314148,38.63865880529241 L-27.500497273284964,38.628310856301596 L-27.4598613813705,38.615386464902535 L-27.41882668999366,38.59991676708615 L-27.37749205532019,38.58193903070946 L-27.3359570561055,38.56149656571406 L-27.294321753800737,38.53863861978868 " />
			<path d="M-7.778174593052022,27.270985802986058 L-27.294321753800737,38.53863861978868 " />
			<path d="M9.050966799187808,21.637159394584746 L-6.50538238691624,30.618621784789735 " />
			<path d="M9.050966799187808,17.554676489946115 L9.050966799187808,21.637159394584746 " />
			<path d="M29.839906166072307,5.552176750308541 L9.050966799187805,17.554676489946118 " />
			<path d="M30.688434303496166,4.08248290463863 L30.684348408588136,4.18087868910534 L30.672130073265595,4.283044853429089 L30.65189696677692,4.387997481597732 L30.623843944998136,4.4947258224290625 L30.58824117386431,4.602202023657229 L30.545431527523924,4.709391030711939 L30.49582728627336,4.815260554859781 L30.43990616607231,4.918791014709043 L30.37820671787789,5.018985355335869 L30.31132314110457,5.114878650468229 L30.239899561158957,5.205547395253387 L30.164623826160028,5.290118400114484 L30.08622088258572,5.367777200043497 L30.005445793642075,5.437775898344489 L29.923076467591763,5.4994403692876395 L29.839906166072314,5.5521767503085355 " />
			<path d="M29.415642097360376,-37.31389374839709 L29.414620008057707,-37.36137995084995 L29.41155620245235,-37.40757154781374 L29.406458061520368,-37.452357259685456 L29.39933786712981,-37.49562919376245 L29.390212772452617,-37.53728310416535 L29.37910476064113,-37.57721864297553 L29.366040591868757,-37.61533960198208 L29.351051738862346,-37.65155414445574 L29.334174311081664,-37.68577502639166 L29.315448967728525,-37.71791980668788 L29.294920819795205,-37.74791104575311 L29.272639321388137,-37.77567649206552 L29.248658150588607,-37.801149256232975 L29.223035080137574,-37.824267972135445 L29.195831838256076,-37.84497694476136 L29.167113959936525,-37.863226284381774 " />
			<path d="M29.167113959936522,-37.86322628438178 L29.136950629063172,-37.8789720267391 L29.1054145117421,-37.89217623896081 L29.072581581242172,-37.90280711094312 L29.038530934968783,-37.91083903198428 L29.003344603911287,-37.91625265248299 L28.967107355023167,-37.919034930553266 L28.929906487011,-37.919179163443566 L28.891831620024238,-37.91668500368421 L28.85297447975242,-37.91155845992452 L28.813428676449934,-37.903811882457454 L28.77328947942075,-37.89346393346664 L28.732653587506285,-37.88053954206758 L28.691618896129448,-37.865069844251195 L28.650284261455976,-37.8470921078745 L28.608749262241286,-37.826649642879104 L28.56711395993652,-37.80379169695372 " />
			<path d="M29.415642097360376,3.3476359818036774 L29.41155620245235,3.446031766270386 L29.39933786712981,3.5481979305941347 L29.379104760641134,3.6531505587627784 L29.351051738862346,3.759878899594109 L29.315448967728525,3.867355100822276 L29.272639321388137,3.9745441078769854 L29.223035080137578,4.080413632024827 L29.167113959936522,4.183944091874089 L29.105414511742104,4.2841384325009155 L29.038530934968783,4.380031727633275 L28.96710735502317,4.470700472418433 L28.89183162002424,4.555271477279531 L28.813428676449934,4.632930277208543 L28.732653587506288,4.702928975509535 L28.650284261455976,4.764593446452686 L28.567113959936528,4.817329827473582 " />
			<path d="M28.56711395993652,-37.803791696953716 L-28.567113959936524,-4.8173298274735785 " />
			<path d="M-29.415642097360376,-3.34763598180368 L-29.41155620245235,-3.446031766270389 L-29.39933786712981,-3.5481979305941374 L-29.379104760641134,-3.6531505587627806 L-29.351051738862346,-3.7598788995941113 L-29.315448967728525,-3.8673551008222784 L-29.272639321388137,-3.9745441078769876 L-29.223035080137574,-4.080413632024829 L-29.167113959936522,-4.183944091874091 L-29.105414511742104,-4.284138432500917 L-29.038530934968783,-4.380031727633276 L-28.96710735502317,-4.470700472418433 L-28.891831620024238,-4.555271477279531 L-28.813428676449934,-4.632930277208543 L-28.732653587506288,-4.7029289755095345 L-28.650284261455976,-4.764593446452686 L-28.567113959936524,-4.817329827473584 " />
			<path d="M-29.41564209736038,-3.3476359818036796 L-29.41564209736038,37.31389374839708 " />
			<path d="M-29.415642097360376,37.313893748397085 L-29.414620008057707,37.36137995084995 L-29.41155620245235,37.40757154781374 L-29.406458061520368,37.452357259685456 L-29.39933786712981,37.49562919376245 L-29.390212772452617,37.53728310416534 L-29.379104760641134,37.57721864297553 L-29.366040591868757,37.61533960198208 L-29.351051738862346,37.65155414445573 L-29.334174311081664,37.68577502639166 L-29.315448967728525,37.71791980668788 L-29.294920819795205,37.74791104575311 L-29.272639321388137,37.77567649206552 L-29.248658150588607,37.801149256232975 L-29.223035080137578,37.824267972135445 L-29.195831838256076,37.84497694476136 L-29.167113959936525,37.863226284381774 " />
			<path d="M-29.167113959936522,37.86322628438178 L-29.136950629063175,37.87897202673909 L-29.105414511742104,37.89217623896081 L-29.072581581242172,37.90280711094312 L-29.038530934968783,37.91083903198428 L-29.00334460391129,37.91625265248299 L-28.96710735502317,37.919034930553266 L-28.929906487011003,37.919179163443566 L-28.891831620024238,37.91668500368421 L-28.85297447975242,37.91155845992452 L-28.813428676449934,37.903811882457454 L-28.77328947942075,37.89346393346664 L-28.732653587506288,37.88053954206758 L-28.691618896129448,37.865069844251195 L-28.650284261455976,37.8470921078745 L-28.608749262241286,37.826649642879104 L-28.567113959936524,37.80379169695372 " />
			<path d="M-7.778174593052032,25.801291957316153 L-28.567113959936524,37.80379169695372 " />
			<path d="M-7.778174593052023,25.80129195731615 L-7.778174593052023,29.88377486195478 " />
			<path d="M7.778174593052023,20.90231247174979 L-7.778174593052025,29.88377486195478 " />
			<path d="M7.778174593052023,16.81982956711116 L7.778174593052023,20.90231247174979 " />
			<path d="M28.56711395993652,4.817329827473587 L7.778174593052018,16.819829567111164 " />
			<path d="M9.05096679918781,17.554676489946115 L7.778174593052023,16.81982956711116 " />
			<path d="M7.778174593052023,20.90231247174979 L9.05096679918781,21.637159394584746 " />
			<path d="M-7.778174593052023,29.88377486195478 L-6.505382386916238,30.618621784789735 " />
			<path d="M29.41564209736038,-37.31389374839709 L30.688434303496166,-36.57904682556214 " />
			<path d="M29.41564209736038,3.3476359818036805 L30.688434303496166,4.082482904638634 " />
			<path d="M28.56711395993652,4.817329827473586 L29.839906166072307,5.552176750308539 " />
			<path d="M-28.56711395993652,37.80379169695372 L-27.294321753800734,38.53863861978868 " />
			<path d="M29.16711395993652,-37.863226284381774 L30.439906166072305,-37.12837936154682 " />
			<path d="M-29.16711395993652,37.863226284381774 L-27.89432175380073,38.59807320721673 " />

       </g>
    </g>
    
</svg>
