<?xml version="1.0" encoding="UTF-8" standalone="no"?>
<svg
   xmlns:svg="http://www.w3.org/2000/svg"
   xmlns="http://www.w3.org/2000/svg"
   width="960.0"
   height="720.0"

>
    <g transform="scale(5.649185650850974, -5.649185650850974)   translate(41.159373921456144,-52.69609657284207)" stroke-width="0.7"  fill="none">
       <!-- hidden lines -->
       <g  stroke="rgb(160,160,160)" fill="none" stroke-dasharray="0.7,0.7" >

       </g>

       <!-- solid lines -->
       <g  stroke="rgb(37,42,48)" fill="none">
			<path d="M-36.910973977937786,-44.825662292932165 L-36.910973977937786,7.430118886442308 " />
			<path d="M-36.910973977937786,-44.82566229293216 L-36.90927049576667,-44.904805963686925 L-36.904164153091074,-44.98179195862657 L-36.89566725153777,-45.05643481174611 L-36.883800260886844,-45.12855470187443 L-36.86859176975819,-45.197977885879254 L-36.850078416739045,-45.264537117229565 L-36.82830480211842,-45.32807204890714 L-36.80332338044107,-45.388429619696566 L-36.77519433413993,-45.445464422923116 L-36.74398542855136,-45.49903905675015 L-36.7097718486625,-45.549024455192196 L-36.672636017984054,-45.595300199046214 L-36.63266739998484,-45.63775480599197 L-36.589962282566454,-45.67628599916275 L-36.544623546097284,-45.710800953539284 L-36.4967604155647,-45.74121651957331 " />
			<path d="M-36.496760415564694,-45.74121651957331 L-36.44648819744245,-45.76745942350217 L-36.39392800190733,-45.78946644387169 L-36.33920645107411,-45.80718456384222 L-36.2824553739518,-45.82057109891082 L-36.22381148885597,-45.829593799741986 L-36.16341607404244,-45.834230929859125 L-36.101414627355496,-45.83447131800962 L-36.03795651571089,-45.83031438507736 L-35.97319461525785,-45.82177014547788 L-35.90728494308705,-45.808859183032766 L-35.84038628137174,-45.791612601381416 L-35.772659794847634,-45.770071949049644 L-35.704268642552904,-45.74428911935566 L-35.63537758476379,-45.714326225394515 L-35.56615258607263,-45.680255450402186 L-35.4967604155647,-45.642158873859884 " />
			<path d="M-36.910973977937786,7.430118886442308 L-36.90927049576667,7.511229568977187 L-36.904164153091074,7.5941118605534905 L-36.89566725153777,7.678566090471182 L-36.883800260886844,7.764388801093071 L-36.86859176975819,7.85137323799209 L-36.850078416739045,7.939309848040809 L-36.82830480211842,8.027986784243287 L-36.80332338044107,8.117190416093027 L-36.77519433413993,8.20670584422759 L-36.74398542855137,8.296317418139974 L-36.7097718486625,8.385809255699575 L-36.672636017984054,8.474965763231154 L-36.63266739998484,8.563572154898882 L-36.589962282566454,8.651414970144224 L-36.544623546097284,8.738282587931135 L-36.496760415564694,8.82396573655966 L-36.44648819744245,8.908257997819797 L-36.393928001907334,8.99095630427104 L-36.33920645107411,9.07186142844963 L-36.2824553739518,9.15077846282497 L-36.22381148885597,9.227517289348933 L-36.16341607404244,9.301893037466899 L-36.101414627355496,9.3737265294871 L-36.03795651571089,9.442844712235395 L-35.97319461525785,9.509081073955501 L-35.90728494308705,9.572276045450415 L-35.84038628137174,9.63227738449858 L-35.77265979484764,9.688940542618734 L-35.704268642552904,9.742129013299857 L-35.63537758476379,9.79171466085732 L-35.56615258607263,9.837578029122966 L-35.4967604155647,9.879608629225483 " />
			<path d="M-35.496760415564694,-45.64215887385989 L30.971277015970784,-7.266819570256757 " />
			<path d="M-35.496760415564694,9.879608629225487 L30.971277015970784,48.25494793282862 " />
			<path d="M32.385490578343884,-4.817329827473585 L32.38378709617277,-4.898440510008464 L32.37868075349717,-4.981322801584768 L32.370183851943864,-5.065777031502459 L32.358316861292934,-5.151599742124348 L32.34310837016428,-5.238584179023365 L32.32459501714514,-5.326520789072085 L32.302821402524515,-5.415197725274563 L32.27783998084716,-5.504401357124303 L32.24971093454603,-5.593916785258866 L32.21850202895746,-5.683528359171248 L32.184288449068596,-5.773020196730849 L32.147152618390145,-5.86217670426243 L32.10718400039093,-5.950783095930158 L32.064478882972544,-6.038625911175501 L32.01914014650338,-6.125493528962411 L31.971277015970788,-6.211176677590936 L31.921004797848543,-6.295468938851073 L31.868444602313424,-6.378167245302315 L31.81372305148021,-6.4590723694809045 L31.75697197435789,-6.537989403856246 L31.698328089262066,-6.614728230380211 L31.637932674448535,-6.689103978498176 L31.57593122776159,-6.760937470518378 L31.512473116116986,-6.8300556532666725 L31.44771121566395,-6.896292014986777 L31.381801543493147,-6.959486986481691 L31.31490288177784,-7.019488325529857 L31.24717639525373,-7.07615148365001 L31.178785242959002,-7.129339954331133 L31.109894185169882,-7.178925601888595 L31.04066918647873,-7.224788970154242 L30.971277015970802,-7.2668195702567555 " />
			<path d="M32.385490578343884,47.43845135190089 L32.38378709617277,47.517595022655655 L32.37868075349717,47.5945810175953 L32.370183851943864,47.66922387071484 L32.358316861292934,47.74134376084316 L32.34310837016428,47.810766944847984 L32.32459501714514,47.877326176198295 L32.302821402524515,47.94086110787587 L32.27783998084716,48.001218678665296 L32.24971093454603,48.058253481891846 L32.21850202895746,48.11182811571888 L32.184288449068596,48.161813514160926 L32.147152618390145,48.208089258014944 L32.10718400039093,48.2505438649607 L32.064478882972544,48.28907505813148 L32.019140146503375,48.323590012508014 L31.9712770159708,48.354005578542036 " />
			<path d="M31.971277015970788,48.354005578542036 L31.921004797848543,48.3802484824709 L31.868444602313424,48.40225550284042 L31.813723051480206,48.41997362281095 L31.75697197435789,48.43336015787955 L31.698328089262066,48.442382858710715 L31.637932674448535,48.447019988827854 L31.57593122776159,48.44726037697835 L31.512473116116986,48.44310344404609 L31.44771121566395,48.43455920444661 L31.381801543493147,48.421648242001496 L31.314902881777837,48.404401660350146 L31.24717639525373,48.382861008018374 L31.178785242959,48.35707817832439 L31.10989418516988,48.327115284363245 L31.040669186478727,48.293044509370915 L30.971277015970788,48.254947932828614 " />
			<path d="M32.38549057834388,-4.817329827473585 L32.38549057834388,47.43845135190089 " />
			<path d="M-31.890515831513294,-39.477609687855555 L27.3650324319194,-5.266402946983824 " />
			<path d="M27.365032431919392,-5.266402946983834 L27.365032431919392,-2.65361388801511 " />
			<path d="M-29.55706345359769,-34.21120674087173 L-29.55706345359769,7.675067860720631 " />
			<path d="M27.29432175380074,-2.6127890589687235 L27.29432175380074,40.498230414015225 " />
			<path d="M-27.718585822512665,7.675067860720623 L-14.990663761154806,15.02353708907016 " />
			<path d="M-14.99066376115481,15.023537089070157 L-14.99066376115481,17.63632614803888 " />
			<path d="M10.465180361560904,29.72047554576923 L23.193102422918763,37.06894477411877 " />
			<path d="M23.193102422918763,37.06894477411877 L23.193102422918763,39.68173383308749 " />
			<path d="M-34.23401871576774,-47.04761104905767 L-34.183746497645494,-47.07385395298653 L-34.13118630211038,-47.095860973356054 L-34.07646475127716,-47.113579093326585 L-34.01971367415484,-47.12696562839518 L-33.96106978905902,-47.13598832922635 L-33.90067437424548,-47.14062545934349 L-33.83867292755854,-47.140865847493984 L-33.775214815913934,-47.13670891456172 L-33.7104529154609,-47.12816467496224 L-33.644543243290094,-47.11525371251713 L-33.57764458157479,-47.09800713086578 L-33.50991809505068,-47.07646647853401 L-33.44152694275595,-47.05068364884003 L-33.37263588496683,-47.02072075487888 L-33.30341088627568,-46.98664997988655 L-33.234018715767746,-46.94855340334425 " />
			<path d="M-33.23401871576774,-46.948553403344256 L33.23401871576774,-8.573214099741122 " />
			<path d="M34.64823227814083,-6.123724356957947 L34.646528795969715,-6.204835039492826 L34.64142245329412,-6.28771733106913 L34.63292555174082,-6.372171560986821 L34.62105856108989,-6.45799427160871 L34.605850069961235,-6.544978708507728 L34.58733671694209,-6.632915318556448 L34.56556310232146,-6.721592254758925 L34.54058168064412,-6.810795886608665 L34.51245263434298,-6.900311314743228 L34.481243728754414,-6.98992288865561 L34.44703014886555,-7.079414726215211 L34.4098943181871,-7.168571233746793 L34.369925700187885,-7.257177625414521 L34.3272205827695,-7.345020440659863 L34.28188184630033,-7.4318880584467735 L34.23401871576774,-7.5175712070752985 L34.183746497645494,-7.601863468335435 L34.13118630211038,-7.684561774786677 L34.07646475127716,-7.765466898965267 L34.01971367415484,-7.844383933340608 L33.96106978905902,-7.9211227598645735 L33.90067437424548,-7.995498507982538 L33.83867292755854,-8.067332000002741 L33.775214815913934,-8.136450182751034 L33.7104529154609,-8.20268654447114 L33.644543243290094,-8.265881515966054 L33.57764458157479,-8.32588285501422 L33.509918095050686,-8.382546013134373 L33.44152694275595,-8.435734483815494 L33.37263588496683,-8.485320131372958 L33.30341088627568,-8.531183499638603 L33.23401871576775,-8.573214099741119 " />
			<path d="M34.64823227814083,-6.123724356957947 L34.64823227814083,46.13205682241653 " />
			<path d="M34.64823227814083,46.13205682241652 L34.646528795969715,46.21120049317129 L34.64142245329412,46.28818648811094 L34.63292555174082,46.36282934123047 L34.62105856108989,46.43494923135879 L34.605850069961235,46.50437241536362 L34.58733671694209,46.57093164671393 L34.56556310232146,46.6344665783915 L34.54058168064412,46.69482414918093 L34.51245263434298,46.75185895240748 L34.481243728754414,46.805433586234514 L34.44703014886555,46.85541898467656 L34.4098943181871,46.90169472853058 L34.369925700187885,46.94414933547633 L34.3272205827695,46.982680528647116 L34.28188184630033,47.01719548302365 L34.234018715767746,47.04761104905767 " />
			<path d="M-33.02188668141177,-36.21162336414466 L-32.95117600329312,-36.17079853509827 " />
			<path d="M-31.890515831513294,-39.477609687855555 L-33.02188668141177,-38.82441242311337 " />
			<path d="M-33.02188668141177,-38.82441242311338 L-33.02188668141177,-36.21162336414466 " />
			<path d="M-32.95117600329312,-36.17079853509827 L-32.95117600329312,7.0218705959784415 " />
			<path d="M27.365032431919392,-5.266402946983834 L26.233661582020915,-4.613205682241652 " />
			<path d="M-33.02188668141177,-38.82441242311338 L26.233661582020922,-4.613205682241649 " />
			<path d="M-29.55706345359769,7.675067860720628 L-30.688434303496166,8.32826512546281 " />
			<path d="M-32.95117600329312,7.021870595978444 L-30.688434303496166,8.328265125462806 " />
			<path d="M26.233661582020915,-4.613205682241653 L26.233661582020915,-2.0004166232729292 " />
			<path d="M27.365032431919392,-2.6536138880151077 L26.233661582020915,-2.0004166232729266 " />
			<path d="M-30.688434303496166,-34.864404005613906 L-30.688434303496166,8.328265125462806 " />
			<path d="M26.162950903902264,-2.041241452319312 L26.233661582020922,-2.000416623272926 " />
			<path d="M-30.688434303496166,-34.864404005613906 L23.900209204105323,-3.34763598180367 " />
			<path d="M26.162950903902264,-2.041241452319311 L26.162950903902264,41.1514276787574 " />
			<path d="M27.29432175380074,40.498230414015225 L26.162950903902264,41.15142767875741 " />
			<path d="M23.90020920410531,-3.347635981803676 L23.90020920410531,39.845033149273036 " />
			<path d="M23.90020920410531,39.845033149273036 L26.162950903902264,41.1514276787574 " />
			<path d="M-27.718585822512665,7.675067860720623 L-28.849956672411142,8.328265125462805 " />
			<path d="M-28.849956672411142,8.328265125462805 L-28.849956672411142,10.941054184431529 " />
			<path d="M-14.99066376115481,17.636326148038883 L-16.122034611053287,18.289523412781065 " />
			<path d="M-28.849956672411142,10.94105418443153 L-16.122034611053284,18.28952341278107 " />
			<path d="M-14.99066376115481,15.023537089070157 L-16.122034611053287,15.676734353812337 " />
			<path d="M-28.849956672411142,8.328265125462805 L-16.122034611053284,15.676734353812343 " />
			<path d="M-16.122034611053287,15.67673435381234 L-16.122034611053287,18.28952341278106 " />
			<path d="M10.465180361560904,29.72047554576923 L9.333809511662427,30.37367281051141 " />
			<path d="M9.333809511662428,30.37367281051141 L9.333809511662428,32.98646186948014 " />
			<path d="M23.193102422918763,37.06894477411877 L22.061731573020285,37.72214203886095 " />
			<path d="M9.333809511662428,30.37367281051141 L22.06173157302029,37.72214203886095 " />
			<path d="M22.061731573020285,37.722142038860945 L22.061731573020285,40.33493109782967 " />
			<path d="M23.193102422918763,39.68173383308749 L22.061731573020285,40.334931097829674 " />
			<path d="M9.333809511662428,32.98646186948014 L22.06173157302029,40.334931097829674 " />
			<path d="M-33.23401871576774,-46.94855340334425 L-35.496760415564694,-45.642158873859884 " />
			<path d="M33.23401871576774,-8.573214099741126 L30.971277015970784,-7.2668195702567635 " />
			<path d="M34.64823227814083,-6.123724356957947 L32.38549057834388,-4.817329827473585 " />
			<path d="M34.64823227814083,46.13205682241653 L32.38549057834388,47.438451351900895 " />
			<path d="M-34.23401871576773,-47.04761104905768 L-36.49676041556469,-45.741216519573314 " />
			<path d="M34.23401871576773,47.04761104905768 L31.971277015970777,48.35400557854204 " />

       </g>
    </g>
    
</svg>
