<?xml version="1.0" encoding="UTF-8" standalone="no"?>
<svg
   xmlns:svg="http://www.w3.org/2000/svg"
   xmlns="http://www.w3.org/2000/svg"
   width="960.0"
   height="720.0"

>
    <g transform="scale(8.653846153846153, -8.653846153846153)   translate(44.373333333333335,-33.873333333333335)" stroke-width="0.7"  fill="none">
       <!-- hidden lines -->
       <g  stroke="rgb(160,160,160)" fill="none" stroke-dasharray="0.7,0.7" >

       </g>

       <!-- solid lines -->
       <g  stroke="rgb(37,42,48)" fill="none">
			<path d="M-41.6,-24.900000000000002 L-41.6,24.9 " />
			<path d="M-41.6,-24.900000000000002 L-41.59630080047975,-24.994150914873416 L-41.585226008714166,-25.08772135804828 L-41.56684390447721,-25.18013443662709 L-41.54126781955418,-25.27082039324994 L-41.508655439013545,-25.359220118838113 L-41.46920782902604,-25.44478859968746 L-41.42316819722491,-25.526998277659143 L-41.370820393249936,-25.605342302750973 L-41.31248715872003,-25.679337657996225 L-41.248528137423854,-25.74852813742386 L-41.179337657996214,-25.812487158720042 L-41.10534230275096,-25.870820393249943 L-41.02699827765913,-25.923168197224918 L-40.94478859968745,-25.969207829026047 L-40.8592201188381,-26.00865543901355 L-40.77082039324993,-26.04126781955419 L-40.68013443662708,-26.066843904477217 L-40.58772135804826,-26.08522600871417 L-40.4941509148734,-26.096300800479757 L-40.39999999999999,-26.1 " />
			<path d="M-40.4,-26.1 L2.8000000000000043,-26.1 " />
			<path d="M35.20000000000001,-26.1 L40.4,-26.1 " />
			<path d="M41.6,-24.900000000000002 L41.59630080047975,-24.994150914873416 L41.585226008714166,-25.08772135804828 L41.56684390447721,-25.18013443662709 L41.54126781955418,-25.27082039324994 L41.508655439013545,-25.359220118838113 L41.46920782902604,-25.44478859968746 L41.42316819722491,-25.526998277659143 L41.370820393249936,-25.605342302750973 L41.31248715872003,-25.679337657996225 L41.248528137423854,-25.74852813742386 L41.179337657996214,-25.812487158720042 L41.10534230275096,-25.870820393249943 L41.02699827765913,-25.923168197224918 L40.94478859968745,-25.969207829026047 L40.8592201188381,-26.00865543901355 L40.77082039324993,-26.04126781955419 L40.68013443662708,-26.066843904477217 L40.58772135804826,-26.08522600871417 L40.4941509148734,-26.096300800479757 L40.39999999999999,-26.1 " />
			<path d="M41.6,-24.900000000000002 L41.6,24.9 " />
			<path d="M41.6,24.9 L41.59630080047975,24.994150914873412 L41.585226008714166,25.087721358048277 L41.56684390447721,25.180134436627085 L41.541267819554186,25.270820393249938 L41.508655439013545,25.359220118838106 L41.46920782902604,25.444788599687456 L41.42316819722491,25.52699827765914 L41.370820393249936,25.60534230275097 L41.31248715872004,25.67933765799622 L41.248528137423854,25.748528137423857 L41.17933765799622,25.81248715872004 L41.10534230275097,25.870820393249936 L41.02699827765914,25.92316819722491 L40.944788599687456,25.969207829026043 L40.85922011883811,26.008655439013545 L40.770820393249934,26.041267819554186 L40.680134436627085,26.066843904477214 L40.58772135804828,26.085226008714166 L40.494150914873416,26.096300800479757 L40.4,26.1 " />
			<path d="M11.0,26.1 L40.4,26.1 " />
			<path d="M11.0,26.1 L11.0,31.1 " />
			<path d="M-11.0,31.1 L11.0,31.1 " />
			<path d="M-11.0,26.1 L-11.0,31.1 " />
			<path d="M-40.4,26.1 L-11.0,26.1 " />
			<path d="M-41.6,24.9 L-41.59630080047975,24.994150914873412 L-41.585226008714166,25.087721358048277 L-41.56684390447721,25.180134436627085 L-41.541267819554186,25.270820393249938 L-41.508655439013545,25.35922011883811 L-41.46920782902604,25.444788599687456 L-41.42316819722491,25.52699827765914 L-41.370820393249936,25.60534230275097 L-41.31248715872004,25.67933765799622 L-41.248528137423854,25.748528137423857 L-41.17933765799622,25.81248715872004 L-41.10534230275097,25.87082039324994 L-41.02699827765914,25.92316819722491 L-40.944788599687456,25.969207829026043 L-40.85922011883811,26.008655439013545 L-40.770820393249934,26.041267819554186 L-40.680134436627085,26.066843904477214 L-40.58772135804828,26.085226008714166 L-40.494150914873416,26.096300800479757 L-40.4,26.1 " />
			<path d="M-17.467529296875,5.918359375000001 L-17.38219406650002,5.95163068546293 " />
			<path d="M-17.123315799468962,6.064850514841965 L-17.103264616727266,6.074402670949146 " />
			<path d="M-16.756680319991563,6.25777094788042 L-16.71306424619852,6.283335699561783 " />
			<path d="M-16.417636572900793,6.471582411344999 L-16.394184171516223,6.487670836701644 " />
			<path d="M-16.17558379404881,6.645925200196698 L-16.055908203125004,6.739013671874997 " />
			<path d="M-18.960498046875,5.643212890624998 L-18.77747058834108,5.647167534086412 " />
			<path d="M-18.4081900551335,5.679669382535864 L-18.381711933557366,5.6832842990205625 " />
			<path d="M-18.26959819469755,5.700528074405191 L-18.114815959287096,5.729537567352312 L-17.961125072087725,5.764400752427189 " />
			<path d="M-17.915077023088926,5.776036116283047 L-17.88742001916794,5.783290257615065 " />
			<path d="M-17.69516482241367,5.839281633888993 L-17.58438556018684,5.876014999502235 " />
			<path d="M-20.838671875,6.085839843749994 L-20.69199528219464,6.012976566894809 " />
			<path d="M-20.40230838031746,5.891350076747049 L-20.31752213126676,5.8609982415559 " />
			<path d="M-19.686197108129022,5.701573388878545 L-19.545182676458698,5.680581729987706 " />
			<path d="M-19.04274097366694,5.643918647035128 L-18.960498046875003,5.643212890625001 " />
			<path d="M-21.997735827701852,7.159348180684007 L-21.96218854098419,7.102847078898445 " />
			<path d="M-21.871702198176703,6.970442655877039 L-21.803813657218342,6.88038738481337 L-21.732531481214732,6.793121482817765 " />
			<path d="M-21.626709560472737,6.675398036808396 L-21.57962445990037,6.627011608343679 " />
			<path d="M-21.53072863993715,6.57910170003215 L-21.509785044310195,6.559267343582578 " />
			<path d="M-21.3838966089322,6.447967805620086 L-21.37637303717772,6.441717340847451 " />
			<path d="M-21.276364261657122,6.362522147417318 L-21.171748950873656,6.286802804438818 L-21.06379215641162,6.215459098941685 " />
			<path d="M-20.910693704428162,6.12472091226687 L-20.838671875000003,6.085839843750003 " />
			<path d="M-22.544580078125,9.236865234374996 L-22.543795564630198,9.14899451535408 " />
			<path d="M-22.54163202838408,9.067176655022376 L-22.541631180877427,9.067152458570908 " />
			<path d="M-22.52660574411363,8.822737914519617 L-22.51999824094444,8.754187683328805 " />
			<path d="M-22.430906466057802,8.226611071029524 L-22.39572932834026,8.089367826885153 L-22.35562404741137,7.953669409913414 " />
			<path d="M-22.263822186707525,7.69568840286146 L-22.257688608430374,7.680349334876128 " />
			<path d="M-22.11630859375,11.148535156249999 L-22.189544784903802,10.98853995940681 " />
			<path d="M-22.33629646582707,10.59880222303703 L-22.344398837669285,10.573326584703452 " />
			<path d="M-22.48862903947642,9.959308692111216 L-22.497808415840296,9.898789282051426 " />
			<path d="M-22.54364424221211,9.3323038806813 L-22.544580078125,9.236865234375001 " />
			<path d="M-20.95573204403257,12.427154653660958 L-20.99198199977579,12.40600993301982 " />
			<path d="M-20.99198802580604,12.406006357392544 L-21.091409116438054,12.344150875687253 " />
			<path d="M-21.228611737991745,12.248621027690666 L-21.23677518759791,12.242533268750865 " />
			<path d="M-21.403701980778592,12.106892017213816 L-21.47457721882651,12.042204620963401 L-21.543170385677136,11.975023137346513 " />
			<path d="M-21.667758589919938,11.83997493335508 L-21.758311616196686,11.72964600879978 L-21.84355698967398,11.614720662551802 " />
			<path d="M-19.114123424186623,12.896846952776361 L-19.301974743729062,12.890156590813366 L-19.48868103856065,12.875981345021456 " />
			<path d="M-19.48874347419566,12.875975292696737 L-19.611812302793805,12.862274139810939 L-19.734129347416495,12.845037266186678 " />
			<path d="M-19.95777145543659,12.803600756686839 L-20.05755923431779,12.780716089121865 " />
			<path d="M-17.65654296875,12.651074218750004 L-17.736350972918814,12.681794734382486 " />
			<path d="M-17.964873234001956,12.756540821952923 L-17.976792570437844,12.759932120956103 " />
			<path d="M-18.310538255849192,12.836368479758834 L-18.325085906160183,12.838933076542764 " />
			<path d="M-18.64576347761598,12.880784964976657 L-18.74169253655125,12.888178059530365 L-18.83811901325812,12.893396457798604 L-18.934995106522955,12.89649003353758 L-19.032275390624996,12.897509765624996 " />
			<path d="M-16.879201943269823,12.168260479630932 L-16.89764032301083,12.185524612957408 " />
			<path d="M-17.109227974867963,12.357031257617143 L-17.128558146758987,12.370626655775903 " />
			<path d="M-17.364262677756365,12.514973320766467 L-17.372664198900353,12.519477201420775 " />
			<path d="M-17.614719839076848,12.633959964755327 L-17.656542968749996,12.651074218750002 " />
			<path d="M-16.161181640625,10.815966796874996 L-16.17306187239633,10.86128355549563 " />
			<path d="M-16.25877943749825,11.142409692260115 L-16.266598755681322,11.164815902640163 " />
			<path d="M-16.5196697032464,11.713455159277055 L-16.53537771815648,11.73939960952327 " />
			<path d="M-16.637600536224607,11.892368976205455 L-16.692333984374997,11.964404296874994 " />
			<path d="M-17.390966796875,11.428466796875 L-17.34891240533532,11.370806521015407 L-17.308639811449055,11.310148579982826 " />
			<path d="M-17.130115626116318,10.961538138237973 L-17.121714842966565,10.941195998603536 " />
			<path d="M-17.01365408241383,10.636336766259628 L-16.998583984375,10.586279296875 " />
			<path d="M-18.060888671875,11.9189453125 L-17.97024740175541,11.878239589303721 " />
			<path d="M-17.751870476409746,11.756728917240075 L-17.68382306719549,11.71013123522248 L-17.619081297317717,11.66074490872398 " />
			<path d="M-17.526778579689193,11.579755280291725 L-17.455648917124538,11.506389113513137 L-17.390966796875,11.428466796875002 " />
			<path d="M-19.027490234375,12.103173828125001 L-18.926337965744068,12.101474177803603 " />
			<path d="M-18.633312641399336,12.075956028640528 L-18.558791979507888,12.064140798910845 L-18.485026432242247,12.050129659305007 L-18.412062388227984,12.03389928622836 L-18.33994688630944,12.015430550636568 L-18.268726459548553,11.994708637587424 L-18.198446863546067,11.971723272428981 L-18.129152971935156,11.94646897477827 L-18.060888671875002,11.918945312500002 " />
			<path d="M-20.128076171875,11.909375000000004 L-20.028179798864567,11.948124324374454 " />
			<path d="M-19.746695429948,12.02952401368847 L-19.70656522901247,12.038237022246813 " />
			<path d="M-19.5213745588609,12.07045942303818 L-19.50454106504511,12.072780948729907 " />
			<path d="M-19.161909618579628,12.100948413916747 L-19.027490234375005,12.103173828125001 " />
			<path d="M-20.876953125,11.399755859374999 L-20.816989133717982,11.462928542482167 L-20.753555806862966,11.523319829326702 L-20.68676954815407,11.580902202802594 L-20.616756372516196,11.635662281986994 " />
			<path d="M-21.11266559617085,11.095116764017598 L-21.04720576429974,11.18985870441373 L-20.977068002707178,11.28188822317252 " />
			<path d="M-20.938248076907325,11.329294319418343 L-20.876953125,11.399755859374997 " />
			<path d="M-21.587548828125,9.294287109374999 L-21.586553024502482,9.38663944715594 L-21.583542140585074,9.478710341599122 L-21.578482360057627,9.57046168395532 L-21.57134193792346,9.661854226441177 " />
			<path d="M-21.544987013960466,9.883251063715736 L-21.5164471011269,10.048913462524348 " />
			<path d="M-21.499423027093524,10.13072774854812 L-21.488085315808007,10.18050717423699 " />
			<path d="M-21.44687674136562,10.339027660128147 L-21.41891881943404,10.432143222010355 L-21.38837844834955,10.524363278240079 L-21.355261610898022,10.615635399781157 L-21.319580078125,10.705908203124995 " />
			<path d="M-21.26455078125,7.724755859375001 L-21.320732376566113,7.842409331639252 L-21.370948367369714,7.963583167309198 " />
			<path d="M-21.44540214461339,8.18469014564828 L-21.484194253052124,8.331205077040908 " />
			<path d="M-20.324267578125,6.786865234375 L-20.39684482265408,6.824548991614297 " />
			<path d="M-20.566483140488053,6.9271050302399075 L-20.63702399997091,6.976603455700019 L-20.705304678990785,7.028956026358519 L-20.77123086786533,7.084120908953427 L-20.834717757586215,7.142042203322173 L-20.89569423046031,7.202653481667042 L-20.9540966264744,7.2658717105303 L-21.00987608700043,7.331604596450308 L-21.062998369533105,7.399752134977876 " />
			<path d="M-21.1925105315697,7.594069230683981 L-21.229493250259303,7.658728555330743 L-21.26455078125,7.724755859374999 " />
			<path d="M-19.013134765625,6.480615234375001 L-19.10899190285033,6.48208776956469 " />
			<path d="M-19.335792994717643,6.497610841204014 L-19.480527111974293,6.516711414753841 L-19.623894761081562,6.5430078670054215 " />
			<path d="M-19.71562077450388,6.5638121155766145 L-19.737712678422636,6.569297449756346 " />
			<path d="M-19.823674911068935,6.59242681156199 L-19.916588820590263,6.620679989752101 L-20.008574213842888,6.652064247142157 L-20.09956973678512,6.686539899559969 L-20.189518197213367,6.724059105804839 " />
			<path d="M-20.250475966511814,6.7514762141924765 L-20.324267578124996,6.786865234374998 " />
			<path d="M-17.835986328125,6.712695312499996 L-17.91605081865637,6.681516185545427 " />
			<path d="M-18.199392237288528,6.589840542012646 L-18.266388712851732,6.572340743841644 " />
			<path d="M-18.46517731060029,6.529603497301763 L-18.506816517978486,6.522370215727465 " />
			<path d="M-18.628102309173592,6.504643320762169 L-18.709414803291736,6.495517345600128 L-18.790963998474204,6.48856316869082 " />
			<path d="M-16.965087890625,7.207958984374997 L-17.033181657586653,7.150859036403065 " />
			<path d="M-17.160305410701355,7.058061565676222 L-17.17238422669696,7.0499754071202965 " />
			<path d="M-17.285148041541248,6.979258790641235 L-17.402126311767294,6.913383272628734 L-17.525047913743244,6.850519712490383 " />
			<path d="M-17.702949712309938,6.768502757907488 L-17.835986328124996,6.712695312499997 " />
			<path d="M1.0605957031250028,11.950048828124999 L0.8826230918828477,11.761614824666491 L0.7050630604641657,11.5632052206278 " />
			<path d="M0.495590206661864,11.316837371277913 L0.33325195312500167,11.117431640625002 " />
			<path d="M35.2,-26.2 L35.2,6.199999999999999 " />
			<path d="M35.2,6.199999999999999 L8.539794921875,6.199999999999999 " />
			<path d="M8.539794921875,6.5906738281249995 L8.539794921875,5.762841796875 " />
			<path d="M4.233154296875,6.5906738281249995 L8.539794921875,6.5906738281249995 " />
			<path d="M4.233154296875,8.978466796875 L4.233154296875,6.590673828125 " />
			<path d="M8.113916015625001,8.978466796875 L4.233154296875002,8.978466796875 " />
			<path d="M8.113916015625001,9.801513671875 L8.113916015625001,8.978466796875 " />
			<path d="M4.233154296875,9.801513671875 L8.113916015625,9.801513671875 " />
			<path d="M4.233154296875,11.950048828125 L4.233154296875,9.801513671875 " />
			<path d="M8.377099609375001,11.950048828125 L4.233154296875,11.950048828125 " />
			<path d="M8.377099609375001,12.777880859375 L8.377099609375001,11.950048828124999 " />
			<path d="M3.3048339843750005,12.777880859375 L8.377099609375001,12.777880859375 " />
			<path d="M3.3048339843750005,5.762841796875 L3.3048339843750005,12.777880859375 " />
			<path d="M3.3048339843750014,6.199999999999999 L2.8000000000000043,6.199999999999999 " />
			<path d="M2.8000000000000007,6.199999999999999 L2.8000000000000007,-26.2 " />
			<path d="M-16.965087890625,8.514306640625 L-19.027490234375,8.514306640625 " />
			<path d="M-19.027490234375,8.514306640625 L-19.027490234375,9.337353515624999 " />
			<path d="M-16.965087890625,7.207958984375 L-16.965087890625,8.514306640625 " />
			<path d="M-19.027490234375,9.337353515625 L-16.055908203125,9.342138671875 " />
			<path d="M-17.835986328125,6.712695312499999 L-17.69676818847656,6.77120132446289 L-17.56622314453125,6.830679321289062 L-17.444351196289062,6.8911293029785154 L-17.33115234375,6.9525512695312495 L-17.226626586914062,7.014945220947265 L-17.13077392578125,7.078311157226563 L-17.043594360351562,7.14264907836914 L-16.965087890625,7.207958984374999 " />
			<path d="M-16.055908203125,9.342138671875 L-16.055908203125,6.739013671875 " />
			<path d="M-19.013134765625,6.480615234375 L-18.862850952148438,6.484241485595703 L-18.71346435546875,6.495120239257812 L-18.564974975585937,6.513251495361327 L-18.4173828125,6.53863525390625 L-18.270687866210938,6.571271514892578 L-18.12489013671875,6.611160278320312 L-17.979989624023435,6.658301544189452 L-17.835986328125003,6.712695312499998 " />
			<path d="M-16.055908203125,6.739013671875 L-16.227650451660157,6.606861114501953 L-16.400738525390622,6.483157348632813 L-16.575172424316406,6.367902374267578 L-16.7509521484375,6.261096191406249 L-16.839346694946286,6.21086139678955 L-16.928077697753906,6.162738800048828 L-17.01714515686035,6.116728401184082 L-17.106549072265622,6.0728302001953125 L-17.196289443969725,6.031044197082519 L-17.286366271972657,5.991370391845702 L-17.376779556274414,5.953808784484863 L-17.467529296874996,5.9183593750000005 " />
			<path d="M-20.324267578125,6.786865234375 L-20.246807861328126,6.7497802734375 L-20.16875,6.715087890625 L-20.090093994140624,6.6827880859375 L-20.01083984375,6.652880859375 L-19.930987548828124,6.6253662109375 L-19.850537109375,6.600244140625 L-19.769488525390624,6.5775146484375 L-19.687841796875,6.557177734374999 L-19.605596923828127,6.539233398437499 L-19.52275390625,6.523681640625 L-19.439312744140626,6.5105224609375 L-19.3552734375,6.499755859375 L-19.270635986328127,6.491381835937499 L-19.185400390625002,6.485400390624999 L-19.099566650390624,6.4818115234375 L-19.013134765625004,6.480615234375 " />
			<path d="M-17.467529296875,5.918359375 L-17.558596801757812,5.8850408554077145 L-17.64996337890625,5.853871917724609 L-17.74162902832031,5.824852561950683 L-17.83359375,5.797982788085937 L-17.925857543945312,5.773262596130371 L-18.01842041015625,5.750691986083984 L-18.111282348632812,5.730270957946777 L-18.204443359375,5.71199951171875 L-18.29790344238281,5.695877647399902 L-18.39166259765625,5.681905364990234 L-18.485720825195312,5.670082664489746 L-18.580078125,5.660409545898437 L-18.67473449707031,5.652886009216308 L-18.76968994140625,5.647512054443359 L-18.864944458007812,5.6442876815795895 L-18.960498046874996,5.643212890625 " />
			<path d="M-21.26455078125,7.724755859375 L-21.22302646636963,7.647071838378906 L-21.179203033447266,7.571929931640625 L-21.13308048248291,7.499330139160156 L-21.084658813476565,7.4292724609375 L-21.033938026428224,7.361756896972656 L-20.980918121337893,7.296783447265625 L-20.925599098205566,7.234352111816406 L-20.86798095703125,7.174462890625 L-20.80806369781494,7.117115783691406 L-20.745847320556642,7.062310791015625 L-20.681331825256347,7.010047912597656 L-20.614517211914062,6.9603271484375 L-20.545403480529785,6.913148498535156 L-20.473990631103515,6.868511962890625 L-20.40027866363525,6.826417541503906 L-20.324267578125003,6.786865234375002 " />
			<path d="M-18.960498046875,5.643212890625 L-19.088958930969238,5.644941902160644 L-19.215943145751954,5.650128936767578 L-19.341450691223145,5.6587739944458 L-19.465481567382813,5.670877075195312 L-19.588035774230956,5.686438179016113 L-19.709113311767577,5.705457305908203 L-19.828714179992676,5.727934455871582 L-19.94683837890625,5.75386962890625 L-20.0634859085083,5.783262825012207 L-20.178656768798827,5.816114044189453 L-20.29235095977783,5.852423286437988 L-20.404568481445313,5.892190551757812 L-20.51530933380127,5.935415840148925 L-20.624573516845704,5.982099151611328 L-20.732361030578613,6.032240486145019 L-20.838671874999996,6.085839843749998 " />
			<path d="M-21.587548828125,9.294287109375 L-21.586287117004396,9.1782470703125 L-21.58250198364258,9.064599609375 L-21.576193428039552,8.9533447265625 L-21.567361450195314,8.844482421875 L-21.556006050109865,8.7380126953125 L-21.542127227783205,8.633935546875 L-21.525724983215333,8.5322509765625 L-21.50679931640625,8.432958984375 L-21.48535022735596,8.3360595703125 L-21.461377716064455,8.241552734375 L-21.43488178253174,8.1494384765625 L-21.405862426757814,8.059716796875 L-21.374319648742677,7.9723876953125 L-21.34025344848633,7.887451171875 L-21.30366382598877,7.8049072265624995 L-21.26455078125,7.724755859375002 " />
			<path d="M-20.838671875,6.08583984375 L-20.942627525329588,6.1427103042602536 L-21.04334945678711,6.202664947509765 L-21.14083766937256,6.265703773498535 L-21.235092163085938,6.331826782226562 L-21.326112937927245,6.401033973693847 L-21.413899993896486,6.47332534790039 L-21.49845333099365,6.548700904846191 L-21.57977294921875,6.62716064453125 L-21.657858848571777,6.708704566955566 L-21.732711029052737,6.79333267211914 L-21.804329490661623,6.881044960021972 L-21.87271423339844,6.971841430664062 L-21.937865257263184,7.06572208404541 L-21.99978256225586,7.162686920166015 L-22.058466148376468,7.2627359390258786 L-22.113916015624998,7.365869140624996 " />
			<path d="M-21.319580078125,10.705908203125 L-21.352029418945314,10.624130630493164 L-21.38238525390625,10.541493225097657 L-21.410647583007812,10.457995986938476 L-21.43681640625,10.373638916015626 L-21.460891723632812,10.288422012329102 L-21.48287353515625,10.202345275878907 L-21.502761840820312,10.11540870666504 L-21.520556640625003,10.027612304687501 L-21.536257934570315,9.93895606994629 L-21.54986572265625,9.849440002441407 L-21.561380004882814,9.759064102172852 L-21.57080078125,9.667828369140626 L-21.578128051757815,9.575732803344728 L-21.583361816406253,9.482777404785157 L-21.586502075195312,9.388962173461914 L-21.587548828125,9.294287109375004 " />
			<path d="M-22.113916015625,7.365869140625 L-22.16606674194336,7.471310806274413 L-22.21485290527344,7.578285217285156 L-22.260274505615236,7.686792373657227 L-22.30233154296875,7.796832275390624 L-22.341024017333986,7.908404922485351 L-22.37635192871094,8.021510314941406 L-22.40831527709961,8.136148452758789 L-22.4369140625,8.2523193359375 L-22.46214828491211,8.370022964477538 L-22.48401794433594,8.489259338378906 L-22.502523040771486,8.6100284576416 L-22.51766357421875,8.732330322265625 L-22.529439544677736,8.856164932250977 L-22.53785095214844,8.981532287597656 L-22.54289779663086,9.108432388305664 L-22.544580078125,9.236865234374994 " />
			<path d="M-20.876953125,11.399755859375 L-20.946150970458984,11.31982879638672 L-21.011386108398437,11.237957763671876 L-21.07265853881836,11.154142761230469 L-21.12996826171875,11.068383789062501 L-21.18331527709961,10.980680847167969 L-21.232699584960937,10.891033935546876 L-21.278121185302734,10.79944305419922 L-21.319580078125,10.705908203125002 " />
			<path d="M-22.544580078125,9.236865234375 L-22.542907142639162,9.364335441589356 L-22.53788833618164,9.490740203857422 L-22.529523658752442,9.616079521179199 L-22.517813110351565,9.740353393554688 L-22.502756690979005,9.863561820983888 L-22.484354400634768,9.985704803466797 L-22.46260623931885,10.106782341003418 L-22.43751220703125,10.226794433593751 L-22.409072303771975,10.345741081237794 L-22.377286529541017,10.463622283935548 L-22.342154884338377,10.580438041687012 L-22.303677368164063,10.696188354492188 L-22.261853981018067,10.810873222351075 L-22.21668472290039,10.924492645263673 L-22.168169593811033,11.037046623229982 L-22.116308593750002,11.148535156249997 " />
			<path d="M-20.128076171875,11.909375 L-20.241312408447268,11.859018707275391 L-20.348941040039065,11.804849243164062 L-20.45096206665039,11.746866607666016 L-20.54737548828125,11.68507080078125 L-20.638181304931642,11.619461822509766 L-20.72337951660156,11.550039672851563 L-20.802970123291015,11.47680435180664 L-20.876953125,11.399755859375002 " />
			<path d="M-22.11630859375,11.14853515625 L-22.0613073348999,11.257705879211427 L-22.00337142944336,11.363306427001953 L-21.94250087738037,11.465336799621582 L-21.878695678710937,11.563796997070312 L-21.811955833435057,11.658687019348145 L-21.742281341552733,11.750006866455077 L-21.669672203063964,11.837756538391114 L-21.594128417968747,11.92193603515625 L-21.51564998626709,12.002545356750488 L-21.434236907958983,12.079584503173827 L-21.349889183044432,12.153053474426269 L-21.262606811523437,12.222952270507811 L-21.172389793395993,12.289280891418457 L-21.07923812866211,12.352039337158203 L-20.983151817321776,12.41122760772705 L-20.884130859375002,12.466845703124998 " />
			<path d="M-19.027490234375,12.103173828125001 L-19.183905029296877,12.100145721435549 L-19.3349365234375,12.091061401367188 L-19.480584716796876,12.075920867919923 L-19.620849609375,12.054724121093752 L-19.755731201171876,12.027471160888673 L-19.8852294921875,11.994161987304688 L-20.009344482421877,11.954796600341798 L-20.128076171874998,11.909375 " />
			<path d="M-20.884130859375,12.466845703125 L-20.78268928527832,12.518996429443359 L-20.679341125488282,12.567782592773437 L-20.574086380004882,12.613204193115234 L-20.466925048828124,12.65526123046875 L-20.357857131958006,12.693953704833984 L-20.24688262939453,12.729281616210937 L-20.134001541137696,12.761244964599609 L-20.0192138671875,12.78984375 L-19.902519607543944,12.815077972412109 L-19.78391876220703,12.836947631835937 L-19.663411331176757,12.855452728271484 L-19.540997314453126,12.87059326171875 L-19.416676712036132,12.882369232177734 L-19.29044952392578,12.890780639648437 L-19.16231575012207,12.895827484130859 L-19.032275390625003,12.897509765625 " />
			<path d="M-18.060888671875,11.9189453125 L-18.171246337890622,11.96212387084961 L-18.2845947265625,11.999545288085939 L-18.400933837890626,12.031209564208986 L-18.520263671875,12.057116699218751 L-18.642584228515624,12.077266693115236 L-18.7678955078125,12.09165954589844 L-18.896197509765628,12.10029525756836 L-19.027490234374998,12.103173828125001 " />
			<path d="M-19.032275390625,12.897509765625 L-18.84434585571289,12.893659210205078 L-18.660977172851563,12.882107543945311 L-18.57100315093994,12.873443794250488 L-18.482169342041015,12.862854766845702 L-18.394475746154786,12.850340461730957 L-18.30792236328125,12.83590087890625 L-18.22250919342041,12.819536018371581 L-18.138236236572265,12.801245880126952 L-18.055103492736816,12.781030464172364 L-17.973110961914063,12.758889770507812 L-17.892258644104004,12.7348237991333 L-17.81254653930664,12.708832550048829 L-17.733974647521972,12.680916023254396 L-17.656542968750003,12.651074218750002 " />
			<path d="M-17.390966796875,11.428466796875 L-17.452725219726563,11.503122711181641 L-17.52076416015625,11.573965454101563 L-17.59508361816406,11.640995025634766 L-17.67568359375,11.70421142578125 L-17.76256408691406,11.763614654541016 L-17.85572509765625,11.819204711914063 L-17.955166625976563,11.870981597900391 L-18.060888671874995,11.9189453125 " />
			<path d="M-17.65654296875,12.65107421875 L-17.580718803405762,12.619512748718263 L-17.506969451904297,12.586437225341797 L-17.435294914245606,12.551847648620607 L-17.365695190429687,12.515744018554688 L-17.298170280456542,12.478126335144044 L-17.232720184326173,12.438994598388673 L-17.169344902038574,12.398348808288574 L-17.10804443359375,12.35618896484375 L-17.0488187789917,12.3125150680542 L-16.99166793823242,12.267327117919923 L-16.93659191131592,12.220625114440917 L-16.883590698242188,12.172409057617188 L-16.832664299011228,12.12267894744873 L-16.783812713623046,12.071434783935546 L-16.737035942077636,12.018676567077636 L-16.692333984374997,11.964404296875001 " />
			<path d="M-16.998583984375,10.586279296875 L-17.0392578125,10.7166748046875 L-17.08232421875,10.839892578125001 L-17.127783203125,10.9559326171875 L-17.175634765625,11.064794921875 L-17.22587890625,11.1664794921875 L-17.278515625,11.260986328125 L-17.333544921875,11.348315429687501 L-17.390966796875,11.428466796874998 " />
			<path d="M-16.692333984374997,11.964404296875 L-16.6493236541748,11.908328247070312 L-16.607621765136717,11.85015869140625 L-16.56722831726074,11.789895629882812 L-16.528143310546874,11.7275390625 L-16.490366744995114,11.663088989257812 L-16.453898620605468,11.59654541015625 L-16.418738937377928,11.527908325195312 L-16.3848876953125,11.457177734375 L-16.35234489440918,11.384353637695312 L-16.32111053466797,11.30943603515625 L-16.262567138671873,11.1533203125 L-16.209257507324217,10.98883056640625 L-16.161181640625,10.815966796875003 " />
			<path d="M-16.161181640625,10.815966796875 L-16.998583984375,10.586279296874999 " />
			<path d="M-10.342431640625001,5.762841796875 L-14.725634765625003,5.762841796875 " />
			<path d="M-14.725634765625001,5.762841796875 L-14.725634765625001,12.777880859375 " />
			<path d="M-10.342431640625001,6.5906738281249995 L-10.342431640625001,5.762841796875 " />
			<path d="M-14.725634765625001,12.777880859375 L-13.797314453125,12.777880859375 " />
			<path d="M-13.797314453125,6.5906738281249995 L-10.342431640625001,6.5906738281249995 " />
			<path d="M-13.797314453125,12.777880859375 L-13.797314453125,6.590673828124999 " />
			<path d="M-9.021728515625,5.762841796875 L-10.007470703125,5.762841796875 " />
			<path d="M-10.007470703125001,5.762841796875 L-7.313427734375001,12.777880859375001 " />
			<path d="M-8.251318359375,7.887451171875 L-9.021728515625,5.762841796875 " />
			<path d="M-7.313427734375001,12.777880859375 L-6.313330078125,12.777880859375 " />
			<path d="M-5.3180175781250005,7.887451171875 L-8.251318359375,7.887451171875 " />
			<path d="M-6.313330078125,12.777880859375 L-3.4422363281250004,5.762841796874999 " />
			<path d="M-4.499755859375,5.762841796875 L-5.3180175781250005,7.887451171875 " />
			<path d="M-3.4422363281250004,5.762841796875 L-4.499755859375,5.762841796875 " />
			<path d="M2.285595703125001,5.762841796875 L-3.260400390625,5.762841796875 " />
			<path d="M-3.2604003906249996,5.762841796875 L-3.2604003906249996,6.624169921875 " />
			<path d="M2.285595703125001,6.5906738281249995 L2.285595703125001,5.762841796875 " />
			<path d="M-3.2604003906249996,6.624169921875 L0.3332519531250009,11.117431640625 " />
			<path d="M-2.193310546875,6.5906738281249995 L2.2855957031250007,6.5906738281249995 " />
			<path d="M0.3332519531250009,11.117431640625 L0.5222656250000007,11.34891357421875 L0.7064941406250006,11.56484375 L0.8859375000000006,11.76522216796875 L1.060595703124999,11.950048828124999 " />
			<path d="M-1.7674316406249995,7.083544921874999 L-2.193310546875,6.5906738281249995 " />
			<path d="M1.0605957031250006,11.950048828125 L-2.8536621093749996,11.950048828125 " />
			<path d="M2.170751953125001,11.950048828125 L-1.767431640625,7.083544921874999 " />
			<path d="M-2.8536621093749996,11.950048828125 L-2.8536621093749996,12.777880859375 " />
			<path d="M2.170751953125001,12.777880859375 L2.170751953125001,11.950048828124999 " />
			<path d="M-2.8536621093749996,12.777880859375 L2.1707519531250004,12.777880859375 " />
			<path d="M-26.0,17.0 L-26.00395301386349,17.19878257548463 L-26.015805804926522,17.39725083485857 L-26.03553963149013,17.595090959009525 L-26.063123290318334,17.791990122036076 L-26.09851316597682,17.987636985889765 L-26.14165329979795,18.181722192664523 L-26.192475478362898,18.373938853755128 L-26.250899341361087,18.563983035111136 L-26.31683250865636,18.75155423781912 L-26.390170726358967,18.936355873253206 L-26.470798031672384,19.11809573204264 L-26.55858693625434,19.29648644611489 L-26.653398627802087,19.471245943083616 L-26.755083189543182,19.6420978922631 L-26.863479837284714,19.808772141603853 L-26.97841717364618,19.97100514485855 L-27.09971345907394,20.1285403783028 L-27.22717689920885,20.28112874635188 L-27.360605948152532,20.428528975432066 L-27.499789627152875,20.570507995483748 L-27.64450785820482,20.706841308493093 L-27.7945318120389,20.83731334346954 L-27.94962426994738,20.961717797307873 L-28.10953999887576,21.079857960995806 L-28.274026139186663,21.191547030651385 L-28.442822604482892,21.296608402898308 L-28.61566249285747,21.39487595411217 L-28.79227250892044,21.486194303096063 L-28.97237339593503,21.570419056770174 L-29.155680377379962,21.647417038486935 L-29.34190360723966,21.717066498610674 L-29.530748628310395,21.779257307028804 L-29.721916837797625,21.833891127290187 L-29.91510595946841,21.880881572095255 L-30.110010521612246,21.920154339892104 L-30.306322340054656,21.95164733236251 L-30.503731005459688,21.97531075261214 L-30.7019243741509,21.991107183909666 L-30.900589061674644,21.999011648850328 L-31.099410938325345,21.999011648850328 L-31.298075625849094,21.991107183909666 L-31.4962689945403,21.97531075261214 L-31.693677659945337,21.951647332362512 L-31.889989478387744,21.920154339892104 L-32.08489404053158,21.880881572095255 L-32.278083162202364,21.833891127290187 L-32.469251371689595,21.779257307028807 L-32.65809639276033,21.717066498610677 L-32.844319622620034,21.64741703848694 L-33.02762660406496,21.570419056770177 L-33.20772749107955,21.486194303096063 L-33.384337507142526,21.394875954112173 L-33.55717739551711,21.296608402898308 L-33.72597386081333,21.191547030651385 L-33.89046000112424,21.07985796099581 L-34.05037573005262,20.961717797307873 L-34.205468187961095,20.837313343469543 L-34.35549214179518,20.706841308493093 L-34.50021037284712,20.57050799548375 L-34.63939405184747,20.428528975432066 L-34.77282310079115,20.28112874635188 L-34.90028654092606,20.1285403783028 L-35.02158282635382,19.97100514485855 L-35.136520162715286,19.808772141603853 L-35.24491681045682,19.642097892263095 L-35.34660137219791,19.471245943083613 L-35.44141306374566,19.296486446114887 L-35.52920196832762,19.118095732042637 L-35.60982927364103,18.936355873253202 L-35.68316749134364,18.751554237819118 L-35.749100658638916,18.563983035111132 L-35.807524521637106,18.37393885375512 L-35.85834670020205,18.18172219266452 L-35.90148683402318,17.987636985889758 L-35.93687670968167,17.79199012203607 L-35.96446036850987,17.595090959009514 L-35.98419419507348,17.397250834858564 L-35.99604698613651,17.198782575484618 L-36.0,16.99999999999999 L-35.996046986136506,16.80121742451536 L-35.98419419507348,16.602749165141418 L-35.96446036850986,16.404909040990464 L-35.93687670968166,16.208009877963914 L-35.901486834023174,16.012363014110225 L-35.85834670020205,15.81827780733546 L-35.8075245216371,15.626061146244858 L-35.74910065863891,15.43601696488885 L-35.68316749134363,15.248445762180863 L-35.609829273641026,15.063644126746778 L-35.52920196832761,14.881904267957344 L-35.44141306374565,14.703513553885095 L-35.3466013721979,14.52875405691637 L-35.24491681045681,14.357902107736885 L-35.13652016271527,14.191227858396129 L-35.02158282635381,14.02899485514143 L-34.90028654092605,13.871459621697184 L-34.772823100791136,13.718871253648105 L-34.639394051847454,13.571471024567916 L-34.50021037284711,13.429492004516234 L-34.35549214179517,13.293158691506893 L-34.20546818796108,13.162686656530445 L-34.0503757300526,13.038282202692114 L-33.890460001124225,12.92014203900418 L-33.72597386081332,12.808452969348604 L-33.55717739551709,12.703391597101682 L-33.384337507142504,12.60512404588782 L-33.20772749107954,12.513805696903926 L-33.02762660406494,12.429580943229816 L-32.84431962262001,12.352582961513054 L-32.658096392760314,12.282933501389317 L-32.46925137168957,12.220742692971188 L-32.27808316220234,12.166108872709806 L-32.08489404053156,12.11911842790474 L-31.88998947838772,12.07984566010789 L-31.69367765994531,12.048352667637486 L-31.496268994540277,12.02468924738786 L-31.298075625849066,12.008892816090333 L-31.099410938325317,12.000988351149672 L-30.900589061674616,12.000988351149672 L-30.701924374150867,12.008892816090338 L-30.503731005459656,12.024689247387865 L-30.30632234005462,12.048352667637495 L-30.11001052161221,12.079845660107903 L-29.915105959468374,12.119118427904754 L-29.72191683779759,12.166108872709824 L-29.530748628310356,12.220742692971207 L-29.341903607239622,12.28293350138934 L-29.155680377379923,12.352582961513079 L-28.972373395934994,12.429580943229844 L-28.7922725089204,12.513805696903958 L-28.61566249285743,12.605124045887852 L-28.442822604482853,12.703391597101717 L-28.274026139186624,12.808452969348641 L-28.10953999887572,12.92014203900422 L-27.949624269947343,13.038282202692155 L-27.794531812038862,13.16268665653049 L-27.644507858204783,13.29315869150694 L-27.49978962715284,13.429492004516284 L-27.360605948152497,13.57147102456797 L-27.227176899208818,13.718871253648159 L-27.099713459073907,13.87145962169724 L-26.978417173646147,14.028994855141487 L-26.863479837284686,14.191227858396188 L-26.755083189543154,14.357902107736948 L-26.653398627802062,14.52875405691643 L-26.558586936254315,14.703513553885157 L-26.47079803167236,14.881904267957408 L-26.390170726358946,15.063644126746844 L-26.31683250865634,15.24844576218093 L-26.25089934136107,15.436016964888918 L-26.192475478362883,15.626061146244927 L-26.141653299797937,15.81827780733553 L-26.098513165976808,16.012363014110292 L-26.063123290318323,16.20800987796398 L-26.035539631490124,16.404909040990535 L-26.015805804926515,16.60274916514149 L-26.003953013863487,16.801217424515432 L-26.0,17.00000000000006 " />
			<path d="M2.8000000000000007,-26.2 L35.2,-26.2 " />
			<path d="M4.0,-25.0 L34.0,-25.0 " />
			<path d="M4.0,5.0 L4.0,-25.0 " />
			<path d="M34.0,-25.0 L34.0,5.0 " />
			<path d="M34.0,5.0 L4.0,5.0 " />
			<path d="M8.539794921875,5.762841796875 L3.3048339843749996,5.762841796875 " />
			<path d="M-7.212939453125001,10.701123046875 L-7.983349609375002,8.643505859375 " />
			<path d="M-7.983349609375001,8.643505859375 L-5.6051269531250005,8.643505859375 " />
			<path d="M-5.6051269531250005,8.643505859375 L-6.337255859375,10.586279296875002 " />
			<path d="M-6.337255859375,10.586279296875 L-6.493969726562501,11.00916748046875 L-6.629150390625,11.392578125 L-6.688665771484375,11.569479370117188 L-6.742797851562501,11.73651123046875 L-6.791546630859376,11.893673706054688 L-6.834912109375,12.040966796874997 " />
			<path d="M-6.834912109375001,12.040966796875 L-6.870127868652345,11.872439575195314 L-6.908782958984376,11.70421142578125 L-6.950877380371095,11.536282348632813 L-6.996411132812501,11.36865234375 L-7.0453842163085945,11.201321411132813 L-7.097796630859376,11.03428955078125 L-7.153648376464845,10.867556762695314 L-7.212939453125,10.701123046875004 " />
			<path d="M-6.834912109374997,12.040966796875004 L-6.791351307852787,11.893028110901755 " />
			<path d="M-6.620968161586138,11.368710969368065 L-6.5081322626411096,11.048384185883103 " />
			<path d="M-6.409059185942861,10.777742102596793 L-6.3372558593749995,10.586279296875002 " />
			<path d="M-7.1447646049015265,10.893385195788975 L-7.075212814801146,11.104887380916178 L-7.01096875973169,11.317635434901698 " />

       </g>
    </g>
    
</svg>
